<?xml version="1.0" encoding="UTF-8"?>
<svg xmlns="http://www.w3.org/2000/svg" version="1.1" viewBox="0 0 490.98 494.74">
  <defs>
    <style>
      .cls-1 {
        fill: #514f4c;
      }

      .cls-2 {
        fill: #a78c79;
      }
    </style>
  </defs>
  <!-- Generator: Adobe Illustrator 28.6.0, SVG Export Plug-In . SVG Version: 1.2.0 Build 709)  -->
  <g>
    <g id="Layer_1">
      <g>
        <g>
          <path class="cls-2" d="M300.85,89.32c2.2,2.5,4.61,4.82,7.21,6.89,9,7.18,19.22,10.06,30.58,10.95,11.37.89,22.77.32,34.16.33,11.49,0,22.5,1.12,33.7,3.66,7.42,1.68,13.95,4.6,20.88,7.58,4.21,1.81,8.24,3.76,12.81,4.56-.56-2.25-1.95-4.2-3.42-5.98-2.44-2.95-5.21-5.65-8.38-7.79-6.72-4.55-14.67-6.15-22.34-8.29-4.18-1.17-8.52-2.37-12.79-3.16,0,0-.13-.02-.13-.03-12.96-2.5-25.98-4.92-38.19-10.01l-.12-.05s-.09-.05-.09-.05c-6.51-3.41-12.22-7.37-17.28-12.76-6.65-7.1-12.75-15.46-17.18-24.13-1.17-2.3-1.91-5.32-3.99-7.1-2.96-2.53-6.8-.88-9.48,1.22-5.23,4.1-9.88,8.89-14.56,13.59l-.02.02-.03.03s-4.67,4.91-4.86,5.12c-.62.65,2.65,7.7,3.04,8.64,2.55,6.05,6.09,11.77,10.47,16.76Z"/>
          <path class="cls-2" d="M418.04,138.43c-1.52-5.35-5-6.88-7.72-12.2-2.2,1.42-3.13,2.47-3.96,3.11-29.61,22.77-56.68,37.69-88.62,56.83-10.11,6.05-19.54,12.98-28.32,20.88-10.1,9.07-22.14,20.69-24.23,34.38-.88,5.78-1.76,11.71,1.28,18.95,3.38-4.21,6.01-10.77,8.66-14.06,13.32-16.55,29.89-28.1,48.14-38.67,26.63-15.43,57.9-27.94,81.18-48.25,1-.87,2.31-1.38,3.43-2.03,3.93,5.04,2.48,12.73-2.17,16.54-9.04,7.4-18.7,18.29-28.47,24.57-19.68,12.64-39,24.68-59.02,36.8-16.02,9.7-29.79,14.33-41.41,29.26-6.65,8.55-11.4,17.85-11.57,29.1-.19,12.77-1.05,25.52-1.08,38.29-.01,5.66-2.89,8.39-7.59,7.94-8.36-.81-16.83-2.04-24.86-4.42-9.67-2.86-15.48-9.82-13.82-20.42.61-3.88,1.26-7.76,1.95-11.64,12.35-16.62,18.76-39.49,19.58-60.45.13-3.23-.1-6.43-.62-9.57-.34-2.08-.82-4.13-1.4-6.15-3.56,13.66-6.53,27.79-11.84,40.84-1.66,4.76-4.47,9.1-7.4,12.58-7.97,9.44-18.35,18.05-27.48,25.88-7.73,6.63-15.93,11.2-25.02,15.02-10.13,4.25-21.14,4.66-31.81,4.66l-9.65-.52c3.63,2.72,22.14,8.55,33.68,9.26,11.01.68,20.95-1.04,31.03-6.16,5.44-2.77,10.68-6.07,15.59-9.91.16,3.15.27,6.3.49,9.44,3.07,43.46,46.61,37.07,66.88,29.29,22.43-8.61,32.5-21.64,34.81-46.71.87-9.4,0-12.89-2.83-23.12-11.66,12.26-16.78,14.63-33.17,18.8,1.41-2.6,2.33-5.68,4.32-7.73,8.23-8.5,15.86-18,25.41-24.7,32.43-22.74,66.65-42.83,98.81-65.92,8.46-6.08,16.2-13.67,18.75-23.97,3.76-15.18,4.37-30.64.07-45.8Z"/>
        </g>
        <g>
          <path class="cls-1" d="M153.32,277.29c12.06-25.7,9.65-54.16,8.35-108.46-.26-10.93-.74-104.21-5.11-99.78-4.37,4.43-8.68,9.19-10.62,11.02-5.41,5.1-6.69,8.43-6.54,18.19.07,5.12,9.2,113.75,6.7,149.75-1.06,15.26-3.53,27.6-11,36.58-5.62,6.74-15.61,7.56-23.73,6.82-9.85-.9-19.67-3.69-28.2-8.76-9.22-5.48-13.47-12.77-16.46-22.9-2.16-7.3-2.44-15.25,1.06-22.2,7.62-15.1,30.06-19.71,45.36-19.56,5.57.05,10.96.81,15.99,2.15-7.6-3.78-17.44-5.96-28.18-5.73-10.46.23-14.78.9-27.32,6.64-29.44,13.47-36.95,53.21-9.43,77.65,19.54,17.36,42.8,23.72,65.02,9.76,13.35-8.39,16.89-15.72,24.14-31.17Z"/>
          <path class="cls-1" d="M369.22,59.25c12.42-2.63,22.37-1.97,29.74,2.17,8.07,4.54,16.18,17.35-.2,36.25h-.04s0,0,0,.01l14.08,3.37c5.46-8,11.82-15.84,13.73-29.1.84-5.81.03-11.46-3.52-15.53-3.14-3.61-11.59-10.85-32.49-8.16-19.96,2.57-37.99,8.82-55.85,17.82l3.65,4.57c7.24-3.88,18.56-8.78,30.9-11.4Z"/>
          <path class="cls-1" d="M118.3,322.35s13.28,11.44,35.71,7.19c8.63-1.63,25.09-6.7,36.16-15.06,30.01-22.63,42.7-48.89,50.24-85.98,2.48-12.19,3.72-25.32,3.68-39.47,0,1.67,16.88,3.36,18.15,3.45,16.26,1.23,31.66-4.26,45.7-12.3,16.1-9.21,31.88-19.12,47.28-29.47.48-.32.96-.65,1.45-.97,7.32-4.95,14.66-9.87,21.76-15.13,4.61-3.42,8.93-7.21,13.25-10.98,1.7-1.48,3.52-2.96,5.17-4.56,1.74-1.69,5.54-5.28,7.19-7.05-.84-.57-4.52-.47-5.5-.57-1.12-.11-2.24-.17-3.36-.28-1.34-.14-2.68-.27-4.03-.41s-2.64-.56-3.81.17c-.89.56-1.51,1.45-2.36,2.06-10.4,7.44-20.5,14.93-31.79,20.96-11.42,6.1-23.5,11.03-36.04,14.29-14.76,3.84-30.55,4.63-39.31-6.63-14.02-18.03,8.45-37.72,24.07-47.59.03.04.06.07.09.1l-3.56-4.52c-.07.05-.03-.03-.03-.03,0,0-32.89,18.08-37.53,43.25-2.24,12.18,1.06,26.26,9.22,34.29,8.7,8.57,22.92,10.11,22.92,10.11-10,6.87-27.24,12.94-43.79-7.27,0,0-5.43-6.27-5.62-29.68-.19-23.4,1.6-97.59,1.6-97.59,0,0-18.6,15.61-21.93,30.69-3.36,15.06,2.97,131.36-3.2,164.43-3.44,18.42-14.54,48.37-31.75,66.96-13.11,14.16-42.19,27.08-66.68,18.35"/>
          <path class="cls-1" d="M124.69,324.27c-.11-.04-.21-.09-.32-.13,0,0,23.32-.45,42.48-15.46,17.4-13.63,26.32-39.43,30.37-72.82,6.53-53.92,5.01-142.78,5.01-142.78,0,0-8.98,6.04-12.28,8.84-6.78,5.76-9.66,8.94-9.85,20.08-.11,6.54,2.85,95.32-3.11,132.1-.67,4.14-2.51,13.93-5.91,21.72-4.65,10.64-9.87,22.49-23.66,34.59-6.51,5.72-14.99,10.23-26.08,12.96"/>
        </g>
      </g>
      <g>
        <path class="cls-1" d="M38.71,419.1v-18.8h2.2l8.43,14.21h-1.18l8.32-14.21h2.2l.03,18.8h-2.58l-.03-14.74h.62l-7.41,12.46h-1.24l-7.47-12.46h.67v14.74h-2.58Z"/>
        <path class="cls-1" d="M86.88,419.32c-1.43,0-2.76-.24-3.99-.72-1.23-.48-2.29-1.16-3.18-2.03-.9-.87-1.59-1.88-2.09-3.05-.5-1.16-.75-2.43-.75-3.81s.25-2.65.75-3.81c.5-1.16,1.2-2.18,2.09-3.05.9-.87,1.95-1.54,3.17-2.03,1.22-.48,2.55-.72,4-.72s2.75.24,3.96.71,2.26,1.15,3.17,2.01c.9.87,1.6,1.88,2.09,3.05.49,1.16.74,2.44.74,3.84s-.25,2.68-.74,3.84c-.49,1.16-1.19,2.18-2.09,3.05-.9.87-1.96,1.54-3.17,2.01-1.21.47-2.53.71-3.96.71ZM86.88,416.93c1.04,0,2-.18,2.89-.54s1.66-.86,2.31-1.52c.65-.65,1.16-1.42,1.53-2.3.37-.88.55-1.83.55-2.87s-.18-2-.55-2.87c-.37-.88-.88-1.64-1.53-2.3-.65-.65-1.42-1.16-2.31-1.52-.89-.36-1.85-.54-2.89-.54s-2.03.18-2.91.54c-.89.36-1.66.86-2.32,1.52-.66.65-1.18,1.42-1.54,2.3-.37.88-.55,1.84-.55,2.87s.18,2,.55,2.87c.37.88.88,1.64,1.54,2.3.66.65,1.44,1.16,2.32,1.52s1.86.54,2.91.54Z"/>
        <path class="cls-1" d="M117.68,419.1h-2.69v-18.8h2.69v18.8ZM128.72,410.72h-11.31v-2.34h11.31v2.34ZM128.48,400.3h2.69v18.8h-2.69v-18.8Z"/>
        <path class="cls-1" d="M148,419.1l8.51-18.8h2.66l8.54,18.8h-2.82l-7.6-17.29h1.07l-7.6,17.29h-2.77ZM151.63,414.4l.73-2.15h10.58l.78,2.15h-12.08Z"/>
        <path class="cls-1" d="M184.55,419.1v-18.8h2.2l8.43,14.21h-1.18l8.32-14.21h2.2l.03,18.8h-2.58l-.03-14.74h.62l-7.41,12.46h-1.24l-7.47-12.46h.67v14.74h-2.58Z"/>
        <path class="cls-1" d="M226.92,416.77h10.96v2.34h-13.64v-18.8h13.27v2.34h-10.58v14.13ZM226.68,408.41h9.67v2.28h-9.67v-2.28Z"/>
        <path class="cls-1" d="M256.28,419.1v-18.8h7.92c2,0,3.77.39,5.3,1.18,1.53.79,2.72,1.89,3.57,3.3.85,1.42,1.28,3.05,1.28,4.91s-.43,3.5-1.28,4.92c-.85,1.41-2.04,2.52-3.57,3.3-1.53.79-3.3,1.18-5.3,1.18h-7.92ZM258.96,416.77h5.08c1.56,0,2.91-.3,4.04-.89s2.02-1.42,2.65-2.48c.63-1.07.94-2.3.94-3.69s-.31-2.65-.94-3.71c-.63-1.06-1.51-1.88-2.65-2.47s-2.48-.89-4.04-.89h-5.08v14.13Z"/>
        <path class="cls-1" d="M316.46,419.1h-2.69v-18.8h2.69v18.8ZM327.49,410.72h-11.31v-2.34h11.31v2.34ZM327.25,400.3h2.68v18.8h-2.68v-18.8Z"/>
        <path class="cls-1" d="M349.62,419.1v-18.8h2.69v18.8h-2.69Z"/>
        <path class="cls-1" d="M371.99,419.1v-18.8h2.69v16.46h10.18v2.34h-12.86Z"/>
        <path class="cls-1" d="M399.14,419.1l8.51-18.8h2.66l8.54,18.8h-2.82l-7.6-17.29h1.07l-7.6,17.29h-2.77ZM402.76,414.4l.72-2.15h10.58l.78,2.15h-12.08Z"/>
        <path class="cls-1" d="M435.69,419.1v-18.8h2.69v16.46h10.18v2.34h-12.86Z"/>
        <path class="cls-1" d="M173.85,461.95c-1.45,0-2.78-.24-4-.71-1.22-.47-2.27-1.15-3.17-2.01-.9-.87-1.59-1.88-2.09-3.05-.5-1.16-.75-2.44-.75-3.84s.25-2.68.75-3.84c.5-1.16,1.2-2.18,2.11-3.05.9-.87,1.96-1.54,3.18-2.01,1.22-.47,2.56-.71,4.03-.71s2.85.24,4.08.72,2.28,1.21,3.14,2.18l-1.67,1.67c-.77-.75-1.61-1.3-2.51-1.65-.9-.35-1.88-.52-2.94-.52s-2.07.18-2.99.54c-.92.36-1.72.86-2.39,1.5s-1.19,1.41-1.56,2.3c-.37.89-.55,1.85-.55,2.89s.18,1.97.55,2.86c.37.89.89,1.66,1.56,2.31s1.46,1.16,2.38,1.52,1.91.54,2.98.54c1,0,1.96-.16,2.89-.47.92-.31,1.78-.84,2.56-1.57l1.53,2.04c-.93.79-2.02,1.38-3.26,1.79-1.24.4-2.53.6-3.85.6ZM178.39,459.21v-6.98h2.58v7.33l-2.58-.35Z"/>
        <path class="cls-1" d="M200.14,461.73v-18.8h7.33c1.65,0,3.05.26,4.22.78,1.16.52,2.06,1.27,2.69,2.26.63.99.94,2.16.94,3.52s-.31,2.53-.94,3.5c-.63.98-1.52,1.72-2.69,2.24-1.16.52-2.57.78-4.22.78h-5.85l1.21-1.24v6.96h-2.69ZM202.82,455.05l-1.21-1.32h5.77c1.72,0,3.02-.37,3.91-1.11.89-.74,1.33-1.79,1.33-3.13s-.44-2.38-1.33-3.12-2.19-1.1-3.91-1.1h-5.77l1.21-1.34v11.12ZM212.71,461.73l-4.78-6.82h2.87l4.83,6.82h-2.93Z"/>
        <path class="cls-1" d="M242.19,461.95c-1.43,0-2.76-.24-3.99-.72-1.23-.48-2.29-1.16-3.18-2.03-.9-.87-1.59-1.88-2.09-3.05-.5-1.16-.75-2.43-.75-3.81s.25-2.65.75-3.81c.5-1.16,1.2-2.18,2.09-3.05.9-.87,1.95-1.54,3.17-2.03,1.22-.48,2.55-.72,4-.72s2.75.24,3.96.71,2.26,1.15,3.17,2.01c.9.87,1.6,1.88,2.09,3.05.49,1.16.74,2.44.74,3.84s-.25,2.68-.74,3.84c-.49,1.16-1.19,2.18-2.09,3.05-.9.87-1.96,1.54-3.17,2.01-1.21.47-2.53.71-3.96.71ZM242.19,459.56c1.04,0,2-.18,2.89-.54s1.66-.86,2.31-1.52c.65-.65,1.16-1.42,1.53-2.3.37-.88.55-1.83.55-2.87s-.18-2-.55-2.87c-.37-.88-.88-1.64-1.53-2.3-.65-.65-1.42-1.16-2.31-1.52-.89-.36-1.85-.54-2.89-.54s-2.03.18-2.91.54c-.89.36-1.66.86-2.32,1.52-.66.65-1.18,1.42-1.54,2.3-.37.88-.55,1.84-.55,2.87s.18,2,.55,2.87c.37.88.88,1.64,1.54,2.3.66.65,1.44,1.16,2.32,1.52s1.86.54,2.91.54Z"/>
        <path class="cls-1" d="M278.1,461.95c-2.47,0-4.41-.71-5.83-2.12-1.42-1.41-2.12-3.48-2.12-6.2v-10.69h2.69v10.58c0,2.09.46,3.63,1.38,4.59s2.22,1.45,3.91,1.45,3.01-.48,3.93-1.45,1.38-2.5,1.38-4.59v-10.58h2.61v10.69c0,2.72-.7,4.79-2.11,6.2s-3.35,2.12-5.84,2.12Z"/>
        <path class="cls-1" d="M305.59,461.73v-18.8h7.33c1.65,0,3.05.26,4.22.78,1.16.52,2.06,1.27,2.69,2.26.63.99.94,2.16.94,3.52s-.31,2.53-.94,3.5c-.63.98-1.52,1.73-2.69,2.26-1.16.53-2.57.79-4.22.79h-5.85l1.21-1.26v6.96h-2.69ZM308.28,455.05l-1.21-1.34h5.77c1.72,0,3.02-.37,3.91-1.1.89-.73,1.33-1.77,1.33-3.11s-.44-2.38-1.33-3.12-2.19-1.1-3.91-1.1h-5.77l1.21-1.34v11.12Z"/>
      </g>
    </g>
  </g>
</svg>