<?xml version="1.0" encoding="UTF-8"?>
<svg xmlns="http://www.w3.org/2000/svg" version="1.1" viewBox="0 0 499.48 246.89">
  <defs>
    <style>
      .cls-1 {
        fill: #b19640;
      }

      .cls-2 {
        fill: #f15d22;
      }

      .cls-3 {
        fill: #0069aa;
      }

      .cls-4 {
        fill: #a28800;
      }

      .cls-5 {
        fill: #00a5d9;
      }

      .cls-6 {
        fill: #a9218e;
      }
    </style>
  </defs>
  <!-- Generator: Adobe Illustrator 28.6.0, SVG Export Plug-In . SVG Version: 1.2.0 Build 709)  -->
  <g>
    <g id="Layer_1">
      <g>
        <path class="cls-1" d="M31.92,85.53c0-1.02-.09-1.59-.12-2.3,1.14-.15,2.76-.45,3.68-.45.51,0,.72.18.72.8v6.72c-.66.54-1.64,1.2-2.51,1.61-1.11.33-2.66.63-4.13.63-4.88,0-10.33-2.1-10.33-9.67,0-6.2,4.79-9.94,10.69-9.94,3.21,0,5.48.99,6.29,1.77.03,1.34-.93,2.3-2.01,2.13-1.26-.53-2.75-.9-4.31-.9-3.41,0-6.11,2.13-6.11,6.71,0,4.88,3.23,7.27,6.5,7.27.75,0,1.38-.12,1.65-.2v-4.16Z"/>
        <path class="cls-1" d="M45.95,78.49c4.41,0,6.68,3.12,6.68,6.77,0,4.31-2.79,7.18-7.04,7.18-3.62,0-6.68-2.24-6.68-6.85,0-4.16,2.97-7.1,7.01-7.1h.03ZM45.59,80.98c-1.74,0-2.37,1.92-2.37,4.16,0,3.32,1.26,4.82,2.73,4.82,1.89,0,2.36-1.98,2.36-4.31s-.74-4.67-2.69-4.67h-.03Z"/>
        <path class="cls-1" d="M57.2,78.49c.48,0,.72.33.87.72.72,2.21,1.62,4.91,2.64,8.47,1.29-3.74,2.36-6.82,3.05-9.19.99,0,1.79.18,2.6.54.72.31.51,1.05.12,2.08-1.26,3.23-3.26,7.9-4.19,10.32-.18.45-.48.6-.99.72-.87.18-2.04.3-2.7.3-1.17-3.44-2.36-6.56-3.5-9.52-.45-1.16-.9-2.42-1.47-3.65.81-.42,2.64-.78,3.53-.78h.03Z"/>
        <path class="cls-1" d="M79.33,88.85c.03,1.47-1.23,2.88-1.77,3.12-.42.17-1.74.47-2.7.47-4.46,0-6.92-2.33-6.92-6.85,0-3.54,2.4-7.1,6.5-7.1s5.45,2.85,5.45,5.31c0,.44-.06.77-.12.98-.09.42-1.14.87-2.46,1.23-.72.21-3.92.24-5.27.19.21,2.45,2.1,3.23,3.86,3.23,1.47,0,2.84-.45,3.35-.66l.06.09ZM74.14,80.86c-.96,0-2.04.92-2.06,3.06.78.09,2.87.06,3.65,0,.18,0,.3-.3.3-.63,0-1.32-.51-2.43-1.85-2.43h-.03Z"/>
        <path class="cls-1" d="M81.75,80.26c.27-.81,1.52-1.77,2.49-1.77,1.5,0,2.03,1.35,2.06,3.15.87-2.04,2.1-3.15,3.77-3.15.54,0,1.14.27,1.44.51.18.39.12,1.41-.21,2.04-.15.74-.81,1.59-1.29,1.64-.66-.27-1.02-.33-1.56-.33-.42,0-1.23.24-1.65,1.41-.15.44-.21.75-.21,1.4v6.09c0,.48-.06.75-.75.84-1.2.15-2.18.17-3.5.17.06-1.82.09-3.68.09-5.42v-5.09c0-.57-.18-1.08-.69-1.38v-.12Z"/>
        <path class="cls-1" d="M102.28,83.97c0-1.46-.87-2.39-2.01-2.39-1.02,0-1.56.33-2.18.78v8.95c0,.51-.06.66-.75.75-1.16.18-2.21.21-3.5.21.06-1.82.09-3.68.09-5.39v-4.88c0-.81-.09-1.2-.57-1.5v-.24c.3-.87,1.44-1.77,2.52-1.77,1.26,0,1.77.93,1.98,1.89,1.29-1.02,2.64-1.89,4.07-1.89,3.98,0,4.52,3.42,4.52,5.54v3.53c0,1.49.03,3.29.09,4.46-.69.06-2.07.24-3.56.24-.48,0-.69-.18-.69-.63v-7.67Z"/>
        <path class="cls-1" d="M114.34,91.22c0,.54-.06.78-.75.87-1.17.15-2.18.17-3.5.17.06-1.82.09-3.68.09-5.39v-5c0-.72-.12-1.11-.57-1.41v-.21c.33-.93,1.47-1.77,2.45-1.77,1.41,0,1.83,1.02,2.04,1.92,1.23-.96,2.81-1.92,4.31-1.92,2,0,2.99.96,3.62,2.13,1.17-1.02,2.96-2.13,4.55-2.13,3.54,0,4.34,3.17,4.34,5.15v3.93c0,1.5.03,3.29.09,4.46-.72.06-2.1.24-3.59.24-.45,0-.66-.17-.66-.63v-7.72c0-1.32-.69-2.34-2.04-2.34-.83,0-1.5.38-2.09.86v8.86c0,.51-.06.69-.75.78-1.2.15-2.21.17-3.5.17.06-1.82.09-3.68.09-5.39v-2.93c0-1.41-.72-2.37-1.98-2.37-.81,0-1.53.3-2.15.83v8.81Z"/>
        <path class="cls-1" d="M144.9,88.85c.03,1.47-1.23,2.88-1.77,3.12-.42.17-1.74.47-2.7.47-4.46,0-6.92-2.33-6.92-6.85,0-3.54,2.39-7.1,6.49-7.1s5.45,2.85,5.45,5.31c0,.44-.06.77-.12.98-.09.42-1.14.87-2.46,1.23-.72.21-3.93.24-5.27.19.21,2.45,2.1,3.23,3.86,3.23,1.47,0,2.85-.45,3.35-.66l.06.09ZM139.72,80.86c-.96,0-2.04.92-2.07,3.06.78.09,2.87.06,3.65,0,.18,0,.3-.3.3-.63,0-1.32-.51-2.43-1.86-2.43h-.03Z"/>
        <path class="cls-1" d="M156.37,83.97c0-1.46-.87-2.39-2.01-2.39-1.01,0-1.55.33-2.18.78v8.95c0,.51-.06.66-.75.75-1.17.18-2.22.21-3.5.21.06-1.82.09-3.68.09-5.39v-4.88c0-.81-.09-1.2-.57-1.5v-.24c.3-.87,1.44-1.77,2.51-1.77,1.26,0,1.76.93,1.98,1.89,1.29-1.02,2.64-1.89,4.08-1.89,3.98,0,4.52,3.42,4.52,5.54v3.53c0,1.49.03,3.29.09,4.46-.69.06-2.07.24-3.57.24-.48,0-.69-.18-.69-.63v-7.67Z"/>
        <path class="cls-1" d="M172.47,89.12c.15.78.03,1.83-.51,2.3-.78.66-2.06,1.02-3.53,1.02-3.24,0-4.19-2.06-4.19-4.07v-6.89c-1.17,0-1.8-.63-1.8-.93.51-.96,3.18-3.35,3.74-3.8.54-.45,1.17-.84,2.54-.96-.12.86-.21,2.12-.21,3.05h4.28c-.39,2.37-1.05,2.42-1.68,2.52-.51.06-1.89.12-2.69.12-.12,2.16-.09,4.95.03,6.17.15,1.32.9,1.89,1.92,1.89.9,0,1.71-.33,2.01-.48l.09.06Z"/>
        <path class="cls-1" d="M187.13,78.49c4.41,0,6.68,3.12,6.68,6.77,0,4.31-2.78,7.18-7.04,7.18-3.63,0-6.68-2.24-6.68-6.85,0-4.16,2.96-7.1,7.01-7.1h.03ZM186.78,80.98c-1.74,0-2.37,1.92-2.37,4.16,0,3.32,1.26,4.82,2.72,4.82,1.89,0,2.37-1.98,2.37-4.31s-.75-4.67-2.7-4.67h-.03Z"/>
        <path class="cls-1" d="M202.76,71.6c.87,0,1.68.27,2.16.72.21.84-.48,2.34-1.35,2.3-.24-.06-.54-.12-.72-.12-1.44,0-1.98,1.38-1.89,4.34.42,0,2.66,0,3.41-.06-.12,1.14-.6,1.95-.99,2.22-.39.3-1.38.45-2.51.45,0,2.25.15,8.95.15,10.58-1.2.15-3.45.24-3.86.24-.33,0-.51-.06-.51-.51.06-3.23.06-6.86.06-10.31-1.16-.12-1.8-.51-1.8-1.26.6-.69,1.05-.81,1.8-1.35,0-2.93.87-4.58,2.1-5.77,1.31-1.23,2.76-1.47,3.92-1.47h.03Z"/>
        <path class="cls-1" d="M217.21,72.92c1.71,0,3.78.72,4.52,1.5,0,.84-.54,2.25-1.73,2.16-.66-.33-2.01-.72-2.91-.72-1.59,0-2.49.72-2.49,1.77,0,1.23.93,1.91,3.78,3.53,2.52,1.4,4.16,2.54,4.16,5.48,0,3.87-3.38,5.9-6.98,5.9-2.13,0-3.65-.6-4.46-1.17-.6-.39-.81-.72-.81-1.14,0-.66.57-2.01.84-2.16,1.11.69,2.9,1.41,4.34,1.41,1.64,0,2.82-.62,2.82-2,0-1.07-.51-1.77-3.56-3.44-3.48-1.86-4.13-3.8-4.13-5.66,0-2.13,1.5-5.46,6.59-5.46h.03Z"/>
        <path class="cls-1" d="M229.36,80.14c1.23-.96,2.43-1.65,4.05-1.65,2.57,0,4.28,1.89,4.28,5.24v3.95c0,1.38.03,3.17.09,4.34-.69.06-2.07.24-3.56.24-.48,0-.69-.17-.69-.69v-7.66c0-1.32-.78-2.34-2.04-2.34-.72,0-1.44.24-2.13.72v8.92c0,.57-.06.77-.74.87-1.19.15-2.19.17-3.5.17.06-1.82.09-3.65.09-5.36v-11.32c0-1.83-.06-2.55-.12-3.18.57-.24,2.93-.63,3.66-.63.51,0,.62.15.62,1.97v6.38Z"/>
        <path class="cls-1" d="M252.8,89.57c0,1.8-.87,2.87-2.82,2.87-1.22,0-2.09-.53-2.6-1.59-.75.82-2.04,1.59-3.39,1.59-1.94,0-3.86-1.49-3.86-3.89,0-3,3.32-3.83,5.69-4.34.54-.09,1.2-.21,1.53-.26v-.37c0-1.17-.84-2.03-2.25-2.03-1.02,0-2.04.48-2.64.75-1.47.38-1.85-.87-1.83-1.86,1.41-.96,3.6-1.95,5.63-1.95,2.54,0,5.06,1.63,5.06,5.09,0,1.23-.12,3.21-.12,5.22,0,.29.36.68,1.07.68.15,0,.37,0,.48-.03l.03.12ZM244.06,87.98c0,.99.75,1.56,1.68,1.56.6,0,.9-.12,1.29-.45.18-.21.27-.51.27-1.05v-2.04c-2.67.27-3.24,1.29-3.24,1.95v.03Z"/>
        <path class="cls-1" d="M254.65,80.26c.27-.81,1.52-1.77,2.48-1.77,1.49,0,2.03,1.35,2.07,3.15.87-2.04,2.1-3.15,3.78-3.15.54,0,1.14.27,1.44.51.18.39.12,1.41-.21,2.04-.15.74-.81,1.59-1.29,1.64-.66-.27-1.02-.33-1.56-.33-.42,0-1.23.24-1.65,1.41-.15.44-.21.75-.21,1.4v6.09c0,.48-.06.75-.75.84-1.2.15-2.19.17-3.51.17.06-1.82.09-3.68.09-5.42v-5.09c0-.57-.18-1.08-.69-1.38v-.12Z"/>
        <path class="cls-1" d="M263.3,96.52c2.54-.84,3.27-1.62,3.27-7.94v-6.26c0-1.83-.06-2.73-.12-3.26.77-.21,2.96-.39,3.65-.39.51,0,.63.15.63,1.88v8.59c0,3.66-.6,5.81-1.8,7.31-1.23,1.5-2.82,1.94-3.83,1.94-.87,0-1.65-.78-1.83-1.79l.03-.09ZM268.75,72.14c1.25,0,2.03.98,2.03,2.21s-.93,2.21-2.19,2.21c-.99,0-2.13-.57-2.13-2.16s1.41-2.27,2.25-2.27h.03Z"/>
        <path class="cls-1" d="M285.81,89.57c0,1.8-.86,2.87-2.81,2.87-1.23,0-2.1-.53-2.6-1.59-.75.82-2.04,1.59-3.38,1.59-1.95,0-3.86-1.49-3.86-3.89,0-3,3.32-3.83,5.69-4.34.54-.09,1.2-.21,1.53-.26v-.37c0-1.17-.84-2.03-2.24-2.03-1.02,0-2.03.48-2.63.75-1.47.38-1.86-.87-1.82-1.86,1.4-.96,3.59-1.95,5.63-1.95,2.54,0,5.06,1.63,5.06,5.09,0,1.23-.12,3.21-.12,5.22,0,.29.36.68,1.08.68.15,0,.36,0,.48-.03l.03.12ZM277.07,87.98c0,.99.75,1.56,1.68,1.56.6,0,.9-.12,1.29-.45.18-.21.27-.51.27-1.05v-2.04c-2.66.27-3.24,1.29-3.24,1.95v.03Z"/>
        <path class="cls-1" d="M292.37,80.14c1.23-.96,2.42-1.65,4.04-1.65,2.57,0,4.28,1.89,4.28,5.24v3.95c0,1.38.03,3.17.09,4.34-.69.06-2.07.24-3.56.24-.48,0-.69-.17-.69-.69v-7.66c0-1.32-.78-2.34-2.03-2.34-.72,0-1.44.24-2.13.72v8.92c0,.57-.06.77-.75.87-1.2.15-2.19.17-3.51.17.06-1.82.09-3.65.09-5.36v-11.32c0-1.83-.06-2.55-.12-3.18.57-.24,2.94-.63,3.66-.63.51,0,.63.15.63,1.97v6.38Z"/>
        <path class="cls-1" d="M300.75,61.7c-.2-2.44-1.4-5.23-3.55-8.3-2.36-3.39-4.75-5.1-7.11-5.1-2.85,0-4.91,2.53-5.24,6.46l-.03.41,3.87-.44-.13-.39c-.27-.81-.4-1.41-.4-1.86,0-1.15.5-1.31.99-1.31,1.1,0,2.48,1.09,3.99,3.16,1.08,1.43,1.98,2.92,2.69,4.42h-20.1v-4.45c0-3.59-2.83-5.74-7.56-5.74h-4.66l2.03-2.05,4.89-4.02h-5.26l-.1.13c-1.95,2.36-4.68,5.25-8.1,8.56l-.6.57h11.16c3.11,0,4.63.99,4.63,3.04v3.96h-48.68v-10.13h-4.62c-2.14,0-3.9.7-5.23,2.11-1.33,1.38-1.97,3.14-1.97,5.39,0,1.84.59,3.32,1.74,4.41,1.03,1.02,2.4,1.54,4.09,1.54h2.42c-.23,2.28-1.46,3.82-3.75,4.69l-.35.13.91,1.72.25-.07c3.65-.95,5.81-3.12,6.4-6.47h77.42l-.04-.37ZM218.66,50.99h1.17v7.76h-2.13c-1.61,0-2.4-1.03-2.4-3.15,0-2.88,1.26-4.6,3.36-4.6"/>
        <path class="cls-1" d="M23.81,46c1.15,0,2.09-.94,2.09-2.1,0-1.22-.92-2.18-2.09-2.18s-2.13.95-2.13,2.12c0,1.23.92,2.16,2.13,2.16"/>
        <path class="cls-1" d="M28.5,46c1.16,0,2.1-.94,2.1-2.1,0-1.22-.92-2.18-2.1-2.18s-2.15.97-2.15,2.12.95,2.16,2.15,2.16"/>
        <path class="cls-1" d="M46.6,46.69c1.21,0,2.15-.92,2.15-2.08s-.97-2.12-2.15-2.12-2.12.95-2.12,2.09.93,2.12,2.12,2.12"/>
        <path class="cls-1" d="M51.29,46.69c1.2,0,2.13-.92,2.13-2.08s-.94-2.12-2.13-2.12-2.12.95-2.12,2.09.94,2.12,2.12,2.12"/>
        <path class="cls-1" d="M49.01,47.98c-1.24,0-2.36.34-3.31.99-1.3.92-1.96,2.29-1.96,4.06,0,3.25,1.82,4.98,5.27,4.98.52,0,.98-.05,1.38-.14-.29.43-.98.88-2.67.88h-14.92c-1.25,0-1.81-.63-1.81-2.04v-10.24l-.39.08c-1.03.19-2.19.45-3.55.8l-.29.07.17,1.23h-.56c-2.13,0-3.89.62-5.22,1.85-1.31,1.2-1.98,2.82-1.98,4.82,0,3.76,2.06,6.1,5.39,6.1,1.5-.03,2.72-.29,3.72-.78.98.95,2.25,1.43,3.79,1.43h15.43c4.78,0,6.91-2.4,6.91-7.77v-1.38c0-1.43-.45-2.6-1.33-3.49-.96-.95-2.32-1.44-4.05-1.44M50.84,52.97c0,.81,0,1.54-.02,2.17-.53.22-1.18.33-1.94.33-.68,0-1.57-.23-1.57-2.23,0-2.8,1.34-2.8,1.78-2.8s1.75,0,1.75,2.54M25.21,58.3c-1.58,0-2.36-1.15-2.39-3.51,0-1.01.32-1.83.99-2.49.66-.66,1.44-.98,2.38-1.01.4,0,.82-.02,1.25-.05v6.79c-.72.18-1.47.27-2.22.27"/>
        <path class="cls-1" d="M59.31,54.04l.03,7.36c0,2.79-1.25,4.54-3.82,5.35l-.38.12.94,1.73.26-.07c4.35-1.2,6.56-3.91,6.56-8.04v-11.6l-4.2.95.63,4.2Z"/>
        <path class="cls-1" d="M131.33,44.58c0,1.19.93,2.12,2.13,2.12s2.15-.91,2.15-2.08-.97-2.12-2.15-2.12-2.13.95-2.13,2.09"/>
        <path class="cls-1" d="M128.79,46.69c1.19,0,2.12-.92,2.12-2.08s-.95-2.12-2.12-2.12-2.16.95-2.16,2.09.95,2.12,2.16,2.12"/>
        <path class="cls-1" d="M131.11,42.15c1.17,0,2.12-.94,2.12-2.09,0-1.23-.91-2.16-2.12-2.16-1.13,0-2.1.99-2.1,2.16s.94,2.09,2.1,2.09"/>
        <path class="cls-1" d="M155.53,47.34v9.33c0,1.44-.55,2.07-1.8,2.07h-11.18c-1.21,0-1.77-.62-1.77-1.96v-7.9l-4.21.95.6,4.08v2.87c0,1.36-.56,1.99-1.75,1.99-.85,0-1.54-.29-2.19-.9v-7.84l-3.57.8v5.95c0,1.36-.56,1.99-1.75,1.99-.85,0-1.58-.27-2.22-.82v-7.93l-3.55.8-.06,5.93c0,1.37-.55,1.98-1.78,1.98h-48.45c-1.23,0-1.78-.63-1.78-2.07v-14.26l-4.14.95.53,4.02v9.98c0,2.91,1.79,4.71,4.68,4.71h49.86c1.39,0,2.49-.39,3.37-1.21.12-.12.24-.24.36-.37,1.15,1.05,2.48,1.58,3.93,1.58,1.54,0,2.75-.51,3.59-1.51,1.1,1.02,2.38,1.51,3.9,1.51,1.1,0,2.03-.27,2.79-.8.82.54,1.78.8,2.93.8h12.55c2.9,0,4.71-1.8,4.71-4.71v-15.12l-4.13.98.53,4.14Z"/>
        <polygon class="cls-1" points="161.69 42.74 162.17 46.69 162.17 62.06 165.75 62.06 165.75 46.69 166.1 42.4 161.69 42.74"/>
        <path class="cls-1" d="M177.71,46c1.16,0,2.09-.94,2.09-2.1,0-1.22-.92-2.18-2.09-2.18s-2.13.95-2.13,2.12c0,1.23.92,2.16,2.13,2.16"/>
        <path class="cls-1" d="M182.41,46c1.16,0,2.09-.94,2.09-2.1,0-1.22-.92-2.18-2.09-2.18s-2.15.95-2.15,2.12.95,2.16,2.15,2.16"/>
        <path class="cls-1" d="M209.26,49.11c-1.42-.46-2.87-.69-4.3-.69-2.38,0-4.2.68-5.56,2.06-1.35,1.38-2.03,3.21-2.03,5.46,0,.97.22,1.91.66,2.8h-3.91l-.31.03-7.24-.04c-1.17-.05-1.69-.67-1.69-2.03v-10.24l-.4.08c-1.04.19-2.2.46-3.55.8l-.29.07.17,1.23h-.56c-2.14,0-3.89.62-5.21,1.85-1.32,1.2-1.99,2.82-1.99,4.82,0,3.76,2.06,6.1,5.39,6.1,1.5-.03,2.72-.29,3.72-.78.98.95,2.26,1.43,3.79,1.43h2.59l.29-.02,6.11.04,7.37-.02c5.72,0,6.91-3,6.91-5.5v-4.05s.29-3.32.29-3.32l-.25-.07ZM204.31,51.11c.48,0,.89.04,1.23.13l.2,1.49c.13.9.2,1.72.2,2.42,0,2.42-.92,3.6-2.8,3.6-.54,0-2.2,0-2.2-3.36,0-2.88,1.1-4.28,3.37-4.28M179.12,58.3c-1.58,0-2.37-1.15-2.39-3.51,0-1.02.32-1.83.98-2.49.66-.66,1.44-.98,2.38-1.01.4,0,.82-.02,1.25-.05v6.79c-.73.19-1.46.27-2.22.27"/>
        <path class="cls-1" d="M24.41,184.48c1.07,0,2.47.44,3.04,1.01.02.45-.31,1.12-.86,1.12-.62-.31-1.5-.62-2.35-.62-1.26,0-2.52.64-2.52,2.13,0,1.41.85,2.05,2.95,3.24,2.47,1.4,3.44,2.35,3.44,4.44,0,2.68-2.26,4.25-4.97,4.25-1.57,0-2.78-.49-3.3-.92-.29-.2-.43-.39-.43-.65.02-.45.21-.9.38-1.12.88.67,2.31,1.12,3.37,1.12,1.69,0,2.83-.85,2.83-2.3s-.86-2.12-3.16-3.4c-2.81-1.55-3.17-3-3.17-4.38,0-1.47,1.02-3.94,4.71-3.94h.02Z"/>
        <path class="cls-1" d="M32.81,190.63c.95-.84,2.12-1.59,3.52-1.59,2.66,0,3.43,2.14,3.43,4.38v3.26c0,1.47,0,2.45.05,2.99-.45.1-1.07.19-1.74.19-.24,0-.33-.12-.33-.38,0-.98.03-3.88.03-5.91,0-2.17-1.02-2.93-2.26-2.93s-2.21.78-2.69,1.28v7.26c0,.4-.09.54-.45.59-.55.09-1.12.09-1.62.09.05-.85.07-2.26.07-4.38v-8.94c0-1.4-.05-2.16-.1-2.63.62-.2,1.38-.33,1.76-.33.24,0,.33.12.33,1.57v5.5Z"/>
        <path class="cls-1" d="M51.32,198.52c.03.98-.55,1.47-1.52,1.47s-1.52-.71-1.66-1.5c-.67.75-1.79,1.5-3.04,1.5-1.64,0-2.76-1.24-2.76-2.69,0-2.54,3.33-3.23,4.61-3.54.43-.09.88-.19,1.19-.24v-.72c0-1.11-.64-2.18-2.07-2.18-.88,0-1.76.42-2.42.88-.64.26-.95-.29-1-.88.76-.69,2.31-1.59,3.9-1.59,2.4,0,3.54,1.71,3.54,3.97,0,1.02-.07,3.31-.05,4.75.02.48.28.79.81.76.12,0,.31,0,.45-.05l.02.05ZM44.33,197.02c0,.88.71,1.42,1.57,1.42,1,0,1.68-.61,2.04-1.11.09-.17.17-.38.17-.78v-1.85c-1.95.31-3.78.97-3.78,2.3v.02Z"/>
        <path class="cls-1" d="M53.33,189.91c.17-.36.85-.88,1.28-.88.69,0,1.12.86,1.12,2.38.74-1.57,1.78-2.38,2.87-2.38.48,0,.91.21,1.07.38.09.22.07.65-.09.93-.07.36-.43.74-.69.76-.36-.15-.64-.19-.95-.19-.53,0-1.31.48-1.81,1.64-.17.44-.26.76-.26,1.29v5.36c0,.35-.07.51-.43.56-.57.07-1.14.09-1.64.09.05-.85.07-2.26.07-4.38v-3.96c0-.74-.12-1.24-.54-1.5v-.09Z"/>
        <path class="cls-1" d="M59.53,203.96c1.62-.71,2.33-1.83,2.33-6.06v-5.85c0-1.45-.05-2.16-.09-2.67.41-.14,1.4-.24,1.76-.24.24,0,.33.12.33,1.47v7.42c0,2.07-.24,3.75-1,5.04-.76,1.21-1.88,1.78-2.38,1.78-.43,0-.81-.33-.97-.83l.02-.07ZM62.91,184.23c.64,0,1.07.55,1.07,1.19s-.46,1.21-1.14,1.21c-.64,0-1.14-.43-1.14-1.16,0-.86.69-1.24,1.19-1.24h.03Z"/>
        <path class="cls-1" d="M75.4,198.52c.02.98-.55,1.47-1.52,1.47s-1.52-.71-1.66-1.5c-.66.75-1.78,1.5-3.04,1.5-1.64,0-2.76-1.24-2.76-2.69,0-2.54,3.33-3.23,4.62-3.54.43-.09.88-.19,1.19-.24v-.72c0-1.11-.64-2.18-2.07-2.18-.88,0-1.77.42-2.42.88-.64.26-.95-.29-1-.88.76-.69,2.31-1.59,3.9-1.59,2.4,0,3.54,1.71,3.54,3.97,0,1.02-.07,3.31-.05,4.75.02.48.28.79.81.76.12,0,.31,0,.45-.05l.02.05ZM68.41,197.02c0,.88.71,1.42,1.57,1.42,1,0,1.69-.61,2.04-1.11.09-.17.17-.38.17-.78v-1.85c-1.95.31-3.78.97-3.78,2.3v.02Z"/>
        <path class="cls-1" d="M79.87,190.63c.95-.84,2.12-1.59,3.52-1.59,2.66,0,3.43,2.14,3.43,4.38v3.26c0,1.47,0,2.45.05,2.99-.45.1-1.07.19-1.73.19-.24,0-.33-.12-.33-.38,0-.98.03-3.88.03-5.91,0-2.17-1.02-2.93-2.26-2.93s-2.21.78-2.68,1.28v7.26c0,.4-.1.54-.45.59-.55.09-1.12.09-1.61.09.05-.85.07-2.26.07-4.38v-8.94c0-1.4-.05-2.16-.1-2.63.62-.2,1.38-.33,1.76-.33.24,0,.34.12.34,1.57v5.5Z"/>
        <path class="cls-1" d="M107.37,197.85c-.05.54-.36,1.15-.74,1.45-.52.36-1.85.76-3.45.76-5.35,0-8.13-3.13-8.13-7.7,0-4.8,3.61-7.88,8.27-7.88,2.21,0,3.9.73,4.28,1.18-.02.69-.52,1.16-1,1.09-.81-.41-1.97-.76-3.35-.76-3.19,0-5.92,2.11-5.92,6.25,0,3.62,2.23,6.25,6.4,6.25,1.47,0,2.9-.43,3.57-.71l.07.07Z"/>
        <path class="cls-1" d="M114.33,189.04c3.32,0,5.06,2.35,5.06,5.38s-2.02,5.58-5.23,5.58c-3.47,0-5.16-2.57-5.16-5.37,0-3.13,2.16-5.59,5.3-5.59h.03ZM114.11,190.34c-1.59,0-2.97,1.43-2.97,4.02,0,2.89,1.48,4.32,3.21,4.32,1.43,0,2.9-1.18,2.9-4.11,0-2.19-.95-4.23-3.11-4.23h-.02Z"/>
        <path class="cls-1" d="M124.29,199.21c0,.41-.12.5-.45.55-.57.09-1.12.09-1.62.09.05-.85.07-2.26.07-4.38v-4.06c0-.81-.12-1.28-.4-1.48v-.09c.19-.36.88-.81,1.28-.81.76,0,.95,1.02,1.02,1.78.95-.9,2.24-1.78,3.57-1.78,1.52,0,2.38.71,2.88,1.87.95-.97,2.3-1.87,3.71-1.87,2.45,0,3.35,1.92,3.35,4.16v3.52c0,1.36.05,2.36.09,2.95-.5.07-1.16.19-1.79.19-.21,0-.3-.12-.3-.38v-6.06c0-1.85-.78-2.76-2.16-2.76-1.16,0-1.97.74-2.54,1.31v7.18c0,.47-.05.56-.45.61-.62.09-1.12.09-1.62.09.05-.85.07-2.26.07-4.4v-2.04c0-1.85-.74-2.76-2.09-2.76-1.07,0-2.02.76-2.62,1.41v7.15Z"/>
        <path class="cls-1" d="M143.4,199.21c0,.41-.12.5-.46.55-.57.09-1.12.09-1.61.09.05-.85.07-2.26.07-4.38v-4.06c0-.81-.12-1.28-.4-1.48v-.09c.19-.36.88-.81,1.28-.81.76,0,.95,1.02,1.02,1.78.95-.9,2.24-1.78,3.56-1.78,1.52,0,2.38.71,2.88,1.87.95-.97,2.31-1.87,3.71-1.87,2.45,0,3.35,1.92,3.35,4.16v3.52c0,1.36.05,2.36.1,2.95-.5.07-1.17.19-1.78.19-.21,0-.31-.12-.31-.38v-6.06c0-1.85-.79-2.76-2.16-2.76-1.17,0-1.97.74-2.54,1.31v7.18c0,.47-.05.56-.45.61-.62.09-1.11.09-1.61.09.05-.85.07-2.26.07-4.4v-2.04c0-1.85-.74-2.76-2.09-2.76-1.07,0-2.02.76-2.61,1.41v7.15Z"/>
        <path class="cls-1" d="M167.9,197.85c0,.74-.5,1.41-.91,1.62-.38.22-1.38.52-2.33.52-3.3,0-5.11-1.97-5.11-5.3,0-3,1.81-5.66,4.95-5.66,2.71,0,3.88,2.01,3.92,3.95,0,.24-.03.54-.07.73-.07.4-1.22.69-2.02.83-.65.07-3.02.12-4.74.05.03,2.42,1.5,3.8,3.59,3.8,1.07,0,2.24-.35,2.66-.59l.05.04ZM164.22,190.27c-1.19,0-2.36,1.07-2.54,3.07,1.71.04,3.85.02,4.28,0,.31-.03.5-.22.5-.5.02-1.45-.71-2.57-2.21-2.57h-.02Z"/>
        <path class="cls-1" d="M170.44,189.91c.16-.36.85-.88,1.28-.88.69,0,1.12.86,1.12,2.38.73-1.57,1.78-2.38,2.87-2.38.48,0,.91.21,1.07.38.09.22.07.65-.1.93-.07.36-.43.74-.69.76-.36-.15-.64-.19-.95-.19-.53,0-1.31.48-1.81,1.64-.17.44-.26.76-.26,1.29v5.36c0,.35-.07.51-.43.56-.57.07-1.14.09-1.64.09.05-.85.07-2.26.07-4.38v-3.96c0-.74-.12-1.24-.54-1.5v-.09Z"/>
        <path class="cls-1" d="M187.82,198c-.02.55-.26,1.15-.62,1.41-.54.36-1.55.59-2.54.59-2.43,0-5.4-1.17-5.4-5.33,0-3.3,2.49-5.63,5.73-5.63,1.57,0,2.69.55,2.99.88,0,.52-.3,1.17-.88,1.11-.64-.3-1.43-.5-2.19-.5-2.07,0-3.54,1.57-3.54,3.92,0,3.12,2.24,3.97,3.88,3.97.86,0,1.85-.18,2.52-.47l.05.05Z"/>
        <path class="cls-1" d="M197.74,197.85c0,.74-.5,1.41-.91,1.62-.38.22-1.38.52-2.33.52-3.3,0-5.11-1.97-5.11-5.3,0-3,1.81-5.66,4.94-5.66,2.71,0,3.88,2.01,3.93,3.95,0,.24-.02.54-.07.73-.07.4-1.21.69-2.02.83-.64.07-3.02.12-4.73.05.03,2.42,1.5,3.8,3.59,3.8,1.07,0,2.23-.35,2.66-.59l.05.04ZM194.05,190.27c-1.19,0-2.36,1.07-2.54,3.07,1.71.04,3.85.02,4.28,0,.31-.03.5-.22.5-.5.02-1.45-.72-2.57-2.21-2.57h-.02Z"/>
        <path class="cls-1" d="M219.13,199.64c-.36.16-1.09.4-1.83.4-.29,0-.55-.14-.91-.47-.4-.4-1.04-1.02-2.02-1.93-1.55,1.97-3.16,2.35-4.42,2.35-2.59,0-4.35-1.5-4.35-3.97,0-2.1,1.76-3.19,2.99-4.07-1.02-1-1.57-2.14-1.57-3.3,0-2.09,1.57-3.55,3.64-3.55,1.78,0,3.35.96,3.35,3.14,0,1.89-1.71,2.88-2.94,3.71,1.21,1.14,3.04,2.83,3.46,3.21.84-1.52,1.78-3.35,2.45-4.4.38-.57.64-.81.95-.81.57,0,1,.29,1.26.57v.1c-.81.83-2,2.64-3.64,5.51,2.4,2.21,3.28,3.1,3.57,3.4v.1ZM210.45,198.44c.91,0,2-.3,3-1.71-1.33-1.26-3.31-3.16-4.04-3.95-1.09.78-1.81,1.72-1.81,2.95,0,1.57,1.26,2.71,2.83,2.71h.02ZM208.81,188.47c0,.8.42,1.76,1.47,2.68,1.28-.88,2-1.74,2-2.91s-.81-1.89-1.71-1.89c-1.07,0-1.76.81-1.76,2.1v.02Z"/>
        <path class="cls-1" d="M231.15,186.3h-4.54c-.36,0-.52-.14-.36-.52.19-.49.48-.85.67-1.04.31.09.86.12,3.52.12h7.99c-.02.71-.5,1.31-.83,1.45h-4.35v10.47c0,1.63.05,2.43.07,2.89-.52.12-1.21.19-1.78.19-.26,0-.38-.07-.38-.43v-13.12Z"/>
        <path class="cls-1" d="M242.9,189.04c3.33,0,5.07,2.35,5.07,5.38s-2.02,5.58-5.23,5.58c-3.47,0-5.16-2.57-5.16-5.37,0-3.13,2.16-5.59,5.3-5.59h.02ZM242.69,190.34c-1.59,0-2.97,1.43-2.97,4.02,0,2.89,1.48,4.32,3.21,4.32,1.43,0,2.9-1.18,2.9-4.11,0-2.19-.95-4.23-3.11-4.23h-.03Z"/>
        <path class="cls-1" d="M250.76,192.08c0-1.45-.05-2.17-.1-2.69.41-.12,1.33-.24,1.73-.24.26,0,.34.12.34,1.47.02,1.57.02,3.33.02,4.87,0,2.52,1.28,2.85,2.33,2.85,1.11,0,2.07-.71,2.45-1.22v-7.03c0-.57.07-.69.38-.8.64-.07,1.16-.15,1.69-.15,0,.52-.07,2.21-.07,4.28v3.82c0,1.17.28,1.41.95,1.53v.1c-.02.45-.57,1.12-1.07,1.12-1,0-1.55-.66-1.67-1.68-.69.73-1.48,1.14-1.97,1.38-.48.19-.98.31-1.52.31-2.4,0-3.49-1.6-3.49-3.92v-3.99Z"/>
        <path class="cls-1" d="M262.84,189.91c.17-.36.85-.88,1.28-.88.69,0,1.12.86,1.12,2.38.74-1.57,1.79-2.38,2.88-2.38.47,0,.9.21,1.07.38.1.22.07.65-.09.93-.07.36-.43.74-.69.76-.36-.15-.64-.19-.95-.19-.52,0-1.31.48-1.81,1.64-.17.44-.26.76-.26,1.29v5.36c0,.35-.07.51-.43.56-.57.07-1.14.09-1.64.09.04-.85.07-2.26.07-4.38v-3.96c0-.74-.12-1.24-.55-1.5v-.09Z"/>
        <path class="cls-1" d="M272.43,184.21c.64,0,1.07.5,1.07,1.16s-.45,1.21-1.14,1.21c-.64,0-1.14-.4-1.14-1.16,0-.84.69-1.21,1.19-1.21h.03ZM273.38,199.14c0,.43-.14.54-.5.59-.31.07-.9.1-1.57.12.02-.97.07-2.35.07-3.73v-4.04c0-1.45-.05-2.19-.09-2.69.41-.14,1.41-.24,1.76-.24.24,0,.33.12.33,1.47v8.51Z"/>
        <path class="cls-1" d="M279.76,189.04c.88,0,1.83.26,2.4.81.05.42-.24,1.09-.78,1.06-.5-.26-1.17-.45-1.74-.45-.93,0-1.61.53-1.61,1.36,0,.68.47,1.09,1.02,1.4.64.33,1.43.69,2.12,1.09,1.07.6,1.55,1.45,1.55,2.4,0,2.27-1.97,3.28-3.87,3.28-1.14,0-2.14-.36-2.64-.79-.22-.18-.31-.45-.26-.69.04-.33.21-.69.5-.8.69.47,1.66.83,2.54.83,1.19,0,1.81-.62,1.81-1.43,0-.59-.33-1.01-1.16-1.45-.64-.33-1.21-.59-1.79-.91-1-.55-1.69-1.38-1.69-2.61,0-1.92,1.69-3.11,3.59-3.11h.02Z"/>
        <path class="cls-1" d="M287.28,199.21c0,.41-.12.5-.46.55-.56.09-1.11.09-1.61.09.05-.85.07-2.26.07-4.38v-4.06c0-.81-.12-1.28-.41-1.48v-.09c.19-.36.88-.81,1.28-.81.76,0,.95,1.02,1.03,1.78.95-.9,2.23-1.78,3.56-1.78,1.52,0,2.38.71,2.88,1.87.95-.97,2.31-1.87,3.71-1.87,2.45,0,3.35,1.92,3.35,4.16v3.52c0,1.36.05,2.36.09,2.95-.5.07-1.16.19-1.79.19-.22,0-.31-.12-.31-.38v-6.06c0-1.85-.79-2.76-2.16-2.76-1.17,0-1.98.74-2.54,1.31v7.18c0,.47-.05.56-.46.61-.62.09-1.12.09-1.62.09.05-.85.07-2.26.07-4.4v-2.04c0-1.85-.73-2.76-2.09-2.76-1.07,0-2.02.76-2.61,1.41v7.15Z"/>
        <path class="cls-1" d="M75.92,215.52c0-1.62,0-2.09-.05-2.78.38-.12,2.69-.4,4.28-.4,7.4,0,8.63,4.4,8.63,7.35,0,5.11-3.68,7.89-8.56,7.89-1.71,0-2.95-.19-4.31-.52v-11.53ZM78.02,225.96c.59.17,1.52.24,2.33.24,2.97,0,6.16-1.49,6.16-6.44,0-3.64-2.12-6.02-6.56-6.02-.81,0-1.4.05-1.93.14v12.08Z"/>
        <path class="cls-1" d="M99.28,225.48c0,.73-.5,1.4-.9,1.61-.38.22-1.38.53-2.33.53-3.31,0-5.11-1.97-5.11-5.3,0-3,1.8-5.66,4.94-5.66,2.71,0,3.88,2.02,3.93,3.95,0,.24-.02.55-.07.73-.07.4-1.21.69-2.02.83-.64.07-3.02.12-4.73.05.02,2.42,1.5,3.81,3.59,3.81,1.07,0,2.24-.36,2.66-.6l.05.04ZM95.6,217.89c-1.19,0-2.35,1.08-2.55,3.07,1.72.05,3.86.02,4.28,0,.31-.02.5-.21.5-.5.03-1.45-.71-2.57-2.21-2.57h-.02Z"/>
        <path class="cls-1" d="M102.86,216.66c.21,0,.35.17.5.49.48,1.26,1.88,5.05,2.81,7.85.81-2.24,2.4-6.26,3.11-8.35.41,0,.83.09,1.26.31.36.17.28.5-.07,1.43-.95,2.36-1.88,4.57-3.38,8.25-.19.43-.33.65-.62.74-.4.15-.9.21-1.26.24-.5-1.48-1.22-3.23-2.64-6.99-.76-1.97-1.12-2.78-1.43-3.45.38-.23,1.26-.52,1.69-.52h.03Z"/>
        <path class="cls-1" d="M120.58,225.48c0,.73-.5,1.4-.9,1.61-.38.22-1.38.53-2.33.53-3.31,0-5.11-1.97-5.11-5.3,0-3,1.81-5.66,4.95-5.66,2.71,0,3.87,2.02,3.92,3.95,0,.24-.02.55-.07.73-.07.4-1.21.69-2.02.83-.64.07-3.02.12-4.73.05.02,2.42,1.5,3.81,3.59,3.81,1.07,0,2.24-.36,2.66-.6l.05.04ZM116.9,217.89c-1.19,0-2.35,1.08-2.54,3.07,1.71.05,3.85.02,4.28,0,.31-.02.5-.21.5-.5.02-1.45-.71-2.57-2.21-2.57h-.02Z"/>
        <path class="cls-1" d="M123.54,214.14c0-1.41-.05-2.14-.1-2.61.48-.22,1.4-.33,1.76-.33.26,0,.33.12.33,1.54v11.47c0,1.16.05,2.44.1,3.11-.43.12-1.5.19-1.78.19-.21,0-.31-.07-.31-.31v-13.05Z"/>
        <path class="cls-1" d="M133.69,216.66c3.33,0,5.07,2.35,5.07,5.38s-2.02,5.59-5.23,5.59c-3.47,0-5.16-2.57-5.16-5.38,0-3.13,2.16-5.59,5.3-5.59h.02ZM133.48,217.97c-1.59,0-2.97,1.42-2.97,4.01,0,2.91,1.47,4.33,3.21,4.33,1.43,0,2.9-1.18,2.9-4.11,0-2.19-.95-4.23-3.11-4.23h-.03Z"/>
        <path class="cls-1" d="M143.66,231.7c0,.39-.07.48-.45.6-.57.07-1.05.1-1.62.1.05-.67.07-2.03.07-4.16v-9.32c0-.76-.17-1.19-.4-1.33v-.12c.24-.36.81-.81,1.33-.81s.9.64.95,1.57c1.43-1.08,2.59-1.57,3.69-1.57,2.09,0,4.21,1.62,4.21,5.04s-2.52,5.92-5.61,5.92c-.83,0-1.67-.27-2.16-.6v4.67ZM143.66,225.72c.47.28,1.26.52,2.02.52,1.45,0,3.61-1,3.61-4.31,0-2.19-1.24-3.61-2.9-3.61-1.14,0-2.26.71-2.74,1.15v6.25Z"/>
        <path class="cls-1" d="M156.35,226.84c0,.4-.12.5-.45.55-.57.1-1.12.1-1.62.1.05-.86.07-2.26.07-4.38v-4.06c0-.81-.12-1.28-.4-1.47v-.09c.19-.36.88-.81,1.28-.81.76,0,.95,1.02,1.02,1.78.95-.9,2.24-1.78,3.56-1.78,1.52,0,2.38.71,2.88,1.88.95-.98,2.3-1.88,3.71-1.88,2.45,0,3.36,1.93,3.36,4.16v3.51c0,1.36.05,2.36.09,2.95-.5.06-1.16.19-1.79.19-.21,0-.31-.12-.31-.39v-6.06c0-1.85-.78-2.76-2.16-2.76-1.16,0-1.98.73-2.55,1.3v7.18c0,.47-.04.57-.45.62-.62.1-1.11.1-1.62.1.05-.86.07-2.26.07-4.4v-2.04c0-1.85-.74-2.76-2.09-2.76-1.07,0-2.02.76-2.62,1.4v7.16Z"/>
        <path class="cls-1" d="M180.85,225.48c0,.73-.5,1.4-.9,1.61-.38.22-1.38.53-2.33.53-3.31,0-5.11-1.97-5.11-5.3,0-3,1.81-5.66,4.95-5.66,2.71,0,3.88,2.02,3.92,3.95,0,.24-.02.55-.07.73-.07.4-1.21.69-2.02.83-.64.07-3.02.12-4.73.05.03,2.42,1.5,3.81,3.59,3.81,1.07,0,2.23-.36,2.66-.6l.05.04ZM177.16,217.89c-1.19,0-2.35,1.08-2.54,3.07,1.71.05,3.85.02,4.28,0,.31-.02.5-.21.5-.5.02-1.45-.72-2.57-2.21-2.57h-.03Z"/>
        <path class="cls-1" d="M190.82,221.02c0-1.86-.83-2.76-2.21-2.76-1.21,0-2.14.79-2.68,1.43v7.11c0,.47-.1.54-.5.59-.52.1-1.04.07-1.57.1.05-.86.07-2.26.07-4.38v-4.03c0-.86-.12-1.26-.41-1.47v-.1c.19-.39.86-.83,1.28-.83.74,0,.95,1.09,1.02,1.76.93-.92,2.21-1.76,3.52-1.76,2.74,0,3.47,2.04,3.47,4.33v3.33c0,1.38.05,2.38.1,2.98-.5.06-1.14.19-1.76.19-.26,0-.36-.12-.36-.33l.02-6.13Z"/>
        <path class="cls-1" d="M202.05,225.65c.12.48.05.99-.38,1.33-.47.4-1.4.64-2.24.64-2.11,0-2.95-1.33-2.95-3.14v-6.16c-.81,0-1.14-.26-1.14-.5.24-.5,1.71-1.85,2.07-2.17.31-.26.64-.5,1.21-.6-.05.76-.09,1.36-.09,1.86h3.78c-.24,1.19-.77,1.28-1.19,1.31-.81.07-.91.07-2.62.07-.12,2.42-.09,4.99,0,6.01.12,1.43.9,1.78,1.71,1.78.69,0,1.38-.22,1.78-.5l.05.05Z"/>
        <path class="cls-1" d="M212.67,222.7c-.83,1.93-1.57,3.66-1.97,4.49-.1.2-.24.29-.53.29-.38,0-1.07-.12-1.43-.29v-.11c1.36-2.93,5.33-11.94,6.11-13.79l-.29-.68c.52-.12,1.33-.23,1.62-.23s.45.16.55.4c1.09,2.52,3.16,7.61,4.12,9.78.97,2.24,1.57,3.71,1.99,4.57v.09c-.5.17-1.43.26-1.8.26-.31,0-.48-.15-.71-.71-.52-1.24-.91-2.19-1.71-4.07h-5.94ZM218.14,221.25c-1.29-3.24-2.12-5.23-2.45-6.07-.81,1.92-1.57,3.83-2.5,6.07h4.95Z"/>
        <path class="cls-1" d="M224.92,219.7c0-1.45-.05-2.16-.1-2.68.41-.12,1.33-.24,1.74-.24.26,0,.33.12.33,1.47.03,1.57.03,3.32.03,4.87,0,2.52,1.28,2.85,2.33,2.85,1.12,0,2.07-.71,2.45-1.22v-7.03c0-.57.07-.69.38-.81.64-.08,1.16-.14,1.69-.14,0,.52-.07,2.21-.07,4.28v3.83c0,1.16.29,1.4.95,1.52v.1c-.03.45-.57,1.12-1.07,1.12-1,0-1.55-.67-1.66-1.69-.7.73-1.48,1.14-1.98,1.38-.47.19-.98.31-1.52.31-2.4,0-3.49-1.59-3.49-3.92v-4Z"/>
        <path class="cls-1" d="M243.15,225.65c.12.48.05.99-.38,1.33-.47.4-1.4.64-2.24.64-2.11,0-2.95-1.33-2.95-3.14v-6.16c-.81,0-1.14-.26-1.14-.5.24-.5,1.71-1.85,2.07-2.17.31-.26.64-.5,1.21-.6-.04.76-.09,1.36-.09,1.86h3.78c-.24,1.19-.76,1.28-1.19,1.31-.81.07-.9.07-2.62.07-.12,2.42-.09,4.99,0,6.01.12,1.43.9,1.78,1.72,1.78.69,0,1.38-.22,1.78-.5l.05.05Z"/>
        <path class="cls-1" d="M247.58,218.25c.95-.83,2.12-1.59,3.52-1.59,2.66,0,3.43,2.14,3.43,4.38v3.26c0,1.47,0,2.45.05,3-.46.09-1.07.19-1.74.19-.24,0-.33-.12-.33-.39,0-.97.02-3.88.02-5.91,0-2.17-1.02-2.93-2.26-2.93s-2.21.79-2.68,1.28v7.25c0,.4-.1.54-.46.59-.54.1-1.11.1-1.61.1.05-.86.07-2.26.07-4.38v-8.94c0-1.39-.05-2.16-.09-2.63.62-.2,1.38-.33,1.76-.33.24,0,.34.12.34,1.57v5.49Z"/>
        <path class="cls-1" d="M262.61,216.66c3.33,0,5.07,2.35,5.07,5.38s-2.02,5.59-5.23,5.59c-3.48,0-5.16-2.57-5.16-5.38,0-3.13,2.16-5.59,5.3-5.59h.02ZM262.4,217.97c-1.59,0-2.98,1.42-2.98,4.01,0,2.91,1.47,4.33,3.21,4.33,1.43,0,2.9-1.18,2.9-4.11,0-2.19-.95-4.23-3.12-4.23h-.02Z"/>
        <path class="cls-1" d="M270.04,217.54c.17-.36.86-.88,1.28-.88.69,0,1.12.86,1.12,2.38.74-1.57,1.78-2.38,2.87-2.38.48,0,.91.21,1.07.38.1.22.07.64-.09.93-.07.35-.43.73-.69.76-.36-.14-.64-.19-.95-.19-.52,0-1.31.47-1.81,1.64-.16.43-.26.77-.26,1.28v5.35c0,.36-.07.52-.43.57-.57.07-1.14.1-1.64.1.05-.86.08-2.26.08-4.38v-3.97c0-.74-.12-1.24-.55-1.5v-.1Z"/>
        <path class="cls-1" d="M279.62,211.84c.64,0,1.07.5,1.07,1.17,0,.64-.45,1.2-1.14,1.2-.64,0-1.14-.4-1.14-1.16,0-.83.69-1.21,1.19-1.21h.02ZM280.58,226.77c0,.42-.14.55-.5.59-.31.07-.9.1-1.57.12.02-.98.07-2.35.07-3.73v-4.05c0-1.45-.05-2.18-.1-2.68.41-.15,1.4-.24,1.76-.24.24,0,.33.12.33,1.47v8.51Z"/>
        <path class="cls-1" d="M289.85,225.65c.12.48.05.99-.38,1.33-.47.4-1.4.64-2.24.64-2.12,0-2.95-1.33-2.95-3.14v-6.16c-.81,0-1.14-.26-1.14-.5.24-.5,1.71-1.85,2.07-2.17.31-.26.64-.5,1.21-.6-.05.76-.1,1.36-.1,1.86h3.78c-.23,1.19-.76,1.28-1.18,1.31-.81.07-.91.07-2.61.07-.12,2.42-.1,4.99,0,6.01.12,1.43.9,1.78,1.71,1.78.69,0,1.38-.22,1.78-.5l.05.05Z"/>
        <path class="cls-1" d="M292.26,231.71c.79-.95,2.16-2.89,3.19-4.89-.12-.17-.36-.64-.52-1.07-.36-.94-2.33-6.28-3.4-8.54.45-.26,1.26-.54,1.66-.54.31,0,.41.17.52.43.6,1.45,2.19,5.99,2.79,7.68.95-2.13,2.28-6.15,2.71-8.1.38,0,.88.07,1.24.21.36.15.4.36.28.86-.59,2.1-1.5,4.94-2.85,7.9-1.57,3.42-3.78,6.74-4.21,6.74-.57,0-1.19-.31-1.41-.59v-.08Z"/>
        <path class="cls-1" d="M26.56,128.68c0-2.53,1.12-4.04,3-4.04h1.64l.19-.83h-1.64c-1.43,0-2.59.48-3.47,1.45-.86.94-1.29,2.23-1.29,3.81,0,1.29.35,2.31,1.05,3.03.64.68,1.49,1.02,2.52,1.02l2.48-.02c-.03.74-.24,1.44-.63,2.11-.53.9-1.3,1.54-2.36,1.94l-2.61.06c-1.51,0-2.66-.56-3.45-1.68-.79-1.13-1.19-2.65-1.19-4.5v-3.73h-1.44v3.81c0,4.56,1.94,6.88,5.77,6.88h0l3.3-.09c2.47-.7,3.85-2.34,4.09-4.86l.04-1.06v-.09h-3.68c-1.57,0-2.33-1.05-2.33-3.21"/>
        <path class="cls-1" d="M24.79,139.71c-.68,0-1.03.36-1.03,1.04s.35,1.01,1.03,1.01,1.06-.35,1.06-.99c0-.57-.49-1.07-1.06-1.07"/>
        <path class="cls-1" d="M27.63,139.71c-.69,0-1.05.36-1.05,1.04s.35,1.01,1.05,1.01,1.03-.35,1.03-.99c0-.59-.46-1.07-1.03-1.07"/>
        <path class="cls-1" d="M35.51,124.22l.36,2.77v5.93c0,.78-.19,1.51-.59,2.2-.55.92-1.35,1.56-2.43,1.97l-.09.03.4.67.03.05h.06c2.73-.78,4.11-2.68,4.11-5.65v-8.43l-1.76.44-.08.02Z"/>
        <path class="cls-1" d="M87.35,136.84c0-.57-.46-1.05-1.01-1.05-.67,0-1.03.36-1.03,1.05s.36,1.04,1.03,1.04,1.01-.36,1.01-1.04"/>
        <path class="cls-1" d="M102.11,121.04c.68,0,1.03-.34,1.03-.99,0-.57-.46-1.05-1.03-1.05-.67,0-1.03.36-1.03,1.03s.35,1.01,1.03,1.01"/>
        <path class="cls-1" d="M99.24,121.04c.69,0,1.05-.34,1.05-.99,0-.57-.47-1.05-1.05-1.05-.68,0-1.03.36-1.03,1.03s.35,1.01,1.03,1.01"/>
        <path class="cls-1" d="M113.22,118.99l-1.72.43-.07.02.36,2.71v7.5c0,1.52-.63,2.24-1.94,2.24h-2.22v-.02h-3.09v.02h-.24c-1.27,0-1.88-.73-1.88-2.22v-5.9l-1.76.44-.08.02.35,2.77v2.66c0,1.52-.62,2.24-1.92,2.24h-.82v-.02h-5.7c-.48-1.68-1.31-3.38-2.56-5.22-1.56-2.27-3.02-3.38-4.45-3.38-1.75,0-3.06,1.66-3.25,4.13v.1s1.42-.2,1.42-.2l-.03-.1c-.15-.46-.23-.87-.23-1.22,0-.97.54-1.66,1.32-1.66,1.09,0,2.31,1.03,3.66,3.05,1.11,1.68,1.84,3.16,2.22,4.51l-9.83.02v-.02h-36.71v.02h-.67c-1.28,0-1.9-.73-1.9-2.24v-10.65l-1.74.41-.07.02.35,2.62v7.98c0,2.03.95,3.06,2.84,3.06h56.76c.84,0,1.52-.29,2.02-.86.53.57,1.25.86,2.15.86h6.57c1.79,0,2.86-1.14,2.86-3.06v-11.05Z"/>
        <polygon class="cls-1" points="116.25 133.1 117.7 133.1 117.7 121.65 117.91 119 116.02 119.16 115.93 119.16 116.25 121.65 116.25 133.1"/>
        <path class="cls-1" d="M135.67,131.72l-.03-.02-1.47.17h-3.65v-.88c0-2.45,1.18-3.91,3.15-3.91.71,0,1.38.22,1.97.65l.07.05.47-.55-.06-.05c-.97-.84-2.04-1.27-3.16-1.27-2.41,0-3.9,1.83-3.9,4.78v1.19h-2.03v1.23h10.17l-1.54-1.38Z"/>
        <path class="cls-1" d="M192.96,133.1h2.97c1.77,0,2.86-1.17,2.86-3.06v-6.27l-1.74.44-.07.02.36,2.73v2.7c0,1.52-.64,2.24-1.95,2.24h-1.55v-.02h-5.34v.02h-.67c-.61,0-1.07-.16-1.39-.48-.36-.37-.54-.97-.53-1.76v-2.36l.2-2.1v-.06s-.05-.02-.05-.02c-.79-.28-1.67-.42-2.68-.42-3.07,0-4.95,2-5.04,5.34-.04,1.26-.65,1.86-1.86,1.86h-.48v-.02h-32.23v.02h-.67c-1.28,0-1.9-.73-1.9-2.24v-10.65l-1.74.41-.07.02.35,2.62v7.98c0,2.03.95,3.06,2.84,3.06h34.48c.68,0,1.25-.19,1.73-.58.57,1.27,1.49,1.92,2.72,1.92,1.36,0,2.8-.88,3.68-2.24.65.61,1.35.91,2.13.91h5.63ZM182.89,125.64c.37,0,.81.07,1.35.22l.21,1.56v4.46c-.69.85-1.51,1.28-2.44,1.28-1.3,0-2.18-1.41-2.18-3.51,0-1.2.23-2.13.72-2.82.52-.8,1.31-1.19,2.35-1.19M186.69,131.66c.2.13.43.19.69.25-.26-.05-.49-.13-.69-.25"/>
        <path class="cls-1" d="M196.49,121.04c.67,0,1.03-.34,1.03-.99,0-.57-.46-1.05-1.03-1.05-.68,0-1.04.36-1.04,1.03s.36,1.01,1.04,1.01"/>
        <path class="cls-1" d="M207.75,131.82c-.19.05-.37.07-.54.07h-4.41l-.52,1.08-.06.12h5.56c1.67,0,2.8-1.23,2.8-3.06v-11.05l-1.76.43-.07.02.37,2.78v7.44c0,.62-.12,1.1-.37,1.46l-5.07-9.28-.02-.04h-1.96l1.65,2.13,4.41,7.9Z"/>
        <path class="cls-1" d="M205.45,135.42c.15-.15.38-.24.68-.24.22,0,.44.08.68.25l.06.04.33-.45-.05-.05c-.37-.37-.82-.56-1.31-.56-1.01,0-1.53.64-1.53,1.89v.24h-.73v.76h4.22l-.92-.8-.03-.03-.57.07h-1.12v-.15c0-.45.08-.78.28-.97"/>
        <polygon class="cls-1" points="213.15 133.1 214.61 133.1 214.61 121.65 214.81 119 212.93 119.16 212.84 119.16 213.15 121.65 213.15 133.1"/>
        <path class="cls-1" d="M229.8,120.48c.67,0,1.01-.34,1.01-1.01,0-.61-.44-1.08-1.01-1.08-.66,0-1.03.37-1.03,1.04s.36,1.05,1.03,1.05"/>
        <path class="cls-1" d="M226.96,120.48c.67,0,1.03-.35,1.03-1.01,0-.61-.45-1.08-1.03-1.08-.69,0-1.05.36-1.05,1.04s.36,1.05,1.05,1.05"/>
        <path class="cls-1" d="M271.02,121.56l-.03-.03-.91.14h-2.05l-.02-.47c0-1.52.59-2.24,1.81-2.24.4,0,.77.13,1.12.39l.02.02h.11l.33-.42-.08-.07c-.6-.54-1.24-.81-1.95-.81-1.59,0-2.39,1-2.39,2.95v.65h-1.23v.86h6.39l-1.12-.97Z"/>
        <path class="cls-1" d="M281.71,136.84c0-.58-.47-1.05-1.05-1.05-.68,0-1.03.36-1.03,1.03s.35,1.01,1.03,1.01,1.05-.33,1.05-.99"/>
        <path class="cls-1" d="M278.87,136.84c0-.57-.47-1.05-1.03-1.05-.67,0-1.03.36-1.03,1.03s.35,1.01,1.03,1.01,1.03-.34,1.03-.99"/>
        <path class="cls-1" d="M299.1,124.62c-.9-.53-2.1-.81-3.57-.81s-2.64.22-3.7.67l-.04.02-.21,1.15.14-.07c.99-.45,2.08-.66,3.35-.66s2.22.24,2.95.7c.86.52,1.28,1.26,1.28,2.27v3.99h-1.9l.04-3.43c0-.78-.27-1.43-.8-1.92-.49-.43-1.12-.65-1.84-.65-1,0-1.83.35-2.54,1.06-.82.81-1.25,1.93-1.3,3.31-.04.6.03,1.14.22,1.62h-2.06v-.02h-5.34v.02h-.24c-1.26,0-1.88-.73-1.88-2.22v-5.9l-1.76.44-.07.02.35,2.77v2.66c0,1.52-.63,2.24-1.92,2.24h-.82v-.02h-5.34v.02h-.32c-1.29,0-1.92-.73-1.92-2.22v-5.9l-1.76.44-.08.02.4,2.77v2.66c0,1.52-.62,2.24-1.92,2.24h-1.06v-.02h-32.23v.02h-.26c-1.3,0-1.92-.73-1.92-2.22v-7.62l-.5.12c-.37.09-.8.19-1.3.32l-.07.02.1,1.16h-1.05c-1.41,0-2.56.43-3.43,1.27-.86.87-1.3,2-1.3,3.38,0,2.63,1.29,4.28,3.36,4.28,1.19-.04,2.16-.31,2.88-.8.17.29.44.54.83.78.56.34,1.18.52,1.86.52h34.64c.87,0,1.56-.29,2.08-.86.51.57,1.23.86,2.15.86h7.58c.84,0,1.52-.29,2.03-.86.53.57,1.25.86,2.15.86h17.73v-5.58c0-1.27-.56-2.24-1.68-2.9M294.71,126.76c.97,0,1.45.5,1.45,1.56v3.58h-2.05c-1.41,0-1.86-.47-1.86-1.94,0-.99.28-1.8.84-2.4.44-.52.99-.79,1.62-.79M227.37,131.33c-1.56,0-2.33-1.11-2.35-3.4,0-.97.3-1.76.91-2.41.61-.65,1.31-.97,2.15-.99.36-.02.81-.02,1.35-.02l.1,6.43c-.77.26-1.49.39-2.16.39"/>
        <path class="cls-1" d="M81.16,149.87c0-.61-.45-1.09-1.03-1.09-.68,0-1.05.36-1.05,1.04s.37,1.06,1.05,1.06,1.03-.35,1.03-1.01"/>
        <path class="cls-1" d="M83.98,149.87c0-.61-.44-1.09-1.01-1.09-.66,0-1.03.37-1.03,1.04s.36,1.06,1.03,1.06,1.01-.34,1.01-1.01"/>
        <path class="cls-1" d="M102.38,153.7c-.81,0-1.52.22-2.1.67-.79.59-1.2,1.48-1.2,2.65,0,2.2,1.11,3.32,3.3,3.32.74,0,1.34-.08,1.81-.25-.06,1.57-.9,2.19-2.95,2.19h-2.81v-.02h-12.06v.02h-.26c-1.29,0-1.92-.73-1.92-2.22v-7.63l-.5.12c-.37.09-.8.19-1.3.33l-.07.02.11,1.16h-1.06c-1.4,0-2.56.44-3.42,1.28-.86.86-1.3,1.99-1.3,3.37,0,2.64,1.29,4.29,3.36,4.29,1.19-.04,2.17-.31,2.88-.8.16.29.44.55.83.79.56.33,1.18.51,1.85.51h15.36c1.73,0,2.96-.38,3.66-1.13.77-.81,1.15-2.22,1.15-4.32v-1.1c0-.95-.27-1.7-.82-2.3-.6-.61-1.45-.93-2.54-.93M104.31,157.01c0,1.19-.03,1.81-.08,2.05-.48.28-1.13.43-1.93.43-1.19,0-1.77-.76-1.77-2.31,0-1.78.63-2.65,1.92-2.65s1.86.81,1.86,2.49M80.54,161.72c-1.56,0-2.33-1.1-2.35-3.38,0-.98.3-1.76.9-2.42.61-.64,1.31-.97,2.14-.99.37-.02.81-.02,1.36-.02l.11,6.43c-.77.26-1.5.38-2.16.38"/>
        <path class="cls-1" d="M104.75,150.44c0-.57-.46-1.05-1.03-1.05-.68,0-1.03.36-1.03,1.04s.35,1.01,1.03,1.01,1.03-.35,1.03-.99"/>
        <path class="cls-1" d="M101.91,150.44c0-.57-.46-1.05-1.01-1.05-.67,0-1.03.36-1.03,1.04s.35,1.01,1.03,1.01,1.01-.34,1.01-.99"/>
        <path class="cls-1" d="M108.65,154.61l.36,2.77v5.93c0,.78-.19,1.51-.59,2.21-.55.91-1.35,1.56-2.43,1.97l-.09.04.4.67.03.05h.06c2.73-.77,4.11-2.67,4.11-5.65v-8.43l-1.76.44-.08.02Z"/>
        <path class="cls-1" d="M149.62,146.83c-.68,0-1.03.36-1.03,1.05s.36,1.03,1.03,1.03,1.01-.36,1.01-1.03c0-.56-.47-1.05-1.01-1.05"/>
        <path class="cls-1" d="M147.17,150.43c0,.67.35,1.01,1.03,1.01s1.03-.35,1.03-.99c0-.57-.46-1.05-1.03-1.05-.68,0-1.03.36-1.03,1.04"/>
        <path class="cls-1" d="M150.01,150.43c0,.67.34,1.01,1.01,1.01s1.03-.35,1.03-.99c0-.57-.46-1.05-1.03-1.05-.66,0-1.01.36-1.01,1.04"/>
        <path class="cls-1" d="M164.98,149.82l.36,2.71v7.51c0,1.5-.64,2.24-1.94,2.24h-2.23v-.02h-3.09v.02h-.26c-1.29,0-1.92-.71-1.92-2.18v-5.95l-1.76.44-.08.02.37,2.77v2.63c0,1.48-.61,2.19-1.86,2.19-.75,0-1.49-.42-2.22-1.24v-5.89l-1.38.35-.06.02v4.57c0,1.48-.62,2.19-1.9,2.19-.64,0-1.34-.37-2.07-1.1.03-.17.04-.33.04-.52v-5.52l-1.38.35-.06.02-.02,4.6c0,1.5-.63,2.24-1.92,2.24h-1.21v-.02h-23.26v.02h-.68c-1.28,0-1.9-.73-1.9-2.24v-10.65l-1.74.41-.07.02.35,2.63v7.98c0,2.03.95,3.06,2.84,3.06h26.2c.86,0,1.55-.27,2.06-.8.21-.21.37-.45.5-.74.79,1.02,1.76,1.54,2.86,1.54,1.27,0,2.13-.56,2.57-1.67.75,1.11,1.74,1.67,2.95,1.67.87,0,1.56-.29,2.07-.86.51.57,1.23.86,2.16.86h6.59c1.79,0,2.87-1.14,2.87-3.06v-11.05l-1.72.43-.07.02Z"/>
        <path class="cls-1" d="M181.62,166.18c-.67,0-1.03.36-1.03,1.05s.36,1.03,1.03,1.03,1.05-.36,1.05-1.03c0-.55-.49-1.05-1.05-1.05"/>
        <path class="cls-1" d="M181.94,154.61l.35,2.73v2.7c0,1.5-.64,2.24-1.94,2.24h-1.6v-.02h-5.33v.02h-.67c-1.28,0-1.9-.73-1.9-2.24v-10.65l-1.74.41-.07.02.36,2.63v7.98c0,2.03.96,3.06,2.84,3.06h8.64c1.79,0,2.86-1.14,2.86-3.06v-6.28l-1.72.44-.07.02Z"/>
        <path class="cls-1" d="M199.85,170.1c-.69,0-1.05.36-1.05,1.03s.35,1.02,1.05,1.02,1.03-.34,1.03-.99c0-.59-.46-1.06-1.03-1.06"/>
        <path class="cls-1" d="M197.01,170.1c-.68,0-1.03.36-1.03,1.03s.36,1.02,1.03,1.02,1.06-.34,1.06-.99c0-.56-.49-1.06-1.06-1.06"/>
        <path class="cls-1" d="M223.32,157.51c-1.69-2.59-3.25-3.85-4.77-3.85-1.74,0-3.04,1.66-3.22,4.13v.1s1.4-.2,1.4-.2l-.04-.1c-.15-.45-.23-.87-.23-1.22,0-1,.53-1.67,1.34-1.67,1.07,0,2.29,1.02,3.64,3.05,1.08,1.6,1.83,3.11,2.22,4.5l-8.64.02v-.02h-5.34v.02h-.58c-1.3,0-1.93-.73-1.93-2.24v-5.87h-3.04c-1.41,0-2.57.49-3.44,1.45-.86.97-1.29,2.26-1.29,3.84,0,2.46,1.36,4,3.55,4.03h.3c-.03.79-.25,1.53-.64,2.21-.52.95-1.3,1.53-2.34,1.78h-2.63c-2.95,0-4.64-2.21-4.64-6.06v-3.73h-1.44v3.81c0,4.49,1.94,6.76,5.77,6.76h3.29c2.48-.49,3.86-2.11,4.09-4.84v-1.14h-1.45c-.65-.06-1.2-.34-1.63-.83-.49-.57-.74-1.39-.74-2.43,0-2.49,1.13-3.98,3.04-3.98h1.71v5.39c0,1.89,1.11,3.06,2.89,3.06h17.19v-.09c-.11-1.63-.93-3.61-2.43-5.89"/>
        <path class="cls-1" d="M254.43,166.18c-.68,0-1.03.36-1.03,1.03s.34,1.01,1.03,1.01,1.05-.33,1.05-.99c0-.57-.47-1.05-1.05-1.05"/>
        <path class="cls-1" d="M251.61,166.18c-.68,0-1.03.36-1.03,1.03s.35,1.01,1.03,1.01,1.03-.34,1.03-.99c0-.56-.47-1.05-1.03-1.05"/>
        <path class="cls-1" d="M285.24,149.82l.36,2.71v7.51c0,1.5-.64,2.24-1.94,2.24h-3.34c-1.29,0-1.92-.71-1.92-2.18v-5.95l-1.76.44-.07.02.37,2.77v2.63c0,1.48-.61,2.19-1.86,2.19-.74,0-1.49-.42-2.22-1.24v-5.89l-1.38.35-.06.02v4.57c0,1.48-.62,2.19-1.9,2.19-.65,0-1.34-.37-2.07-1.1.02-.17.04-.33.04-.52v-5.52l-1.38.35-.06.02-.02,4.6c0,1.5-.63,2.24-1.92,2.24h-1.21v-.02h-5.34v.02h-.24c-1.27,0-1.88-.73-1.88-2.22v-5.91l-1.76.44-.07.02.35,2.77v2.66c0,1.5-.63,2.24-1.92,2.24h-.82v-.02h-18.78v.02h-.67c-1.28,0-1.9-.73-1.9-2.24v-10.65l-1.74.41-.07.02.35,2.63v7.98c0,2.03.96,3.06,2.84,3.06h21.4c.84,0,1.52-.29,2.03-.86.53.57,1.25.86,2.15.86h7.82c.86,0,1.55-.27,2.06-.8.2-.21.37-.45.5-.74.8,1.02,1.76,1.54,2.87,1.54,1.26,0,2.13-.56,2.57-1.67.75,1.11,1.75,1.67,2.95,1.67.87,0,1.56-.29,2.07-.86.5.57,1.23.86,2.16.86h4.35c1.8,0,2.86-1.14,2.86-3.06v-11.05l-1.72.43-.07.02Z"/>
        <polygon class="cls-1" points="289.3 149.55 289.6 152.04 289.6 163.48 291.06 163.48 291.06 152.05 291.27 149.39 289.38 149.55 289.3 149.55"/>
        <path class="cls-1" d="M294.54,155.62c-.86.97-1.29,2.26-1.29,3.84,0,2.61,1.29,4.24,3.36,4.24.72,0,1.62-.14,2.67-.41-.03,2.08-1.02,3.45-3,4.19l-.09.04.4.67.03.05h.06c2.73-.77,4.11-2.67,4.11-5.65v-8.41h-2.82c-1.4,0-2.55.49-3.43,1.45M297.81,155.04h1.47v7c-.76.26-1.49.39-2.15.39-1.57,0-2.36-1.15-2.36-3.41,0-2.49,1.14-3.98,3.04-3.98M297.85,163.42s0,0,0,0c0,0,0,0,0,0"/>
        <path class="cls-1" d="M365.42,206.55c-1.17,1.15-1.78,2.64-1.78,4.45,0,3.7,3.15,5.3,5.54,6.57,2.35,1.3,3.82,2.17,3.82,4.07,0,1.74-1.2,2.89-3.16,2.89-2.43,0-5.75-1.84-6.99-3.49v5.48c.2.09.66.31.66.31,1.66.65,4.24,1.2,5.95,1.2,4.21,0,8.58-2.76,8.58-7.31,0-3.89-3.22-5.6-5.59-6.85-2.22-1.19-3.91-2.1-3.91-3.7s.93-2.42,2.82-2.42c1.52,0,4.56,1.17,5.88,2.42v-5.6c-.43,0-6.02-.22-6.02-.22-2.28,0-4.43.8-5.8,2.21"/>
        <path class="cls-1" d="M400.95,223.16c-.2-1.74,2.53-3.11,3.76-3.55v2.06c0,.29-.26,2.12-1.92,2.65-1.15.35-1.72-.23-1.83-1.16M397.21,214.55c0,.94.39,1.6,1.43,1.86,1.16.28,2.27-.18,2.62-.81.34-.61.73-1.94,2.05-1.94.96,0,1.46.5,1.46,1.33,0,.57.02.69.02,1.29-.6.2-1.77.62-2.9,1.05-2.88,1.13-5.16,2.92-5.16,6.05,0,2.74,1.98,4.45,5.08,4.45,2.46,0,3.51-2,3.51-2,0,.57.19,1.5.28,1.64h4.2c-.27-1.1-.56-1.86-.56-3.95v-8.3c0-3.45-3.16-4.73-5.19-4.73-4.15,0-6.84,1.59-6.84,4.05"/>
        <path class="cls-1" d="M438.71,223.16c-.23-1.74,2.51-3.11,3.78-3.55v2.06c0,.29-.29,2.12-1.97,2.65-1.16.35-1.7-.23-1.8-1.16M434.95,214.55c0,.94.4,1.6,1.4,1.86,1.17.28,2.28-.18,2.63-.81.35-.61.76-1.94,2.05-1.94.91,0,1.46.5,1.46,1.33v1.29c-.56.2-1.72.62-2.89,1.05-2.85,1.13-5.11,2.92-5.11,6.05,0,2.74,1.96,4.45,5.04,4.45,2.49,0,3.53-2,3.53-2,0,.57.19,1.5.3,1.64h4.18c-.26-1.1-.6-1.86-.6-3.95v-8.3c0-3.45-3.14-4.73-5.19-4.73-4.13,0-6.8,1.59-6.8,4.05"/>
        <path class="cls-1" d="M411.84,211.54c.47.72,1.39,2.29,1.39,4.2v11.73h4.57v-9.86c0-1.41.42-2.38,1.08-2.74,1.16-.76,2.21-.23,3.28,0,1.12.25,2-.46,2.22-1.51.49-2.58-2.63-3.25-4.49-2.73-1.21.31-2.24,1.62-2.24,1.62,0,0-.49-1.47-.93-2.18l-4.88,1.47Z"/>
        <path class="cls-1" d="M425.89,211.71c.16.36.51.96.51.96,0,0,.67,1.27.67,3.32v8.37c0,3.16-.87,4.78-3.15,5.63,0,0-.8.33-1.05.41.07.33.5,2.59.56,3,.39-.12,1.43-.41,1.43-.41,4.53-1.3,6.78-4.45,6.78-9.32v-13.59c-.52.16-5.23,1.51-5.74,1.64"/>
        <path class="cls-1" d="M449.75,204.23c.18.34,1.25,1.91,1.25,4.26v18.99h4.56v-9.68c0-2.95.91-3.36,1.92-3.36,1.16,0,1.79.5,1.79,3.19v9.84h4.51v-11.7c0-3.41-1.75-5.27-4.98-5.27-1.05,0-1.97.25-2.88.71l-.36.2v-8.85c-.57.16-5.27,1.51-5.81,1.66"/>
        <path class="cls-1" d="M379.63,204.23c.19.34,1.22,1.91,1.22,4.26v18.99h4.58v-9.68c0-2.95.93-3.36,1.94-3.36,1.11,0,1.72.5,1.72,3.19v9.84h4.59v-11.7c0-3.41-1.76-5.27-5.02-5.27-1.04,0-1.97.25-2.87.71l-.36.2v-8.85c-.54.16-5.28,1.51-5.8,1.66"/>
        <path class="cls-1" d="M426.47,205.3c0,1.38,1.07,2.46,2.42,2.46s2.42-1.08,2.42-2.44-1.06-2.45-2.42-2.45-2.42,1.05-2.42,2.43"/>
        <path class="cls-1" d="M387.9,184.53c-.08-1.4.63-2.73,1.85-2.73,1.65,0,1.89,1.33,1.89,2.78v3.7c-2.5-.43-3.58-1.8-3.74-3.75M367.08,187.72c0-1.57.91-3.51,4.29-4.46v5.46c0,.39-.44,1.2-1.47,1.42-.56.12-2.83.2-2.83-2.43M389.49,195.15c4.33-.21,6.54-2.05,6.54-6.25v-4.35c0-4.4-2.72-6.57-6.37-6.57s-6.17,2.7-6.17,6.33c0,3,1.6,5.58,5.64,6.67-8.09.05-8.01.05-10.31.05-1.8,0-2.8-.71-2.8-3v-11.92l-5.75,1.65c.22.38.63,1.5.63,1.5l-1.91.69c-3.92,1.52-6.04,3.85-6.39,6.82l-.06,1.15c0,1.69.47,3.11,1.44,4.24,1.04,1.3,2.67,2.03,4.59,2.18.82.02,2.63-.17,4.14-1.21l.18-.15.16.2c1.02,1.23,2.42,1.89,4.43,1.97h12.02Z"/>
        <path class="cls-1" d="M398.85,179.98c.17.32.48.92.48.92.1.14.69,1.41.69,3.31v8.58c0,3.13-.9,4.79-3.16,5.61,0,0-.68.26-1.04.39.06.37.52,2.6.59,3.02.35-.1,1.42-.42,1.42-.42,4.5-1.29,6.81-4.41,6.81-9.33v-13.76c-.57.17-5.31,1.52-5.79,1.68"/>
        <path class="cls-1" d="M427.56,173.17c0,1.37,1.06,2.41,2.43,2.41s2.43-1.04,2.43-2.39-1.11-2.48-2.43-2.48-2.43,1.08-2.43,2.47"/>
        <path class="cls-1" d="M430.69,168.02c0,1.38,1.05,2.42,2.45,2.42s2.43-1.04,2.43-2.42-1.08-2.51-2.43-2.51-2.45,1.11-2.45,2.51"/>
        <path class="cls-1" d="M433.56,173.17c0,1.36,1.09,2.41,2.5,2.41s2.42-1.04,2.42-2.39-1.11-2.48-2.42-2.48c-1.4,0-2.5,1.08-2.5,2.47"/>
        <path class="cls-1" d="M363.9,173.17c0,1.37,1.03,2.41,2.43,2.41s2.44-1.04,2.44-2.39-1.09-2.48-2.44-2.48-2.43,1.08-2.43,2.47"/>
        <path class="cls-1" d="M369.82,173.17c0,1.36,1.08,2.41,2.46,2.41s2.43-1.04,2.43-2.39-1.08-2.48-2.43-2.48-2.46,1.08-2.46,2.47"/>
        <path class="cls-1" d="M384.53,173.17c0,1.37,1.03,2.41,2.46,2.41,1.33,0,2.39-1.04,2.39-2.39s-1.09-2.48-2.39-2.48c-1.42,0-2.46,1.08-2.46,2.47"/>
        <path class="cls-1" d="M390.46,173.17c0,1.36,1.05,2.41,2.41,2.41s2.44-1.04,2.44-2.39-1.07-2.48-2.44-2.48-2.41,1.08-2.41,2.47"/>
        <path class="cls-1" d="M449.59,172.3c.33.38,1.21,2.23,1.21,3.9v12.12c0,2.16-1.04,2.7-2.04,2.7h-3.51c-1.72,0-2.16-.95-2.16-2.3v-10.25c-.55.11-4.12,1.05-4.62,1.15v9.18c0,1.39-.51,2.13-1.39,2.23-.92.06-1.52-.34-1.93-1.02v-10.71c-.52.14-4.27,1.08-4.61,1.17v8.33c0,1.39-.51,2.07-1.46,2.23-.98.12-1.69-.43-2-1.18v-9.52c-.36.1-1.04.3-1.04.3,0,0-2.77.71-3.51.89v7.35c0,1.22-.6,2.17-2.92,2.17h-4.19c-1.68,0-2.24-1.16-2.24-2.61v-17.81l-5.79,1.7c.38.38,1.26,2.39,1.26,3.92v13.33c0,2.98,1.28,5.59,5.94,5.59h6.17c2.59,0,3.62-.65,4.36-1.56l.19-.16.15.16c1.13,1.09,2.36,1.6,3.8,1.6,2.84,0,4.03-1.6,4.03-1.6l.2.15c1.06,1,2.29,1.45,3.71,1.45,2.28,0,3.58-1.32,3.58-1.32l.16.1c.54.44,1.77,1.18,3.76,1.18h4.5c4.17,0,6.18-2.07,6.18-5.99v-18.56l-5.78,1.7Z"/>
        <path class="cls-1" d="M463.93,195.15v-24.57l-5.78,1.7c.36.36,1.24,2.21,1.24,3.9v18.97h4.54Z"/>
        <path class="cls-3" d="M369.42,67.19c-1.63-1.63-3.96-2.57-6.42-2.57s-4.75.87-6.42,2.54l-15.12,15.2,7.67,7.71c5.91-5.92,10.84-10.86,10.84-10.86,2.3-2.26,3.83-2.26,6.08,0l.96.94,7.68-7.66c-2.62-2.62-5.28-5.29-5.28-5.29"/>
        <path class="cls-3" d="M380.62,93.76c.9.89,1.4,2.01,1.4,3.24v20.91c0,1.64-.29,2.71-.97,3.35-.61.64-1.67.92-3.36.92h-1.34v10.87h7.47c4.92,0,9.03-4.15,9.03-9.04v-28.84c0-2.9-1.11-5.72-3.1-7.71,0,.05-1.35-1.35-3.1-3.08l-7.72,7.69,1.69,1.68Z"/>
        <path class="cls-2" d="M398.06,126.06c-1.61,1.65-2.57,3.98-2.57,6.44s.87,4.75,2.52,6.44l15.22,15.12,7.69-7.69c-5.91-5.93-10.86-10.84-10.86-10.84-2.28-2.26-2.28-3.82,0-6.1l.93-.93-7.66-7.7c-2.61,2.62-5.27,5.25-5.27,5.25"/>
        <path class="cls-2" d="M424.62,114.9c.9-.94,2-1.41,3.25-1.41h20.9c1.68,0,2.73.3,3.38.94.6.64.92,1.71.92,3.38v1.31h10.84v-7.42c0-4.94-4.12-9.08-9.08-9.05h-28.79c-2.9-.03-5.71,1.15-7.69,3.12,0,0-1.37,1.36-3.12,3.09l7.71,7.71,1.66-1.67Z"/>
        <path class="cls-4" d="M444.3,97.22c0-1.23.44-2.37,1.31-3.24l14.8-14.79c1.16-1.17,2.11-1.71,3.02-1.71s1.88.55,3.03,1.71l.94.94,7.7-7.66-5.24-5.29c-3.52-3.48-9.37-3.48-12.83,0l-20.41,20.41c-2.06,2.04-3.23,4.81-3.23,7.65,0,0,0,1.93.02,4.36h10.88v-2.39Z"/>
        <path class="cls-5" d="M456.92,97.45c1.66,1.64,3.98,2.59,6.44,2.59s4.76-.9,6.43-2.57l15.16-15.19-7.72-7.7c-5.91,5.92-10.83,10.84-10.83,10.84-2.27,2.29-3.8,2.29-6.08,0l-.96-.93-7.71,7.68c2.63,2.6,5.27,5.27,5.27,5.27"/>
        <path class="cls-5" d="M445.74,70.9c-.9-.92-1.41-2.03-1.41-3.27v-20.9c0-1.65.34-2.73.95-3.39.65-.64,1.71-.93,3.36-.93h1.34v-10.86l-7.43.03c-4.93,0-9.05,4.13-9.05,9.04v28.85c0,2.89,1.13,5.68,3.12,7.68,0,0,1.35,1.37,3.11,3.09l7.68-7.7-1.68-1.64Z"/>
        <path class="cls-1" d="M392.95,40.69c0-2.29-1.01-4.64-2.71-6.37-1.77-1.7-4.01-2.73-6.33-2.73l-21.49.04.03,10.87h15.33c3.18,0,4.32,1.1,4.32,4.28v1.37h10.84v-7.46Z"/>
        <path class="cls-1" d="M382.1,67.39c0,1.28-.47,2.39-1.37,3.3l-14.72,14.74c-1.22,1.14-2.16,1.74-3.06,1.73-.93,0-1.86-.59-3.06-1.73l-.93-.93-7.71,7.68,5.28,5.23c3.48,3.48,9.36,3.48,12.82,0l20.39-20.35c2.05-2.06,3.2-4.84,3.23-7.66,0,0-.03-1.93-.03-4.39h-10.87l.03,2.38Z"/>
        <path class="cls-1" d="M371.59,102.56c-2.34,0-4.69.98-6.4,2.73-1.73,1.74-2.74,3.98-2.74,6.33l.05,21.45h10.87c-.01-8.37-.01-15.34-.01-15.34,0-3.19,1.13-4.32,4.33-4.3l1.32-.02v-10.85h-7.4Z"/>
        <path class="cls-1" d="M433.4,123.93c0,2.32,1,4.64,2.74,6.38,1.73,1.73,3.98,2.73,6.34,2.73l21.44-.03v-10.9c-8.37.03-15.32.03-15.32.03-3.22,0-4.33-1.11-4.33-4.29v-1.35h-10.85c0,3.68-.02,7.42-.02,7.42"/>
        <path class="cls-1" d="M398.25,113.41c1.26,0,2.41.44,3.27,1.35l14.77,14.79c1.19,1.14,1.71,2.1,1.71,3.05,0,.87-.52,1.85-1.71,3.03l-.92.94,7.68,7.68,5.24-5.22c3.45-3.53,3.45-9.4,0-12.85l-20.37-20.36c-2.07-2.1-4.87-3.26-7.69-3.26h-4.35v10.87l2.37-.02Z"/>
        <path class="cls-1" d="M444.3,97.22c0-1.23.44-2.37,1.31-3.24l14.8-14.79c1.16-1.17,2.11-1.71,3.02-1.71s1.88.55,3.03,1.71l.94.94,7.7-7.66-5.24-5.29c-3.52-3.48-9.37-3.48-12.83,0l-20.41,20.41c-2.06,2.04-3.23,4.81-3.23,7.65,0,0,0,1.93.02,4.36h10.88v-2.39Z"/>
        <path class="cls-1" d="M454.8,62.08c2.34,0,4.63-.98,6.38-2.7,1.73-1.75,2.74-4,2.74-6.35l-.05-21.47-10.87.03c.03,8.33.03,15.33.03,15.33,0,3.19-1.13,4.32-4.33,4.32h-1.31v10.85h7.42Z"/>
        <path class="cls-1" d="M428.12,51.23c-1.26,0-2.4-.46-3.31-1.36l-14.72-14.77c-1.17-1.17-1.73-2.16-1.73-3.02,0-.92.56-1.89,1.7-3.04l.93-.98-7.66-7.67-5.27,5.27c-3.44,3.49-3.46,9.36,0,12.8l20.41,20.42c2.05,2.05,4.81,3.21,7.64,3.21h4.39v-10.85h-2.39Z"/>
        <path class="cls-6" d="M428.29,38.58c1.65-1.64,2.6-3.98,2.6-6.43s-.89-4.75-2.57-6.4l-15.19-15.16-7.67,7.69c5.9,5.9,10.84,10.82,10.84,10.82,2.26,2.28,2.26,3.83,0,6.1l-.93.95,7.68,7.69c2.61-2.63,5.24-5.26,5.24-5.26"/>
        <path class="cls-6" d="M401.73,49.76c-.87.9-1.99,1.39-3.23,1.39h-20.87c-1.71,0-2.75-.31-3.4-.95-.61-.65-.96-1.71-.96-3.36v-1.37h-10.85l.03,7.48c0,4.91,4.13,9.06,9.04,9.05h28.8c2.95,0,5.75-1.14,7.7-3.13,0,0,1.36-1.34,3.08-3.1l-7.66-7.69-1.69,1.68Z"/>
        <path class="cls-1" d="M471.13,163.52c-1.1,1.12-1.66,2.45-1.66,4.03s.56,2.94,1.66,4.1c1.1,1.11,2.46,1.66,4.03,1.66s2.95-.55,4.07-1.66c1.1-1.16,1.65-2.49,1.65-4.1s-.55-2.91-1.65-4.03c-1.13-1.14-2.47-1.7-4.07-1.7s-2.91.56-4.03,1.7M479.89,172.26c-1.31,1.31-2.88,1.96-4.72,1.96s-3.4-.65-4.69-1.96c-1.28-1.29-1.92-2.85-1.92-4.7s.65-3.4,1.93-4.69c1.3-1.29,2.87-1.93,4.68-1.93s3.42.64,4.72,1.93c1.3,1.28,1.94,2.86,1.94,4.69s-.64,3.41-1.94,4.7M476.42,165.08c-.3-.16-.81-.25-1.5-.25h-1.04v2.53h1.11c.52,0,.91-.06,1.18-.16.47-.18.7-.55.7-1.08s-.14-.85-.46-1.03M475.1,163.99c.87,0,1.5.1,1.91.25.72.3,1.07.9,1.07,1.77,0,.62-.23,1.08-.68,1.38-.23.14-.57.26-1,.34.53.09.94.31,1.2.68.24.37.39.71.39,1.09v.49c0,.17,0,.34,0,.53,0,.19.03.32.06.36l.04.09h-1.16s0-.04,0-.07c-.01-.03-.01-.04-.03-.07l-.02-.24v-.53c0-.83-.22-1.35-.66-1.61-.26-.15-.72-.22-1.36-.22h-.99v2.74h-1.22v-6.97h2.44Z"/>
      </g>
    </g>
  </g>
</svg>