<?xml version="1.0" encoding="UTF-8"?>
<svg xmlns="http://www.w3.org/2000/svg" version="1.1" viewBox="0 0 1131.23 734.31">
  <defs>
    <style>
      .cls-1 {
        fill: #843e24;
      }

      .cls-2 {
        fill: #bb7738;
      }
    </style>
  </defs>
  <!-- Generator: Adobe Illustrator 28.6.0, SVG Export Plug-In . SVG Version: 1.2.0 Build 709)  -->
  <g>
    <g id="Layer_1">
      <g>
        <g>
          <path class="cls-1" d="M176.53,576.25c0,8.26-5.09,13.26-13.35,13.26h-40.77c-5.18,0-9.35-1.82-12.44-5.36-3.09-3.63-4.63-8.36-4.63-14.26,0-4.54,1.18-8.81,3.54-12.9h8.08c-2.82,4-4.27,7.72-4.27,11.08,0,8.81,3.63,13.26,10.81,13.26h37.41c4.45,0,6.72-2.36,6.72-7.17v-8.99l-1.73-11.62,10.62-2.45v25.16ZM139.47,551.45c0,3-2.36,5.45-5.54,5.45-3,0-5.63-2.27-5.63-5.45,0-3,2.63-5.54,5.63-5.54s5.54,2.36,5.54,5.54ZM146.74,537.47c0,2.82-2.45,5.45-5.63,5.45-2.91,0-5.45-2.27-5.45-5.63,0-2.91,2.54-5.45,5.45-5.45,3.18,0,5.63,2.45,5.63,5.63ZM154,551.45c0,3-2.36,5.45-5.54,5.45-3,0-5.63-2.27-5.63-5.45,0-3,2.63-5.54,5.63-5.54s5.54,2.36,5.54,5.54Z"/>
          <path class="cls-1" d="M197.96,530.84l-1,12.08v46.59h-8.99v-46.5l-1.36-11.26,11.35-.91Z"/>
          <path class="cls-1" d="M233.83,589.5h-7.27c-1.63,0-3.18-.18-4.54-.64-1.09,10.53-7.54,17.44-19.43,20.7l-2-3.54c8.45-2.63,12.62-8.45,12.62-17.53l-.09-22.79-1.82-12.17,10.81-2.45v22.7c0,4.99,2.18,7.54,6.63,7.54h5.09v8.17Z"/>
          <path class="cls-1" d="M264.71,589.5h-33.42v-8.17h33.42v8.17Z"/>
          <path class="cls-1" d="M295.58,589.5h-33.42v-8.17h33.42v8.17Z"/>
          <path class="cls-1" d="M328.27,589.5h-6.81c-3.63,0-6.63-.91-8.9-2.72-2.45,1.82-5.36,2.72-8.72,2.72h-10.81v-8.17h8.36c4.45,0,6.72-2.36,6.72-7.17v-8.81l-1.91-11.81,10.81-2.45v23.07c0,4.81,2.18,7.17,6.54,7.17h4.72v8.17ZM304.57,536.56c0,3-2.36,5.45-5.54,5.45-3,0-5.45-2.27-5.45-5.54,0-3,2.45-5.45,5.45-5.45,3.18,0,5.54,2.36,5.54,5.54ZM319.1,536.56c0,3-2.36,5.45-5.54,5.45-3,0-5.45-2.27-5.45-5.54,0-3,2.45-5.45,5.45-5.45,3.18,0,5.54,2.36,5.54,5.54Z"/>
          <path class="cls-1" d="M360.51,589.5h-6.08c-3.63,0-6.63-.91-8.99-2.82-2.27,1.91-5.18,2.82-8.63,2.82h-11.08v-8.17h8.72c4.36,0,6.54-2.45,6.54-7.45v-28.24l-1.73-12.17,10.81-2.45v42.86c0,4.99,2.18,7.45,6.54,7.45h3.91v8.17Z"/>
          <path class="cls-1" d="M388.48,575.97c0,8.45-5.18,13.53-13.53,13.53h-16.98v-8.17h14.8c4.45,0,6.63-2.45,6.63-7.45v-28.88l-1.54-11.99,10.63-2.54v45.5Z"/>
          <path class="cls-1" d="M450.69,589.5c-4.81,0-8.63-1.54-11.53-4.63-3.18,1.73-7.08,2.54-11.71,2.63-9.72,0-15.62-6.9-15.62-17.8,0-5.9,1.91-10.62,5.81-14.17,3.91-3.63,9.08-5.45,15.44-5.45h2.91l-.54-4.09c3.91-1,7.54-1.82,10.9-2.45v30.42c0,4.9,2.18,7.36,6.63,7.36h5.72v8.17h-7.99ZM430.62,534.38c0,2.82-2.27,5.45-5.45,5.45s-5.54-2.45-5.54-5.63c0-2.91,2.36-5.54,5.54-5.54,3,0,5.45,2.36,5.45,5.72ZM437.43,555.99c-1.73.09-3.36.18-4.9.18-3.09.09-5.81,1.18-8.08,3.45-2.27,2.27-3.36,5.09-3.36,8.45.09,7.9,2.91,11.9,8.45,11.9,2.72,0,5.36-.36,7.9-1.09v-22.89ZM445.15,534.38c0,2.82-2.27,5.45-5.45,5.45s-5.63-2.45-5.63-5.63c0-2.91,2.45-5.54,5.63-5.54,2.91,0,5.45,2.36,5.45,5.72Z"/>
          <path class="cls-1" d="M489.56,589.5h-33.42v-8.17h33.42v8.17Z"/>
          <path class="cls-1" d="M520.43,589.5h-33.42v-8.17h33.42v8.17Z"/>
          <path class="cls-1" d="M557.57,562.26v4.27c0,16.26-6.45,22.98-20.34,22.98h-19.34v-8.17h20.07c6.08,0,9.35-1.82,9.99-5.45-1.45.73-3.45,1.09-5.99,1.09-10.17,0-15.26-4.81-15.26-14.35,0-5.18,1.91-9.08,5.63-11.71,2.72-1.91,5.9-2.91,9.63-2.91,4.99,0,8.99,1.36,11.81,4.18,2.54,2.54,3.81,5.9,3.81,10.08ZM540.14,536.56c0,3-2.45,5.45-5.63,5.45-2.91,0-5.54-2.27-5.54-5.54,0-3,2.63-5.45,5.54-5.45s5.63,2.36,5.63,5.54ZM548.68,562.44c0-5.9-2.18-8.9-6.45-8.9s-6.54,3.27-6.54,9.72c0,5.27,2,7.9,5.9,7.9,2.72,0,5.09-.45,6.99-1.36.09-2.09.09-4.54.09-7.35ZM554.58,536.56c0,3-2.36,5.45-5.54,5.45-3,0-5.54-2.27-5.54-5.54,0-3,2.54-5.45,5.54-5.45s5.54,2.36,5.54,5.54Z"/>
          <path class="cls-1" d="M581.73,585.69c0,12.26-6.54,20.25-19.53,23.88l-1.91-3.54c8.36-2.63,12.53-8.45,12.53-17.53l-.09-22.79-1.82-12.17,10.81-2.45v34.6Z"/>
          <path class="cls-1" d="M613.88,589.5h-7.08c-8.26,0-13.44-5.09-13.44-13.53v-30.88l-1.54-11.62,10.62-2.45v42.86c0,4.99,2.18,7.45,6.54,7.45h4.9v8.17Z"/>
          <path class="cls-1" d="M691.25,589.5h-4.81c-3.63,0-6.63-.91-9.08-2.72-2.27,1.82-5.18,2.72-8.63,2.72-4.81,0-8.81-1.73-12.17-5.18-2.45,3.45-6.08,5.18-10.99,5.18-4.63,0-8.72-1.82-12.26-5.36-.45.64-1.09,1.27-1.72,1.91-2.45,2.27-5.63,3.45-9.72,3.45h-10.53v-8.17h8.36c4.36,0,6.54-2.36,6.54-7.17l.18-17.53,8.9-2v23.7c2.27,2.09,4.9,3.09,7.9,3.09,4.27,0,6.45-2.36,6.45-7.17v-17.62l8.99-2v23.43c2.27,2.27,4.81,3.36,7.81,3.36,4.27,0,6.45-2.36,6.45-7.17v-8.9l-1.73-11.81,10.81-2.45v23.16c0,4.72,2.18,7.08,6.54,7.08h2.73v8.17ZM651.47,536.56c0,3-2.36,5.45-5.54,5.45-3,0-5.63-2.27-5.63-5.54,0-3,2.63-5.45,5.63-5.45s5.54,2.36,5.54,5.54ZM658.65,522.48c0,2.91-2.36,5.45-5.54,5.45-3,0-5.45-2.45-5.45-5.45s2.45-5.63,5.45-5.63c3.18,0,5.54,2.45,5.54,5.63ZM666,536.56c0,3-2.45,5.45-5.63,5.45-2.91,0-5.54-2.27-5.54-5.54,0-3,2.63-5.45,5.54-5.45s5.63,2.36,5.63,5.54Z"/>
          <path class="cls-1" d="M719.31,575.97c0,8.45-5.18,13.53-13.53,13.53h-16.98v-8.17h14.8c4.45,0,6.63-2.45,6.63-7.45v-28.88l-1.55-11.99,10.63-2.54v45.5Z"/>
          <path class="cls-1" d="M740.75,530.84l-1,12.08v46.59h-8.99v-46.5l-1.36-11.26,11.35-.91Z"/>
          <path class="cls-1" d="M804.68,589.5h-40.59l2.36-8.17h22.98l.27-1.91v-9.54c0-4.45-.91-7.9-2.63-10.53-1.63-2.27-3.72-3.45-6.36-3.45-.82,0-1.82.18-2.82.64,0-.91-.18-2.63-.45-5.09.27,0,1.27-.09,2.82-.36,5.54,0,9.99,1.91,13.35,5.81,3.36,3.81,5.09,8.63,5.18,14.53v9.9h5.9v8.17Z"/>
          <path class="cls-1" d="M836.01,589.5h-33.42v-8.17h33.42v8.17Z"/>
          <path class="cls-1" d="M866.89,589.5h-33.42v-8.17h33.42v8.17Z"/>
          <path class="cls-1" d="M918.56,581.33h4.54v8.17h-58.75v-8.17h13.07c-.91-1.63-1.36-3.54-1.36-5.63,0-4.36,1.73-8.17,5.09-11.35,3.45-3.18,7.45-4.81,11.9-4.81,3.36,0,6.08.91,8.17,2.72,2.27,2.09,3.36,4.9,3.36,8.45l-.18,10.62h5.09v-16.35c0-6.81-6.27-10.9-15.62-10.9-5.18,0-10.53,1.18-15.89,3.54l1.45-6.72c4.9-1.91,10.53-2.91,16.98-2.91s11.44,1.18,15.17,3.45c4.63,2.63,6.99,6.63,6.99,11.99v17.89ZM896.21,569.34c0-3.54-1.27-5.27-3.72-5.27-2,0-3.81,1.09-5.54,3.36-2,2.45-3,5.45-3,8.81s2.09,5.09,6.36,5.09h5.9v-11.99Z"/>
          <path class="cls-1" d="M920.92,589.5v-8.17h21.07c1.18,0,2.27-.09,3.45-.36-2.09-1.82-7.08-6.54-15.07-14.17,0-4.27,2.27-8.17,6.81-11.62,4.63-3.45,10.17-5.18,16.62-5.18s11.9,1.73,16.62,5.27c4.45,3.36,6.63,7.27,6.63,11.53-.91.82-5.99,5.54-15.26,14.17,1.18.27,2.45.36,3.63.36h19.25v8.17M967.23,565.17c-.27-1.82-1.45-3.45-3.54-4.81-2.63-1.64-5.99-2.45-9.9-2.45s-7.17.82-9.81,2.45c-2.18,1.54-3.45,3.09-3.72,4.81,3,2.91,7.45,7.17,13.53,12.8l13.44-12.8Z"/>
          <path class="cls-1" d="M1025.9,551.45l-.82,9.45v12.62c0,10.63-6.81,15.98-20.34,15.98h-25.34v-8.17h13.8c-1.82-3.09-2.72-6.36-2.72-9.72,0-6.72,2-12.08,5.99-16.16,3.99-4.09,9.45-6.08,16.44-6.08,4.36,0,8.72.73,12.99,2.09ZM1016.36,561.53l-.73-5.27c-1.36-.45-3-.64-4.72-.64-7.63,0-11.44,4.72-11.44,14.26,0,7.63,2.64,11.44,7.81,11.44,6.45,0,9.72-4.09,9.72-12.17,0-2.09-.18-4.63-.64-7.63Z"/>
        </g>
        <g>
          <path class="cls-1" d="M106.75,654.23c1.83.97,4.76,1.93,7.75,1.93,3.21,0,4.91-1.33,4.91-3.35s-1.47-3.03-5.18-4.31c-5.14-1.83-8.53-4.68-8.53-9.17,0-5.27,4.45-9.26,11.69-9.26,3.53,0,6.06.69,7.89,1.56l-1.56,5.59c-1.19-.6-3.44-1.46-6.42-1.46s-4.49,1.42-4.49,2.98c0,1.97,1.7,2.84,5.73,4.36,5.46,2.02,7.98,4.86,7.98,9.22,0,5.18-3.94,9.58-12.42,9.58-3.53,0-7.02-.96-8.76-1.93l1.42-5.73Z"/>
          <path class="cls-1" d="M145.23,630.53v11.92h11.51v-11.92h6.97v30.9h-6.97v-12.89h-11.51v12.89h-6.97v-30.9h6.97Z"/>
          <path class="cls-1" d="M183.9,653.5l-2.16,7.93h-7.24l9.44-30.9h9.12l9.63,30.9h-7.52l-2.38-7.93h-8.89ZM191.74,648.27l-1.93-6.56c-.5-1.83-1.05-4.17-1.51-5.96h-.13c-.41,1.83-.92,4.17-1.38,5.96l-1.88,6.56h6.83Z"/>
          <path class="cls-1" d="M213.77,630.99c2.25-.41,5.55-.69,9.31-.69,4.59,0,7.79.69,9.99,2.47,1.88,1.47,2.89,3.62,2.89,6.46,0,3.9-2.8,6.6-5.46,7.57v.13c2.16.87,3.35,2.89,4.13,5.73.96,3.53,1.88,7.56,2.47,8.76h-7.15c-.46-.92-1.24-3.39-2.11-7.2-.87-3.89-2.2-4.9-5.09-4.95h-2.07v12.15h-6.92v-30.44ZM220.69,644.24h2.75c3.49,0,5.55-1.74,5.55-4.45s-1.93-4.26-5.13-4.26c-1.7,0-2.66.09-3.16.23v8.48Z"/>
          <path class="cls-1" d="M254.23,630.53h6.97v19.53c0,8.8-4.22,11.88-10.96,11.88-1.65,0-3.76-.27-5.13-.73l.78-5.64c.97.32,2.2.55,3.58.55,2.93,0,4.77-1.33,4.77-6.1v-19.49Z"/>
          <path class="cls-1" d="M281.11,653.5l-2.16,7.93h-7.24l9.45-30.9h9.12l9.62,30.9h-7.52l-2.39-7.93h-8.89ZM288.95,648.27l-1.93-6.56c-.5-1.83-1.06-4.17-1.51-5.96h-.14c-.41,1.83-.92,4.17-1.37,5.96l-1.88,6.56h6.83Z"/>
          <path class="cls-1" d="M317.99,630.53v11.92h11.51v-11.92h6.97v30.9h-6.97v-12.89h-11.51v12.89h-6.97v-30.9h6.97Z"/>
          <path class="cls-1" d="M372.72,630.53v30.9h-6.97v-30.9h6.97Z"/>
          <path class="cls-1" d="M385.7,661.43v-30.9h8.16l6.42,11.32c1.83,3.26,3.62,7.11,5.04,10.59h.09c-.41-4.08-.55-8.26-.55-12.93v-8.99h6.42v30.9h-7.34l-6.6-11.92c-1.83-3.35-3.9-7.29-5.36-10.91h-.18c.23,4.13.32,8.48.32,13.52v9.31h-6.42Z"/>
          <path class="cls-1" d="M424.51,654.23c1.83.97,4.76,1.93,7.75,1.93,3.21,0,4.91-1.33,4.91-3.35s-1.47-3.03-5.18-4.31c-5.14-1.83-8.53-4.68-8.53-9.17,0-5.27,4.45-9.26,11.69-9.26,3.53,0,6.06.69,7.89,1.56l-1.56,5.59c-1.19-.6-3.44-1.46-6.42-1.46s-4.49,1.42-4.49,2.98c0,1.97,1.7,2.84,5.73,4.36,5.46,2.02,7.98,4.86,7.98,9.22,0,5.18-3.94,9.58-12.42,9.58-3.53,0-7.02-.96-8.76-1.93l1.42-5.73Z"/>
          <path class="cls-1" d="M461.98,636.4h-8.34v-5.87h23.75v5.87h-8.43v25.04h-6.97v-25.04Z"/>
          <path class="cls-1" d="M495.06,630.53v30.9h-6.97v-30.9h6.97Z"/>
          <path class="cls-1" d="M514.05,636.4h-8.35v-5.87h23.75v5.87h-8.44v25.04h-6.97v-25.04Z"/>
          <path class="cls-1" d="M547.08,630.53v17.75c0,5.36,2.07,8.07,5.6,8.07s5.68-2.56,5.68-8.07v-17.75h6.97v17.33c0,9.54-4.82,14.08-12.89,14.08s-12.33-4.36-12.33-14.17v-17.24h6.97Z"/>
          <path class="cls-1" d="M584.33,636.4h-8.35v-5.87h23.75v5.87h-8.44v25.04h-6.97v-25.04Z"/>
          <path class="cls-1" d="M628.78,648.36h-11.37v7.34h12.7v5.73h-19.67v-30.9h19.03v5.73h-12.06v6.42h11.37v5.69Z"/>
          <path class="cls-1" d="M658.05,630.53h18.85v5.73h-11.87v7.06h11.09v5.69h-11.09v12.42h-6.97v-30.9Z"/>
          <path class="cls-1" d="M702.22,661.94c-9.12,0-14.53-6.93-14.53-15.73,0-9.26,5.96-16.18,15.04-16.18s14.67,7.11,14.67,15.64c0,10.18-6.09,16.28-15.13,16.28h-.05ZM702.59,656.39c4.72,0,7.42-4.45,7.42-10.5,0-5.55-2.61-10.32-7.42-10.32s-7.52,4.67-7.52,10.45,2.8,10.36,7.47,10.36h.05Z"/>
          <path class="cls-1" d="M728.93,630.99c2.25-.41,5.55-.69,9.31-.69,4.59,0,7.79.69,9.99,2.47,1.88,1.47,2.89,3.62,2.89,6.46,0,3.9-2.8,6.6-5.46,7.57v.13c2.16.87,3.35,2.89,4.13,5.73.96,3.53,1.88,7.56,2.47,8.76h-7.15c-.46-.92-1.24-3.39-2.11-7.2-.87-3.89-2.2-4.9-5.09-4.95h-2.07v12.15h-6.92v-30.44ZM735.85,644.24h2.75c3.49,0,5.55-1.74,5.55-4.45s-1.93-4.26-5.13-4.26c-1.7,0-2.66.09-3.16.23v8.48Z"/>
          <path class="cls-1" d="M786.26,630.53v11.92h11.51v-11.92h6.97v30.9h-6.97v-12.89h-11.51v12.89h-6.97v-30.9h6.97Z"/>
          <path class="cls-1" d="M836.17,648.36h-11.37v7.34h12.7v5.73h-19.67v-30.9h19.03v5.73h-12.05v6.42h11.37v5.69Z"/>
          <path class="cls-1" d="M849.21,630.99c2.25-.41,5.55-.69,9.31-.69,4.59,0,7.79.69,9.99,2.47,1.88,1.47,2.89,3.62,2.89,6.46,0,3.9-2.8,6.6-5.46,7.57v.13c2.16.87,3.35,2.89,4.13,5.73.96,3.53,1.88,7.56,2.47,8.76h-7.15c-.46-.92-1.24-3.39-2.11-7.2-.87-3.89-2.2-4.9-5.09-4.95h-2.07v12.15h-6.92v-30.44ZM856.13,644.24h2.75c3.49,0,5.55-1.74,5.55-4.45s-1.93-4.26-5.13-4.26c-1.7,0-2.66.09-3.16.23v8.48Z"/>
          <path class="cls-1" d="M890.35,630.53v30.9h-6.97v-30.9h6.97Z"/>
          <path class="cls-1" d="M909.34,636.4h-8.34v-5.87h23.75v5.87h-8.43v25.04h-6.97v-25.04Z"/>
          <path class="cls-1" d="M939.25,653.5l-2.16,7.93h-7.24l9.45-30.9h9.12l9.62,30.9h-7.52l-2.39-7.93h-8.89ZM947.09,648.27l-1.93-6.56c-.5-1.83-1.06-4.17-1.51-5.96h-.14c-.41,1.83-.92,4.17-1.37,5.96l-1.88,6.56h6.83Z"/>
          <path class="cls-1" d="M993.78,660.01c-2.15.73-6.23,1.74-10.32,1.74-5.64,0-9.72-1.42-12.56-4.13-2.8-2.71-4.36-6.74-4.36-11.28.05-10.27,7.52-16.14,17.65-16.14,3.99,0,7.06.78,8.57,1.46l-1.46,5.64c-1.7-.78-3.76-1.33-7.16-1.33-5.82,0-10.27,3.3-10.27,10s4.03,10.13,9.76,10.13c1.56,0,2.84-.19,3.4-.41v-6.51h-4.77v-5.46h11.51v16.28Z"/>
          <path class="cls-1" d="M1024.57,648.36h-11.37v7.34h12.7v5.73h-19.67v-30.9h19.03v5.73h-12.05v6.42h11.37v5.69Z"/>
        </g>
        <g>
          <path class="cls-1" d="M481.08,94.71v-16.9c0-2.99-2.42-5.43-5.43-5.43h-3.02c-3,0-5.43,2.43-5.43,5.43v16.87l13.87.04Z"/>
          <path class="cls-1" d="M500.73,94.71v-16.9c0-2.99-2.42-5.43-5.43-5.43h-3.02c-3,0-5.43,2.43-5.43,5.43v16.87l13.87.04Z"/>
          <path class="cls-1" d="M520.39,94.71v-16.9c0-2.99-2.42-5.43-5.43-5.43h-3.02c-3,0-5.43,2.43-5.43,5.43v16.87l13.87.04Z"/>
          <polygon class="cls-1" points="682.78 389.46 677.69 389.46 659.94 94.7 664.04 94.7 682.78 389.46"/>
          <path class="cls-1" d="M650.19,94.7v-16.89c0-2.99,2.42-5.43,5.43-5.43h3.02c2.99,0,5.43,2.43,5.43,5.43v16.88l-13.87.02Z"/>
          <path class="cls-1" d="M630.53,94.7v-16.89c0-2.99,2.42-5.43,5.41-5.43h3.04c2.99,0,5.41,2.43,5.41,5.43v16.88l-13.86.02Z"/>
          <path class="cls-1" d="M610.87,94.7v-16.89c0-2.99,2.42-5.43,5.42-5.43h3.03c2.99,0,5.42,2.43,5.42,5.43v16.88l-13.86.02Z"/>
          <rect class="cls-2" x="552.13" y="111.71" width="27.18" height="27.18" transform="translate(77.09 436.73) rotate(-45)"/>
          <rect class="cls-2" x="552.13" y="151.78" width="27.18" height="27.18" transform="translate(48.76 448.46) rotate(-45)"/>
          <rect class="cls-2" x="552.13" y="192.04" width="27.18" height="27.18" transform="translate(20.29 460.25) rotate(-45)"/>
          <path class="cls-1" d="M514.49,105.25c-16.81,0-30.49,13.33-30.49,29.69v106.49h21.24v-106.49c0-4.67,4.14-8.45,9.25-8.45h5.93v-21.24h-5.93Z"/>
          <path class="cls-1" d="M610.97,105.25v21.24h5.93c5.1,0,9.25,3.78,9.25,8.45v106.49h21.24v-106.49c0-16.36-13.7-29.69-30.49-29.69h-5.93Z"/>
          <path class="cls-1" d="M542.37,255.59v88.25c0,7.6-5.93,13.79-13.2,13.79h-10.7c-7.29,0-13.2-6.18-13.2-13.79v-97.69h-21.24v97.69c0,19.31,15.46,35.03,34.44,35.03h10.7c18.98,0,34.44-15.72,34.44-35.03v-77.61c2.04,0,2.17,0,4.21.02v77.59c0,19.31,15.46,35.03,34.44,35.03h10.7c18.98,0,34.42-15.72,34.42-35.03v-97.82h-21.22v97.82c0,7.6-5.93,13.79-13.2,13.79h-10.7c-7.29,0-13.2-6.18-13.2-13.79v-97.76l-46.69.05v9.47Z"/>
          <rect class="cls-1" x="448.25" y="389.46" width="234.54" height="38.04"/>
          <polygon class="cls-1" points="448.25 389.46 453.34 389.46 471.09 94.7 466.99 94.7 448.25 389.46"/>
        </g>
      </g>
    </g>
  </g>
</svg>