<?xml version="1.0" encoding="UTF-8"?>
<svg xmlns="http://www.w3.org/2000/svg" version="1.1" viewBox="0 0 547.03 212.42">
  <defs>
    <style>
      .cls-1 {
        fill: #144d94;
      }

      .cls-2 {
        fill: #f03b3d;
      }
    </style>
  </defs>
  <!-- Generator: Adobe Illustrator 28.6.0, SVG Export Plug-In . SVG Version: 1.2.0 Build 709)  -->
  <g>
    <g id="Layer_1">
      <g>
        <path class="cls-1" d="M116.65,114.08h398.95l-55.69,76.48c2.42-18.91,16.28-46.48-7.99-56.78-10.25-4.35-21.46-3.3-32.32-3.95-100.93-6.01-202.03-9.75-302.95-15.75Z"/>
        <path class="cls-1" d="M57.41,26.36c24.98-1.82,38.36,24.88,24.44,51.13-17.09,32.23-64.34,25.95-58.76-16.61,2.22-16.94,16.78-33.24,34.32-34.52ZM55.2,43.18c-21.19,2.71-22.72,39.94-1.23,37.93,21.01-1.97,25.04-40.98,1.23-37.93Z"/>
        <path class="cls-2" d="M385.18,95.78v-5.12c-8.35,10.76-23.86,7.64-28.19-5.14-7.83-23.09,18.15-49.11,33.32-31.1l.73-4.39h13.55l-6.23,45.74h-13.19ZM379.05,62.58c-9.23,1.3-12.55,17.15-4.2,20.11,14.34,5.08,19.9-22.31,4.2-20.11Z"/>
        <path class="cls-2" d="M495.82,81.51c-6.82,23.68-49.27,21.8-40.3-13.18,7.41-28.91,49.85-26.32,41.77,7.32h-28.94c-1.91,6.81,3.2,11.89,10.06,9.69,3.27-1.05,4.29-3.83,4.59-3.83h12.82ZM469.81,66.14h16.12c-.67-10.56-13.85-8.87-16.12,0Z"/>
        <path class="cls-1" d="M210.8,50.04v5.85c6.28-10.31,24.29-10.68,25.82,3.48.83,7.67-3.26,27.11-4.21,36.41h-13.55c-.18-11.12,8.5-33.49-1.08-34.42-13.18-1.27-9.55,24.73-13.21,34.42h-13.19l6.23-45.74h13.19Z"/>
        <path class="cls-1" d="M186.25,81.51c-7.61,25.17-51.67,20.28-39.49-15.66,8.43-24.87,47.75-24.34,41.32,9.44h-28.94c-1.96,5.2.56,10.51,6.6,10.64,5.82.13,7.22-4.42,7.69-4.42h12.82ZM160.24,66.14h16.12c-.27-10.51-13.94-8.94-16.12,0Z"/>
        <polygon class="cls-2" points="290.66 28.45 330.23 28.45 328.4 43.09 316.31 43.09 308.61 95.78 294.33 95.78 301.06 43.66 300.55 43.09 288.83 43.09 290.66 28.45"/>
        <polygon class="cls-2" points="408.26 50.04 423.28 50.04 429.51 73.09 442.33 50.04 457.35 50.04 430.97 95.78 422.55 95.78 408.26 50.04"/>
        <polygon class="cls-2" points="510.84 21.86 524.39 21.86 514.13 95.78 500.95 95.78 510.84 21.86"/>
        <path class="cls-1" d="M250.73,36.5h13.55l-1.47,13.54h7.33l-1.83,13.17h-7.33l-4.76,32.57h-13.55l4.03-32.57-4.21-.18,2.07-12.94c4.46-1.71,3.45,5.29,6.18-13.59Z"/>
        <path class="cls-2" d="M341.59,50.04l-.37,6.95c3.67-5.49,9.11-8.13,15.74-7.66l-1.82,15.36c-19.97-7.42-16.86,18.98-19.78,31.11h-13.55l6.23-45.74h13.55Z"/>
        <path class="cls-1" d="M108.22,50.04l-.37,7.31c3.3-5.6,9.79-8.89,16.31-7.86l-1.83,15c-20.85-6.89-16.77,18.86-20.33,31.29h-13.19l6.23-45.74h13.19Z"/>
        <polygon class="cls-1" points="128.74 50.04 142.29 50.04 136.06 95.78 122.88 95.78 128.74 50.04"/>
        <path class="cls-1" d="M138.37,23.41c10.49-1.04,9.15,15.84.47,17.68-11.84,2.52-10.51-16.69-.47-17.68Z"/>
      </g>
    </g>
  </g>
</svg>