<?xml version="1.0" encoding="UTF-8"?>
<svg xmlns="http://www.w3.org/2000/svg" version="1.1" viewBox="0 0 1137.99 289.75">
  <defs>
    <style>
      .cls-1 {
        fill-rule: evenodd;
      }

      .cls-1, .cls-2 {
        fill: #274658;
      }

      .cls-3 {
        fill: #8ca4ad;
      }
    </style>
  </defs>
  <!-- Generator: Adobe Illustrator 28.6.0, SVG Export Plug-In . SVG Version: 1.2.0 Build 709)  -->
  <g>
    <g id="Layer_1">
      <g>
        <g>
          <path class="cls-2" d="M393.28,211.24c1.91-1.97,4.13-3.5,6.66-4.62,2.54-1.11,5.3-1.66,8.28-1.66,3.24,0,6.49.67,9.76,2,3.27,1.33,6.11,3.17,8.52,5.52l8.47-10.28c-2.22-2.03-4.79-3.77-7.71-5.24-2.92-1.46-6-2.59-9.24-3.38-3.24-.79-6.51-1.19-9.81-1.19-5.14,0-9.93.86-14.37,2.57-4.44,1.71-8.3,4.13-11.56,7.24-3.27,3.11-5.82,6.74-7.67,10.9-1.84,4.16-2.76,8.65-2.76,13.47s.89,9.35,2.67,13.57c1.78,4.22,4.28,7.88,7.52,10.99,3.24,3.11,7,5.54,11.28,7.28,4.28,1.75,8.96,2.62,14.04,2.62,3.05,0,6.22-.38,9.52-1.14,3.3-.76,6.46-1.81,9.47-3.14,3.01-1.34,5.69-2.83,8.04-4.48v-25.8h0v-2.31h-26.11v10.82h13.07v9.63c-1.34.73-2.73,1.4-4.19,1.95-3.17,1.21-6.12,1.81-8.85,1.81-2.98,0-5.74-.56-8.28-1.67-2.54-1.11-4.76-2.67-6.66-4.66-1.9-2-3.4-4.32-4.47-6.95-1.08-2.63-1.62-5.47-1.62-8.52s.52-5.87,1.57-8.47c1.05-2.6,2.52-4.88,4.43-6.85"/>
          <path class="cls-2" d="M508.26,234.33c4.79-4.29,7.19-10.27,7.19-17.95s-2.4-12.96-7.19-16.99c-4.79-4.03-11.54-6.04-20.23-6.04h-28.94v66.64h15.04v-19.23h13.9c.44,0,.86-.03,1.29-.04l10.71,19.27h17.04l-14.37-22.06c2.07-.96,3.94-2.14,5.56-3.6M474.13,205.43h13.9c4.12,0,7.35.95,9.66,2.85,2.32,1.9,3.47,4.76,3.47,8.57s-1.16,6.87-3.47,8.81c-2.32,1.94-5.54,2.9-9.66,2.9h-13.9v-23.13Z"/>
          <path class="cls-2" d="M596.11,202.2c-3.24-3.11-7.03-5.52-11.37-7.24-4.35-1.71-9.06-2.57-14.14-2.57s-9.79.86-14.14,2.57c-4.35,1.71-8.14,4.11-11.37,7.19-3.24,3.08-5.76,6.7-7.57,10.85-1.81,4.16-2.71,8.68-2.71,13.56s.9,9.33,2.71,13.52c1.81,4.19,4.33,7.85,7.57,10.99,3.24,3.14,7.03,5.58,11.37,7.33,4.35,1.75,9.06,2.62,14.14,2.62s9.79-.87,14.14-2.62c4.35-1.74,8.14-4.19,11.37-7.33,3.24-3.14,5.76-6.81,7.57-10.99,1.81-4.19,2.71-8.7,2.71-13.52s-.9-9.39-2.71-13.52c-1.81-4.12-4.33-7.74-7.57-10.85M589.4,235.09c-1.05,2.63-2.49,4.95-4.33,6.95-1.84,2-3.98,3.55-6.43,4.66-2.44,1.11-5.06,1.67-7.85,1.67s-5.43-.56-7.9-1.67c-2.48-1.11-4.66-2.67-6.57-4.66-1.9-2-3.4-4.32-4.47-6.95-1.08-2.63-1.62-5.47-1.62-8.52s.54-5.87,1.62-8.47c1.08-2.6,2.55-4.88,4.43-6.85,1.87-1.97,4.06-3.49,6.57-4.57,2.51-1.08,5.16-1.62,7.95-1.62s5.41.54,7.85,1.62c2.44,1.08,4.58,2.6,6.43,4.57,1.84,1.97,3.28,4.25,4.33,6.85,1.05,2.6,1.57,5.42,1.57,8.47s-.52,5.89-1.57,8.52"/>
          <path class="cls-2" d="M670.97,232.57c0,4.88-1.32,8.74-3.95,11.56-2.63,2.83-6.11,4.24-10.42,4.24s-8.03-1.41-10.76-4.24c-2.73-2.82-4.09-6.68-4.09-11.56v-39.22h-15.04v39.22c0,5.78,1.2,10.8,3.62,15.09,2.41,4.28,5.85,7.59,10.33,9.9,4.47,2.32,9.76,3.47,15.85,3.47s11.34-1.16,15.75-3.47c4.41-2.32,7.81-5.62,10.19-9.9,2.38-4.28,3.57-9.31,3.57-15.09v-39.22h-15.04v39.22Z"/>
          <path class="cls-2" d="M759.01,199.39c-4.66-4.03-11.22-6.04-19.66-6.04h-28.27v66.64h15.04v-19.23h13.23c8.44,0,14.99-2.14,19.66-6.43,4.66-4.28,7-10.26,7-17.94s-2.33-12.96-7-16.99M748.3,225.66c-2.28,1.94-5.52,2.9-9.71,2.9h-12.47v-23.13h12.47c4.19,0,7.43.95,9.71,2.85,2.28,1.9,3.43,4.76,3.43,8.57s-1.14,6.87-3.43,8.81"/>
        </g>
        <g>
          <path class="cls-2" d="M158.07,139.71h-45.57l-3.19-15.75h-20.53l-3.19,15.75h-45.57L72.27,29.53h53.54c.19.75,32.26,110.17,32.26,110.17M104.53,98.83l-5.44-28.32-5.44,28.32h10.88Z"/>
          <polygon class="cls-2" points="210.01 103.51 252.49 103.51 252.49 139.71 169.04 139.71 169.04 29.54 210.01 29.54 210.01 103.51"/>
          <path class="cls-2" d="M650.61,139.71l-18.85-36.19h-1.59v36.19h-40.98V29.54s22.03-1.59,45.66-1.59c34.6,0,50.35,15.75,50.35,38.54s-14.16,30.75-14.16,30.75l26.72,42.48h-47.16ZM634.96,75.29c5.44,0,9.47-3.94,9.47-8.63s-3.94-8.63-9.47-8.63h-4.78v17.35h4.78v-.09Z"/>
          <polygon class="cls-2" points="807.2 90.2 815.83 29.63 858.3 29.63 834.67 139.8 789.01 139.8 777.38 83.92 765.57 139.8 719.91 139.8 696.37 29.53 738.85 29.53 747.47 90.11 759.29 29.53 795.48 29.53 807.2 90.2"/>
          <path class="cls-2" d="M973.26,139.71h-45.66l-3.19-15.75h-20.44l-3.19,15.75h-45.66l32.26-110.17h53.54c.28.75,32.35,110.17,32.35,110.17M919.81,98.83l-5.44-28.32-5.53,28.32h10.97Z"/>
          <polygon class="cls-2" points="1025.3 90.95 1025.3 139.71 984.32 139.71 984.32 29.53 1029.99 29.53 1056.71 78.29 1056.71 29.53 1097.68 29.53 1097.68 139.71 1052.02 139.71 1025.3 90.95"/>
          <path class="cls-1" d="M532.56,139.62h45.66s-32.07-109.05-32.25-109.7h-53.54l-32.26,109.63,28.6.07h17.07l3.19-15.66h20.44l3.1,15.66ZM519.25,70.7l5.53,28.22h-10.97l5.44-28.22Z"/>
          <polygon class="cls-1" points="390.09 29.56 448.13 29.56 448.13 139.64 407.35 139.64 407.35 78.42 388.6 139.52 388.45 139.52 355.54 139.52 336.78 78.2 336.78 139.43 296 139.43 296 29.35 354.04 29.35 371.2 79.04 390.04 29.35 390.09 29.56"/>
        </g>
        <g>
          <g>
            <polygon class="cls-3" points="970.96 234.18 956.83 234.18 970.94 219.27 985.05 219.27 970.96 234.18"/>
            <polygon class="cls-3" points="999.18 234.18 985.05 234.18 999.16 219.27 1013.27 219.27 999.18 234.18"/>
            <path class="cls-3" d="M967.18,234.09"/>
            <path class="cls-3" d="M1022.26,234.09"/>
            <polygon class="cls-3" points="1027.32 234.18 1013.19 234.18 1027.3 219.27 1041.41 219.27 1027.32 234.18"/>
            <polygon class="cls-3" points="1055.54 234.18 1041.41 234.18 1055.52 219.27 1069.63 219.27 1055.54 234.18"/>
            <polygon class="cls-3" points="1083.76 234.18 1069.63 234.18 1083.74 219.27 1097.85 219.27 1083.76 234.18"/>
            <path class="cls-3" d="M995.29,233.46"/>
          </g>
          <polygon class="cls-2" points="942.72 234.18 818.08 234.18 832.19 219.24 956.84 219.24 942.72 234.18"/>
        </g>
        <g>
          <g>
            <polygon class="cls-3" points="54.19 234.18 40.06 234.18 54.17 219.27 68.28 219.27 54.19 234.18"/>
            <polygon class="cls-3" points="82.41 234.18 68.28 234.18 82.39 219.27 96.5 219.27 82.41 234.18"/>
            <path class="cls-3" d="M50.41,234.09"/>
            <path class="cls-3" d="M105.49,234.09"/>
            <polygon class="cls-3" points="110.54 234.18 96.42 234.18 110.53 219.27 124.64 219.27 110.54 234.18"/>
            <polygon class="cls-3" points="138.76 234.18 124.64 234.18 138.75 219.27 152.86 219.27 138.76 234.18"/>
            <polygon class="cls-3" points="166.98 234.18 152.86 234.18 166.97 219.27 181.08 219.27 166.98 234.18"/>
            <path class="cls-3" d="M78.52,233.46"/>
          </g>
          <polygon class="cls-2" points="307.16 234.18 182.52 234.18 196.63 219.24 321.28 219.24 307.16 234.18"/>
        </g>
      </g>
    </g>
  </g>
</svg>