<?xml version="1.0" encoding="UTF-8"?>
<svg xmlns="http://www.w3.org/2000/svg" version="1.1" viewBox="0 0 834.14 259.78">
  <defs>
    <style>
      .cls-1, .cls-2 {
        fill: #0072bc;
      }

      .cls-3 {
        fill: #00ab4e;
      }

      .cls-3, .cls-2 {
        fill-rule: evenodd;
      }
    </style>
  </defs>
  <!-- Generator: Adobe Illustrator 28.6.0, SVG Export Plug-In . SVG Version: 1.2.0 Build 709)  -->
  <g>
    <g id="Layer_1">
      <g>
        <g>
          <g>
            <path class="cls-2" d="M248.29,62.49l-27.43,158.37h-82.96l13.09-74.47s39.77-66.59,97.31-83.9Z"/>
            <path class="cls-2" d="M107.27,220.86H25.38L52.27,61.79s45.64,15.01,68.96,81.1l-13.95,77.96Z"/>
          </g>
          <g>
            <path class="cls-3" d="M55.49,38.69h36.91s35.83,39.71,33.33,101.76c0,0-10.1-58.56-70.24-101.76Z"/>
            <path class="cls-3" d="M213.22,38.69h35.24s-73.1,43.2-102.13,103.16c0,0,10.73-59.96,66.89-103.16Z"/>
            <path class="cls-3" d="M115.14,38.69h25.25s8.79,54.02-8.94,103.16c0,0,3.94-64.7-16.31-103.16Z"/>
            <path class="cls-3" d="M190.33,38.69h-26.27s-21.31,48.09-24.39,102.81c0,0,19.84-70.49,50.65-102.81Z"/>
          </g>
        </g>
        <g>
          <g>
            <path class="cls-2" d="M254.06,160.06l-.46,1.95s7.38,0,9.54,1.95c2.15,1.95.31,9.3-.31,13.35-.62,4.05-7.4,43.54-7.4,43.54h11.07l11.24-62.75-23.68,1.95Z"/>
            <path class="cls-2" d="M336.66,177.37l17.59-.7,11.97,32.78,21.48-32.64h6.2l-27.97,44.05h-7.35l-12.83-34.91s-1.44-7.17-8.65-6.61l-.43-1.97Z"/>
            <path class="cls-2" d="M403.84,195.24h38.78s2.18-11.03-5.76-15.48c-8.79-4.92-21.91-5.48-33.01,0-11.1,5.49-11.96,16.74-11.68,20.54.29,3.8,2.31,21.24,25.08,21.53,0,0,8.36.99,20.18-3.38v-3.94s-7.64,4.08-16.58,2.39c-8.94-1.69-17.01-6.9-17.01-21.67ZM404.85,191.44h25.52s3.03-11.4-10.52-11.4-14.99,11.4-14.99,11.4Z"/>
            <path class="cls-2" d="M486.02,183.7l1.73-5.35s-4.33-2.39-14.42-2.39-24.22,4.5-24.22,13.64c0,12.95,26.67,11.96,26.67,21.25,0,0,1.46,6.61-12.26,6.61-12.11,0-16.58-4.78-16.58-4.78l-1.44,6.19s1.87,2.53,17.3,2.81c15.42.28,23.72-7.04,24.37-15.05.72-9-10.96-11.54-14.13-12.8-3.17-1.27-12.4-2.96-11.82-8.16.56-5.07,14.13-7.88,24.8-1.97Z"/>
            <path class="cls-2" d="M493.51,176.67h11.1l1.01-7.31,12.11-5.35-1.59,12.66h14.56l-.81,3.81h-14.39l-5.7,30.52s-2.16,8.86,13.41,5.91l-.72,4.5s-15.14,1.55-19.61-1.13c-4.47-2.68-5.04-6.33-4.32-11.4.72-5.06,5.19-28.42,5.19-28.42h-10.96l.72-3.8Z"/>
            <path class="cls-1" d="M280.2,178.07l20.14-1.95-1.97,10.36c5.07-4.67,13.09-10.7,20.85-10.79,10.96-.14,15.71,3.66,14.42,11.96-1.37,8.75-5.51,33.22-5.51,33.22h-11.53l5.07-32.52s2.17-7.6-5.48-7.74c-5.87-.11-14.15,5.7-20.08,17.74l-4.29,22.51h-11.07s4.05-21.49,4.67-25.54c.62-4.05,2.46-11.4.31-13.36-2.15-1.95-6-1.95-6-1.95l.46-1.95Z"/>
          </g>
          <g>
            <path class="cls-1" d="M669.73,178.07l20.14-1.95-1.97,10.36c5.07-4.67,13.09-10.7,20.85-10.79,10.96-.14,15.72,3.66,14.42,11.96-1.37,8.75-5.6,33.22-5.6,33.22h-11.53l5.16-32.52s2.16-7.6-5.48-7.74c-5.88-.11-14.15,5.7-20.08,17.74l-4.28,22.51h-11.08s4.06-21.49,4.68-25.54c.61-4.05,2.46-11.4.3-13.36-2.15-1.95-5.99-1.95-5.99-1.95l.46-1.95Z"/>
            <path class="cls-1" d="M728.52,158.82l21.12-1.99-6.95,38.89,27.22-19.05h6.93l-25.11,19.56,22.75,24.64h-14.01l-18.6-20.57-3.67,20.57h-11.08s6.98-40.77,7.6-44.83c.62-4.05,2.46-11.4.31-13.35-2.15-1.95-6.97-1.91-6.97-1.91l.46-1.95Z"/>
            <path class="cls-2" d="M651.8,197.49s-.29,17.16-12.83,19.14c-12.54,1.97-12.49-4.93-12.4-6.47.15-2.53,5.62-13.65,25.23-12.66ZM618.79,188.48h13.12s2.45-8.29,11.68-8.01c9.23.27,10.96,3.93,9.51,12.93,0,0-36.76-.84-39.64,17.02,0,0-2.02,11.82,14.85,11.82,12.69,0,20.18-7.03,20.18-7.03l-1.05,5.64h10.96l6.96-31.11s5.91-13.65-21.34-13.65c-23.21,0-25.23,12.38-25.23,12.38Z"/>
            <path class="cls-2" d="M572.12,190.37c3.03-5.13,7.97-10.39,15.06-9.89,12.58.87,10.87,14.52,10.52,17.98-.34,3.46-3.7,18.9-17.65,18.9-7.36,0-10.42-3.64-11.56-7.8l3.62-19.19ZM586.84,176.67c9.15-1.47,25.89.54,23.14,21.9-3.1,24.11-26.72,23.36-29.59,23.36-1.89,0-8.92-.24-13.22-5.39l-11.75,3.94s7.16-40.48,7.78-44.53c.61-4.05,2.62-12.34.46-14.29-2.15-1.95-6.87-1.17-6.87-1.17l.46-2.73,21.32-1.57-5.04,26.67c4.05-3.47,8.84-5.47,13.3-6.18Z"/>
          </g>
        </g>
        <polygon class="cls-1" points="252.94 150.57 774.54 150.57 774.09 153.94 252.5 153.94 252.94 150.57"/>
        <g>
          <g>
            <path class="cls-2" d="M280.57,87.2v1.95s7.41-.76,6.41,8.14c-1,8.9-3.85,23.01-3.85,23.01,0,0-.89,12.15-11.56,12.15,0,0-6.44-.9-9.88.86-2.15,1.1-4.7,4.03-4.7,4.03,0,0,18.88,1.25,23.58-.14,4.7-1.39,10.76-5.42,12.61-15.64,1.85-10.22,5.98-35.88,5.98-35.88l-18.59,1.53Z"/>
            <path class="cls-1" d="M407.13,61.97c.23-3.26,3.13-5.96,6.47-6.02,3.34-.06,5.86,2.53,5.63,5.79-.23,3.26-3.13,5.96-6.47,6.02-3.34.07-5.86-2.53-5.63-5.79Z"/>
            <path class="cls-1" d="M399.63,74.07c.23-3.26,3.13-5.96,6.47-6.02,3.34-.07,5.86,2.53,5.63,5.79-.23,3.26-3.13,5.96-6.47,6.03-3.34.06-5.86-2.53-5.63-5.79Z"/>
            <path class="cls-1" d="M413.76,74.07c.23-3.26,3.13-5.96,6.47-6.02,3.34-.07,5.87,2.53,5.63,5.79-.23,3.26-3.13,5.96-6.47,6.03-3.34.06-5.86-2.53-5.63-5.79Z"/>
            <path class="cls-1" d="M435.67,74.07c.23-3.26,3.13-5.96,6.47-6.02,3.34-.07,5.86,2.53,5.63,5.79-.23,3.26-3.13,5.96-6.47,6.03-3.34.06-5.86-2.53-5.63-5.79Z"/>
            <path class="cls-1" d="M449.8,74.07c.23-3.26,3.13-5.96,6.47-6.02,3.34-.07,5.86,2.53,5.63,5.79-.23,3.26-3.13,5.96-6.47,6.03-3.34.06-5.86-2.53-5.63-5.79Z"/>
            <path class="cls-2" d="M562.81,70.31l17.77-1.69-6.63,39.67s-3.75,12.52-11.68,12.8l7.36-44.04s.57-5.63-7.07-4.92l.25-1.82Z"/>
            <path class="cls-2" d="M610.67,70.31l17.77-1.69-8.65,49.8s-2.74,12.52-11.68,12.8l9.37-54.16s.57-5.63-7.07-4.92l.25-1.82Z"/>
            <path class="cls-2" d="M588.16,110.1c.5-3.07,5.53-33.03,5.53-33.03,0,0,.58-5.63-7.06-4.92l.25-1.82,17.78-1.69-6.63,39.67s-1.65,12.1-8.42,16.39c0,0-4.4,4.15-16.79,3.87-12.4-.28-21.48-.28-21.48-.28,0,0,2.59-4.5,8.22-4.92,5.62-.43,18.75.8,23.32-3.71,3.61-3.56,4.8-6.48,5.3-9.55Z"/>
            <path class="cls-2" d="M569.58,133.26l-.81,2.83s-10.11-1.13-10.22,2.38c-.12,3.51,5.35,4.07,9.18,3.85l-.58,2.49h-19.49l.23-2.6h4.75s-1.51-2.26-1.51-4.75,2.32-4.09,5.91-4.32c3.59-.23,12.54.14,12.54.14Z"/>
            <path class="cls-2" d="M346.49,105.76c1.18-9.24,7.43-16.74,13.95-16.74s10.84,7.5,9.66,16.74c-1.18,9.25-7.43,16.74-13.95,16.74s-10.85-7.49-9.66-16.74ZM399.66,86.91l18.16-1.27-3.75,23.21s-1.73,14.21,11.1,14.21,14.85-13.37,14.85-13.37l2.16-15.48s-.29-5.62-6.34-4.78v-2.39l18.16-1.55-4.04,25.75s-.86,12.1,16.29,12.1,17.88-11.4,18.6-15.05c.72-3.66,2.02-12.52,2.02-12.52,0,0,.14-6.75-6.35-6.61v-1.97l17.88-1.41-3.46,23.78s-.72,13.51,8.79,13.51,9.66-12.24,9.95-14.07c.29-1.83,1.58-12.8,1.58-12.8,0,0,1.44-6.89-5.91-6.75v-1.83l18.45-1.55-4.33,25.32s-.43,11.53,8.94,11.53,9.51-11.39,9.51-11.39l2.59-16.88s.58-5.91-6.49-5.34v-1.83l17.73-1.54-4.04,26.44s-1.87,16.6-19.46,16.6c0,0-9.08-.71-13.41-7.03,0,0-5.62,7.17-15.71,7.17s-13.12-7.88-13.12-7.88c0,0-4.47,7.6-23.64,7.6s-20.76-7.74-20.76-7.74c0,0-4.04,7.46-20.04,7.46s-16.43-6.75-16.43-6.75c0,0-6.34,7.17-18.16,7.17s-18.74-7.32-18.74-7.32c0,0-2.88,6.75-15.86,6.75s-14.85-6.89-14.85-6.89c0,0-3.17,6.61-11.39,6.61s-28.69-.14-28.69-.14l8.36-49.38s1.73-6.9-5.62-7.18v-1.97l18.02-1.55-9.81,54.59h11.97s6.78.42,9.23-5.63c2.45-6.05,3.75-31.51,26.67-32.07,0,0,14.56-.56,17.74,9.7,2.93,9.5-2.88,28.84,11.53,28.28,14.42-.56,14.13-12.24,14.13-12.24l2.31-16.04s-.14-6.61-6.34-5.48v-2.11Z"/>
          </g>
          <g>
            <path class="cls-2" d="M697.35,86.32l-1,3.46s-12.26-2.02-12.7,2.9c-.39,4.27,6.65,4.97,11.4,4.7l-.72,3.04h-24.22l.29-3.18h5.9s-1.87-2.76-1.87-5.8,2.88-5,7.34-5.28c4.47-.28,15.58.16,15.58.16Z"/>
            <path class="cls-2" d="M661.75,86.63h-12.31s-6.86,7.31-6.86,17.17,9.94,25.18,36.76,25.18c23.21,0,31.72-9.43,31.72-9.43,0,0,1.87,9.57,18.45,9.57s19.75-7.04,19.75-7.04c0,0,4.32,7.32,18.31,7.32s20.33-10.69,21.92-17.02c1.58-6.33,4.61-26.03,4.61-26.03l-17.73,1.55v1.97s5.91-.14,5.48,7.46l-2.45,15.33s-2.6,11.26-12.83,11.26-13.55-7.18-12.4-14.63c1.15-7.46,3.32-22.79,3.32-22.79l-17.88,1.55v1.83s7.64-.42,6.63,7.6c-1.01,8.02-2.31,14.21-2.31,14.21,0,0-2.88,12.1-14.13,12.1s-13.12-8.16-12.11-15.33c1.01-7.18,6.77-39.11,6.77-39.11l-18.02,1.27v1.97s7.21.42,6.05,7.88c-1.15,7.46-4.61,27.15-4.61,27.15,0,0-3.32,16.04-27.97,16.04s-27.57-17.32-27.25-22.09c.58-8.44,9.08-14.91,9.08-14.91Z"/>
            <path class="cls-1" d="M748.11,74.17c.23-3.26,3.13-5.96,6.48-6.02,3.34-.06,5.86,2.53,5.63,5.79-.23,3.26-3.13,5.96-6.47,6.02s-5.86-2.53-5.63-5.79Z"/>
            <path class="cls-1" d="M762.64,137.34c.23-3.26,3.13-5.96,6.47-6.02,3.34-.06,5.87,2.53,5.63,5.79-.23,3.26-3.13,5.96-6.47,6.02-3.34.06-5.86-2.53-5.63-5.79Z"/>
          </g>
        </g>
      </g>
    </g>
  </g>
</svg>