
        <svg xmlns="http://www.w3.org/2000/svg" xmlns:xlink="http://www.w3.org/1999/xlink" version="1.1" width="3300" 
        height="1676.8001118732805" viewBox="0 0 3300 1676.8001118732805">
			<rect fill="#2b2e4a" width="3300" height="1676.8001118732805"/>
			<g transform="scale(15) translate(10, 10)">
				<defs id="SvgjsDefs15010"><linearGradient id="SvgjsLinearGradient15015"><stop id="SvgjsStop15016" stop-color="#ee2a7b" offset="0"></stop><stop id="SvgjsStop15017" stop-color="#ff7db8" offset="1"></stop></linearGradient></defs><g id="SvgjsG15011" featureKey="tOsHRK-0" transform="matrix(0.27962642292199374,0,0,0.27962642292199374,127.60857896647452,54.15949894619546)" fill="url(#SvgjsLinearGradient15015)"><g xmlns="http://www.w3.org/2000/svg"><polygon points="82.006,43.086 53.083,64.1 56.483,66.571 94.381,39.087 64.431,39.087 65.73,43.086  "></polygon><polygon points="49.678,19.597 60.727,53.598 64.128,51.128 49.678,6.582 40.449,35.055 44.655,35.055  "></polygon><polygon points="29.697,81.09 40.737,47.115 36.533,47.115 22.058,91.598 46.267,73.996 42.865,71.523  "></polygon><polygon points="30.521,52.656 17.35,43.086 53.094,43.086 51.795,39.087 4.976,39.087 29.222,56.658  "></polygon><polygon points="64.626,65.598 69.659,81.09 40.734,60.076 39.435,64.072 77.294,91.604 68.027,63.125  "></polygon></g></g><g id="SvgjsG15012" featureKey="dVtZHI-0" transform="matrix(3.0321452927628445,0,0,3.0321452927628445,-0.0003014575450616136,31.14370465268852)" fill="#ffffff"><path d="M1.8 20 c0.58666 0 1.1334 -0.06664 1.6401 -0.19998 l-0.16 -0.6 c-0.45334 0.12 -0.94668 0.18 -1.48 0.18 l-1.18 0 l0 -14.46 l1.18 0 c0.86666 0 1.6633 0.17 2.39 0.51 s1.3533 0.81 1.88 1.41 s0.94 1.3233 1.24 2.17 s0.45 1.7767 0.45 2.79 l0 0.42 c0 0.74666 -0.1 1.48 -0.3 2.2 s-0.47334 1.3833 -0.82 1.99 s-0.75332 1.1367 -1.22 1.59 s-0.96 0.78 -1.48 0.98 l0.24 0.58 c0.58666 -0.24 1.1333 -0.60334 1.64 -1.09 s0.95 -1.0567 1.33 -1.71 s0.68 -1.37 0.9 -2.15 s0.33 -1.5767 0.33 -2.39 l0 -0.42 c0 -1.0933 -0.16666 -2.0966 -0.5 -3.01 s-0.79334 -1.7033 -1.38 -2.37 s-1.28 -1.1867 -2.08 -1.56 s-1.6733 -0.56 -2.62 -0.56 l-1.8 0 l0 15.7 l1.8 0 z M16.52 6.140000000000001 c0 0.08 0.23666 0.84334 0.71 2.29 s0.99 3.03 1.55 4.75 s1.3133 3.9934 2.26 6.82 l0.86 0 l-5.3 -15.76 l-0.16 0 l-5.26 15.76 l0.82 0 z M16.16 15.52 l-0.72 0 l1.2 4.48 l0.72 0 z M28.9 15.219999999999999 c0.85334 -0.48 1.5067 -1.1567 1.96 -2.03 s0.68 -1.8633 0.68 -2.97 l0 -0.28 c0 -1.64 -0.49 -3 -1.47 -4.08 s-2.3766 -1.62 -4.19 -1.62 l-1.38 0 l0 6.34 c0.22666 0.01334 0.45332 0.02 0.67998 0.02 l0 -5.72 l0.66 0 c1.64 0 2.88 0.47666 3.72 1.43 s1.26 2.1766 1.26 3.67 l0 0.22 c0 1.48 -0.42 2.6934 -1.26 3.64 s-2.08 1.42 -3.72 1.42 l-0.66 0 l0 0 l-0.68 0 l0 0.64 c0.4 0.01334 0.66666 0.02 0.8 0.02 l0.58 0 c0.92 0 1.7267 -0.14 2.42 -0.42 l2.48 4.5 l0.8 0 z M46.12 19.96 l0.039942 -0.63998 c-1.96 -0.13334 -3.52 -0.94668 -4.68 -2.44 c-1.1067 -1.3867 -1.66 -3.06 -1.66 -5.02 c0 -1.0267 0.16666 -1.9167 0.5 -2.67 s0.83334 -1.4833 1.5 -2.19 c1.3333 -1.4 3 -2.1 5 -2.1 c1.2133 0 2.3066 0.26 3.28 0.78 s1.7667 1.2467 2.38 2.18 l0.48 -0.38 c-0.66666 -1.0133 -1.5333 -1.8067 -2.6 -2.38 c-1.0133 -0.54666 -2.16 -0.81332 -3.44 -0.79998 c-1.08 0 -2.0934 0.18334 -3.04 0.55 s-1.78 0.93 -2.5 1.69 c-0.72 0.77334 -1.2633 1.5733 -1.63 2.4 s-0.55 1.8 -0.55 2.92 c0.01334 2.12 0.62 3.9334 1.82 5.44 c1.28 1.6133 2.98 2.5 5.1 2.66 z M47.34 19.98002 c1.0933 -0.06666 2.0934 -0.32664 3 -0.77998 c1.04 -0.53334 1.9133 -1.2867 2.62 -2.26 l-0.46 -0.4 c-0.64 0.88 -1.4467 1.5733 -2.42 2.08 c-0.84 0.42666 -1.76 0.66666 -2.76 0.72 z M56.04 13.96 l0 -9.72 l-0.68 0 l0 15.76 l0.68 0 l0 -5.4 l0 -0.64 z M56.32 14.6 l5.84 0 l0 5.4 l0.68 0 l0 -11.62 l-0.68 0 l0 5.58 l-5.84 0 l0 0.64 z M65.44 4.24 l0 15.76 l0.52 0 l0 -15.76 l-0.52 0 z"></path></g>
			</g>
		</svg>
	