<?xml version="1.0" encoding="UTF-8"?>
<svg xmlns="http://www.w3.org/2000/svg" version="1.1" viewBox="0 0 648.9 474.05">
  <defs>
    <style>
      .cls-1 {
        fill: #e20011;
      }

      .cls-2 {
        fill: #5b5e61;
      }
    </style>
  </defs>
  <!-- Generator: Adobe Illustrator 28.6.0, SVG Export Plug-In . SVG Version: 1.2.0 Build 709)  -->
  <g>
    <g id="Layer_1">
      <g>
        <g>
          <g>
            <path class="cls-2" d="M144,228.83h-23.81v-19.98h-28.77v19.98h-23.81v-51.49h23.81v20.2h28.77v-20.2h23.81v51.49Z"/>
            <path class="cls-2" d="M209.59,177.34l31.99,51.49h-25.92l-6.57-11.09h-27.16l-5.83,11.09h-24.68l29.02-51.49h29.14ZM195.21,189.85h-.62l-9.18,17.5h18.97l-9.18-17.5Z"/>
            <path class="cls-2" d="M321.19,228.83h-25.67l-16-18.99h-7.44v18.99h-23.68v-51.49h37.57c5.54,0,10.25.4,14.14,1.21,3.88.81,7.01,1.88,9.36,3.24s4.07,2.92,5.15,4.69c1.07,1.78,1.61,3.64,1.61,5.58,0,3.79-1.34,6.84-4.03,9.14-2.69,2.3-6.18,4.09-10.48,5.37l19.47,22.26ZM277.79,200.02c1.74,0,3.45-.09,5.15-.28,1.69-.19,3.18-.53,4.46-1.03,1.28-.5,2.31-1.17,3.1-2.03.78-.85,1.18-1.97,1.18-3.34,0-1.85-.95-3.27-2.85-4.27-1.9-1-4.96-1.49-9.18-1.49h-7.56v12.45h5.7Z"/>
            <path class="cls-2" d="M329.25,228.83v-51.49h33.85c7.77,0,14.46.58,20.09,1.74,5.62,1.16,10.23,2.82,13.83,4.98,3.6,2.16,6.26,4.78,8,7.86,1.74,3.08,2.6,6.54,2.6,10.38s-.93,7.54-2.79,10.81-4.69,6.07-8.49,8.39c-3.8,2.32-8.64,4.12-14.51,5.4-5.87,1.28-12.81,1.92-20.83,1.92h-31.74ZM359.63,218.66c4.71,0,8.62-.38,11.72-1.14,3.1-.76,5.54-1.82,7.32-3.2,1.78-1.37,3.02-3.05,3.72-5.01.7-1.97,1.05-4.16,1.05-6.58,0-2.84-.41-5.24-1.24-7.18-.83-1.94-2.15-3.5-3.97-4.66-1.82-1.16-4.11-2-6.88-2.52-2.77-.52-6.14-.78-10.11-.78h-8.18v31.08h6.57Z"/>
            <path class="cls-2" d="M457.71,229.68c-7.69,0-14.22-.6-19.59-1.81-5.37-1.21-9.78-2.94-13.21-5.19-3.43-2.25-5.93-4.99-7.5-8.21-1.57-3.22-2.36-6.87-2.36-10.95s.91-7.56,2.73-10.88c1.82-3.32,4.57-6.18,8.25-8.57,3.68-2.39,8.29-4.27,13.83-5.62,5.54-1.35,12.03-2.03,19.47-2.03,5.21,0,10,.36,14.38,1.07,4.38.71,8.18,1.83,11.41,3.34,3.22,1.52,5.77,3.46,7.63,5.83,1.86,2.37,2.91,5.24,3.16,8.61l-21.58,1.21c-.33-3.56-1.76-6.05-4.28-7.47-2.52-1.42-6.22-2.13-11.1-2.13-6.12,0-10.85,1.27-14.2,3.8-3.35,2.54-5.02,6.63-5.02,12.27s1.57,9.93,4.71,12.45c3.14,2.51,7.89,3.77,14.26,3.77,2.73,0,5.02-.22,6.88-.68,1.86-.45,3.39-1.04,4.59-1.78,1.2-.73,2.15-1.61,2.85-2.63.7-1.02,1.26-2.1,1.67-3.24l21.08,1.92c-.66,3.18-2.25,5.84-4.77,8-2.52,2.16-5.56,3.9-9.11,5.23-3.56,1.33-7.46,2.28-11.72,2.84-4.26.57-8.41.85-12.46.85Z"/>
          </g>
          <path class="cls-2" d="M545.56,229.68c-7.69,0-14.24-.65-19.65-1.96-5.42-1.3-9.84-3.12-13.27-5.44-3.43-2.32-5.93-5.09-7.5-8.29-1.57-3.2-2.36-6.72-2.36-10.56s.93-7.41,2.79-10.7c1.86-3.29,4.65-6.15,8.37-8.57,3.72-2.42,8.39-4.31,14.01-5.69,5.62-1.37,12.19-2.06,19.72-2.06s13.95.69,19.28,2.06c5.33,1.38,9.69,3.24,13.08,5.58,3.39,2.35,5.85,5.11,7.38,8.29,1.53,3.18,2.29,6.54,2.29,10.1,0,4.17-.89,7.93-2.67,11.27-1.78,3.34-4.46,6.2-8.06,8.57-3.6,2.37-8.18,4.2-13.76,5.48-5.58,1.28-12.13,1.92-19.65,1.92ZM546.43,219.01c2.81,0,5.37-.26,7.69-.78,2.31-.52,4.3-1.4,5.95-2.63,1.65-1.23,2.93-2.87,3.84-4.91.91-2.04,1.36-4.57,1.36-7.61,0-5.74-1.55-9.84-4.65-12.3-3.1-2.46-7.59-3.7-13.45-3.7-6.37,0-11.26,1.24-14.69,3.73-3.43,2.49-5.15,6.6-5.15,12.34,0,2.99.41,5.49,1.24,7.5.83,2.02,2.05,3.64,3.66,4.87,1.61,1.23,3.62,2.12,6.01,2.67,2.4.55,5.12.82,8.18.82Z"/>
        </g>
        <path class="cls-2" d="M513.36,389.45l5.72-2.61c1.33-.59,2.06-1.27,2.18-2.05.05-.55-.28-1.6-.98-3.15l-1.18-2.59c-.65-1.44-1.24-2.4-1.76-2.86-.44-.35-.92-.44-1.44-.28-.1,0-.41.13-.92.36l-6.32,2.88,4.7,10.31ZM515.85,394.9l3.16,6.94c1.04,2.13,2.21,3.57,3.5,4.33l-13.8,6.29c.26-1.5-.08-3.33-.99-5.48l-10.6-23.27c-1.02-2.09-2.18-3.53-3.48-4.32l24.51-11.16c1.93-.88,3.49-1.37,4.68-1.46,2.71-.1,4.84,1.47,6.39,4.7l3.43,7.53c1.01,2.33,1.17,4.36.48,6.07-.44,1.12-1.29,2.11-2.55,2.95-.49.35-1.42.82-2.76,1.44l-11.97,5.45ZM473.87,385.99c-.43,1.42-.29,3.26.4,5.53l6.55,19.65c.5,1.5.97,2.45,1.39,2.88.7.55,1.72.6,3.04.14l9.62-3.21c1.33-.43,2.12-1.07,2.35-1.93.09-.59-.11-1.64-.61-3.14l-6.55-19.65c-.81-2.22-1.8-3.77-3-4.67l7.76-2.59c-.43,1.42-.29,3.26.4,5.53l6.5,19.49c.66,1.97,1,3.51,1.02,4.61.03.9-.13,1.86-.49,2.88-.35,1.02-.84,1.88-1.45,2.59-.92,1.11-2.18,1.93-3.79,2.47l-16.84,5.61c-2.6.83-4.93.57-6.99-.79-.79-.5-1.43-1.03-1.9-1.58-.47-.55-.93-1.3-1.36-2.25-.36-.78-.7-1.64-1.03-2.61l-6.5-19.49c-.8-2.18-1.79-3.74-3.01-4.66l14.46-4.82ZM439,406.3l3.53,15.44c.35,1.54.72,2.54,1.11,3,.66.61,1.66.76,3.03.43l4.32-.99c1.38-.3,2.22-.86,2.54-1.7.15-.58.05-1.64-.31-3.18l-3.53-15.44c-.35-1.54-.72-2.54-1.11-3-.65-.61-1.66-.76-3.03-.43l-4.77,1.09c-1.16.27-1.86.8-2.09,1.6-.15.57-.05,1.62.31,3.18ZM432.72,397.22l18.67-4.27c1.5-.34,3.01-.3,4.51.14,2.05.6,3.54,1.84,4.47,3.67.62,1.21,1.13,2.69,1.54,4.46l3.46,15.12c.77,3.45.72,6.01-.14,7.68-.63,1.34-1.68,2.43-3.14,3.32-.81.47-1.68.82-2.59,1.03l-18.67,4.27c-1.5.34-3.01.3-4.51-.14-2.05-.6-3.54-1.84-4.49-3.67-.61-1.21-1.12-2.7-1.52-4.47l-3.46-15.12c-.77-3.45-.72-6.01.14-7.68.63-1.34,1.68-2.43,3.14-3.32.81-.47,1.68-.82,2.58-1.03ZM403.36,417.78l6.91-1.14c1.06-.18,1.74-.52,2.03-1.03.19-.5.2-1.34,0-2.52l-.29-1.78c-.28-1.7-.59-2.75-.93-3.12-.44-.39-1.3-.48-2.59-.25l-6.57,1.08,1.44,8.76ZM408.14,423.07l-3.81.63,1.64,9.97c.45,2.31,1.19,4,2.23,5.07l-15.04,2.48c.64-1.38.8-3.22.48-5.52l-4.16-25.26c-.44-2.28-1.18-3.97-2.23-5.08l26.72-4.4c2.1-.35,3.75-.41,4.94-.2,2.65.61,4.3,2.68,4.94,6.21l1.27,7.74c.27,1.63.28,2.84.02,3.64-.48,1.39-1.48,2.21-3,2.46-.24.04-.55.07-.92.1l6.17,9.65c1.08,1.75,2.19,3.24,3.31,4.47l-14.31,2.36-8.26-14.32ZM384.89,405.59l1.63,6.99c-.72-.37-1.37-.62-1.94-.71-.7-.11-1.86-.11-3.48.01l-12.46.92c-1.41.09-2.33.52-2.78,1.31-.24.56-.3,1.62-.18,3.2l1.16,15.79c.12,1.57.33,2.61.65,3.11.56.71,1.53,1,2.94.88l3.52-.26c1.08-.08,1.8-.43,2.13-1.06.2-.48.26-1.38.16-2.73l-.46-6.24-3.09.23c-.91.07-1.62.17-2.12.32-.5.14-1.08.41-1.72.78l-.48-6.57,20.73-1.53c-.76,1.27-1.08,3.08-.98,5.46l.8,10.84c.24,2.37.82,4.13,1.77,5.27l-10.85.8c-.32-1-.61-2.29-.9-3.89.06,1.63-.42,2.79-1.44,3.47-.63.36-2,.65-4.1.89l-9.56.7c-2.12.16-3.76.07-4.92-.26-2.57-.84-4.02-3.05-4.35-6.61l-1.56-21.21c-.14-2.56.41-4.52,1.65-5.89.8-.9,1.94-1.53,3.43-1.88.59-.15,1.61-.28,3.09-.39l23.71-1.75ZM303.86,418.34l-.7,15.82c-.07,1.58.02,2.64.27,3.18.47.76,1.4,1.17,2.81,1.21l4.42.19c1.41.08,2.37-.24,2.9-.96.29-.52.48-1.57.55-3.15l.7-15.82c.07-1.58-.02-2.64-.27-3.18-.47-.77-1.4-1.17-2.81-1.21l-4.89-.22c-1.19-.05-2.01.27-2.44.98-.29.51-.48,1.55-.55,3.15ZM300.22,407.92l19.13.84c1.54.07,2.98.51,4.31,1.34,1.81,1.12,2.92,2.71,3.34,4.73.28,1.33.37,2.9.29,4.71l-.68,15.49c-.17,3.53-.9,5.99-2.18,7.37-.97,1.12-2.27,1.9-3.91,2.36-.91.24-1.84.35-2.77.31l-19.13-.84c-1.54-.07-2.98-.51-4.31-1.34-1.81-1.13-2.93-2.71-3.35-4.73-.26-1.33-.36-2.9-.28-4.71l.68-15.49c.17-3.53.9-5.99,2.18-7.37.96-1.12,2.27-1.9,3.91-2.36.91-.24,1.84-.35,2.76-.3ZM288.78,407.52l.37,7.56c-.7-.68-1.45-1.16-2.25-1.47-.78-.25-2.02-.47-3.71-.65l-6.86-.71c-1.1-.11-1.83-.12-2.17-.02-.87.2-1.43.96-1.72,2.26-.04.18-.11.83-.23,1.96l-1.59,15.33c-.18,1.73.06,2.98.7,3.74.38.4.88.66,1.52.8.38.08.93.15,1.62.22l6.48.67c2.48.27,4.61.11,6.38-.49l-1.74,6.99-20.1-2.08c-2.71-.32-4.73-1.51-6.04-3.6-.51-.78-.88-1.52-1.08-2.22-.2-.7-.31-1.57-.31-2.61-.01-.86.04-1.79.14-2.8l1.6-15.43c.21-2.07.54-3.6.97-4.62.34-.83.88-1.64,1.63-2.42.74-.78,1.54-1.36,2.38-1.76,1.31-.63,2.8-.86,4.46-.69l19.55,2.02ZM232.41,430.91l5.88.97c1.39.25,2.39.04,3-.61.35-.48.67-1.5.92-3.06l2.57-15.63c.26-1.56.29-2.62.11-3.19-.37-.82-1.26-1.33-2.65-1.54l-5.88-.97-3.96,24.03ZM217.75,434.58c1.05-1.11,1.79-2.8,2.23-5.09l4.16-25.24c.31-2.31.16-4.14-.48-5.53l26.84,4.42c1.51.25,2.88.86,4.12,1.84,1.67,1.31,2.58,3.02,2.75,5.09.12,1.35.03,2.92-.27,4.71l-2.52,15.3c-.59,3.46-1.6,5.82-3.04,7.05-1.09,1-2.48,1.62-4.16,1.88-.94.13-1.87.13-2.78-.03l-26.84-4.42ZM198.13,407.6l6.77,1.77c1.04.27,1.8.24,2.28-.12.38-.38.73-1.14,1.03-2.3l.46-1.75c.44-1.67.58-2.75.42-3.23-.24-.53-.99-.96-2.26-1.28l-6.44-1.69-2.25,8.59ZM200.35,414.37l-3.74-.98-2.56,9.78c-.53,2.29-.54,4.14-.03,5.54l-14.75-3.87c1.15-1,2.04-2.62,2.69-4.84l6.49-24.76c.53-2.27.54-4.11.03-5.55l26.19,6.86c2.06.54,3.59,1.15,4.59,1.83,2.17,1.64,2.83,4.2,1.99,7.68l-1.99,7.59c-.42,1.6-.91,2.71-1.47,3.33-1.01,1.08-2.25,1.42-3.74,1.03-.24-.06-.53-.16-.88-.29l1.7,11.33c.27,2.03.68,3.85,1.2,5.43l-14.02-3.68-1.71-16.44ZM164.02,403.3l-.45-12.01-7.92,9.22,8.37,2.79ZM162.65,381.08l13.78,4.59.82,34.05c.1,1.69.46,3.31,1.07,4.88l-15.72-5.24c.76-.5,1.27-1.16,1.55-2.01.32-.96.44-2.18.35-3.65l-.22-4.18-12.84-4.28-3.52,4.08c-.67.79-1.12,1.52-1.36,2.22-.18.55-.23,1.36-.14,2.42l-8.76-2.92c1.94-1.24,3.91-3,5.89-5.24l19.67-22.26c-.06-.88-.25-1.7-.57-2.47ZM131.7,390.41l-8.72-3.97-4.22,9.27c-.92,2.18-1.25,4.01-.98,5.48l-13.88-6.32c1.3-.79,2.46-2.24,3.49-4.34l10.6-23.26c.9-2.14,1.24-3.97.98-5.47l13.88,6.32c-1.28.75-2.44,2.19-3.49,4.33l-3.89,8.54,8.72,3.97,3.89-8.54c.93-2.19,1.25-4.02.97-5.47l13.88,6.32c-1.28.74-2.44,2.19-3.48,4.33l-10.6,23.26c-.92,2.18-1.26,4.01-.98,5.48l-13.88-6.32c1.29-.76,2.45-2.21,3.5-4.34l4.22-9.27Z"/>
        <path class="cls-1" d="M620.15,149.68h-35.26c-12.85-26.67-36.13-51.06-68.55-71.23-51.3-31.91-119.45-49.48-191.89-49.48s-140.59,17.57-191.89,49.48c-32.43,20.17-55.7,44.57-68.55,71.23H28.75v99.12h35.3c9.61,19.91,25.02,38.56,45.72,55.12l.03.07s.02-.01.03-.02c6.98,5.58,14.56,10.92,22.72,16,51.3,31.91,119.45,49.48,191.89,49.48s140.59-17.57,191.89-49.48c32.4-20.16,55.67-44.53,68.53-71.17h35.28v-99.12ZM578.81,149.68h-52.88c-4.67-12.48-11.08-24.48-19.19-35.77,10.91-4.04,21.39-8.46,31.38-13.24,17.72,14.65,31.59,31.18,40.69,49ZM446.9,125.82c-15.89,3.55-32.32,6.4-49.15,8.53-2.62-13.79-6.08-26.82-10.33-38.77,11.96-3.05,23.56-6.97,34.66-11.7,9.98,12.27,18.39,26.42,24.83,41.95ZM427.17,81.63c8.09-3.68,15.89-7.82,23.36-12.38,18.66,11.72,34.73,25.97,47.42,42.11-14.57,5.09-29.87,9.51-45.74,13.24-6.48-15.86-14.96-30.34-25.05-42.97ZM392.4,134.99c-22.32,2.61-45.3,3.96-68.59,3.96s-45.4-1.3-67.33-3.81c2.58-13.56,6-26.35,10.19-38.07,18.46,4.21,37.71,6.39,57.28,6.39s39.48-2.25,58.22-6.6c4.21,11.74,7.64,24.55,10.24,38.13ZM251.12,134.5c-16.85-2.09-33.31-4.91-49.23-8.42,6.39-15.5,14.75-29.62,24.68-41.89,11.16,4.71,22.82,8.61,34.84,11.62-4.23,11.94-7.68,24.93-10.28,38.69ZM196.58,124.87c-15.92-3.7-31.28-8.09-45.9-13.16,12.62-16.13,28.61-30.4,47.19-42.14,7.55,4.57,15.43,8.71,23.6,12.4-10.03,12.62-18.45,27.08-24.89,42.9ZM194.6,129.93c-2.38,6.38-4.42,12.98-6.14,19.75h-59.65c4.63-11.77,10.83-22.99,18.46-33.46,15.07,5.29,30.9,9.88,47.33,13.72ZM199.88,131.14c16.26,3.62,33.07,6.52,50.29,8.67-.56,3.25-1.05,6.55-1.51,9.88h-54.65c1.66-6.35,3.61-12.55,5.87-18.54ZM255.51,140.44c22.24,2.56,45.12,3.89,68.29,3.89s46.92-1.38,69.55-4.03c.53,3.09,1,6.23,1.45,9.39h-140.71c.44-3.11.9-6.2,1.42-9.24ZM400.24,149.68c-.47-3.38-.97-6.73-1.53-10.04,17.2-2.18,33.98-5.12,50.21-8.77,2.31,6.08,4.29,12.36,5.97,18.81h-54.65ZM460.44,149.68c-1.74-6.86-3.81-13.55-6.24-20.02,16.38-3.87,32.15-8.49,47.16-13.81,7.75,10.58,14.04,21.92,18.73,33.83h-59.65ZM533.46,96.94c-9.59,4.5-19.63,8.66-30.07,12.47-8.5-11.04-18.63-21.37-30.3-30.78-5.56-4.49-11.39-8.68-17.44-12.59,3.32-2.15,6.56-4.41,9.73-6.73,26.03,10.06,49.07,22.81,68.08,37.63ZM459.33,57.04c-2.85,2.01-5.76,3.96-8.73,5.83-13.69-8.32-28.47-15.19-44.05-20.52,18.56,3.72,36.24,8.67,52.78,14.69ZM445.33,66.11c-6.97,4.12-14.23,7.87-21.74,11.22-14.48-16.89-31.94-30.13-51.35-38.45,26.77,5.16,51.52,14.54,73.08,27.23ZM418.45,79.56c-10.56,4.41-21.56,8.08-32.91,10.95-1.44-3.75-2.96-7.38-4.56-10.89-9.11-19.96-20.15-34.43-32.28-42.67,26.74,5.79,50.8,20.98,69.75,42.61ZM376.08,81.85c1.46,3.2,2.85,6.51,4.17,9.92-18.13,4.15-37.06,6.31-56.32,6.31s-37.52-2.09-55.38-6.1c1.35-3.48,2.76-6.86,4.25-10.12,13.98-30.63,32.32-47.5,51.63-47.5s37.65,16.87,51.63,47.5ZM267.92,79.62c-1.63,3.57-3.18,7.29-4.64,11.11-11.41-2.83-22.47-6.47-33.1-10.86,18.99-21.8,43.16-37.1,70.02-42.92-12.13,8.24-23.17,22.71-32.28,42.67ZM225.02,77.66c-7.58-3.36-14.93-7.11-21.97-11.25,21.68-12.84,46.61-22.33,73.59-27.53-19.53,8.37-37.09,21.73-51.62,38.78ZM242.36,42.35c-15.78,5.4-30.73,12.38-44.57,20.84-3.02-1.9-5.99-3.86-8.89-5.9,16.73-6.13,34.64-11.16,53.45-14.94ZM182.86,59.57c3.22,2.35,6.51,4.63,9.89,6.8-5.87,3.82-11.53,7.9-16.93,12.26-11.8,9.51-22.02,19.97-30.58,31.14-10.51-3.81-20.62-7.96-30.28-12.46,18.94-14.85,41.92-27.64,67.9-37.74ZM110.31,101.07c10.06,4.78,20.6,9.19,31.58,13.22-7.98,11.18-14.31,23.05-18.92,35.39h-52.87c9.02-17.66,22.72-34.06,40.22-48.61ZM70.12,248.8h52.87c4.65,12.42,11.04,24.36,19.1,35.6-10.93,4.03-21.43,8.45-31.45,13.22-17.63-14.6-31.44-31.07-40.51-48.83ZM201.97,272.55c15.9-3.53,32.34-6.37,49.17-8.49,2.61,13.77,6.07,26.77,10.31,38.71-11.98,3.03-23.6,6.94-34.73,11.66-9.95-12.26-18.34-26.38-24.75-41.88ZM221.63,316.67c-8.12,3.68-15.96,7.81-23.47,12.37-18.61-11.72-34.63-25.96-47.29-42.07,14.59-5.08,29.91-9.49,45.79-13.2,6.46,15.83,14.91,30.28,24.97,42.9ZM256.5,263.43c22.16-2.57,44.96-3.89,68.08-3.89s45.74,1.32,67.82,3.87c-2.59,13.58-6.02,26.38-10.22,38.11-18.6-4.28-38-6.49-57.73-6.49s-39.14,2.22-57.73,6.49c-4.2-11.72-7.63-24.52-10.22-38.08ZM397.76,264.04c16.84,2.11,33.28,4.94,49.19,8.47-6.42,15.52-14.81,29.66-24.77,41.93-11.13-4.72-22.75-8.62-34.73-11.65,4.25-11.95,7.71-24.97,10.32-38.75ZM452.26,273.71c15.9,3.71,31.22,8.11,45.83,13.18-12.67,16.14-28.71,30.41-47.35,42.14-7.51-4.56-15.34-8.69-23.47-12.37,10.06-12.63,18.52-27.11,24.99-42.95ZM454.24,268.65c2.4-6.41,4.45-13.05,6.18-19.85h59.64c-4.65,11.82-10.9,23.08-18.58,33.6-15.04-5.3-30.84-9.89-47.25-13.75ZM448.95,267.45c-16.24-3.63-33.04-6.55-50.24-8.71.56-3.27,1.05-6.59,1.52-9.94h54.65c-1.67,6.39-3.64,12.62-5.92,18.65ZM393.36,258.1c-22.4-2.6-45.44-3.95-68.78-3.95s-46.57,1.35-69.05,3.97c-.53-3.07-1-6.19-1.44-9.33h140.7c-.44,3.13-.91,6.24-1.43,9.3ZM248.67,248.8c.47,3.36.96,6.69,1.52,9.97-17.2,2.17-33.99,5.09-50.23,8.73-2.29-6.04-4.26-12.29-5.94-18.7h54.65ZM188.47,248.8c1.74,6.82,3.79,13.48,6.21,19.91-16.4,3.86-32.19,8.46-47.22,13.76-7.7-10.53-13.97-21.82-18.63-33.67h59.64ZM115.29,301.36c9.61-4.49,19.68-8.65,30.14-12.46,8.52,11.07,18.67,21.44,30.38,30.87,5.5,4.43,11.26,8.58,17.24,12.46-3.34,2.16-6.61,4.42-9.8,6.76-25.99-10.07-48.98-22.82-67.95-37.63ZM189.29,341.27c2.87-2.02,5.81-3.98,8.8-5.86,13.75,8.38,28.6,15.29,44.27,20.65-18.67-3.74-36.44-8.73-53.06-14.79ZM203.35,332.19c7.01-4.13,14.31-7.87,21.84-11.22,14.5,16.95,32,30.23,51.45,38.57-26.86-5.17-51.68-14.6-73.29-27.35ZM230.35,318.75c10.59-4.4,21.62-8.05,32.99-10.89,1.45,3.77,2.97,7.42,4.58,10.95,9.11,19.96,20.15,34.43,32.28,42.67-26.78-5.8-50.88-21.03-69.85-42.73ZM272.82,316.57c-1.47-3.21-2.86-6.54-4.19-9.97,17.99-4.08,36.74-6.2,55.83-6.2s37.84,2.12,55.83,6.2c-1.33,3.42-2.73,6.75-4.19,9.97-13.98,30.63-32.32,47.5-51.63,47.5s-37.65-16.87-51.63-47.5ZM380.98,318.81c1.61-3.52,3.13-7.18,4.58-10.95,11.37,2.85,22.4,6.5,32.98,10.9-18.96,21.69-43.06,36.92-69.84,42.72,12.13-8.24,23.17-22.71,32.28-42.67ZM423.7,320.97c7.54,3.36,14.84,7.1,21.84,11.23-21.61,12.75-46.43,22.17-73.29,27.35,19.45-8.34,36.95-21.62,51.45-38.57ZM406.54,356.07c15.66-5.36,30.52-12.28,44.26-20.65,2.99,1.88,5.93,3.83,8.8,5.86-16.62,6.07-34.4,11.05-53.07,14.79ZM465.66,339c-3.19-2.34-6.46-4.59-9.8-6.76,5.98-3.87,11.73-8.02,17.24-12.46,11.73-9.46,21.91-19.85,30.44-30.95,10.47,3.81,20.55,7.96,30.18,12.46-18.99,14.84-42.02,27.62-68.05,37.71ZM538.36,297.54c-10.03-4.78-20.54-9.19-31.49-13.22,8.03-11.22,14.4-23.14,19.04-35.53h52.86c-9.06,17.72-22.83,34.16-40.42,48.75ZM614.77,243.42H34.13v-88.35h580.64v88.35Z"/>
      </g>
    </g>
  </g>
</svg>