<?xml version="1.0" encoding="UTF-8"?>
<svg xmlns="http://www.w3.org/2000/svg" version="1.1" viewBox="0 0 355.75 200.98">
  <defs>
    <style>
      .cls-1 {
        fill: #010101;
      }
    </style>
  </defs>
  <!-- Generator: Adobe Illustrator 28.6.0, SVG Export Plug-In . SVG Version: 1.2.0 Build 709)  -->
  <g>
    <g id="Layer_1">
      <path class="cls-1" d="M281.69,160.98c.05,17.52-12.45,36.79-37.55,36.86l-23.59.07-.2-70.86,25.11-.07c23.89-.07,36.19,16.6,36.24,34.01M265.33,161.03c-.03-10.12-6.05-19.07-19.52-19.03l-9.25.03.12,40.82,7.25-.02c14.52-.04,21.44-10.82,21.4-21.79M140.09,198.14l-15.78-29.67c7.78-4.1,11.12-11.24,11.1-18.9-.03-11.1-7.84-22.26-26.63-22.21l-28.31.08.2,70.87,16.17-.05-.08-26.39,11.61-.03,13.63,26.35,18.09-.05ZM96.72,158.07l-.04-15.64,8.74-.03c8.3-.02,12.94,1.54,12.96,7.65.02,6.82-5.31,7.97-12.91,7.99l-8.74.03ZM48.14,127.54l-19.92.06L3.16,198.53l16.6-.05,4.71-14.05,27.72-.08,4.79,14.02,16.6-.05-25.46-70.79ZM29.33,169.97l8.89-26.5,9.04,26.45-17.93.05ZM187.5,127.14l-19.92.06-25.05,70.94,16.6-.05,4.71-14.05,27.72-.08,4.79,14.02,16.6-.05-25.46-70.79ZM168.7,169.57l8.89-26.5,9.04,26.45-17.93.05ZM327.69,126.74l-19.92.06-25.05,70.94,16.6-.05,4.71-14.05,27.72-.08,4.79,14.02,16.6-.05-25.46-70.79ZM308.88,169.17l8.89-26.5,9.04,26.45-17.93.05ZM311.11,29.96c-12.23.04-23.86-2.53-34.38-7.2l-7.15,19.99c12.78,5.44,26.85,8.44,41.59,8.4,14.75-.04,28.78-3.12,41.53-8.63l-7.27-19.96c-10.48,4.73-22.1,7.37-34.33,7.4ZM311.23,72.34c-12.23.04-23.86-2.53-34.38-7.2l-7.15,19.99c12.78,5.44,26.85,8.44,41.59,8.4,14.75-.04,28.78-3.12,41.53-8.63l-7.27-19.96c-10.48,4.73-22.1,7.37-34.33,7.4ZM215.31,22.93l16.17-.05.2,70.87-16.17.05-.2-70.87ZM135.97,94.03l16.17-.05-.2-70.87-16.17.05.2,70.87ZM117.12,76.89c-.05-11.54-3.1-20.24-9.16-26.1-6.07-5.87-14.54-8.79-25.39-8.76l-22.89.07.04,15.02,23.72-.07c3.19,0,5.89.47,8.1,1.4,2.2.94,4,2.26,5.39,3.98,1.39,1.71,2.41,3.82,3.05,6.33.64,2.51.97,5.31.97,8.38v1.95s-40.99.14-40.99.14c-3.5.01-6.48-.47-8.95-1.44-1.78-.7-3.32-1.63-4.62-2.78l-8.33,13.55c2.19,1.4,4.62,2.55,7.28,3.43,4.57,1.51,9.73,2.25,15.49,2.24l56.34-.16h0s-.05-17.19-.05-17.19h0ZM176.88,90.91c-2.41,3.85-9.09,9.71-9.09,9.71l10.57,11.37s8.53-7,12.21-12.86c3.69-5.85,5.2-11.7,5.18-21.67l-.1-33.78-16.12.05.1,33.21c-.04,6.98-.34,10.11-2.75,13.97ZM231.46,16.85l-16.17.05v-4.61s3.51-.01,3.51-.01c-.27-.81-.37-1.63-.37-2.35-.01-4.06,2.87-7.23,6.75-7.24,2.89,0,4.88,1.43,6.06,4.23l-4.06,1.91c-.36-1.26-1-1.9-1.99-1.89-1.35,0-2.07.91-2.07,2.72,0,1.35.46,2.25,1.27,2.52l7.05-.02v4.7ZM59.63,23.38l.02,5.39,27.15-.08-.02-5.39-27.15.08Z"/>
    </g>
  </g>
</svg>