<?xml version="1.0" encoding="UTF-8"?>
<svg xmlns="http://www.w3.org/2000/svg" version="1.1" viewBox="0 0 476.79 76.54">
  <defs>
    <style>
      .cls-1 {
        fill: #010101;
      }
    </style>
  </defs>
  <!-- Generator: Adobe Illustrator 28.6.0, SVG Export Plug-In . SVG Version: 1.2.0 Build 709)  -->
  <g>
    <g id="Layer_1">
      <path class="cls-1" d="M78.73,2.83l7.21,19.98c-12.77,5.47-26.81,8.51-41.56,8.51S15.58,28.28,2.82,22.8L10.03,2.83c10.5,4.7,22.13,7.3,34.36,7.3s23.85-2.6,34.35-7.3ZM44.39,52.52c-12.23,0-23.85-2.6-34.36-7.3l-7.21,19.97c12.77,5.48,26.82,8.52,41.57,8.52s28.79-3.04,41.56-8.51l-7.21-19.98c-10.5,4.7-22.12,7.3-34.35,7.3ZM402.62,36.95c0,17.52-12.55,36.75-37.66,36.75h-23.59V2.84h25.11c23.89,0,36.14,16.7,36.14,34.11M386.26,36.95c0-10.12-6-19.09-19.46-19.09h-9.25v40.82h7.25c14.52,0,21.47-10.76,21.47-21.73M260.91,73.7l-15.69-29.72c7.79-4.08,11.15-11.21,11.15-18.87,0-11.1-7.78-22.28-26.56-22.28h-28.31v70.87h16.17v-26.39h11.61l13.56,26.39h18.09ZM217.66,33.51v-15.64h8.74c8.3,0,12.93,1.57,12.93,7.69,0,6.82-5.33,7.95-12.93,7.95h-8.74ZM169.16,2.84h-19.92l-25.25,70.87h16.6l4.75-14.04h27.72l4.75,14.04h16.6L169.16,2.84ZM150.23,45.22l8.97-26.48,8.97,26.48h-17.93ZM308.53,2.84h-19.92l-25.25,70.87h16.6l4.75-14.04h27.72l4.75,14.04h16.6L308.53,2.84ZM289.6,45.22l8.97-26.48,8.97,26.48h-17.93ZM448.72,2.84h-19.92l-25.25,70.87h16.6l4.75-14.04h27.72l4.75,14.04h16.6L448.72,2.84ZM429.79,45.22l8.97-26.48,8.97,26.48h-17.93Z"/>
    </g>
  </g>
</svg>