<?xml version="1.0" encoding="UTF-8"?>
<svg xmlns="http://www.w3.org/2000/svg" version="1.1" viewBox="0 0 320.31 114.8">
  <defs>
    <style>
      .cls-1 {
        fill: #010101;
      }
    </style>
  </defs>
  <!-- Generator: Adobe Illustrator 28.6.0, SVG Export Plug-In . SVG Version: 1.2.0 Build 709)  -->
  <g>
    <g id="Layer_1">
      <path class="cls-1" d="M275.98,30.34c-12.23,0-23.85-2.6-34.36-7.3l-7.21,19.97c12.77,5.48,26.82,8.52,41.57,8.52s28.79-3.04,41.56-8.51l-7.21-19.98c-10.5,4.7-22.12,7.3-34.35,7.3ZM275.98,72.72c-12.23,0-23.85-2.6-34.36-7.3l-7.21,19.97c12.77,5.48,26.82,8.52,41.57,8.52s28.79-3.04,41.56-8.51l-7.21-19.98c-10.5,4.7-22.12,7.3-34.35,7.3ZM180.21,23.03h16.17v70.87h-16.17V23.03ZM100.66,93.9h16.17V23.03h-16.17v70.87ZM81.86,76.71c-.01-11.54-3.04-20.25-9.08-26.12-6.06-5.89-14.51-8.83-25.36-8.83h-22.89v15.02h23.72c3.19,0,5.89.48,8.09,1.43,2.2.95,3.99,2.28,5.38,3.99,1.39,1.72,2.4,3.83,3.03,6.34.63,2.51.95,5.31.95,8.38v1.95l-40.99.02c-3.5,0-6.48-.49-8.95-1.46-1.78-.7-3.31-1.64-4.61-2.79l-8.37,13.53c2.19,1.41,4.61,2.56,7.27,3.45,4.57,1.52,9.73,2.28,15.48,2.28h56.34v-17.19h0ZM141.59,90.9c-2.42,3.85-9.12,9.69-9.12,9.69l10.54,11.4s8.55-6.98,12.25-12.82c3.7-5.84,5.24-11.68,5.24-21.65v-33.78h-16.12v33.21c-.06,6.98-.37,10.11-2.79,13.96ZM196.38,17h-16.17v-4.61h3.52c-.27-.81-.36-1.63-.36-2.35,0-4.06,2.89-7.23,6.77-7.23,2.89,0,4.88,1.45,6.05,4.24l-4.06,1.9c-.36-1.27-.99-1.9-1.99-1.9-1.35,0-2.08.9-2.08,2.71,0,1.35.45,2.26,1.26,2.53h7.05v4.7ZM24.53,23.03v5.39s27.15,0,27.15,0v-5.39s-27.15,0-27.15,0Z"/>
    </g>
  </g>
</svg>