<?xml version="1.0" encoding="UTF-8"?>
<svg xmlns="http://www.w3.org/2000/svg" version="1.1" viewBox="0 0 556.7 492.78">
  <defs>
    <style>
      .cls-1 {
        fill: #c10230;
      }

      .cls-2 {
        isolation: isolate;
      }

      .cls-3 {
        mix-blend-mode: multiply;
      }

      .cls-4 {
        fill: #76777a;
      }
    </style>
  </defs>
  <!-- Generator: Adobe Illustrator 28.6.0, SVG Export Plug-In . SVG Version: 1.2.0 Build 709)  -->
  <g class="cls-2">
    <g id="Layer_1">
      <g>
        <path class="cls-1" d="M449.13,172.09c0-8.79-7.12-15.91-15.91-15.91-.6,0-1.33.06-1.77.1-.37.04-.75.07-1.14.07-4.93,0-8.93-4-8.93-8.93s4-8.93,8.93-8.93h3.8c-2.74-4.23-7.51-7.03-12.93-7.03-3.35,0-6.45,1.07-8.98,2.89-2.59,1.91-5.79,3.03-9.26,3.03-8.61-.02-15.59-6.98-15.59-15.59,0-.13,0-.25,0-.37,0-.14,0-.27,0-.42,0-8.5-6.89-15.39-15.39-15.39h-62.73c12.85,14.98,31.84,24.54,53.07,24.76,3.1,8.36,7.73,15.98,13.56,22.52-8.54,2.44-16.62,5.97-24.08,10.43h0c6.38,9.5,14.99,17.37,25.08,22.85,2.86-7.95,7.17-15.2,12.61-21.45,10.42,6.96,22.79,11.23,36.11,11.83,5.05,11.89,13.25,22.11,23.55,29.63v-34.07Z"/>
        <path class="cls-1" d="M337.4,202.25c0-6.53-5.3-11.83-11.83-11.83-.45,0-.99.04-1.32.07-.28.03-.56.06-.85.06-3.67,0-6.64-2.97-6.64-6.64s2.97-6.64,6.64-6.64h2.83c-2.04-3.15-5.58-5.23-9.61-5.23-2.49,0-4.8.8-6.67,2.15-1.92,1.42-4.31,2.26-6.88,2.25-6.4-.02-11.59-5.19-11.59-11.59,0-.1,0-.18,0-.28,0-.11,0-.2,0-.31,0-6.32-5.12-11.45-11.44-11.45h-46.64c9.55,11.14,23.67,18.25,39.45,18.41,2.3,6.22,5.75,11.88,10.08,16.74-6.35,1.81-12.36,4.44-17.91,7.75h0c4.74,7.06,11.14,12.91,18.65,16.99,2.13-5.91,5.33-11.3,9.37-15.95,7.75,5.17,16.94,8.35,26.85,8.79,3.75,8.84,9.85,16.44,17.51,22.03v-25.33Z"/>
        <path class="cls-1" d="M268.07,252.32c0-4.65-3.77-8.41-8.41-8.41-.32,0-.7.03-.94.05-.2.02-.4.04-.6.04-2.61,0-4.72-2.11-4.72-4.72s2.12-4.72,4.72-4.72h2.01c-1.45-2.24-3.97-3.72-6.84-3.72-1.77,0-3.41.57-4.75,1.53-1.37,1.01-3.06,1.6-4.89,1.6-4.55-.01-8.24-3.69-8.24-8.24,0-.07,0-.13,0-.2,0-.08,0-.14,0-.22,0-4.5-3.64-8.14-8.14-8.14h-33.17c6.79,7.92,16.83,12.98,28.06,13.09,1.64,4.42,4.09,8.45,7.17,11.91-4.52,1.29-8.79,3.15-12.74,5.51h0c3.37,5.02,7.92,9.18,13.26,12.08,1.51-4.2,3.79-8.04,6.67-11.34,5.51,3.68,12.05,5.94,19.1,6.25,2.67,6.29,7,11.69,12.45,15.67v-18.02Z"/>
        <path class="cls-1" d="M114.24,228.11c-.58,1.43-1.97,2.43-3.61,2.43-2.16,0-3.91-1.75-3.91-3.91,0-.31.04-.62.11-.91C137.15,111.22,241.49,26.8,365.53,26.8c5.83,0,11.89.21,17.63.58h0c2.18.13,3.95,1.77,3.95,3.95s-1.79,3.73-4.01,3.96c-120.25,11.11-221.71,87.19-268.87,192.82"/>
        <g class="cls-3">
          <g>
            <path class="cls-4" d="M125.13,340.5c-3.33,0-7.12-.05-9.5.92-1.75.71-3.58,1.68-5.17,3.14-1.58,1.46-2.76,3.19-3.53,5.2-.77,2.01-1.15,4.21-1.15,6.6,0,1.8.22,3.76.67,5.88.45,2.12,1.12,4.27,2.02,6.44h-11.02s-.04,0-.06,0h-.02s-12.86,0-12.86,0c-2.33,0-3.85-.61-4.56-1.83-.71-1.22-1.07-2.73-1.07-4.53v-21.82h-11.7c-6.06,0-9.76-.2-14.23,3.15-3.42,2.56-5.14,6.57-5.14,12.08,0,4.66,1.52,8.2,4.55,10.61,3.03,2.41,7.68,3.62,13.96,3.62h7.35c.9,1.54,2.15,2.64,3.76,3.3,1.61.66,3.52.99,5.74.99h14.2s.04,0,.06,0c0,0,.01,0,.02,0h39.64v-33.74h-11.97ZM72.23,364.62h-4.68c-4.12,0-7.29-.74-9.51-2.23-2.22-1.48-3.33-3.92-3.33-7.31,0-3.6,1.1-6.17,3.29-7.71,2.19-1.54,5.14-1.32,8.84-1.32h5.39v18.56ZM130.44,368.68h-14.75c-1.43-3.44-2.29-6.14-2.58-8.11-.29-1.96-.44-3.39-.44-4.29,0-4.08,1.25-6.95,3.77-8.62,2.51-1.67,6.2-1.6,11.06-1.6h2.93v22.62Z"/>
            <path class="cls-4" d="M284.83,368.68h-21.63c-.47,0-1.03-.05-1.66-.16-.64-.1-1.23-.26-1.78-.48-.56-.21-1.02-.49-1.39-.83-.37-.34-.55-.75-.55-1.23v-25.51h-6.66v21.93c0,2.23-.32,3.83-.95,4.81-.63.98-2.03,1.47-4.2,1.47h-8.56v-21.06h-6.66v21.06h-13.87v-21.06h-6.66v21.06h-21.42c-2.33,0-3.83-.54-4.52-1.63-.69-1.08-1.03-2.66-1.03-4.73v-45.54l-6.66,1.21v45.28c0,3.98,1.03,6.79,3.09,8.46,2.06,1.67,4.78,2.5,8.17,2.5h59.63c2.75,0,4.81-.36,6.18-1.07,1.37-.72,2.38-1.5,3.01-2.34.85,1.27,1.87,2.16,3.05,2.66,1.19.5,2.55.75,4.08.75h27.65v-57.46h-6.66v51.9Z"/>
            <path class="cls-4" d="M155.85,376.56c0,5.54-1.27,6.24-5.27,6.24-1.72,0-2.79,0-4-.06l-1.14,5.29c.7.06,2.09.13,5.34.13,8.57,0,11.75-2.61,11.75-11.59v-36.09h-6.67v36.09Z"/>
            <path class="cls-4" d="M350.29,376.56c0,5.54-1.27,6.24-5.28,6.24-1.71,0-2.79,0-4-.06l-1.14,5.29c.7.06,2.1.13,5.34.13,8.58,0,11.75-2.61,11.75-11.59v-36.09h-6.67v36.09Z"/>
            <rect class="cls-4" x="306.81" y="316.78" width="6.66" height="57.46"/>
            <path class="cls-4" d="M495.09,340.49c-10.55,0-14.78,3.38-14.78,15.18v3.38c0,4.2.55,7.32,1.72,9.62h-23.05c-.48,0-1.04-.05-1.68-.16-.64-.1-1.22-.26-1.76-.48-.53-.21-.99-.49-1.36-.83-.37-.34-.56-.75-.56-1.23v-5.56c0-2.91-.29-5.6-.87-8.07-.58-2.46-1.67-4.57-3.28-6.32-1.61-1.75-3.83-3.11-6.65-4.09-2.82-.98-6.45-1.47-10.88-1.47-1.53,0-20.89.03-20.89.03v-23.71h-6.66v51.9h-21.1c-2.33,0-3.83-.54-4.52-1.63-.69-1.08-1.03-2.66-1.03-4.73v-45.54h-6.66v46.49c0,3.97,1.03,6.8,3.09,8.46,2.06,1.67,4.78,2.5,8.17,2.5h62.68c1.79,0,3.39-.22,4.76-.94,1.37-.71,2.03-1.63,2.67-2.48.85,1.27,1.87,2.16,3.07,2.66,1.2.5,2.57.76,4.11.76h34.39l-.04-.02c.37,0,.73.02,1.12.02,10.55,0,14.78-3.38,14.78-15.18v-3.38c0-11.8-4.23-15.18-14.78-15.18M446.97,362.4c0,2.23-.32,3.83-.95,4.81-.64.98-2.04,1.47-4.2,1.47h-30.76v-22.62h16.38c3.33,0,8.95.06,11.08.72,2.14.66,3.85,1.66,5.12,2.98,1.27,1.33,2.14,2.98,2.62,4.97.48,1.99.71,4.33.71,7.03v.63ZM503.31,359.06c0,8.6-1.41,9.62-8.22,9.62s-8.21-1.01-8.21-9.62v-3.38c0-8.61,1.41-9.62,8.21-9.62s8.22,1.01,8.22,9.62v3.38Z"/>
          </g>
        </g>
        <path class="cls-4" d="M70,429.34l-9.05-1.5c-5.4-.85-6.25-2.61-6.25-6.72,0-4.89,1.82-6.33,9.5-6.33,3.91,0,7.88-.07,14.06.13l1.17-6.13c-7.22-.2-9.76-.13-14.64-.13-12.63,0-16.92,4.7-16.92,12.2v1.24c0,6.72,2.08,10.57,10.8,12.01l8.79,1.44c5.73,1.04,6.57,2.61,6.57,7.11,0,5.22-1.89,6.59-10.48,6.59-4.43,0-7.68.07-14.64-.13l-1.17,6.13c8.07.2,13.15.13,15.82.13,13.21,0,17.31-4.18,17.31-12.53v-1.11c0-7.5-2.73-11.03-10.87-12.4"/>
        <path class="cls-4" d="M104.87,420.47c-5.66,0-8.4,1.5-9.7,3v-14.68h-6.83v46.45h6.83v-20.42c0-6.39,1.56-8.68,8.59-8.68s7.55,2.28,7.55,6.66v22.45h6.83v-23.82c0-8.02-5.27-10.96-13.28-10.96"/>
        <path class="cls-4" d="M140.01,421.38c-3.64,0-7.49.07-9.89.13l-1.24,5.68c2.93-.07,7.49-.13,11.13-.13,7.62,0,8.4,2.22,8.4,6.53v1.96c-1.37-.98-4.17-1.96-9.37-1.96-9.11,0-13.28,2.87-13.28,10.18v1.44c0,6.72,3.64,10.05,12.76,10.05h9.76c5.01,0,6.64-1.43,6.64-5.61v-17.29c0-7.24-4.43-10.96-14.91-10.96M148.41,449.7h-9.89c-4.88,0-6.38-1.5-6.38-4.57v-1.37c0-3.65,1.5-4.76,7.22-4.76h1.5c6.58,0,7.55,1.3,7.55,4.7v6Z"/>
        <path class="cls-4" d="M183.98,421.45c-1.5-.07-3.45-.07-7.62-.07-7.62,0-12.69,2.94-12.69,10.77v23.1h6.84v-21.6c0-4.24.45-6.59,6.51-6.59,2.41,0,5.6.07,5.79.07l1.17-5.68Z"/>
        <path class="cls-4" d="M190.62,454.92c0,5.68-1.3,6.39-5.4,6.39-1.76,0-2.86,0-4.1-.06l-1.17,5.41c.72.07,2.15.13,5.47.13,8.79,0,12.04-2.67,12.04-11.88v-33.41h-6.84v33.41Z"/>
        <path class="cls-4" d="M219.25,421.38c-3.64,0-7.49.07-9.9.13l-1.23,5.68c2.93-.07,7.49-.13,11.13-.13,7.62,0,8.4,2.22,8.4,6.53v1.96c-1.37-.98-4.17-1.96-9.37-1.96-9.11,0-13.28,2.87-13.28,10.18v1.44c0,6.72,3.64,10.05,12.76,10.05h9.76c5.01,0,6.64-1.43,6.64-5.61v-17.29c0-7.24-4.43-10.96-14.91-10.96M227.65,449.7h-9.89c-4.88,0-6.38-1.5-6.38-4.57v-1.37c0-3.65,1.5-4.76,7.22-4.76h1.5c6.57,0,7.55,1.3,7.55,4.7v6Z"/>
        <path class="cls-4" d="M259.53,420.47c-5.66,0-8.4,1.5-9.7,3v-14.68h-6.83v46.45h6.83v-20.42c0-6.39,1.56-8.68,8.59-8.68s7.55,2.28,7.55,6.66v22.45h6.83v-23.82c0-8.02-5.27-10.96-13.28-10.96"/>
        <path class="cls-4" d="M312.13,408.79l-17.7,46.46h6.9l4.82-13.31h19.07l4.88,13.31h7.29l-17.7-46.46h-7.55ZM308.22,436.06l7.42-20.36,7.42,20.36h-14.84Z"/>
        <rect class="cls-4" x="344.35" y="421.51" width="6.83" height="33.74"/>
        <path class="cls-4" d="M359.91,432.15v23.1h6.83v-21.6c0-4.24.46-6.59,6.51-6.59,2.41,0,5.6.06,5.79.06l1.17-5.67c-1.5-.07-3.45-.07-7.62-.07-7.62,0-12.69,2.94-12.69,10.77"/>
        <path class="cls-4" d="M401.26,420.47c-11.07,0-15.56,3.78-15.56,16.12v30.08h6.9v-13.05c1.76,1.57,4.49,2.68,8.59,2.68,12.43,0,15.49-5.02,15.49-16.44v-2.94c0-12.85-4.3-16.44-15.43-16.44M409.72,439.85c0,9.2-1.24,10.83-8.53,10.83-6.84,0-8.66-1.83-8.66-9.46v-4.63c0-9.14,1.63-10.5,8.66-10.5s8.53,1.31,8.53,10.83v2.94Z"/>
        <path class="cls-4" d="M439.79,420.47c-11.19,0-15.69,3.59-15.69,16.12v3.59c0,12.53,4.49,16.12,15.69,16.12s15.69-3.59,15.69-16.12v-3.59c0-12.53-4.49-16.12-15.69-16.12M448.52,440.17c0,9.13-1.5,10.5-8.72,10.5s-8.72-1.37-8.72-10.5v-3.59c0-9.14,1.5-10.5,8.72-10.5s8.72,1.37,8.72,10.5v3.59Z"/>
        <path class="cls-4" d="M463.55,432.15v23.1h6.84v-21.6c0-4.24.45-6.59,6.51-6.59,2.41,0,5.6.06,5.79.06l1.17-5.67c-1.5-.07-3.45-.07-7.62-.07-7.62,0-12.69,2.94-12.69,10.77"/>
        <path class="cls-4" d="M497.32,442.85v-15.66h11.2l1.17-5.68h-12.37v-12.71l-6.83,1.24v33.01c0,9.4,2.54,12.2,12.95,12.2h4.69l1.17-5.55h-5.92c-5.08,0-6.05-1.04-6.05-6.85"/>
        <path class="cls-4" d="M198.49,408.83c0,2.46-2,4.46-4.46,4.46s-4.46-2-4.46-4.46,2-4.46,4.46-4.46,4.46,2,4.46,4.46"/>
        <path class="cls-4" d="M70.18,328.06c0,2.46-2,4.46-4.46,4.46s-4.46-2-4.46-4.46,2-4.46,4.46-4.46,4.46,2,4.46,4.46"/>
        <path class="cls-4" d="M82.34,328.06c0,2.46-2,4.46-4.46,4.46s-4.46-2-4.46-4.46,2-4.46,4.46-4.46,4.46,2,4.46,4.46"/>
        <path class="cls-4" d="M125.95,328.06c0,2.46-2,4.46-4.46,4.46s-4.46-2-4.46-4.46,2-4.46,4.46-4.46,4.46,2,4.46,4.46"/>
        <path class="cls-4" d="M138.1,328.06c0,2.46-2,4.46-4.46,4.46s-4.46-2-4.46-4.46,2-4.46,4.46-4.46,4.46,2,4.46,4.46"/>
        <path class="cls-4" d="M233.47,328.06c0,2.46-2,4.46-4.46,4.46s-4.46-2-4.46-4.46,2-4.46,4.46-4.46,4.46,2,4.46,4.46"/>
        <path class="cls-4" d="M245.63,328.06c0,2.46-2,4.46-4.46,4.46s-4.46-2-4.46-4.46,2-4.46,4.46-4.46,4.46,2,4.46,4.46"/>
        <path class="cls-4" d="M352.23,408.83c0,2.46-2,4.46-4.46,4.46s-4.46-2-4.46-4.46,2-4.46,4.46-4.46,4.46,2,4.46,4.46"/>
        <path class="cls-4" d="M239.55,317.51c0,2.46-2,4.46-4.46,4.46s-4.46-2-4.46-4.46,2-4.46,4.46-4.46,4.46,2,4.46,4.46"/>
      </g>
    </g>
  </g>
</svg>