<?xml version="1.0" encoding="UTF-8"?>
<svg xmlns="http://www.w3.org/2000/svg" version="1.1" viewBox="0 0 339.86 314.69">
  <defs>
    <style>
      .cls-1 {
        fill: #954b2d;
      }

      .cls-2 {
        fill: #2d2a26;
      }

      .cls-3 {
        fill: #00833e;
      }

      .cls-4 {
        fill: #ce0e2d;
      }

      .cls-5 {
        fill: #fff;
      }
    </style>
  </defs>
  <!-- Generator: Adobe Illustrator 28.6.0, SVG Export Plug-In . SVG Version: 1.2.0 Build 709)  -->
  <g>
    <g id="Layer_1">
      <g>
        <polygon class="cls-2" points="29.12 286.04 35.14 286.04 35.14 284.02 29.12 284.02 29.12 280.43 35.54 280.43 35.54 278.41 27.22 278.41 27.22 292.11 35.8 292.11 35.8 290.08 29.12 290.08 29.12 286.04"/>
        <rect class="cls-2" x="39.12" y="278.41" width="1.8" height="13.7"/>
        <path class="cls-2" d="M49.93,288.72c-.19.64-.44,1.11-.76,1.39-.3.28-.66.41-1.1.41-.59,0-1.07-.25-1.46-.75-.37-.48-.6-1.16-.67-2.05h5.85v-.23c.01-.19.01-.34.01-.44,0-1.63-.35-2.91-1.05-3.82-.71-.93-1.64-1.4-2.76-1.4s-2.11.48-2.84,1.43c-.71.93-1.07,2.24-1.07,3.9s.36,2.88,1.06,3.78c.72.92,1.7,1.38,2.92,1.38.97,0,1.78-.29,2.41-.87.62-.57,1.05-1.38,1.28-2.4l.05-.24-1.82-.27-.06.19ZM46.02,285.93c.07-.67.28-1.22.62-1.63.37-.45.82-.67,1.37-.67.6,0,1.08.27,1.46.84.22.33.37.81.44,1.45h-3.89Z"/>
        <path class="cls-2" d="M60.11,288.34c-.09.76-.29,1.33-.61,1.68-.31.34-.68.51-1.14.51-.58,0-1.03-.25-1.4-.78-.38-.54-.57-1.44-.57-2.68s.2-2.11.59-2.65c.38-.53.85-.78,1.45-.78.38,0,.7.14.97.42.28.29.48.74.6,1.34l.04.23,1.74-.33-.04-.22c-.16-1.02-.54-1.81-1.11-2.37-.59-.57-1.35-.86-2.26-.86-.72,0-1.4.21-2.01.62-.61.41-1.08,1.04-1.37,1.86-.29.8-.44,1.74-.44,2.8,0,1.65.35,2.93,1.03,3.83.7.91,1.63,1.38,2.78,1.38.92,0,1.71-.34,2.34-1.01.62-.66,1.01-1.57,1.16-2.72l.03-.22-1.77-.28-.03.24Z"/>
        <path class="cls-2" d="M67.67,290.19c-.47.08-.74.08-.86-.01-.07-.05-.12-.12-.15-.21-.02-.05-.06-.22-.06-.82v-5.38h1.34v-1.73h-1.34v-3.58l-1.79,1.32v2.26h-.98v1.73h.98v5.29c0,1.01.06,1.66.18,2,.12.35.34.63.65.85.31.21.73.32,1.26.32.31,0,.67-.05,1.07-.15l.2-.05-.25-1.88-.24.04Z"/>
        <path class="cls-2" d="M72.91,282.22c-.15.13-.31.32-.47.58v-.74h-1.66v10.05h1.8v-5.25c0-.66.07-1.28.22-1.84.09-.33.23-.6.43-.78.41-.38.95-.33,1.47.05l.26.19.6-1.97-.13-.1c-.87-.66-1.8-.79-2.51-.19Z"/>
        <rect class="cls-2" x="77.86" y="278.41" width="1.8" height="2.33"/>
        <rect class="cls-2" x="77.86" y="282.05" width="1.8" height="10.05"/>
        <path class="cls-2" d="M88.36,288.34c-.09.76-.29,1.33-.61,1.68-.31.34-.68.51-1.14.51-.58,0-1.03-.25-1.4-.78-.38-.54-.57-1.44-.57-2.68s.2-2.11.59-2.65c.38-.53.85-.78,1.45-.78.38,0,.7.14.97.42.28.29.48.74.6,1.34l.04.23,1.74-.33-.04-.22c-.16-1.02-.54-1.81-1.11-2.37-.59-.57-1.35-.86-2.26-.86-.72,0-1.4.21-2.01.62-.61.41-1.08,1.04-1.37,1.86-.29.8-.44,1.74-.44,2.8,0,1.65.35,2.93,1.03,3.83.7.91,1.63,1.38,2.78,1.38.92,0,1.71-.34,2.34-1.01.62-.66,1.01-1.57,1.16-2.72l.03-.22-1.77-.28-.03.24Z"/>
        <rect class="cls-2" x="92.83" y="278.41" width="1.8" height="2.33"/>
        <rect class="cls-2" x="92.83" y="282.05" width="1.8" height="10.05"/>
        <path class="cls-2" d="M101.3,290.19c-.47.08-.74.08-.86-.01-.07-.05-.12-.12-.15-.21-.02-.05-.06-.22-.06-.82v-5.38h1.34v-1.73h-1.34v-3.58l-1.79,1.32v2.26h-.98v1.73h.98v5.29c0,1.01.06,1.66.18,2,.12.35.34.63.65.85.31.21.73.32,1.26.32.31,0,.67-.05,1.07-.15l.2-.05-.25-1.88-.24.04Z"/>
        <path class="cls-2" d="M107.87,287.81c-.12.4-.23.81-.33,1.22-.11-.43-.22-.85-.35-1.25l-1.69-5.72h-1.92l3.06,9.84c-.04.14-.08.26-.1.33-.23.78-.34,1.07-.39,1.17-.1.18-.22.32-.36.42-.24.17-.66.21-1.27,0l-.34-.11.2,2.02.13.05c.34.14.66.22.95.22.48,0,.9-.14,1.24-.43.33-.27.63-.7.88-1.26.18-.41.43-1.13.76-2.2l3.09-10.05h-1.82l-1.73,5.75Z"/>
        <path class="cls-2" d="M112.34,292.11h.75c-.03.4-.09.71-.19.93-.11.25-.28.43-.52.56l-.2.11.59,1.1.2-.11c.47-.25.82-.61,1.04-1.08.21-.45.32-1.04.32-1.75v-2.08h-1.98v2.31Z"/>
        <path class="cls-2" d="M134.45,287.1c-.1.51-.2.99-.29,1.45-.17-1.04-.38-2.14-.65-3.26l-1.6-6.88h-2.1l-2.11,9.12c-.03.14-.11.53-.24,1.17-.08-.47-.17-.95-.26-1.42l-1.69-8.87h-1.95l2.98,13.7h1.84l2.35-10.27c.03-.14.07-.3.1-.47.03.14.07.3.11.47l2.33,10.27h1.76l3.08-13.7h-1.92l-1.74,8.69Z"/>
        <path class="cls-2" d="M146.37,290.69c-.06-.39-.08-1.34-.08-2.83v-2.17c0-.74-.02-1.24-.07-1.54-.08-.48-.24-.88-.45-1.2-.22-.33-.56-.6-1.02-.81-.45-.21-1.03-.31-1.73-.31s-1.34.12-1.88.36c-.55.24-.98.6-1.28,1.05-.29.44-.5,1.03-.62,1.73l-.04.23,1.75.29.05-.22c.13-.63.33-1.06.59-1.3.25-.23.67-.34,1.24-.34.6,0,1.06.16,1.35.48.21.23.32.64.32,1.24,0,.04,0,.13,0,.27-.49.19-1.23.35-2.19.49-.55.08-.95.16-1.23.25-.38.13-.73.32-1.03.57-.31.26-.56.6-.75,1.02-.19.42-.28.88-.28,1.38,0,.86.25,1.57.76,2.13.51.56,1.24.85,2.17.85.55,0,1.08-.11,1.57-.34.38-.17.77-.44,1.16-.81.05.29.13.55.22.78l.06.14h1.91l-.15-.33c-.16-.34-.27-.71-.32-1.09ZM144.47,287.42v.24c0,.68-.07,1.2-.2,1.54-.17.43-.44.77-.8,1.02-.36.25-.77.37-1.24.37s-.79-.12-1.01-.36c-.23-.25-.34-.55-.34-.93,0-.25.05-.46.16-.66.1-.19.24-.33.43-.43.2-.11.57-.21,1.1-.3.79-.14,1.43-.3,1.91-.49Z"/>
        <path class="cls-2" d="M153,290.19c-.47.08-.74.08-.86-.01-.07-.05-.12-.12-.15-.21-.02-.05-.06-.22-.06-.82v-5.38h1.34v-1.73h-1.34v-3.58l-1.79,1.32v2.26h-.98v1.73h.98v5.29c0,1.01.06,1.66.18,2,.12.35.34.63.65.85.31.21.73.32,1.26.32.31,0,.67-.05,1.07-.15l.2-.05-.25-1.88-.24.04Z"/>
        <path class="cls-2" d="M161.51,288.72c-.19.64-.44,1.11-.76,1.39-.3.28-.66.41-1.1.41-.59,0-1.07-.25-1.46-.75-.37-.48-.6-1.16-.67-2.05h5.85v-.23c.01-.19.01-.34.01-.44,0-1.63-.35-2.91-1.05-3.82-.71-.93-1.64-1.4-2.76-1.4s-2.11.48-2.84,1.43c-.71.93-1.07,2.24-1.07,3.9s.36,2.88,1.06,3.78c.72.92,1.7,1.38,2.92,1.38.97,0,1.78-.29,2.41-.87.62-.57,1.05-1.38,1.28-2.4l.05-.24-1.82-.27-.06.19ZM157.6,285.93c.07-.67.28-1.22.62-1.63.37-.45.82-.67,1.37-.67.6,0,1.08.27,1.46.84.22.33.37.81.44,1.45h-3.89Z"/>
        <path class="cls-2" d="M168.68,282.22c-.15.13-.31.32-.47.58v-.74h-1.66v10.05h1.8v-5.25c0-.66.07-1.28.22-1.84.09-.33.23-.6.43-.78.41-.38.95-.33,1.47.05l.26.19.6-1.97-.13-.1c-.87-.66-1.8-.79-2.51-.19Z"/>
        <path class="cls-2" d="M187.42,288.85c.38-.75.69-1.69.92-2.8l.04-.21-1.84-.48-.04.25c-.09.5-.2.96-.35,1.37l-1.58-2.45c1.31-.91,1.97-2.01,1.97-3.29,0-.83-.26-1.55-.76-2.15-.52-.61-1.19-.91-2-.91s-1.55.32-2.11.96c-.55.63-.82,1.38-.82,2.22,0,.42.09.87.26,1.32.15.41.44.9.86,1.52-.78.49-1.39,1.05-1.8,1.68-.46.69-.69,1.48-.69,2.34,0,.97.28,1.85.84,2.64.69.98,1.65,1.47,2.83,1.47.64,0,1.25-.16,1.8-.48.47-.27.91-.66,1.31-1.15.52.72,1.04,1.28,1.53,1.66l.19.15,1.16-1.66-.16-.14c-.58-.5-1.11-1.13-1.58-1.87ZM183.72,279.98c.28,0,.51.11.7.34.2.25.3.56.3.96,0,.34-.08.65-.23.93-.13.25-.43.54-.87.88l-.45-.64c-.16-.24-.28-.46-.36-.67-.08-.2-.11-.39-.11-.56,0-.36.1-.65.3-.89.2-.23.43-.34.72-.34ZM183.18,290.43c-.56,0-.98-.25-1.29-.76-.33-.54-.49-1.06-.49-1.55,0-.4.12-.81.35-1.22.21-.38.62-.79,1.2-1.24l2.23,3.37c-.23.39-.53.72-.89.98-.39.27-.76.41-1.11.41Z"/>
        <path class="cls-2" d="M203.45,286.91h3.19v2.14c-.28.29-.69.56-1.22.82-1.2.59-2.51.55-3.63-.13-.59-.36-1.05-.92-1.36-1.66-.32-.76-.48-1.73-.48-2.87,0-.93.14-1.8.4-2.59.15-.45.37-.87.65-1.25.27-.37.63-.67,1.08-.89.44-.23.98-.34,1.6-.34.51,0,.98.11,1.39.32.41.21.73.5.95.84.23.36.42.87.58,1.52l.06.25,1.73-.58-.04-.2c-.19-.91-.48-1.67-.86-2.25-.38-.59-.92-1.05-1.59-1.38-.66-.32-1.42-.49-2.23-.49-1.12,0-2.13.29-3,.85-.87.57-1.54,1.44-2,2.6-.45,1.14-.68,2.38-.68,3.69s.23,2.54.69,3.62c.46,1.09,1.16,1.94,2.06,2.52.91.58,1.93.87,3.03.87.82,0,1.63-.18,2.41-.54.77-.36,1.53-.89,2.25-1.59l.07-.07v-5.24h-5.06v2.02Z"/>
        <path class="cls-2" d="M218.92,290.69c-.06-.39-.08-1.34-.08-2.83v-2.17c0-.74-.02-1.24-.07-1.54-.08-.47-.24-.88-.45-1.2-.22-.33-.56-.6-1.02-.81-.45-.21-1.03-.31-1.73-.31s-1.34.12-1.88.36c-.55.24-.98.6-1.28,1.05-.29.44-.5,1.03-.62,1.73l-.04.23,1.75.29.05-.22c.13-.63.33-1.06.59-1.3.25-.23.67-.34,1.24-.34.6,0,1.06.16,1.35.48.21.23.32.64.32,1.24,0,.04,0,.13,0,.27-.49.19-1.23.35-2.19.49-.55.08-.95.16-1.23.25-.38.13-.73.32-1.03.57-.31.26-.56.6-.75,1.02-.19.42-.28.88-.28,1.38,0,.86.25,1.57.76,2.13.51.56,1.24.85,2.17.85.55,0,1.08-.11,1.57-.34.38-.17.76-.44,1.16-.81.05.29.13.55.22.78l.06.14h1.91l-.15-.33c-.16-.34-.27-.71-.32-1.09ZM217.03,287.42v.24c0,.68-.07,1.2-.2,1.54-.17.43-.44.77-.8,1.02-.36.25-.77.37-1.24.37s-.79-.12-1.01-.36c-.23-.25-.34-.55-.34-.93,0-.24.05-.47.16-.66.1-.19.24-.33.43-.43.2-.11.57-.21,1.1-.3.79-.14,1.43-.3,1.91-.49Z"/>
        <path class="cls-2" d="M227.59,286.61c-.38-.2-1.06-.46-2.01-.77-.64-.21-1.03-.35-1.15-.4-.19-.09-.33-.21-.42-.35-.08-.13-.13-.28-.13-.44,0-.27.1-.5.32-.7.22-.2.6-.31,1.15-.31.45,0,.8.12,1.04.35.24.24.39.58.45,1.02l.03.24,1.76-.29-.03-.22c-.09-.65-.25-1.18-.49-1.57-.25-.41-.63-.74-1.13-.97-.5-.23-1.08-.35-1.72-.35-.43,0-.85.07-1.23.21-.38.14-.7.31-.92.52-.3.26-.54.6-.72.99-.17.39-.26.82-.26,1.28,0,.5.11.97.32,1.39.21.43.53.77.95,1.01.4.23,1.08.49,2.08.8.87.27,1.18.42,1.29.51.21.17.31.39.31.69,0,.35-.12.65-.38.91-.25.26-.65.39-1.2.39s-.96-.15-1.25-.45c-.3-.3-.49-.76-.55-1.34l-.03-.25-1.78.34.03.22c.16,1.07.52,1.88,1.09,2.44.58.56,1.42.84,2.5.84.65,0,1.25-.14,1.77-.42.53-.28.94-.69,1.22-1.2.28-.51.42-1.06.42-1.64s-.12-1.1-.35-1.51c-.23-.41-.56-.73-.97-.94Z"/>
        <path class="cls-2" d="M241.48,278.41l-4.32,13.7h2.01l1.19-4.01h4.2l1.27,4.01h2.13l-4.6-13.7h-1.88ZM242.94,282.84l1.04,3.37h-3.06l1.1-3.59c.15-.51.29-1.02.4-1.53.14.52.31,1.1.52,1.75Z"/>
        <path class="cls-2" d="M255.41,287.42c0,.79-.07,1.4-.21,1.8-.13.39-.35.68-.66.91-.31.22-.64.33-.99.33s-.62-.1-.85-.31c-.24-.21-.39-.5-.46-.88-.05-.28-.08-.84-.08-1.67v-5.55h-1.8v6.17c0,.71.03,1.22.08,1.56.08.5.23.93.44,1.29.22.36.55.67.99.9.43.23.91.35,1.41.35.9,0,1.66-.37,2.27-1.11v.89h1.66v-10.05h-1.8v5.37Z"/>
        <path class="cls-2" d="M263.94,290.19c-.47.08-.74.08-.86-.01-.07-.05-.12-.12-.15-.21-.02-.05-.06-.22-.06-.82v-5.38h1.34v-1.73h-1.34v-3.58l-1.79,1.32v2.26h-.98v1.73h.98v5.29c0,1.01.06,1.67.18,2,.12.35.34.63.65.85.31.21.73.32,1.26.32.31,0,.67-.05,1.07-.15l.2-.05-.25-1.88-.24.04Z"/>
        <path class="cls-2" d="M272.63,282.3c-.47-.3-1.02-.46-1.65-.46-.82,0-1.53.31-2.13.91v-4.34h-1.8v13.7h1.8v-5.48c0-.72.07-1.29.21-1.69.13-.39.35-.68.66-.9.31-.22.63-.33.98-.33.46,0,.8.15,1.04.47.26.33.38.88.38,1.63v6.31h1.8v-6.31c0-.98-.1-1.71-.29-2.23-.2-.54-.54-.97-1.01-1.27Z"/>
        <path class="cls-2" d="M280.93,281.84c-1.03,0-1.92.38-2.64,1.14-.85.9-1.28,2.28-1.28,4.11,0,1.67.36,2.97,1.07,3.86.72.92,1.68,1.38,2.85,1.38.73,0,1.41-.21,2.03-.63.62-.41,1.09-1,1.41-1.75.31-.73.47-1.74.47-3,0-1.57-.36-2.82-1.08-3.72-.73-.92-1.68-1.38-2.83-1.38ZM280.93,290.53c-.59,0-1.08-.27-1.47-.82-.41-.57-.62-1.45-.62-2.62s.21-2.05.62-2.62c.4-.55.88-.82,1.47-.82s1.06.27,1.46.82c.41.57.62,1.43.62,2.56,0,1.2-.21,2.1-.62,2.67-.4.55-.88.82-1.46.82Z"/>
        <path class="cls-2" d="M290.07,282.22c-.15.13-.31.32-.47.58v-.74h-1.66v10.05h1.8v-5.25c0-.66.07-1.28.22-1.84.09-.33.23-.6.43-.78.41-.38.95-.33,1.47.05l.26.19.6-1.97-.13-.1c-.87-.66-1.8-.79-2.51-.19Z"/>
        <rect class="cls-2" x="295.02" y="282.05" width="1.8" height="10.05"/>
        <rect class="cls-2" x="295.02" y="278.41" width="1.8" height="2.33"/>
        <path class="cls-2" d="M303.49,290.19c-.47.08-.74.08-.86-.01-.07-.05-.12-.12-.15-.21-.02-.05-.06-.22-.06-.82v-5.38h1.34v-1.73h-1.34v-3.58l-1.79,1.32v2.26h-.98v1.73h.98v5.29c0,1.01.06,1.67.18,2,.12.35.34.63.65.85.31.21.73.32,1.26.32.31,0,.67-.05,1.07-.15l.2-.05-.25-1.88-.24.04Z"/>
        <path class="cls-2" d="M310.06,287.81c-.12.4-.23.81-.33,1.22-.11-.43-.22-.85-.35-1.25l-1.69-5.72h-1.92l3.06,9.84c-.04.14-.08.26-.1.33-.23.78-.34,1.07-.39,1.17-.1.18-.22.32-.36.42-.25.17-.66.21-1.27,0l-.34-.11.2,2.02.13.05c.34.14.66.22.95.22.48,0,.9-.14,1.24-.43.33-.27.63-.7.88-1.26.18-.41.43-1.13.76-2.2l3.09-10.05h-1.82l-1.73,5.75Z"/>
        <path class="cls-2" d="M184.61,226.45c.41.41,1.29.89,2.18,1.3.73.34,1.46.63,1.93.8.85.3,1.67.55,2.53.43.49-.07,1-.25,1.54-.61.54-.36,1.09-.81,1.6-1.35.94-1.01,1.74-2.24,2.24-3.33.38-.83.66-1.7.79-2.57.19-1.19-.01-2.35-.51-3.39-.25-.53-.77-1.34-1.38-1.95-.53-.52-1.13-.9-1.7-.83-.53.07-1.15.61-1.51,1.27-.64,1.15-1.18,3.28-.67,4.58.17.43.47.82.96,1.14,1.09.7,2.36.57,3.25-.38.22-.23.37-.52.44-.87.09.21.17.42.26.62-.55,1.04-1.17,1.92-1.84,2.65-1.73,1.91-3.97,3.45-6.61,3.08-.62-.09-1.19-.24-1.71-.45-.62-.28-1.24-.57-1.86-.85-.42-.13-.57-.09-.32.25.09.12.22.27.41.45ZM194.14,218.17c-.04.45-.15.79-.4,1.18-.26-.1-.57-.23-.77-.45-.1-.11-.18-.23-.2-.36-.03-.17.04-.37.16-.53.1-.13.22-.23.36-.28.1-.04.21-.05.32-.02.15.04.3.13.44.22.12.08.09.09.08.24Z"/>
        <path class="cls-2" d="M126.21,226.45c.41.41,1.29.89,2.18,1.3.73.34,1.46.63,1.93.8.85.3,1.67.55,2.53.43.49-.07,1-.25,1.54-.61.54-.36,1.09-.81,1.6-1.35.94-1.01,1.74-2.24,2.24-3.33.38-.83.66-1.7.79-2.57.19-1.19-.01-2.35-.51-3.39-.25-.53-.77-1.34-1.38-1.95-.53-.52-1.13-.9-1.7-.83-.53.07-1.15.61-1.51,1.27-.64,1.15-1.18,3.28-.67,4.58.17.43.47.82.96,1.14,1.09.7,2.36.57,3.25-.38.22-.23.37-.52.44-.87.09.21.17.42.26.62-.55,1.04-1.17,1.92-1.84,2.65-1.73,1.91-3.97,3.45-6.61,3.08-.62-.09-1.19-.24-1.71-.45-.62-.28-1.24-.57-1.86-.85-.42-.13-.57-.09-.32.25.09.12.22.27.41.45ZM135.74,218.17c-.04.45-.15.79-.4,1.18-.26-.1-.57-.23-.77-.45-.1-.11-.18-.23-.2-.36-.03-.17.04-.37.17-.53.1-.13.22-.23.36-.28.1-.04.21-.05.32-.02.15.04.3.13.44.22.12.08.09.09.08.24Z"/>
        <polygon class="cls-2" points="165.39 225.17 163.55 227.36 165.82 229.27 167.4 227.39 169.64 229.27 171.48 227.08 169.2 225.17 167.63 227.05 165.39 225.17"/>
        <path class="cls-2" d="M173.39,212.37c-.95-.6-1.49,1.19-1.63,1.81-.19.82-.24,1.69-.34,2.49-.29-.99-.64-1.81-1.06-2.44-.24-.36-.82-1.08-1.38-1.27-.37-.12-.79.08-.81.5,0,.01,0,.03,0,.04-.01.29-.04.67-.06.98.25.14.5.29.74.45.21.14.41.29.6.47.06-.14.08-.2.18-.33.38.51.68,1.18.91,1.78.19.52.35,1.08.47,1.68.05.35.28.28.39.1.15-.25.25-.55.33-.86.26-1.08.29-2.21.53-3.31.08-.39.16-.63.38-.82.25-.21.62.15.8.46.42.7.52-.74.51-.95-.01-.27-.15-.52-.55-.77Z"/>
        <path class="cls-2" d="M133.66,208.69c.38.51.68,1.18.91,1.78.19.52.35,1.08.47,1.68.05.35.28.28.39.1.15-.25.25-.55.33-.86.26-1.08.29-2.21.53-3.31.08-.39.16-.63.38-.82.25-.21.62.15.8.46.42.7.52-.74.51-.95-.01-.27-.15-.52-.55-.77-.95-.6-1.49,1.19-1.63,1.81-.19.82-.24,1.69-.34,2.49-.29-.99-.64-1.81-1.06-2.44-.24-.36-.82-1.08-1.38-1.27-.37-.12-.79.08-.81.5,0,.01,0,.03,0,.04-.01.29-.04.67-.06.98.25.14.5.29.74.45.21.14.41.29.6.47.06-.14.08-.2.18-.33Z"/>
        <path class="cls-2" d="M202.22,209.7c.38.51.68,1.18.91,1.78.19.52.35,1.08.47,1.68.05.35.28.28.39.1.15-.25.25-.55.33-.86.26-1.08.29-2.21.53-3.31.08-.39.16-.63.38-.82.25-.21.62.15.8.46.42.7.52-.74.51-.95-.01-.27-.15-.52-.55-.77-.95-.6-1.49,1.19-1.63,1.81-.19.82-.24,1.69-.34,2.49-.29-.99-.64-1.81-1.06-2.44-.24-.36-.82-1.08-1.38-1.27-.37-.12-.79.08-.81.5,0,.01,0,.03,0,.04-.01.29-.04.67-.06.98.25.14.5.29.74.45.21.14.41.29.6.47.06-.14.08-.2.18-.33Z"/>
        <path class="cls-2" d="M193.65,208.34c.25-.43.48-.86.55-1.28-.05-.23-.15-.23-.28.02-.37.66-.72,1.17-1.09,1.84-.31.55-.57,1.12-.66,1.71-.08.51,0,.99.35,1.3.3.27.6.35.87.3.35-.06.58-.22.76-.42.31-.36.69-1.03.61-1.45-.03-.16-.14-.2-.2-.13-.26.28-.3.57-.45.71l-.05.04s0,0-.01,0c-.43.32-.81-.06-.81-.06h0c-.26-.22-.3-.61-.27-.93.06-.6.33-1.07.67-1.66Z"/>
        <path class="cls-2" d="M146.12,207.55c.25-.43.48-.86.55-1.28-.05-.23-.15-.23-.28.02-.37.66-.71,1.17-1.09,1.84-.31.55-.57,1.12-.66,1.71-.08.51,0,.99.35,1.3.3.27.6.35.87.3.35-.06.58-.22.76-.42.31-.36.69-1.03.61-1.45-.03-.16-.14-.2-.2-.13-.26.28-.3.57-.45.71l-.05.04s0,0-.01,0c-.43.32-.81-.06-.81-.06h0c-.26-.22-.3-.61-.27-.93.06-.6.33-1.07.67-1.66Z"/>
        <path class="cls-2" d="M259.53,203.02s.01-.05.02-.07c.02-.07-.04-.16-.12-.14-.09.02-.18.05-.27.09-.52.21-1.03.45-1.56.64-3.55,1.32-4.42,1.62-5.86,2.16-.17.06-.34.13-.5.21-.21.1-.38.24-.52.43-.16.22-.47.87-.58,1.25,2.93-1.06,5.81-2.1,8.71-3.15.22-.47.45-.94.67-1.41Z"/>
        <path class="cls-2" d="M241.84,212.26c-.04.06-.12.13-.05.2.05.05.3,0,.36-.01.63-.13,1.09-.32,1.7-.5,1.56-.46,1.87-1.46,2.4-2.79.13-.31.13-.82-.15-.84-1.06-.08-1.12-.12-1.87-.26-.54-.1-1.48-.53-1.85.09-.43.71-.76,1.46-1,2.25-.03.09-.02.47.09.34,1.01-1.26,2.04-.7,2.96-.36-.39.33-.72.5-1.14.79-.5.35-.97.68-1.45,1.1Z"/>
        <rect class="cls-2" x="220.41" y="225.74" width="2.86" height="2.97" transform="translate(-94.83 250.95) rotate(-49.97)"/>
        <path class="cls-2" d="M203.71,228.29c1-.47,1.99-.94,2.99-1.41.78-.37,1.57-.74,2.36-1.1.16-.07.26-.18.32-.35.12-.37.26-.73.39-1.09.02-.07.04-.13.06-.2.01-.07-.06-.14-.13-.12-.06.02-.11.04-.16.07-.18.09-.35.19-.52.29-1.39.76-2.83,1.42-4.26,2.09-.14.06-.28.13-.41.21-.27.16-.48.38-.59.67-.13.34-.25.68-.37,1.02.02.02.04.03.06.05.09-.04.19-.08.28-.12Z"/>
        <path class="cls-2" d="M143.26,218.77c-.2.56-.43,1.21-.54,1.86-.14.83-.06,1.65.58,2.27.66.64,1.33.68,2.19.62.61-.04,1.17-.14,1.66-.33.47-.17.9-.4,1.22-.76.66-.75,1.32-3.42,1-4.34-.09-.26-.24-.5-.46-.75-.26-.3-.62-.61-1.1-.95-.71-.51-1.55-.94-2.37-1.41-.14-.07-.26-.06-.35.07-.17.29-.33.58-.48.87-.51.96-.94,1.9-1.35,2.84ZM146.54,218.87c.59.43,1.14.95,1.65,1.47-.73.5-2.85.86-3.57.14-.15-.15-.28-.36-.4-.62-.03-.13-.05-.26-.05-.39-.02-.62.24-1.21.42-1.79.69.35,1.34.75,1.94,1.19Z"/>
        <path class="cls-2" d="M144.29,229.15c1-.47,1.99-.94,2.99-1.41.78-.37,1.57-.74,2.36-1.1.16-.07.26-.18.32-.35.12-.37.26-.73.39-1.09.02-.07.04-.13.06-.2.01-.07-.06-.14-.13-.12-.06.02-.11.04-.16.07-.18.09-.35.19-.53.29-1.39.76-2.82,1.42-4.26,2.09-.14.06-.28.13-.41.21-.27.16-.48.38-.59.67-.13.34-.25.68-.37,1.02.02.02.04.03.06.05.09-.04.19-.08.28-.12Z"/>
        <path class="cls-2" d="M290.73,205.22c-6.57,2.27-7.89,2.6-14.53,4.99-.23.08-.45.19-.67.29-.38.64-.92,1.46-1.35,2.17-.04.06-.07.11-.09.16.25-.09.53-.19.81-.29,0,0,0,0,.01,0,.62-.22,1.2-.43,1.74-.62,0,0,0,0,0,0,5.26-1.87,7.08-2.51,13.13-4.67.41-.59.81-1.17,1.22-1.76.19-.32.02-.34-.26-.26Z"/>
        <path class="cls-2" d="M280,214.68c.27-.47.51-.93.6-1.38-.06-.25-.16-.24-.3.02-.39.71-.77,1.26-1.17,1.98-.33.59-.61,1.2-.71,1.84-.09.55,0,1.07.37,1.4.33.29.65.38.94.33.37-.06.62-.23.81-.45.34-.39.75-1.1.66-1.56-.03-.17-.15-.21-.21-.14-.28.3-.32.62-.48.76l-.05.05s0,0-.01,0c-.46.35-.88-.06-.88-.06h0c-.28-.24-.32-.65-.29-1,.07-.64.36-1.15.72-1.78Z"/>
        <path class="cls-2" d="M312.58,204.51s.02-.05.02-.07c.02-.08-.05-.17-.13-.15-.1.02-.2.05-.29.09-.56.23-1.12.48-1.69.7-3.83,1.42-4.78,1.76-6.34,2.33-.18.07-.36.14-.54.22-.23.11-.41.26-.56.46-.18.24-.5.94-.62,1.35,3.17-1.15,6.28-2.27,9.42-3.4.24-.5.48-1.02.73-1.53Z"/>
        <path class="cls-2" d="M287.74,217.28c1.08-.82,2.07-1.62,3.46-2.08.32-.52.65-1.04.97-1.55.05-.1.02-.15-.09-.15-.66.17-1.3.44-1.98.52-.84.11-1.63-.07-2.27-.28-.49-.16-.71-.33-1.03-.66.32-.23.64-.49.96-.66.11-.06.22-.12.34-.15.44-.11.61.35.77.64.05.1.15.08.25-.09.06-.1.12-.2.17-.31.16-.3.38-.67.42-1.03.02-.18,0-.36-.11-.52-.11-.18-.26-.37-.47-.42-.09-.02-.17-.02-.26-.02-.37,0-.84.26-1.29.65-.61.54-2.1,2.59-1.87,3.41.07.26.29.47.61.64.47.26.96.38,1.86.48-.21.45-.41.89-.59,1.36-.1.27,0,.33.15.22Z"/>
        <path class="cls-2" d="M307.16,220.83c1.91.54,2.96.74,4.31,1.17.46.15.66.17,1.02-.29.56-.71,1.11-1.93,1.22-2.96.03-.31,0-.6-.05-.87-.1-.51-.42-1.1-.87-1.7-.62-.84-1.51-1.72-2.44-2.48-.35-.29-.69-.58-1.02-.84-.81-.61-1.58-1.09-2.18-1.31-.57-.21-1.08-.21-1.46,0-.91.5-1.31,1.61-1.51,2.56-.07.34.09.48.33.33.45-.32.6-.38,1.04-.39-.85.51-1.96,2.16-2.3,3.53-.05.2-.08.41-.09.61-.02.38.05.75.25,1.06.18.26.45.48.87.61-.45.24-.93.36-1.47.43-.79.11-1.83.14-2.71-.04-.19-.04-.38-.09-.57-.16.16-1.83-.57-2.96-.57-2.96-.09-.14-.22-.12-.26.04-.22.86-.47,1.75-.7,2.62.12.31.25.64.39.98.01.03.02.06.04.09-.07.01-.2.03-.27.03-1.22.15-3.74-.17-4.75-.62.13-.2.31-.72.41-1.15.09-.37.14-.79.15-1.15,0-.1,0-.19-.02-.27-.04-.37-.19-.48-.34-.4-.08.05-.15.15-.21.28-.08.12-.31.71-.37.84-.09.2-.16.4-.24.6v.04s-.03.04-.04.06c-.3.71-.84,1.16-1.56,1.4-.5.17-.88.24-1.54.27-.65.03-2.59,0-2.59,0h-5.26s-1.26,0-1.26,0h-2.44c-.56,0-1.07-.01-1.6-.06-2.08-.17-3.59-1.22-4.19-3.07-.18-.55-.31-1.17-.37-1.52-.15-.83-.27-1.73-.38-2.64-.16-1.31-.32-2.35-.48-3.64-.04-.31-.33-.36-.38-.2-.29.88-.71,1.94-1,2.81.1.51.15.77.23,1.31-1.83,1.61-3.86,1-4.95,2.86-.29.5-.57,1.03-.86,1.57-.12.29-.18.55-.1.76.06.16.21.29.41.32.19.03.49.08.81.15.69.13,1.32.35,2,.45,1.02.14,1.53.13,2.23-.62.39-.42.72-.93,1.03-1.46.07.29.13.62.22.96.36,1.41.77,2.7,1.97,3.63,1.09.84,2.64,1.14,3.99,1.14h5.27s2.51,0,2.51,0h0s.79,0,.79,0h0s4.29,0,4.29,0c.74,0,1.42-.22,1.93-.56.13-.08.24-.18.35-.28.05-.01.11-.02.17,0,.07.02.15.04.23.06.62.16,1.79.32,2.44.43,0,0,0,0,0,0,0,0,.02,0,.02,0,1,.17,1.94.27,2.75.34.75.06,1.29-.67,1.64-1.51.29.19.58.39.77.49.78.4,1.45.4,2.02.41.74.01,1.42-.19,2.42-.62.98-.42,1.95-.93,2.93-1.47ZM309.05,215.98s1.78,1.49,2.34,2.03c.28.27.53.6.8.96.11.14.26.45.27.59-1.32-.25-2.83-.77-3.97-1.02.25-.47.61-2.02.56-2.55ZM306.55,215.24c.38.02.69.29.94.66.24.36.38.76.5,1.46-.17.26-.55.66-.88.87-.71-.23-1.15-.27-1.85-.53-.39-.15-.72-.31-.91-.56.5-.79,1.07-1.77,2.2-1.89ZM269.68,217.12c-.36.07-.76.04-1.07.04-.39,0-.76-.04-.99-.16.73-.26,2.16-1.5,2.43-2.16.14.76.16,1.09.28,1.87-.15.25-.36.36-.65.41Z"/>
        <polygon class="cls-2" points="264.48 212.5 266.72 214.38 268.56 212.19 266.28 210.28 264.7 212.15 262.47 210.28 260.63 212.46 262.9 214.38 264.48 212.5"/>
        <polygon class="cls-2" points="299.05 227.31 296.82 225.43 294.98 227.62 297.25 229.53 298.83 227.65 301.07 229.53 302.91 227.34 300.63 225.43 299.05 227.31"/>
        <path class="cls-2" d="M268.43,208.11c-.26.17-.61.41-.45.8.1.04.24.03.42-.03,1.26-.64,2.89-1.65,4.01-3.16.17.08.34.17.51.25.19-.26.31-.58.32-1.02-.16-.1-.33-.2-.49-.3.07-1.22-.2-2.09-.66-2.27-.13-.05-.27-.04-.4.02-.58.26-1.12,1.41-1.04,1.95.03.21.12.4.32.52.3.2.67.23.96.43-.91,1.28-2.42,2.11-3.49,2.8ZM271.33,203.96c-.38-.28.2-.65.49-.42.27.21.4.36.43.68,0,.08.01.17.01.27-.05-.03-.1-.05-.15-.08-.27-.13-.54-.27-.78-.45Z"/>
        <path class="cls-2" d="M295.47,213.15c-.04.06-.13.13-.05.2.05.05.31,0,.37-.01.65-.14,1.13-.33,1.76-.52,1.62-.48,1.94-1.52,2.49-2.89.13-.32.14-.85-.15-.87-1.09-.09-1.17-.13-1.94-.27-.56-.11-1.53-.55-1.92.09-.45.73-.79,1.52-1.04,2.33-.03.09-.02.49.1.35,1.05-1.31,2.12-.73,3.07-.38-.41.34-.75.52-1.19.82-.52.36-1,.71-1.5,1.15Z"/>
        <path class="cls-2" d="M203.31,225.33c1.38-1.05,2.64-2.05,4.4-2.64.41-.66.82-1.32,1.24-1.97.06-.13.02-.2-.11-.19-.84.22-1.66.55-2.52.67-1.07.14-2.07-.09-2.88-.35-.62-.2-.91-.42-1.31-.84.41-.3.82-.62,1.22-.84.14-.08.29-.16.43-.19.56-.14.78.45.98.81.07.12.19.1.31-.12.08-.13.15-.26.22-.39.2-.38.48-.86.53-1.31.03-.23,0-.45-.14-.66-.14-.23-.33-.47-.6-.53-.12-.02-.21-.03-.33-.02-.47,0-1.07.33-1.64.83-.78.69-2.67,3.3-2.38,4.33.09.33.37.6.77.82.6.33,1.22.48,2.36.62-.26.57-.52,1.14-.75,1.72-.13.35.01.42.19.28Z"/>
        <path class="cls-2" d="M231.53,223.46c1.39-.08,1.88-2.61,1.59-4.55-.2-1.3-.77-2.28-1.39-3.14-.22-.3-.42-.57-.69-.84-.2.64-.28.83-.53,1.56-.05.15-.39,1.06-.33,1.2.04.08.17.24.27.37.68.86,1.31,1.78,1.8,2.68h-1.45c-.2,0-.4,0-.58,0l-7.86.05c-2.15,0-3.73.04-4.84-.02-2.81-.17-3.91-.98-4.11-3.38-.22-2.73-.31-8.2-.41-10.94,0-.09-.04-.48-.29-.2-.5.59-1,1.23-1.46,1.86,0,0,.16,4.8.2,6.4.05,2.3-.08,5.66.86,6.99,1.45,2.04,4.13,2.05,6.64,2.04h3.41c2.11,0,7.2.03,9.17-.09Z"/>
        <path class="cls-2" d="M99.65,225.25c-.32-.16-.35.01-.24.26.1.23.31.53.5.72.34.34.94.75,1.58,1.13.74.44,1.54.83,2.05,1.03.74.28,1.36.53,1.97.61.32.04.64.04.96-.03.37-.08.75-.24,1.16-.51.35-.23.73-.55,1.12-.91.71-.67,1.41-1.49,1.79-2.14.58-.96,1.02-1.96,1.23-2.97.27-1.31.14-2.63-.6-3.94-.39-.7-.9-1.42-1.57-2.18-.09-.1-.23-.16-.29.04-.26.82-.52,1.65-.77,2.48-.03.13.02.23.1.3.47.46.9.96,1.28,1.49.36.49.68,1.02.95,1.58-.49.83-1.06,1.57-1.68,2.2-.47.48-.98.9-1.5,1.25-1.12.76-2.18,1.15-3.32,1.19-.73.03-1.49-.09-2.31-.35-.36-.11-.73-.27-1.17-.51-.33-.19-.66-.39-.97-.6-.11-.07-.2-.12-.27-.16Z"/>
        <path class="cls-2" d="M118.11,223.5c.79.05,1.57.06,2.36-.02,0,0,0,0,.01,0h0c.07,0,.15-.02.22-.03.47-.06.94-.11,1.4-.18.76-.11,1.53-.21,2.28-.39,1.04-.25,2.07-.56,3.08-.94.23-.09.41-.22.56-.41.52-.63.97-1.3,1.37-2.01.05-.08.08-.16.12-.25.04-.09.03-.18-.05-.25-.07-.06-.15-.03-.22,0-.19.09-.38.18-.57.26-1.16.47-2.36.78-3.57,1.06-.32.07-.65.06-.98,0-.73-.14-1.3-.54-1.73-1.13-.55-.74-.83-1.6-.99-2.5.08-.06.15-.13.22-.17.19-.09.38-.18.57-.26.89-.33,1.8-.55,2.73-.71.59-.1,1.17-.05,1.75.09.32.08.62.21.86.45.08.07.16.14.25.18.09.05.2.07.3,0,.08-.07.08-.16.06-.25-.03-.23-.13-.42-.25-.61-.33-.51-.74-.95-1.24-1.3-.54-.37-1.14-.58-1.8-.61-.77-.03-1.48.16-2.14.56-1.4.85-2.37,2.05-2.87,3.61-.32,1.01-.2,1.98.27,2.96.03.06.07.12.09.18-2.73.22-3.18-.28-3.52-3.28-.2-1.74-.44-4.96-.55-7.8h0s-.2-3.66-.2-3.66c0,0-.06-.38-.44.1,0,0,0,0,0,0-.45.57-.86,1.15-1.22,1.7.05.81.08,2.8.16,4.48.09,1.85.27,6.91.79,9.22.23,1.04,1.03,1.47,1.78,1.75h0c.35.1.72.15,1.09.17Z"/>
        <rect class="cls-2" x="121.98" y="207.45" width="2.86" height="2.97" transform="translate(-115.95 169.05) rotate(-49.97)"/>
        <rect class="cls-2" x="107.76" y="209.62" width="2.86" height="2.97" transform="translate(-122.69 158.94) rotate(-49.97)"/>
        <path class="cls-2" d="M107.66,232.25c1-.47,1.99-.94,2.99-1.41.78-.37,1.57-.74,2.36-1.1.16-.07.26-.18.32-.35.12-.37.26-.73.39-1.09.02-.07.04-.13.06-.2.01-.07-.06-.14-.13-.12-.06.02-.11.04-.16.07-.18.09-.35.19-.52.29-1.39.76-2.82,1.42-4.26,2.09-.14.06-.28.13-.41.21-.27.16-.48.38-.59.67-.13.34-.25.68-.37,1.02.02.02.04.03.06.05.09-.04.19-.08.28-.12Z"/>
        <path class="cls-2" d="M258.79,223.49c.56-.03,1.16-.07,1.28-.1.27-.06.48-.57.56-.74q.07-.15.19-.44c.13-.32.3-.68.42-1.31.33-1.63-1.11-3.49-2.72-5-1.22-1.07-3.97-2.82-3.97-2.82.15-.11.31-.22.48-.33,1.69-1.03,4.75-2.09,6.65-2.81,1.57-.59,3.16-1.15,4.77-1.66.23-.75.46-1.49.69-2.24.09-.3.27-.51-.06-.37-1.3.53-2.53,1-3.7,1.43-1.84.68-3.56,1.3-5.21,2.02-.7.3-1.39.62-2.07.98-1.62.84-2.49,1.33-3.13,3.03h0c-.3.77-.5,1.59-.61,2.23-.03.21-.02.41.07.58.04.15.15.25.27.33.76.25,1.51.52,2.27.74.66.19.44.35.71-.13,0,0,0,0,0,0,0,0,1.54.29,4.02,3.06l.73.85h-3.69s0,0,0,0h-8.33c.16-.18.3-.36.43-.56.31-.51.53-1.17.65-1.82.06-.35.08-.69.08-1.01-.01-.94-.25-1.81-.42-2.8-.06-.33-.1-.67-.12-1.01,0-.19-.07-.24-.21-.12-.18.2-.33.42-.52.62-.73.8-1.59,2.01-2.27,3.25-.03.05-.05.1-.08.15h0s-1.1,1.99-1.58,3.1c-.1.23-1.12.19-1.81.21h-1.67c-.74.05-1.21-.35-1.33-.45-.31-.34-.55-.77-.55-.77-.39-.66-.89-1.32-1.5-2.06-.09-.1-.22-.15-.29.04-.29.8-.52,1.65-.77,2.48-.03.13.02.23.1.3.47.46.9.96,1.28,1.49.36.49.68,1.02.95,1.58-.49.83-1.06,1.57-1.68,2.2-.47.48-.98.9-1.5,1.25-1.12.76-2.18,1.15-3.32,1.19-.73.03-1.49-.09-2.31-.35-.36-.11-.73-.27-1.17-.51-.33-.19-.66-.39-.97-.6-.11-.07-.2-.12-.27-.16-.32-.16-.35.01-.24.26.1.23.31.53.5.72.34.34.94.75,1.58,1.13.74.44,1.54.83,2.05,1.03.74.28,1.36.53,1.97.61.32.04.64.04.96-.03.37-.08.75-.24,1.16-.51.35-.23.73-.55,1.12-.91.71-.67,1.4-1.49,1.79-2.14.58-.96,1.02-1.96,1.22-2.97,0-.05.02-.1.02-.15,0,.02.12.08,1.43.11.94.02,2.24,0,2.24,0-.04.19-.08.39-.11.6.4-.1.71-.07,1.11-.17.1,1.36.39,2.39.81,3.18,1,1.87,2.9,2.8,4.9,2.03.81-.32,1.27-1.14,1.5-2.2.25-1.12.41-2.41-.13-3.42h.02c.38,0,5.72,0,7.31-.05ZM247.02,217.83c.42-.67.68-1.07,1.01-1.51.09.72.39,2.02.46,2.96-.13.06-1.16.53-2.62.92.33-.73.75-1.68,1.15-2.37ZM249.83,226.45c-.57.11-1.27.12-1.58.06-.34-.07-.64-.2-.9-.36-.8-.53-1.24-1.46-1.54-2.39.91-.06,1.74.11,2.49.48.83.41,1.58,1.07,2.26,1.94-.13.12-.41.21-.74.27Z"/>
        <path class="cls-2" d="M177.95,222.99c.34.11.65.26,1.08.42.31.11.63.16.94.07.3-.1.76-.61,1.18-1.17.41-.54.76-1.14,1.01-1.39.12-.12.27-.18.42-.17,1.16.06,3.07.57,4.18.8.35.07.6-.08.79-.28.18-.19.32-.55.43-.81.15-.35.27-.75.37-1.16.1-.32.15-.87.06-1.22-.22-.78-1.26-2.33-1.85-2.92-.41-.42-.87-.7-1.29-.64-.95.13-1.7,1.09-2.22,2.08-.35.67-.55,1.36-.77,2.04-.15.47-.29.81-.47,1.05-.14.2-.28.41-.46.59-.36.36-.58.54-.82.64-.75.29-1.81.07-2.64-.2,0,0,.28-.46.36-.63.12-.25.25-.59.33-.94.01-.06.03-.13.03-.2.05-1.22-.74-.54-.84-.39-.07.11-.15.29-.2.4l-.08.18c-.3.71-.84,1.16-1.56,1.4-.5.17-.82.22-1.54.27-.4.03-1.14.02-1.65,0l-6.68-.05-7.19-.04h0s-.44,0-.58,0c-2.51-.02-3.74-.72-3.97-3.43-.23-2.76-.42-11.05-.42-11.05-.01-.19-.05-.59-.24-.36h0c-.48.65-1.14,1.35-1.54,1.97.05.81.05,2.67.1,4.38.04,1.75-.1,7.3.98,9.24,1.22,2.19,2.47,2.05,5.72,2.06h6.42s.39,0,.39,0h7.02s.14,0,.14,0l1.43-.02c.77-.03,1.36-.19,1.87-.53.09-.06.18-.13.26-.21.03-.03.06-.05.09-.07.05-.05.12-.11.2-.18h0c.31.11.93.37,1.22.46ZM184.33,217.34c.58-.14,1.38.74,1.56,1.18-.81-.12-1.58-.27-2.43-.43.15-.34.38-.63.87-.75Z"/>
        <path class="cls-2" d="M40.52,226.17c.22.19.44.36.68.52.79.54,1.63,1.01,2.52,1.39.67.29,1.34.56,2.06.7.64.13,1.27.07,1.85-.25.31-.17.6-.36.88-.57.63-.48,1.18-1.05,1.69-1.66.55-.65.99-1.36,1.33-2.14.28-.64.5-1.31.65-1.99.12-.55.2-1.09.13-1.66-.08-.67-.3-1.28-.61-1.87-.45-.84-1.03-1.58-1.64-2.31-.05-.05-.15-.17-.24-.24-.04.1-.09.27-.11.35-.24.74-.46,1.48-.7,2.22-.06.2-.03.35.13.49.05.04.09.09.14.14.75.77,1.38,1.62,1.87,2.57.05.09.08.19.12.26-.33.6-.83,1.29-1.36,1.87-.81.87-1.73,1.61-2.8,2.13-1.13.55-2.32.7-3.56.47-.93-.17-1.79-.51-2.59-1.01-.21-.13-.41-.27-.62-.4-.12-.07-.24-.16-.39-.13-.09.11-.05.21,0,.3.14.31.34.59.6.81Z"/>
        <path class="cls-2" d="M101.3,223.1s.04.11.08.12c.04,0,.11-.02.13-.05.07-.08.13-.16.17-.26.17-.38.34-.76.48-1.15.3-.88.43-1.79.49-2.71.06-.96.07-1.92.01-2.88-.06-1.06-.11-2.12-.18-3.18-.07-1.09-.16-2.17-.25-3.26-.08-.92-.19-1.83-.27-2.74-.02-.24-.04-.49-.09-.75-.03-.15-.26.17-.33.27-.38.62-.76,1.24-1.14,1.85-.11.17-.14.36-.12.56.15,1.44.3,2.89.45,4.33.23,2.19.48,4.38.58,6.58.04,1,.08,2,0,2.99,0,.09-.01.18,0,.27Z"/>
        <path class="cls-2" d="M45.66,203.37c-.1.02-.19.05-.28.09-.55.22-1.08.47-1.64.67-3.72,1.38-4.63,1.7-6.15,2.26-.18.07-.35.14-.52.22-.22.1-.4.25-.55.45-.17.23-.49.91-.6,1.31,3.07-1.11,6.09-2.2,9.13-3.3.23-.49.47-.98.71-1.48.01-.02.02-.05.02-.07.02-.08-.04-.16-.12-.15Z"/>
        <polygon class="cls-2" points="43.03 209.57 40.79 207.69 38.95 209.88 41.23 211.79 42.81 209.92 45.04 211.79 46.88 209.61 44.61 207.69 43.03 209.57"/>
        <polygon class="cls-2" points="29.97 207.26 32.21 209.14 34.04 206.95 31.77 205.04 30.19 206.92 27.95 205.04 26.12 207.23 28.39 209.14 29.97 207.26"/>
        <path class="cls-2" d="M28.23,216.66c-.29.5-.57,1.03-.86,1.57-.12.29-.18.55-.1.76.06.16.21.29.41.32.19.03.49.08.81.15.69.13,1.32.35,2,.45,1.02.14,1.53.13,2.23-.62.39-.42.72-.93,1.03-1.46.07.29.13.62.22.96.38,1.45.82,2.56,1.97,3.63.92.86,2.64,1.14,3.99,1.14,0,0,1.29,0,1.72,0,1.63-.01,2.28-.2,2.48-.28.19-.08.37-.17.52-.28.93-.61,1.35-1.68,1.59-2.93.13-.66.18-1.36.18-1.97,0-.24-.01-.47-.03-.68-.12-1.31-.88-3.54-2.1-4.57-.37-.32-.8-.52-1.28-.54-.62-.03-1.2.3-1.69.78-.58.56-1.08,1.47-1.33,2.43-.28,1.09-.26,2.24.31,3.05.25.35.59.63,1.05.79.65.23,1.31.22,1.9,0,.51-.19.98-.53,1.33-1.03.29.59.51,1.61.6,2.05,0,0-.39.2-1.1.26,0,0,0,0,0,0-.08,0-.17.01-.25.02-1.01.06-3.05.12-4.06.07-2.57-.12-3.59-1.21-4.19-3.06-.18-.55-.3-1.18-.37-1.52-.15-.82-.29-1.73-.38-2.64-.14-1.3-.31-2.38-.48-3.64-.04-.31-.33-.36-.38-.2-.31.87-.71,1.94-1,2.81.1.51.15.77.23,1.31-1.83,1.61-3.86,1-4.95,2.86ZM43.01,216.41c-.72.12-1.18.02-1.64-.57.3-.39.54-.73,1.06-.73.28,0,.51.18.72.42-.02.29-.03.59-.14.88ZM33.35,214.86c.14.76.14,1.12.28,1.88-.15.25-.36.35-.65.4-.36.07-.76.04-1.07.04-.39,0-.76-.04-.99-.16.73-.26,2.16-1.5,2.43-2.16Z"/>
        <path class="cls-2" d="M83.98,204.48c-7.28,2.27-14.56,4.55-21.84,6.82-.25.1-.5.19-.74.29-.42.64-.96,1.3-1.5,2.17-.03.06-.06.1-.09.15.15-.04.47-.14.86-.26.01,0,.03-.02.03-.02.9-.29,1.8-.58,2.71-.87.01,0,.03,0,.03,0,6.5-2.08,12.99-4.17,19.49-6.25.45-.59.9-1.17,1.35-1.76.21-.32.03-.34-.29-.26Z"/>
        <path class="cls-2" d="M219.26,212.75s.02,0,.02,0c6.13-2.08,12.26-4.17,18.38-6.25.42-.59.85-1.17,1.27-1.76.2-.32.02-.34-.27-.26-6.87,2.27-13.73,4.55-20.6,6.82-.23.1-.47.19-.7.29-.39.64-.91,1.3-1.42,2.17-.03.06-.06.1-.08.15.15-.04.44-.14.81-.26.01,0,.02-.02.03-.02.85-.29,1.7-.58,2.55-.87Z"/>
        <path class="cls-2" d="M180.54,204.74c.2-.32.02-.34-.27-.26-6.87,2.27-13.73,4.55-20.6,6.82-.23.1-.47.19-.7.29-.39.64-.91,1.3-1.42,2.17-.03.06-.06.1-.08.15.15-.04.44-.14.81-.26.01,0,.02-.02.03-.02.85-.29,1.7-.58,2.55-.87.01,0,.02,0,.02,0,6.13-2.08,12.26-4.17,18.38-6.25.42-.59.85-1.17,1.27-1.76Z"/>
        <path class="cls-2" d="M73.45,214.5c.06-.33-.28-.12-.33-.05-.49.74-1.38,2.51-.6,3.26.16.16.4.33.74.3.31-.02.57-.23.81-.43.25-.22.47-.5.65-.84.16.33.42.45.74.44.38-.05.72-.24.99-.55.16-.18.45-.61.71-1.11.25-.48.47-1.02.49-1.45.02-.35.01-.54-.03-.64-.26-.69-.45.29-.82.98-.24.44-.72.91-1.02.43-.14-.22-.09-.46-.15-.56-.13-.2-.23.06-.28.16-.19.36-.41.66-.65.9-.33.33-1,.9-1.31.24-.07-.15-.09-.35-.06-.6.04-.16.09-.29.12-.48Z"/>
        <polygon class="cls-2" points="85.19 215.33 86.77 213.45 89.01 215.33 90.85 213.14 88.57 211.23 87 213.11 84.76 211.23 82.92 213.42 85.19 215.33"/>
        <rect class="cls-2" x="85.29" y="208.39" width="2.86" height="2.97" transform="translate(-129.76 141.28) rotate(-49.97)"/>
        <path class="cls-2" d="M95.15,219.26c.09,1.18.23,1.1-.91.97-.96-.11-1.77-.6-2.61-1.11.03-.46.03-1.45-.24-1.72-.2-.03-1.06,1.6-1.21,1.86,0,.36.05,1.17.05,1.53-1-.06-2.06-.27-2.85-.83.11-.31.33-.77.42-1.1.08-.28.13-.58.13-.83,0-.53-.32-.87-.95.06-.42.63-1.09,1.58-1.11,1.61-.31.42-.58.74-.9.95-.88.58-2.87.51-3.94.32.22-.25.98-1.51,1.05-1.85.1-.46-.39-.66-.82-.23-.6.6-1.07,1.06-1.87,1.34-1.06.37-2.39.48-3.06.5-1.57.06-3.35.08-5.15.09-.35,0-5.61,0-6.77,0-1.87,0-3.18.01-4.15-.03-2.78-.11-3.91-.98-4.11-3.38-.23-2.73-.31-8.2-.41-10.94,0-.09-.04-.48-.29-.2-.5.58-1,1.23-1.46,1.86,0,0,.16,4.8.2,6.4.05,2.3-.02,5.61.86,6.99,1.37,2.15,4.39,1.95,6.82,2.01.59.01,2.37,0,3.06,0h5.68s1.78,0,1.78,0c1.46,0,2.57-.11,3.04-.13,1-.05,1.86-.13,2.71-.29.03.12.12.34.46.37,1.12.08,4.62.17,5.97-.22.24-.07.5-.27.79-.47.25-.17.51-.38.74-.61.61.76,2.44,1.06,3.31,1.11.34.02.57-.42.82-.74.25-.31.47-.68.66-1.05.54.32,1.51,1,2.45,1.33.7.25,1.39.3,1.85-.14.71-.67,1.19-2.24,1.31-2.91.23-1.32.16-2.69.04-4.05-.2-2.24-.24-2.23-.47-4.4,0,0,.03,0,.08,0,.2,0,.36.04.4-.09.33-1.02.46-1.47.69-2.34.04-.13-.05-.23-.26-.33-.76-.38-1.07-.61-1.23-.91-.16-.29-.2-.53-.19-.76,0-.18.09-.36.14-.59.14-.68-.54.18-.68.41-.38.64-.5.91-.8,1.72-.1.28-.14.39-.14.51,0,.1.03.21.13.46.28,4.03.63,5.8.93,9.84Z"/>
        <path class="cls-2" d="M34.95,259.76h4.6v2.61c-.42.35-1.03.69-1.81,1.01-1.77.72-3.72.66-5.38-.16-.87-.43-1.55-1.1-2-2-.46-.91-.7-2.05-.7-3.4,0-1.1.2-2.13.58-3.07.22-.54.54-1.04.95-1.49.4-.44.94-.81,1.59-1.08.66-.28,1.46-.42,2.37-.42.76,0,1.45.13,2.07.39.61.26,1.08.6,1.41,1.03.33.43.61,1.04.84,1.81l.06.2,2.27-.62-.05-.2c-.28-1.08-.69-1.97-1.22-2.64-.54-.68-1.29-1.22-2.24-1.6-.93-.37-1.99-.56-3.15-.56-1.59,0-3.01.33-4.23.99-1.23.66-2.18,1.68-2.84,3.03-.65,1.34-.98,2.81-.98,4.35s.33,3,.98,4.27c.66,1.28,1.64,2.27,2.93,2.94,1.28.67,2.72,1.01,4.29,1.01,1.16,0,2.3-.21,3.4-.63,1.1-.42,2.17-1.04,3.2-1.86l.08-.06v-6.12h-7.05v2.27Z"/>
        <path class="cls-2" d="M57.17,263.4c.45-.86.68-2.05.68-3.54,0-1.85-.52-3.32-1.54-4.38-1.03-1.06-2.36-1.6-3.97-1.6-1.45,0-2.69.44-3.7,1.31-1.21,1.05-1.82,2.67-1.82,4.82,0,1.96.51,3.49,1.53,4.54,1.01,1.06,2.36,1.59,4,1.59,1.02,0,1.97-.24,2.84-.72.87-.48,1.54-1.17,1.99-2.03ZM52.34,264.15c-.91,0-1.64-.33-2.23-1.01-.6-.68-.9-1.73-.9-3.12s.3-2.44.9-3.12c.6-.68,1.33-1.01,2.23-1.01s1.62.33,2.22,1.01c.6.68.9,1.7.9,3.05,0,1.43-.3,2.5-.9,3.18-.6.68-1.32,1.02-2.22,1.02Z"/>
        <path class="cls-2" d="M68.13,265.9l4.45-11.75h-2.43l-2.57,7.05c-.2.54-.37,1.04-.51,1.49-.17-.55-.34-1.09-.53-1.62l-2.48-6.93h-2.48l4.47,11.75h2.08Z"/>
        <path class="cls-2" d="M87.06,262.34l.06-.23-2.39-.3-.06.16c-.28.77-.65,1.33-1.11,1.67-.46.34-1.02.51-1.68.51-.89,0-1.62-.3-2.22-.93-.56-.58-.89-1.42-.98-2.5h8.43v-.2c.01-.23.02-.4.02-.52,0-1.92-.5-3.43-1.5-4.5-1-1.07-2.3-1.61-3.87-1.61s-2.95.55-3.97,1.65c-1.01,1.09-1.53,2.63-1.53,4.58s.51,3.38,1.51,4.44c1.01,1.06,2.39,1.6,4.09,1.6,1.36,0,2.49-.34,3.37-1,.88-.67,1.49-1.61,1.82-2.81ZM78.79,258.72c.09-.83.4-1.5.92-2.01.57-.56,1.24-.83,2.08-.83.92,0,1.64.34,2.22,1.03.34.4.56,1.01.65,1.8h-5.86Z"/>
        <path class="cls-2" d="M97.99,256.81l.81-2.18-.15-.09c-.7-.43-1.4-.65-2.08-.65-.49,0-.94.14-1.35.42-.29.2-.58.53-.89,1v-1.17h-2.15v11.75h2.34v-6.14c0-.79.1-1.52.31-2.18.13-.4.34-.72.64-.95.64-.49,1.49-.43,2.31.05l.22.13Z"/>
        <path class="cls-2" d="M102.62,254.14v11.75h2.34v-6.4c0-1.38.28-2.32.82-2.8.55-.48,1.22-.73,1.98-.73.47,0,.88.11,1.23.32.34.21.57.48.71.82.14.36.21.93.21,1.68v7.1h2.34v-7.18c0-.91-.04-1.54-.11-1.91-.12-.57-.33-1.08-.63-1.5-.31-.43-.77-.78-1.37-1.04-.6-.26-1.26-.39-1.97-.39-1.41,0-2.55.49-3.4,1.46v-1.2h-2.15Z"/>
        <path class="cls-2" d="M124.23,256.53c.28.39.43.99.43,1.8v7.57h2.34v-6.79c0-1.1.25-1.91.73-2.4.49-.49,1.09-.73,1.84-.73.4,0,.75.09,1.04.28.29.18.48.42.59.71.12.31.17.85.17,1.59v7.35h2.33v-7.99c0-1.35-.33-2.36-.97-3.02-.64-.66-1.57-1-2.74-1-1.39,0-2.55.59-3.45,1.77-.24-.5-.6-.91-1.07-1.21-.57-.37-1.3-.56-2.18-.56-.79,0-1.5.18-2.12.53-.42.24-.79.54-1.1.89v-1.17h-2.14v11.75h2.34v-6.09c0-1,.1-1.77.3-2.3.19-.51.49-.88.91-1.14.42-.26.89-.4,1.39-.4.65,0,1.09.18,1.37.55Z"/>
        <path class="cls-2" d="M149.49,262.11l-2.39-.3-.06.16c-.28.77-.65,1.33-1.11,1.67-.46.34-1.02.51-1.68.51-.89,0-1.62-.3-2.22-.93-.56-.58-.89-1.42-.98-2.5h8.43v-.2c.01-.23.02-.4.02-.52,0-1.92-.5-3.43-1.5-4.5-1-1.07-2.3-1.61-3.87-1.61s-2.95.55-3.97,1.65c-1.01,1.09-1.53,2.63-1.53,4.58s.51,3.38,1.51,4.44c1.01,1.06,2.39,1.6,4.09,1.6,1.36,0,2.49-.34,3.37-1,.88-.67,1.49-1.61,1.81-2.81l.06-.23ZM141.16,258.72c.09-.83.4-1.5.92-2.01.57-.56,1.24-.83,2.08-.83.92,0,1.64.34,2.22,1.03.34.4.56,1.01.65,1.8h-5.86Z"/>
        <path class="cls-2" d="M163.45,255.31c-.31-.43-.77-.78-1.37-1.04-.6-.26-1.26-.39-1.97-.39-1.41,0-2.55.49-3.4,1.46v-1.2h-2.15v11.75h2.34v-6.4c0-1.38.28-2.32.82-2.8.55-.48,1.22-.73,1.98-.73.47,0,.88.11,1.23.32.34.21.57.48.71.82.14.36.21.93.21,1.68v7.1h2.34v-7.18c0-.91-.04-1.54-.11-1.91-.12-.57-.33-1.08-.63-1.5Z"/>
        <path class="cls-2" d="M174.24,263.76c-.75.11-1.14.1-1.36-.04-.12-.07-.2-.16-.25-.28-.03-.07-.08-.3-.08-.97v-6.42h1.93v-1.91h-1.93v-4.12l-2.33,1.41v2.72h-1.41v1.91h1.41v6.31c0,1.19.08,1.96.25,2.35.17.4.48.73.9.97.41.24,1,.36,1.73.36.44,0,.94-.06,1.49-.18l.2-.04-.34-2.1-.2.03Z"/>
        <path class="cls-2" d="M197.08,255.48c-1.03-1.06-2.36-1.6-3.97-1.6-1.45,0-2.69.44-3.7,1.31-1.21,1.05-1.82,2.67-1.82,4.82,0,1.96.51,3.49,1.53,4.54,1.01,1.06,2.36,1.59,4,1.59,1.02,0,1.98-.24,2.84-.72.87-.48,1.54-1.17,1.99-2.03.45-.86.68-2.05.68-3.54,0-1.85-.52-3.32-1.54-4.38ZM193.11,264.15c-.91,0-1.64-.33-2.23-1.01-.6-.68-.9-1.73-.9-3.12s.3-2.44.9-3.12c.6-.68,1.33-1.01,2.23-1.01s1.62.33,2.22,1.01c.6.68.9,1.7.9,3.05,0,1.43-.3,2.5-.9,3.18-.6.68-1.32,1.02-2.22,1.02Z"/>
        <path class="cls-2" d="M205.33,250.07c-.5.33-.86.77-1.06,1.31-.14.4-.22.98-.22,1.77v1h-1.7v1.91h1.7v9.84h2.33v-9.84h2.21v-1.91h-2.21v-.84c0-.61.1-1.05.3-1.25.2-.21.56-.31,1.09-.31.34,0,.71.03,1.09.1l.21.04.36-2.09-.2-.04c-1.72-.34-3.09-.24-3.91.3Z"/>
        <path class="cls-2" d="M231.66,257.26c-.64-.29-1.82-.63-3.5-1.01-2.04-.46-2.77-.83-3.03-1.07-.36-.32-.54-.73-.54-1.23,0-.59.26-1.08.78-1.5.53-.43,1.41-.64,2.61-.64s2.02.24,2.59.71c.57.47.91,1.17,1.01,2.1l.02.2,2.39-.18v-.2c-.04-.95-.31-1.82-.81-2.57-.5-.76-1.22-1.34-2.14-1.73-.91-.38-1.97-.58-3.15-.58-1.08,0-2.07.19-2.95.55-.9.37-1.59.92-2.06,1.64-.47.72-.71,1.5-.71,2.33,0,.76.2,1.45.58,2.06.38.61.97,1.12,1.75,1.53.6.32,1.6.64,3.07,1,1.42.34,2.35.6,2.76.75.61.23,1.06.52,1.32.86.26.33.38.71.38,1.16s-.13.84-.4,1.22c-.27.37-.69.67-1.26.89-.58.22-1.26.34-2.01.34-.86,0-1.64-.15-2.32-.45-.67-.29-1.17-.68-1.48-1.14-.32-.47-.52-1.09-.61-1.83l-.02-.2-2.35.21v.2c.03,1.08.34,2.06.9,2.92.56.86,1.35,1.51,2.34,1.94.98.42,2.2.64,3.64.64,1.14,0,2.19-.21,3.1-.63.93-.42,1.65-1.03,2.14-1.79.5-.77.75-1.6.75-2.47s-.23-1.67-.69-2.34c-.45-.67-1.16-1.23-2.1-1.67Z"/>
        <path class="cls-2" d="M247.57,254.41c-.65-.35-1.42-.52-2.29-.52-1.24,0-2.31.42-3.18,1.24v-5.3h-2.34v16.07h2.34v-6.41c0-.86.1-1.53.3-2.01.19-.46.53-.83.99-1.1.47-.27.97-.41,1.5-.41.71,0,1.24.19,1.61.59.38.39.57,1.05.57,1.95v7.39h2.34v-7.39c0-1.14-.14-2.02-.42-2.63-.28-.62-.76-1.12-1.42-1.47Z"/>
        <path class="cls-2" d="M264.77,264.29c-.08-.46-.12-1.59-.12-3.35v-2.56c0-.88-.03-1.47-.1-1.82-.12-.56-.34-1.03-.64-1.4-.31-.37-.79-.68-1.42-.92-.63-.24-1.44-.36-2.43-.36s-1.88.14-2.64.41c-.77.28-1.38.69-1.79,1.21-.41.52-.71,1.2-.88,2.03l-.05.22,2.29.31.05-.18c.19-.75.49-1.28.88-1.56.39-.29,1.02-.43,1.88-.43.91,0,1.6.2,2.05.6.31.28.47.78.47,1.5,0,.06,0,.17,0,.35-.72.23-1.81.43-3.24.61-.77.09-1.35.19-1.74.29-.53.15-1.02.37-1.44.66-.43.3-.79.69-1.06,1.18-.27.49-.4,1.03-.4,1.62,0,1,.36,1.84,1.07,2.49.71.64,1.72.97,3.01.97.78,0,1.51-.13,2.19-.39.59-.22,1.2-.58,1.82-1.08.07.4.19.77.35,1.09l.06.12h2.49l-.17-.31c-.23-.41-.38-.85-.46-1.29ZM262.29,260.3v.4c0,.81-.1,1.43-.29,1.83-.25.52-.65.94-1.18,1.24-.54.3-1.17.46-1.87.46s-1.22-.15-1.56-.46c-.34-.3-.51-.67-.51-1.12,0-.3.08-.56.23-.8.16-.24.37-.42.67-.55.31-.13.85-.26,1.62-.37,1.22-.17,2.2-.39,2.9-.63Z"/>
        <path class="cls-2" d="M274.72,253.89c-.49,0-.94.14-1.35.42-.29.2-.58.53-.89,1v-1.17h-2.15v11.75h2.34v-6.14c0-.79.1-1.52.31-2.18.13-.4.34-.72.64-.95.64-.49,1.49-.43,2.31.05l.22.13.81-2.18-.15-.09c-.7-.43-1.4-.65-2.08-.65Z"/>
        <rect class="cls-2" x="280.77" y="249.83" width="2.34" height="2.65"/>
        <path class="cls-2" d="M280.77,266.26c0,1.3-.15,1.7-.25,1.82-.15.2-.38.3-.71.3-.2,0-.49-.05-.85-.14l-.21-.06-.45,2.04.19.05c.5.14,1.03.21,1.56.21,1.14,0,1.98-.39,2.48-1.16.39-.59.58-1.58.58-3.03v-12.16h-2.34v12.12Z"/>
        <path class="cls-2" d="M298.49,264.29c-.08-.46-.12-1.59-.12-3.35v-2.56c0-.88-.03-1.47-.1-1.82-.12-.56-.34-1.03-.64-1.4-.31-.37-.78-.68-1.42-.92-.63-.24-1.44-.36-2.43-.36s-1.88.14-2.64.41c-.77.28-1.38.69-1.79,1.21-.41.52-.71,1.2-.88,2.03l-.05.22,2.29.31.05-.18c.19-.75.49-1.28.88-1.56.39-.29,1.02-.43,1.88-.43.91,0,1.6.2,2.05.6.31.28.47.78.47,1.5,0,.06,0,.17,0,.35-.72.23-1.81.43-3.24.61-.77.09-1.35.19-1.74.29-.53.15-1.02.37-1.44.66-.43.3-.79.69-1.06,1.18-.27.49-.4,1.03-.4,1.62,0,1,.36,1.84,1.07,2.49.71.64,1.72.97,3.01.97.78,0,1.51-.13,2.19-.39.59-.22,1.2-.58,1.82-1.08.07.4.19.77.35,1.09l.06.12h2.49l-.17-.31c-.23-.41-.38-.85-.46-1.29ZM296.01,260.3v.4c0,.81-.1,1.43-.29,1.83-.25.52-.65.94-1.18,1.24-.54.3-1.17.46-1.87.46s-1.22-.15-1.56-.46c-.34-.3-.51-.67-.51-1.12,0-.3.08-.56.23-.8.16-.24.37-.42.66-.55.31-.13.85-.26,1.62-.37,1.22-.17,2.2-.39,2.9-.63Z"/>
        <path class="cls-2" d="M311.89,254.41c-.65-.35-1.42-.52-2.29-.52-1.24,0-2.31.42-3.18,1.24v-5.3h-2.34v16.07h2.34v-6.41c0-.86.1-1.53.3-2.01.19-.46.53-.83.99-1.1.47-.27.97-.41,1.5-.41.71,0,1.24.19,1.61.59.38.39.57,1.05.57,1.95v7.39h2.34v-7.39c0-1.14-.14-2.02-.42-2.63-.28-.62-.76-1.12-1.42-1.47Z"/>
        <rect class="cls-2" x="27.11" y="239.2" width="286.63" height="1.05"/>
        <polygon class="cls-2" points="29.97 176.02 32.21 177.9 34.05 175.71 31.77 173.8 30.19 175.68 27.96 173.8 26.12 175.99 28.39 177.9 29.97 176.02"/>
        <path class="cls-2" d="M33.81,178.02c-.31.89-.7,1.93-1,2.81.1.51.15.77.23,1.31-1.83,1.61-3.86,1-4.96,2.86-.29.5-.57,1.03-.86,1.57-.12.29-.18.55-.1.76.06.16.21.29.41.32.19.03.49.08.81.15.69.14,1.32.35,2,.45,1.02.14,1.53.13,2.23-.62.39-.42.72-.93,1.03-1.46.07.29.13.62.22.96.36,1.42.86,2.59,1.98,3.63.99.93,2.65,1.14,3.99,1.14h7.72s7.76,0,7.76,0h15.38s14.16,0,14.16,0c.74,0,1.43-.22,1.93-.56.92-.61,1.33-1.65,1.57-2.89.12-.65.18-1.34.18-1.94,0-.24-.01-.47-.03-.67-.11-1.29-.87-3.49-2.07-4.51-.37-.31-.79-.51-1.26-.53-.61-.03-1.18.3-1.67.77-.57.55-1.06,1.45-1.31,2.39-.28,1.07-.25,2.21.3,3.01.24.35.58.62,1.04.78.64.22,1.29.22,1.87,0,.51-.18.96-.52,1.31-1.01.28.58.45,1.43.54,1.87-.27.16-.37.22-.75.35-.34.11-1.39.19-2.86.19,0,0-19.32,0-28.44,0h0c-2.92,0-5.92,0-8.76,0-2.09,0-3.93,0-5.19,0-.56,0-1.07-.01-1.6-.07-2.07-.25-3.59-1.21-4.2-3.07-.18-.55-.3-1.18-.37-1.52-.15-.81-.27-1.71-.38-2.64-.16-1.3-.3-2.38-.48-3.64-.04-.31-.33-.36-.38-.2ZM32.83,185.48c-.36.07-.76.04-1.07.04-.39,0-.76-.04-.99-.16.73-.26,2.16-1.51,2.43-2.16.12.78.16,1.11.27,1.86-.15.25-.34.37-.64.43ZM85.13,184.84c-.71.11-1.17.02-1.62-.57.3-.38.56-.7,1.05-.72.28-.01.51.18.71.41-.02.28-.03.58-.14.87Z"/>
        <path class="cls-2" d="M95.64,183.75c.04,2.23.21,4.79.87,6.14,1.18,2.41,4.42,2.01,6.83,2.01h9.42s9.51,0,9.51,0h0s8.66,0,8.66,0h0s4.89,0,4.89,0c1.47,0,2.59-.05,3.07-.08.97-.06,1.84-.16,2.68-.34.03.12.11.35.46.4,1.24.16,4.7.19,5.97-.25.24-.08.5-.27.79-.47.25-.17.51-.38.74-.61.69.74,2.35,1.15,3.31,1.11.34-.01.57-.42.82-.74.25-.31.47-.68.66-1.05.54.32,1.51,1,2.45,1.33.7.25,1.39.3,1.85-.14.71-.67,1.19-2.24,1.31-2.91.23-1.32.16-2.7.04-4.05-.2-2.25-.24-2.23-.47-4.41.01,0,.03,0,.05,0,.17.02.37.05.42-.08.39-.85.51-1.5.69-2.34.03-.13-.05-.23-.27-.33-.76-.38-1.07-.61-1.23-.91-.16-.29-.2-.53-.19-.76,0-.18.09-.36.14-.59.1-.51-.26-.19-.49.13-.12.17-.27.44-.38.65-.23.45-.38.74-.61,1.35-.1.28-.14.39-.14.51,0,.1.03.21.13.46.28,4.04.56,5.76.93,9.85.11,1.18.23,1.1-.91.97-.97-.11-1.77-.6-2.61-1.12.03-.46.03-1.45-.24-1.72-.2-.03-1.07,1.61-1.21,1.86,0,.36.06,1.17.05,1.53-1-.06-2.06-.27-2.85-.83.11-.31.33-.77.42-1.1.08-.28.13-.58.13-.83,0-.53-.27-.83-.95.06-.5.66-1.09,1.58-1.11,1.61-.31.42-.6.72-.9.95-.84.63-2.87.51-3.94.32.22-.25.98-1.52,1.05-1.85.1-.46-.36-.62-.82-.23-.61.52-.86.94-1.64,1.29-1.15.5-2.62.53-3.29.56-1.96.07-4.24.1-6.51.1-.63,0-1.26,0-1.88,0-1.09,0-5.07-.01-8.96-.02h0c-1.68,0-8.06,0-9.41-.01-5.29-.01-10.52.03-11.27,0-2.65-.11-3.87-.52-4.11-3.38-.23-2.73-.31-8.19-.41-10.95,0-.09-.04-.49-.28-.2-.49.58-1,1.24-1.47,1.87l.19,7.26s0,0,0,0Z"/>
        <path class="cls-2" d="M187.98,185.92c.14-.04.43-.12.78-.22.01,0,.03-.02.03-.02.83-.25,1.65-.5,2.48-.74.01,0,.02,0,.02,0,5.96-1.79,32.13-6.78,38.09-8.57.44-.57.87-1.13,1.31-1.69.2-.31.04-.34-.25-.28-6.68,1.94-33.63,6.86-40.24,9.04-.23.08-.46.17-.68.25-.41.62-.93,1.25-1.46,2.1-.03.05-.06.1-.09.14Z"/>
        <path class="cls-2" d="M178.28,182.08c-1.83,1.61-3.86,1-4.96,2.86-.29.5-.57,1.03-.86,1.57-.12.29-.18.55-.1.76.06.16.21.29.41.32.19.03.49.08.81.15.69.14,1.32.35,2,.45.6.08,1.03.11,1.42-.03.27-.1.52-.28.81-.59.39-.42.72-.93,1.03-1.46.07.29.13.62.22.96.39,1.45.89,2.57,1.97,3.63.92.9,2.65,1.09,4,1.14.38.01-1.85.03.66.05.92,0,4.09.01,7.3.02h0c.95,0,2.62,0,4.49,0h0c4.09,0,15.68,0,16.25,0h0c.88,0,1.77,0,2.67-.02,6.11-.06,2.63-.03,6.01-.03.97,0,1.73,0,2.21,0,.77,0,1.85.08,2.38-.48.38-.4.92-1.07,1.08-1.29.3-.39.5-.58.78-.6,1.1-.06,3.05.41,4.12.61.34.06.59-.1.76-.3.17-.19.29-.55.38-.81.13-.35.23-.74.31-1.15.08-.32.11-.86,0-1.19-.25-.76-1.33-2.23-1.93-2.78-.42-.4-.88-.65-1.29-.58-.93.17-1.62,1.14-2.08,2.12-.32.66-.49,1.35-.66,2.03-.44,1.65-.95,1.68-2.93,1.69l-12.18.02h0s-15.89,0-15.89,0h0s-4.49,0-4.49,0h0s-6.06,0-6.06,0c-.17,0-.33,0-.5,0-.56,0-1.11-.03-1.64-.09-2.07-.25-3.52-1.23-4.12-3.08-.18-.55-.31-1.18-.37-1.52-.15-.84-.27-1.7-.38-2.64-.16-1.3-.3-2.4-.48-3.64-.04-.31-.33-.36-.38-.2-.29.88-.69,1.92-1,2.81.1.51.15.77.23,1.31ZM229.63,186.78c.02-.08.08-.22.23-.41.14-.15.28-.24.56-.3.45-.09,1.35.71,1.55,1.13-1.06-.13-1.7-.21-2.36-.31,0-.05.02-.09.02-.11ZM178.72,185.02c-.15.24-.24.34-.42.4-.18.07-.39.07-.64.08-.59,0-1.29-.01-1.64-.2.73-.26,2.16-1.51,2.43-2.16.13.78.16,1.13.28,1.88Z"/>
        <polygon class="cls-2" points="174.69 176.02 176.92 177.9 178.76 175.71 176.49 173.8 174.91 175.68 172.67 173.8 170.83 175.99 173.11 177.9 174.69 176.02"/>
        <path class="cls-2" d="M236.34,178.58c.06-.14.08-.2.18-.33.38.51.68,1.18.91,1.78.19.52.35,1.08.47,1.68.05.35.28.28.39.1.15-.25.25-.55.33-.86.26-1.08.29-2.22.53-3.31.08-.39.16-.63.38-.82.25-.21.62.15.8.46.42.7.52-.74.51-.95-.01-.27-.15-.52-.55-.77-.95-.6-1.49,1.19-1.63,1.81-.19.82-.24,1.69-.34,2.49-.29-.99-.64-1.81-1.06-2.44-.24-.36-.82-1.08-1.38-1.27-.37-.12-.79.08-.81.5,0,.01,0,.03,0,.04-.01.29-.04.67-.06.98.25.14.5.29.74.45.21.14.41.29.6.47Z"/>
        <path class="cls-2" d="M163.8,188.36c.04,1.1.02,2.11-.18,3.13-.14.88.4.24.65-.1.33-.44.5-.97.65-1.51.43-1.53.44-2.96.34-4.51-.24-3.96-.52-6.34-.76-10.3-.01-.21-.02-1.01-.21-.67-.42.73-1.03,1.65-1.45,2.38.1,2.77.42,4.08.66,6.92.13,1.57.25,3.13.3,4.65Z"/>
        <path class="cls-2" d="M307.77,181.68c1.36-.68,2.65-1.77,3.86-3.4.18.09.36.18.54.27.2-.28.34-.62.34-1.1-.18-.11-.35-.22-.53-.33.08-1.32-.21-2.25-.71-2.44-.14-.05-.29-.04-.43.03-.63.28-1.2,1.52-1.12,2.1.03.22.13.43.34.56.32.21.72.25,1.04.47-.98,1.38-2.15,2.27-3.3,3.01-.28.18-.66.44-.49.86.11.04.25.03.45-.03ZM310.49,176.39c-.41-.3.22-.69.53-.46.29.22.43.39.47.73,0,.09.02.18.01.29-.06-.03-.11-.06-.17-.08-.29-.15-.58-.29-.84-.49Z"/>
        <path class="cls-2" d="M237.95,185.81c-.45.49-1.03,1.36-1.41,2.29-.26.63-.42,1.29-.39,1.88.03.69.33,1.29,1.06,1.64.37.18.81.25,1.26.29h2.85c-.57.69-1.31,1.36-2.11,1.98-1.91,1.46-4.25,2.65-6.55,2.78-1.66.09-3.01-.65-4.54-1.92-.63-.52-1.09-.27-.41.74.51.75,1.94,1.89,2.92,2.43,1.15.63,2.37,1.11,3.45.99,3.01-.33,7.41-4.14,8.49-7,.41,0,.82,0,1.23,0,0,0,.01,0,.02,0h0c6.94-.03,20.68,0,30.16-.07,4.33-.03,8.32-.08,11.42-.17.36,0,.69.02.96.06.21.03.38.08.51.16.41-.41.88-1.15,1.33-1.89-.07,1.33.04,1.91,1.51,1.92.94,0,4.5,0,6.93,0h0s.03,0,.04,0h0c.13,0,.23,0,.33,0,.2,0,.34,0,.39,0,.32-.01.68-.01,1.06-.04.51-.03,1.04-.11,1.56-.33.96-.41,2.42-1.24,3.86-2.03,1.52-.83,3.02-1.62,3.88-1.82.72-.16,1.52-.18,2.3-.14.64.03,1.29.11,1.89.22.28.05.48.04.52-.05.39-.7.76-1.37,1.14-2.06.09-.18.15-.39-.02-.41-.46-.07-.98-.1-1.52-.15-3.47-.29-4.2-.43-7.53-1.67-.8-.3-2.94-1.26-3.66-1.33-.28-.03-.67.03-1.07.15-.91.27-1.93.84-2.21,1.35-.45.84-.69,1.38-1.14,2.21-.08.23,0,.31.25.22.76-.23.94-.27,1.77-.46.34-.08.4-.09.76-.15.53-.09,1.3-.12,1.82-.02,1.39.28,2.36.67,3.38,1.06-2.94,1.84-4.66,2.47-6.86,2.66-.3.03-.62.07-.95.07-2.42,0-5.86-.03-6.77-.05-.34,0-.64-.22-.88-.47.49-.88.75-1.7-.01-2.52-1.29-1.39-2.96-2.22-4.8-2.13-2.03.1-4.88.18-7.83.24-.79.02-1.59.03-2.38.05-1.62.02-11.52.06-12.43.08-2.4.05-4.81.09-7.21.12-2.23.03-4.24-.07-5.06-.47-.32-.16-.54-.4-.67-.65,1.88-1.62,7.84-4.49,10.24-4.65.14-.18.28-.36.42-.54.38-.61.77-1.23,1.15-1.84.24-.33.08-.42-.26-.4-.78.06-2.52.77-2.65.82-1.18.45-2.35.96-3.5,1.52-1.87.92-3.58,1.73-4.91,3.01-.78.75-1.43,1.66-1.9,2.85-.4,1.01-.36,1.72.09,2.19.35.37.94.6,1.74.72.68.1,1.49.14,2.39.13,3.18,0,17.78-.1,22.57-.19,2.31-.05,4.45-.1,6.09-.14,1.87-.05,3.51-.03,4.48.16.67.13,1.3.38,1.87.76.49.33.64.58.95,1.03-.47.02-.93.06-1.39.07-3.95.09-7.98.16-12.02.22-1.62.02-5.95.04-7.56.06-4.58.04-17.93.04-22.6,0h0c-.39,0-.78-.01-1.17-.02,0-.89-.35-1.94-.64-2.51-.99-2.01-2.46-2.6-4.06-.85ZM239.34,189.02c-.34-.03-.67-.09-.96-.2-.49-.19-.69-.68-.12-.97.33-.17.59-.14.84-.01.19.1.37.26.56.44.23.22.4.48.5.76-.27,0-.55,0-.83-.02Z"/>
        <path class="cls-2" d="M271.35,182.24c1.36-.68,2.65-1.77,3.87-3.4.18.09.36.18.54.27.2-.28.34-.62.34-1.1-.18-.11-.35-.22-.53-.33.08-1.32-.21-2.25-.71-2.44-.14-.05-.28-.04-.43.03-.62.28-1.2,1.52-1.12,2.1.03.22.13.43.34.57.32.21.72.25,1.04.47-.98,1.38-2.15,2.27-3.3,3.01-.28.18-.66.44-.49.86.11.04.25.03.45-.03ZM274.06,176.95c-.41-.3.22-.69.53-.46.29.22.43.39.47.73,0,.09.01.18.01.29-.06-.03-.11-.06-.17-.08-.29-.15-.58-.29-.84-.49Z"/>
        <rect class="cls-2" x="148.79" y="176.95" width="2.86" height="2.97" transform="translate(-83.03 178.69) rotate(-49.97)"/>
        <polygon class="cls-2" points="84.56 177.33 86.8 179.21 88.64 177.02 86.36 175.11 84.78 176.99 82.54 175.11 80.7 177.3 82.98 179.21 84.56 177.33"/>
        <path class="cls-2" d="M48.81,185.66s.02,0,.02,0c5.96-1.79,21.95-5,27.92-6.79.44-.56.87-1.13,1.31-1.69.2-.31.04-.34-.25-.28-6.68,1.94-23.46,5.08-30.06,7.26-.23.08-.46.17-.68.25-.41.62-.93,1.25-1.46,2.1-.03.05-.06.1-.09.14.14-.04.46-.14.82-.24.83-.25,1.65-.5,2.48-.74Z"/>
        <path class="cls-2" d="M92.55,190.63c-2.01,3.55-7.61,7.44-11.45,4.7-.28-.2-.99-.83-1.23-1.06-.41-.37-.85-.19-.77.31.02.13.11.31.3.54.61.68,1.96,1.83,2.91,2.45,1.07.69,2.49,1.18,3.48,1.22.77.03,1.5-.2,2.18-.61,2.37-1.42,5.54-4.69,5.73-7.78.18-2.8-.69-4.92-2.27-6.94-.21,1.11-.6,2.37-.81,3.48.43.52,1.16,1.84,1.49,2.5.18.35.33.74.44,1.19Z"/>
        <polygon class="cls-2" points="150.28 182.01 152.52 183.89 154.36 181.7 152.08 179.79 150.5 181.67 148.27 179.79 146.43 181.98 148.7 183.89 150.28 182.01"/>
        <path class="cls-2" d="M105.85,185.68c.83-.25,1.65-.5,2.48-.74.01,0,.02,0,.02,0,5.96-1.79,30.47-6.78,36.43-8.57.44-.57.87-1.13,1.31-1.69.2-.31.04-.34-.25-.28-6.68,1.94-31.97,6.86-38.58,9.04-.23.08-.46.17-.68.25-.41.62-.93,1.25-1.46,2.1-.03.05-.06.1-.09.14.14-.04.43-.12.78-.22.01,0,.03-.02.03-.02Z"/>
        <path class="cls-2" d="M134.26,182.45c.06-.33-.28-.12-.33-.05-.49.74-1.38,2.51-.6,3.26.16.16.4.33.74.3.31-.02.57-.23.81-.43.25-.22.47-.5.65-.84.16.33.42.45.74.44.38-.05.72-.24.99-.55.16-.18.45-.61.71-1.11.25-.48.47-1.02.49-1.45.02-.35.01-.54-.03-.64-.26-.69-.45.29-.82.98-.24.44-.72.91-1.02.43-.14-.22-.09-.46-.15-.56-.13-.2-.23.06-.28.16-.19.36-.41.66-.65.9-.33.33-1,.9-1.31.25-.07-.15-.09-.35-.06-.6.04-.16.09-.29.12-.48Z"/>
        <path class="cls-2" d="M42.42,181.23c.43-.07.71-.26.92-.51.38-.44.84-1.25.75-1.76-.04-.19-.18-.25-.25-.16-.28.4-.23.57-.62.92-.52.39-.99-.07-.99-.07-.31-.27-.36-.74-.32-1.13.07-.73.4-1.3.82-2.02.3-.53.64-1.05.67-1.56.02-.29-.18-.27-.33.02-.45.81-.87,1.43-1.33,2.24-.38.67-.69,1.36-.81,2.08-.25,1.51.86,2.06,1.48,1.95Z"/>
        <path class="cls-2" d="M186.67,181.23c.43-.07.71-.26.92-.51.38-.44.84-1.25.75-1.76-.04-.19-.18-.25-.25-.16-.28.4-.23.57-.62.92-.52.39-.99-.07-.99-.07-.31-.27-.36-.74-.32-1.13.07-.73.4-1.3.82-2.02.3-.53.64-1.05.67-1.56.02-.29-.18-.27-.33.02-.45.81-.87,1.43-1.33,2.24-.38.67-.69,1.36-.81,2.08-.25,1.51.86,2.06,1.48,1.95Z"/>
        <path class="cls-2" d="M291.57,181.23c.43-.07.71-.26.92-.51.38-.44.84-1.25.75-1.76-.04-.19-.18-.25-.25-.16-.28.4-.23.57-.62.92-.52.39-.99-.07-.99-.07-.31-.27-.36-.74-.32-1.13.07-.73.4-1.3.82-2.02.3-.53.64-1.05.67-1.56.02-.29-.18-.27-.33.02-.45.81-.87,1.43-1.33,2.24-.38.67-.69,1.36-.81,2.08-.25,1.51.86,2.06,1.48,1.95Z"/>
        <g>
          <g>
            <g>
              <path class="cls-2" d="M168.06,120.92l-8.17,11.12-1.92-1.7,9.94-13.56.13,1.35-.7.89s-7.8,10.61-8.23,11.2c.21.19.39.33.63.55.51-.68,8.13-11.02,8.13-11.02l.2,1.17Z"/>
              <path class="cls-5" d="M125.91,82.81l7.39,8.54s-2.69,1.08-2.77,4.85l-.43-.7s-3.76-2.72-5.5-5.56c0,0-2.61-3.6,1.32-7.12"/>
              <path class="cls-5" d="M138.34,103.86l-7.82-7.67s.34,1.6-.5,2.77c-.83,1.16-6.62,6.02-6.53,10.95l4.2,6.49s.27-5.66,10.21-11.09"/>
              <path class="cls-4" d="M150.04,91.52s-3.67-2.41-8.91,6.37c-5.95-3.39-13.03-12.29-13.45-12.72-.42-.43-8.91-13.15-8.91-13.15,0,0,1.7-8.77,7.22-12.88.57,0,2.26,2.57,2.26,2.57,0,0-.85,5.22,5.94,14.4,6.8,9.21,11.77,11.74,13.18,11.89,1.42.13,2.67,3.52,2.67,3.52"/>
              <polygon class="cls-2" points="127.86 116.68 127.74 117.19 123.45 110.33 123.77 110.23 127.86 116.68"/>
              <path class="cls-5" d="M213.92,82.81l-7.39,8.54s2.69,1.08,2.77,4.85l.43-.7s3.76-2.72,5.5-5.56c0,0,2.61-3.6-1.32-7.12"/>
              <path class="cls-5" d="M201.49,103.86l7.82-7.67s-.34,1.6.5,2.77c.83,1.16,6.62,6.02,6.53,10.95l-4.2,6.49s-.27-5.66-10.21-11.09"/>
              <path class="cls-3" d="M221.06,72.02s-6.53,9.82-7.07,10.6c-.37.52,3.03,2.55,1.68,6.36-.17.47-6.22,6.68-6.35,6.83-.14.14-.72,2.07.85,3.77,1.54,1.7,5.66,5.94,5.8,8.76.16,2.84.41,1.98.41,1.98,0,0,3.29-5.8,4.83-6.93,1.56-1.11-.71-3.1-1.14-3.66-.4-.57-5.38-6.37-5.23-7.5.14-1.14,8.05-10.18,7.93-10.75-.13-.55.27-2.55-1.7-9.47"/>
              <path class="cls-4" d="M189.78,91.52s3.67-2.41,8.91,6.37c5.95-3.39,13.03-12.29,13.45-12.72.42-.43,8.91-13.15,8.91-13.15,0,0-1.7-8.77-7.22-12.88-.57,0-2.26,2.57-2.26,2.57,0,0,.85,5.22-5.94,14.4-6.8,9.21-11.77,11.74-13.18,11.89-1.42.13-2.67,3.52-2.67,3.52"/>
              <path class="cls-2" d="M171.87,120.92l8.17,11.12,1.92-1.7-9.94-13.56-.13,1.35.7.89s7.8,10.61,8.23,11.2c-.21.19-.39.33-.63.55-.51-.68-8.13-11.02-8.13-11.02l-.2,1.17Z"/>
              <path class="cls-2" d="M166.29,118.96"/>
              <path class="cls-2" d="M127.16,57.07c.03.33-.05.41-.09.43-.24.2-.93.09-1.33-.02l-1.26-.41,42.3,57.11c.13.19.4.22.6.08.11-.08.17-.22.17-.35l-.08-.26s-39.68-53.57-40.89-55.19c.35,0,.73-.07,1.01-.3l.18-.18c1,1.37,38.71,52.68,38.71,52.68.14.18.41.22.59.08.19-.13.22-.41.09-.6l-40.12-54.62.12,1.53Z"/>
              <path class="cls-2" d="M211.95,56.79l-40.78,55.49c-.14.18-.11.45.08.59.19.14.47.09.61-.1,0,0,39.24-53.4,40.23-54.78l.18.18c.3.22.67.3,1.03.3-1.2,1.63-41.72,56.17-41.72,56.17l-.09.24c0,.13.06.26.18.36.19.13.45.1.59-.1l43.14-58.08-1.28.43c-.38.11-1.07.22-1.31.02-.04-.02-.14-.1-.11-.43l.14-1.53-.89,1.25Z"/>
              <path class="cls-1" d="M176.87,76.53s-1.05-3.64-3.97-1.87l.05.91s2.58-1.21,2.58.76l1.34.19Z"/>
              <path class="cls-2" d="M172.83,74.57l-.08.03.07,1.16.17-.08s1.38-.63,2.04-.22c.25.17.38.46.38.87v.12l1.64.24-.07-.18c-.01-.08-.5-1.8-1.83-2.32-.68-.26-1.46-.14-2.31.38M175.06,74.43c.96.37,1.46,1.51,1.64,1.95-.29-.04-.92-.13-1.05-.15-.03-.44-.19-.77-.47-.97-.64-.4-1.7-.04-2.12.14,0-.21-.02-.54-.04-.64.75-.43,1.44-.55,2.04-.32"/>
              <path class="cls-1" d="M176.16,84.1c-.32,0-.56-.3-.56-.93s.24-.93.56-.93.59.32.59.93-.26.93-.59.93"/>
              <path class="cls-2" d="M175.46,83.17c0,.78.38,1.05.71,1.05s.7-.27.7-1.05-.37-1.05-.7-1.05-.71.28-.71,1.05M175.71,83.17c0-.48.19-.8.45-.8.28,0,.45.32.45.8s-.18.81-.45.81c-.26,0-.45-.32-.45-.81"/>
              <path class="cls-1" d="M177.29,83.04c-.32,0-.56-.32-.56-.94s.24-.92.56-.92.59.3.59.92-.26.94-.59.94"/>
              <path class="cls-2" d="M176.59,82.1c0,.78.37,1.07.7,1.07s.71-.29.71-1.07-.38-1.05-.71-1.05-.7.28-.7,1.05M176.85,82.1c0-.47.17-.8.44-.8s.46.33.46.8c0,.5-.18.82-.46.82s-.44-.32-.44-.82"/>
              <path class="cls-1" d="M174.92,82.95c-.35,0-.59-.29-.59-.91s.24-.93.59-.93c.33,0,.56.31.56.93s-.24.91-.56.91"/>
              <path class="cls-2" d="M174.2,82.04c0,.78.37,1.06.72,1.06.33,0,.69-.27.69-1.06s-.37-1.06-.69-1.06c-.35,0-.72.26-.72,1.06M174.46,82.04c0-.49.19-.81.46-.81s.44.31.44.81-.16.8-.44.8-.46-.32-.46-.8"/>
              <path class="cls-1" d="M175.53,83.31c-.32,0-.57-.31-.57-.94s.25-.93.57-.93c.34,0,.59.31.59.93s-.25.94-.59.94"/>
              <path class="cls-2" d="M174.84,82.37c0,.8.37,1.06.69,1.06.34,0,.73-.26.73-1.06s-.39-1.05-.73-1.05-.69.27-.69,1.05M175.1,82.37c0-.49.17-.8.44-.8.28,0,.46.31.46.8s-.18.81-.46.81c-.26,0-.44-.32-.44-.81"/>
              <path class="cls-1" d="M176.5,83.31c-.32,0-.59-.31-.59-.94s.27-.93.59-.93.58.31.58.93-.26.94-.58.94"/>
              <path class="cls-2" d="M175.79,82.37c0,.8.38,1.06.71,1.06s.7-.26.7-1.06-.38-1.05-.7-1.05-.71.27-.71,1.05M176.06,82.37c0-.49.15-.8.44-.8s.45.31.45.8-.17.81-.45.81c-.29,0-.44-.32-.44-.81"/>
              <path class="cls-1" d="M177.19,82.01c-.34,0-.6-.32-.6-.92s.26-.93.6-.93c.31,0,.57.3.57.93s-.26.92-.57.92"/>
              <path class="cls-2" d="M176.48,81.08c0,.77.37,1.05.71,1.05.32,0,.7-.28.7-1.05s-.38-1.06-.7-1.06c-.34,0-.71.26-.71,1.06M176.74,81.08c0-.5.15-.81.45-.81.25,0,.43.32.43.81s-.18.79-.43.79c-.29,0-.45-.31-.45-.79"/>
              <path class="cls-1" d="M176.24,82.12c-.33,0-.59-.31-.59-.92s.26-.94.59-.94.58.32.58.94-.25.92-.58.92"/>
              <path class="cls-2" d="M175.52,81.2c0,.79.39,1.06.72,1.06s.7-.27.7-1.06-.38-1.07-.7-1.07-.72.29-.72,1.07M175.79,81.2c0-.48.17-.82.45-.82s.45.33.45.82-.18.8-.45.8c-.29,0-.45-.32-.45-.8"/>
              <path class="cls-1" d="M175.17,82.15c-.33,0-.6-.3-.6-.95,0-.6.26-.92.6-.92.31,0,.56.32.56.92,0,.65-.25.95-.56.95"/>
              <path class="cls-2" d="M174.44,81.2c0,.79.38,1.07.73,1.07.31,0,.7-.28.7-1.07s-.39-1.05-.7-1.05c-.35,0-.73.28-.73,1.05M174.72,81.2c0-.49.17-.79.45-.79.26,0,.43.3.43.79s-.17.81-.43.81c-.29,0-.45-.31-.45-.81"/>
              <path class="cls-1" d="M174.28,81.57c-.32,0-.58-.3-.58-.93s.25-.92.58-.92.57.3.57.92-.26.93-.57.93"/>
              <path class="cls-2" d="M173.58,80.63c0,.79.39,1.07.71,1.07s.7-.28.7-1.07-.38-1.06-.7-1.06-.71.27-.71,1.06M173.83,80.63c0-.48.18-.8.46-.8s.46.32.46.8-.19.8-.46.8-.46-.31-.46-.8"/>
              <path class="cls-1" d="M175.01,80.85c-.32,0-.57-.31-.57-.93s.25-.95.57-.95.59.32.59.95-.28.93-.59.93"/>
              <path class="cls-2" d="M174.28,79.92c0,.77.41,1.06.73,1.06s.7-.29.7-1.06-.38-1.06-.7-1.06-.73.28-.73,1.06M174.55,79.92c0-.5.19-.81.46-.81.28,0,.44.31.44.81s-.16.79-.44.79c-.26,0-.46-.31-.46-.79"/>
              <path class="cls-1" d="M176.02,80.76c-.32,0-.56-.32-.56-.94s.25-.94.56-.94.57.33.57.94-.26.94-.57.94"/>
              <path class="cls-2" d="M175.32,79.81c0,.8.37,1.06.7,1.06.34,0,.72-.26.72-1.06s-.38-1.06-.72-1.06-.7.28-.7,1.06M175.57,79.81c0-.49.17-.8.45-.8s.46.31.46.8-.18.81-.46.81-.45-.32-.45-.81"/>
              <path class="cls-1" d="M176.97,80.46c-.32,0-.57-.3-.57-.94s.25-.92.57-.92c.34,0,.58.31.58.92,0,.64-.24.94-.58.94"/>
              <path class="cls-2" d="M176.28,79.52c0,.79.38,1.06.7,1.06.34,0,.72-.27.72-1.06s-.38-1.05-.72-1.05c-.32,0-.7.28-.7,1.05M176.53,79.52c0-.48.18-.79.44-.79.29,0,.47.31.47.79s-.18.82-.47.82c-.26,0-.44-.32-.44-.82"/>
              <path class="cls-1" d="M177.91,79.74c-.34,0-.59-.32-.59-.93s.26-.93.59-.93c.32,0,.58.32.58.93s-.26.93-.58.93"/>
              <path class="cls-2" d="M177.2,78.8c0,.78.38,1.06.71,1.06s.7-.28.7-1.06-.38-1.06-.7-1.06-.71.28-.71,1.06M177.44,78.8c0-.49.18-.81.47-.81.27,0,.44.32.44.81s-.18.81-.44.81c-.29,0-.47-.32-.47-.81"/>
              <path class="cls-1" d="M175.64,79.49c-.32,0-.59-.31-.59-.93s.26-.91.59-.91.57.3.57.91-.25.93-.57.93"/>
              <path class="cls-2" d="M174.93,78.55c0,.78.38,1.07.71,1.07.32,0,.69-.29.69-1.07s-.37-1.05-.69-1.05c-.34,0-.71.28-.71,1.05M175.19,78.55c0-.48.17-.79.45-.79s.44.32.44.79c0,.5-.17.82-.44.82-.28,0-.45-.32-.45-.82"/>
              <path class="cls-1" d="M174.44,79.59c-.34,0-.6-.3-.6-.93s.26-.93.6-.93c.3,0,.57.31.57.93s-.26.93-.57.93"/>
              <path class="cls-2" d="M173.73,78.66c0,.78.37,1.06.71,1.06.31,0,.7-.28.7-1.06s-.39-1.06-.7-1.06c-.34,0-.71.27-.71,1.06M173.97,78.66c0-.48.18-.79.47-.79s.44.31.44.79-.17.82-.44.82-.47-.33-.47-.82"/>
              <path class="cls-1" d="M174.96,78.29c-.33,0-.57-.3-.57-.94s.24-.92.57-.92.57.31.57.92-.25.94-.57.94"/>
              <path class="cls-2" d="M174.24,77.35c0,.8.38,1.06.72,1.06s.71-.26.71-1.06-.37-1.06-.71-1.06-.72.28-.72,1.06M174.51,77.35c0-.47.18-.8.45-.8.28,0,.46.33.46.8,0,.5-.17.8-.46.8-.27,0-.45-.3-.45-.8"/>
              <path class="cls-1" d="M175.93,77.94c-.33,0-.57-.3-.57-.92s.25-.95.57-.95.59.32.59.95-.26.92-.59.92"/>
              <path class="cls-2" d="M175.21,77.03c0,.79.39,1.05.72,1.05s.69-.27.69-1.05-.36-1.07-.69-1.07-.72.29-.72,1.07M175.48,77.03c0-.5.17-.81.45-.81s.45.31.45.81-.19.8-.45.8c-.28,0-.45-.32-.45-.8"/>
              <path class="cls-1" d="M176.65,79.06c-.32,0-.58-.31-.58-.94s.26-.92.58-.92.58.31.58.92-.26.94-.58.94"/>
              <path class="cls-2" d="M175.96,78.12c0,.79.38,1.07.7,1.07s.7-.28.7-1.07-.39-1.05-.7-1.05-.7.28-.7,1.05M176.2,78.12c0-.47.19-.8.46-.8s.43.33.43.8c0,.5-.16.82-.43.82s-.46-.32-.46-.82"/>
              <path class="cls-1" d="M177.44,78.17c-.34,0-.58-.31-.58-.93s.24-.93.58-.93.59.31.59.93-.26.93-.59.93"/>
              <path class="cls-2" d="M176.75,77.24c0,.78.36,1.05.69,1.05s.71-.27.71-1.05-.38-1.06-.71-1.06-.69.28-.69,1.06M176.97,77.24c0-.5.2-.81.47-.81s.45.31.45.81-.18.8-.45.8-.47-.31-.47-.8"/>
              <path class="cls-1" d="M176.69,77.23c-.33,0-.61-.3-.61-.93s.28-.92.61-.92c.28,0,.57.31.57.92s-.28.93-.57.93"/>
              <path class="cls-2" d="M175.98,76.29c0,.79.36,1.06.71,1.06.31,0,.69-.27.69-1.06s-.38-1.05-.69-1.05c-.36,0-.71.27-.71,1.05M176.21,76.29c0-.5.19-.79.48-.79.25,0,.42.29.42.79s-.17.81-.42.81c-.28,0-.48-.31-.48-.81"/>
              <path class="cls-1" d="M175.46,77.48c-.33,0-.6-.32-.6-.95s.27-.93.6-.93.56.31.56.93-.25.95-.56.95"/>
              <path class="cls-2" d="M174.75,76.54c0,.78.38,1.06.71,1.06s.69-.28.69-1.06-.37-1.07-.69-1.07-.71.3-.71,1.07M174.98,76.54c0-.47.19-.8.47-.8.26,0,.45.33.45.8,0,.5-.19.81-.45.81-.28,0-.47-.32-.47-.81"/>
              <path class="cls-1" d="M177.81,81.42c-.34,0-.59-.31-.59-.92s.25-.94.59-.94c.31,0,.57.32.57.94s-.26.92-.57.92"/>
              <path class="cls-2" d="M177.09,80.49c0,.78.38,1.05.72,1.05s.7-.27.7-1.05-.38-1.06-.7-1.06-.72.28-.72,1.06M177.36,80.49c0-.49.18-.8.45-.8.26,0,.43.31.43.8s-.17.81-.43.81c-.28,0-.45-.31-.45-.81"/>
              <path class="cls-1" d="M161.39,76.25s1.05-3.65,3.98-1.87l-.05.9s-2.59-1.21-2.59.78l-1.33.18Z"/>
              <path class="cls-2" d="M163.1,73.9c-1.31.52-1.81,2.24-1.84,2.31l-.05.2,1.63-.24v-.11c0-.42.13-.71.36-.88.69-.42,2.03.21,2.03.21l.18.07.07-1.16-.08-.02c-.84-.52-1.63-.65-2.32-.39M163.19,74.15c.6-.24,1.3-.11,2.03.32,0,.11-.02.42-.03.63-.42-.16-1.46-.52-2.11-.1-.3.19-.44.51-.46.96-.13,0-.78.12-1.05.13.17-.43.66-1.56,1.62-1.94"/>
              <path class="cls-1" d="M162.08,83.82c.32,0,.59-.31.59-.95s-.27-.94-.59-.94-.57.33-.57.94.25.95.57.95"/>
              <path class="cls-2" d="M161.39,82.88c0,.79.38,1.07.69,1.07s.71-.28.71-1.07-.39-1.05-.71-1.05-.69.27-.69,1.05M161.64,82.88c0-.48.17-.79.44-.79s.46.31.46.79-.18.81-.46.81-.44-.31-.44-.81"/>
              <path class="cls-1" d="M160.96,82.75c.34,0,.57-.3.57-.92s-.23-.94-.57-.94c-.31,0-.57.31-.57.94s.27.92.57.92"/>
              <path class="cls-2" d="M160.26,81.83c0,.78.39,1.05.71,1.05s.69-.27.69-1.05-.36-1.05-.69-1.05-.71.27-.71,1.05M160.5,81.83c0-.49.18-.81.46-.81s.45.32.45.81-.17.81-.45.81-.46-.32-.46-.81"/>
              <path class="cls-1" d="M163.34,82.68c.32,0,.6-.31.6-.93s-.27-.93-.6-.93-.59.31-.59.93.27.93.59.93"/>
              <path class="cls-2" d="M162.64,81.75c0,.77.39,1.07.7,1.07s.7-.29.7-1.07-.38-1.06-.7-1.06-.7.29-.7,1.06M162.9,81.75c0-.49.16-.8.44-.8s.45.32.45.8-.17.79-.45.79-.44-.29-.44-.79"/>
              <path class="cls-1" d="M162.72,83.02c.31,0,.59-.31.59-.92s-.28-.95-.59-.95c-.33,0-.57.32-.57.95s.25.92.57.92"/>
              <path class="cls-2" d="M162.02,82.1c0,.78.36,1.05.7,1.05s.71-.26.71-1.05-.38-1.07-.71-1.07-.7.3-.7,1.07M162.27,82.1c0-.49.17-.8.45-.8.26,0,.44.31.44.8s-.18.8-.44.8c-.28,0-.45-.32-.45-.8"/>
              <path class="cls-1" d="M161.76,83.02c.31,0,.57-.31.57-.92s-.25-.95-.57-.95c-.34,0-.58.32-.58.95s.24.92.58.92"/>
              <path class="cls-2" d="M161.03,82.1c0,.78.39,1.05.73,1.05.32,0,.69-.26.69-1.05s-.38-1.07-.69-1.07c-.34,0-.73.3-.73,1.07M161.3,82.1c0-.49.18-.8.46-.8s.44.31.44.8-.17.8-.44.8-.46-.32-.46-.8"/>
              <path class="cls-1" d="M161.07,81.72c.31,0,.58-.31.58-.93s-.27-.94-.58-.94-.58.33-.58.94.25.93.58.93"/>
              <path class="cls-2" d="M160.37,80.79c0,.77.38,1.06.71,1.06s.71-.29.71-1.06-.37-1.06-.71-1.06-.71.27-.71,1.06M160.62,80.79c0-.49.19-.81.46-.81s.45.32.45.81-.18.81-.45.81-.46-.32-.46-.81"/>
              <path class="cls-1" d="M162.02,81.85c.31,0,.6-.32.6-.94s-.28-.93-.6-.93-.59.3-.59.93.26.94.59.94"/>
              <path class="cls-2" d="M161.31,80.91c0,.77.38,1.05.71,1.05.34,0,.7-.28.7-1.05s-.36-1.06-.7-1.06-.71.28-.71,1.06M161.57,80.91c0-.49.17-.81.45-.81s.46.31.46.81-.17.81-.46.81-.45-.31-.45-.81"/>
              <path class="cls-1" d="M163.1,81.87c.33,0,.58-.32.58-.93s-.26-.93-.58-.93-.59.3-.59.93.27.93.59.93"/>
              <path class="cls-2" d="M162.4,80.94c0,.79.37,1.06.7,1.06s.72-.27.72-1.06-.39-1.07-.72-1.07-.7.28-.7,1.07M162.64,80.94c0-.49.19-.81.46-.81s.47.32.47.81-.21.81-.47.81-.46-.33-.46-.81"/>
              <path class="cls-1" d="M163.97,81.29c.32,0,.57-.31.57-.93s-.26-.94-.57-.94-.58.32-.58.94.25.93.58.93"/>
              <path class="cls-2" d="M163.27,80.36c0,.78.37,1.05.7,1.05s.71-.27.71-1.05-.39-1.07-.71-1.07c-.33,0-.7.28-.7,1.07M163.51,80.36c0-.49.21-.81.46-.81.28,0,.46.32.46.81s-.18.8-.46.8c-.25,0-.46-.32-.46-.8"/>
              <path class="cls-1" d="M163.25,80.56c.33,0,.59-.3.59-.93s-.27-.93-.59-.93-.57.31-.57.93.25.93.57.93"/>
              <path class="cls-2" d="M162.54,79.63c0,.79.37,1.06.7,1.06s.71-.27.71-1.06-.38-1.05-.71-1.05-.7.28-.7,1.05M162.79,79.63c0-.48.19-.81.45-.81.29,0,.46.33.46.81s-.17.81-.46.81c-.27,0-.45-.31-.45-.81"/>
              <path class="cls-1" d="M162.24,80.46c.32,0,.58-.3.58-.94,0-.6-.27-.91-.58-.91s-.58.31-.58.91c0,.64.25.94.58.94"/>
              <path class="cls-2" d="M161.53,79.52c0,.8.36,1.08.71,1.08.32,0,.71-.28.71-1.08s-.39-1.04-.71-1.04c-.35,0-.71.27-.71,1.04M161.78,79.52c0-.46.18-.79.46-.79s.45.33.45.79c0,.52-.18.83-.45.83s-.46-.31-.46-.83"/>
              <path class="cls-1" d="M161.27,80.19c.33,0,.58-.32.58-.93s-.25-.95-.58-.95c-.31,0-.59.32-.59.95s.28.93.59.93"/>
              <path class="cls-2" d="M160.57,79.26c0,.78.38,1.05.7,1.05.35,0,.7-.26.7-1.05s-.35-1.06-.7-1.06c-.32,0-.7.27-.7,1.06M160.82,79.26c0-.5.19-.81.45-.81s.47.3.47.81-.19.79-.47.79-.45-.31-.45-.79"/>
              <path class="cls-1" d="M160.35,79.46c.32,0,.58-.31.58-.93s-.26-.93-.58-.93c-.34,0-.56.3-.56.93s.23.93.56.93"/>
              <path class="cls-2" d="M159.64,78.52c0,.79.38,1.07.71,1.07s.71-.27.71-1.07-.38-1.05-.71-1.05-.71.27-.71,1.05M159.89,78.52c0-.48.18-.8.46-.8s.45.33.45.8c0,.5-.16.81-.45.81s-.46-.3-.46-.81"/>
              <path class="cls-1" d="M162.62,79.21c.31,0,.57-.3.57-.92s-.25-.94-.57-.94-.59.31-.59.94.28.92.59.92"/>
              <path class="cls-2" d="M161.93,78.29c0,.77.38,1.04.69,1.04s.71-.27.71-1.04-.38-1.06-.71-1.06-.69.26-.69,1.06M162.16,78.29c0-.5.19-.81.46-.81s.43.31.43.81-.16.79-.43.79-.46-.3-.46-.79"/>
              <path class="cls-1" d="M163.83,79.31c.32,0,.57-.31.57-.92s-.25-.93-.57-.93-.58.3-.58.93.26.92.58.92"/>
              <path class="cls-2" d="M163.11,78.39c0,.77.39,1.05.71,1.05s.71-.28.71-1.05-.38-1.07-.71-1.07-.71.28-.71,1.07M163.36,78.39c0-.5.19-.81.46-.81s.45.31.45.81-.17.79-.45.79-.46-.3-.46-.79"/>
              <path class="cls-1" d="M163.31,78.01c.31,0,.55-.29.55-.92s-.24-.94-.55-.94c-.33,0-.59.31-.59.94s.26.92.59.92"/>
              <path class="cls-2" d="M162.59,77.08c0,.79.38,1.07.72,1.07.32,0,.68-.28.68-1.07s-.36-1.06-.68-1.06c-.34,0-.72.27-.72,1.06M162.85,77.08c0-.5.17-.8.46-.8.26,0,.43.3.43.8s-.18.8-.43.8c-.28,0-.46-.33-.46-.8"/>
              <path class="cls-1" d="M162.33,77.68c.31,0,.57-.33.57-.94s-.26-.94-.57-.94-.57.32-.57.94.26.94.57.94"/>
              <path class="cls-2" d="M161.63,76.74c0,.78.39,1.07.7,1.07s.7-.3.7-1.07-.39-1.05-.7-1.05-.7.27-.7,1.05M161.87,76.74c0-.48.19-.8.46-.8s.45.32.45.8-.16.81-.45.81-.46-.32-.46-.81"/>
              <path class="cls-1" d="M161.6,78.79c.33,0,.59-.32.59-.93s-.26-.93-.59-.93c-.3,0-.57.31-.57.93s.26.93.57.93"/>
              <path class="cls-2" d="M160.9,77.86c0,.78.37,1.05.7,1.05s.71-.27.71-1.05-.37-1.06-.71-1.06-.7.28-.7,1.06M161.15,77.86c0-.5.18-.81.45-.81.29,0,.47.31.47.81s-.18.8-.47.8c-.27,0-.45-.31-.45-.8"/>
              <path class="cls-1" d="M160.8,77.89c.33,0,.59-.31.59-.93s-.25-.92-.59-.92c-.31,0-.57.3-.57.92s.26.93.57.93"/>
              <path class="cls-2" d="M160.12,76.96c0,.79.37,1.06.69,1.06.33,0,.72-.27.72-1.06s-.39-1.06-.72-1.06c-.31,0-.69.27-.69,1.06M160.35,76.96c0-.49.19-.81.45-.81.28,0,.46.32.46.81s-.18.8-.46.8c-.25,0-.45-.31-.45-.8"/>
              <path class="cls-1" d="M161.57,76.96c.32,0,.59-.31.59-.93s-.27-.93-.59-.93-.57.31-.57.93.26.93.57.93"/>
              <path class="cls-2" d="M160.88,76.02c0,.79.39,1.06.7,1.06s.71-.26.71-1.06-.39-1.07-.71-1.07-.7.29-.7,1.07M161.14,76.02c0-.5.18-.81.44-.81.29,0,.46.31.46.81s-.16.81-.46.81c-.26,0-.44-.32-.44-.81"/>
              <path class="cls-1" d="M162.82,77.2c.31,0,.57-.31.57-.94s-.26-.92-.57-.92c-.33,0-.58.3-.58.92s.26.94.58.94"/>
              <path class="cls-2" d="M162.1,76.26c0,.78.38,1.06.72,1.06.31,0,.69-.28.69-1.06s-.38-1.05-.69-1.05c-.34,0-.72.27-.72,1.05M162.36,76.26c0-.48.18-.79.46-.79s.44.31.44.79-.16.81-.44.81-.46-.33-.46-.81"/>
              <path class="cls-1" d="M160.45,81.14c.33,0,.59-.31.59-.92s-.26-.93-.59-.93-.56.3-.56.93.25.92.56.92"/>
              <path class="cls-2" d="M159.74,80.22c0,.77.38,1.06.71,1.06s.72-.29.72-1.06-.38-1.07-.72-1.07-.71.28-.71,1.07M159.99,80.22c0-.48.19-.8.45-.8.27,0,.46.32.46.8s-.19.8-.46.8c-.26,0-.45-.3-.45-.8"/>
              <path class="cls-3" d="M198.43,59.61c-2.18-.5-6.29-.19-6.29-.19,1.02.14,2.25,1.36,2.25,1.36-2.39-.65-7.21,0-7.21,0,2.32.72,3.15,2.44,3.15,2.44-4.38-1.14-7.26-.32-7.26-.32,1.28.26,3.54,1.73,3.54,1.73-2.25-.51-6.88.32-6.88.32,1.67.19,3.67,1.55,3.67,1.55-3.41-.77-6.24.44-6.24.44,2.77-.05,3.43.69,3.43.69-6.54.28-8.6,4.88-9.13,7.01,1.56-4.04,5.12-6.67,9.88-6.73,5.85-.08,8.04,4.94,8.04,4.94-1.16-1.34-3.86-2.76-3.86-2.76.77,1.09,0,1.74,0,1.74-2.23-2.12-4.43-1.93-4.43-1.93,1.54.64,1.79,2.84,1.79,2.84-2-1.74-4.31-1.48-4.31-1.48,1.3.77,1.3,2.3,1.3,2.3-2.7-1.61-5.14-1.22-5.14-1.22.96.39,1.86,1.35,1.86,1.35-1.02-.32-3.54.64-3.54.64,1.16.06,1.23,1.22,1.23,1.22-1.87.35-3.02,3.1-3.47,4.4l-.21.68h-2.64s-1.23-4.62-3.67-5.08c0,0,.07-1.15,1.24-1.22,0,0-2.54-.96-3.56-.64,0,0,.9-.95,1.87-1.35,0,0-2.45-.38-5.15,1.22,0,0,0-1.54,1.28-2.3,0,0-2.32-.26-4.29,1.48,0,0,.26-2.19,1.8-2.84,0,0-2.2-.19-4.44,1.93,0,0-.78-.64,0-1.74,0,0-2.71,1.41-3.86,2.76,0,0,2.19-5.07,8.04-4.94,4.99.12,9.6,4,10.58,9.66-.07-.67-.16-1.36-.29-2.02,0,0-1.48-7.63-9.26-8.03,0,0,.57-.83,3.33-.77,0,0-2.81-1.21-6.23-.45,0,0,2-1.34,3.67-1.54,0,0-4.63-.81-6.87-.31,0,0,2.24-1.49,3.54-1.75,0,0-2.92-.83-7.3.33,0,0,.85-1.72,3.17-2.44,0,0-4.82-.64-7.21,0,0,0,1.23-1.22,2.26-1.35,0,0-4.12-.32-6.31.18,0,0,4.96-3.46,12.75-.05,7.76,3.4,12.72,9.56,14.14,12.02.19.32.37.69.51,1.08-.26-1.17-.54-2.2-.83-2.76-.96-1.93-3.16-4.49-5.33-5.51,0,0,.95-.33,2.31,0,0,0-3.47-2.05-4.65-2.2,0,0,.99-.7,2.53-.38,0,0-1.87-1.54-5.94-2.51,0,0,2.52-.39,3.75-.06,0,0-1.93-1.68-6.69-2.63,0,0,3.47-.46,4.18-.14,0,0-2.96-1.86-6.42-2.31,0,0,.9-.84,2.17-.71,0,0-1.34-1.28-6.62-2.05,0,0,.4-.66,1.02-.85.67-.19-.19-.13-.19-.13,0,0-3.92-1.15-5.46-1.34,0,0,7.98-1.07,17.17,7.53,5.46,5.09,8.03,9.74,9.28,13.37.34,1.95-.27-5.4-4.6-8.75,0,0,1.48.44,2.21,1.11-.82-.99-3.12-3.73-3.75-4.25,0,0,2.31,1.27,3.15,1.99,0,0-2.66-3.93-4.63-4.95,0,0,2.19.57,3.08,1.02,0,0-1.86-2.45-4.77-2.62,0,0,1.62-.45,2.96-.14,0,0-1.49-2.7-4.95-4.11,0,0,1.98-.06,3.26.58,0,0-3-3.41-5.83-4.31,0,0,1.42-.5,2.63-.13,0,0-2.76-2.7-5.33-3.59,0,0,0-.46.58-.52,0,0-1.86-2.05-3.02-2.37,0,0,6.95,1.16,14.28,13.16,3.34,5.5,4.95,10.24,5.66,14.31-.44-4.07-1.05-9.46-1.26-16.52-.39-13.11,6.93-19.72,6.93-19.72,0,0-.84,1.49-1.63,2.88-.76,1.41-1.54,3.67-1.54,3.67.24-.24,1.35-.82,1.35-.82-.23.24-.73,1.05-.73,1.05.66-.57,1.98-1.34,1.98-1.34-1.16,1.11-3.3,7.09-3.3,7.09.57-.67,1.72-1.06,1.72-1.06-.72.76-1.72,3.57-1.72,3.57.8-1.02,3.07-2.71,3.07-2.71-2.49,3.76-2.8,7.94-2.8,7.94.54-.61,1.97-1.83,1.97-1.83-.92,1.22-2.89,7.03-2.89,7.03.7-.86,2.23-2.08,2.23-2.08-1.12,1.21-2.51,8.92-2.12,8.29.38-.63,1.48-1.15,1.48-1.15-1.05,1.86-1.29,8.17-1.33,10.8.86-4.09,3.16-8.57,9.93-14.88,9.19-8.6,17.16-7.53,17.16-7.53-1.53.2-5.46,1.34-5.46,1.34,0,0-.84-.06-.2.13.65.19,1.03.85,1.03.85-5.27.77-6.62,2.05-6.62,2.05,1.28-.13,2.17.71,2.17.71-3.46.44-6.43,2.31-6.43,2.31.73-.32,4.2.14,4.2.14-4.76.95-6.7,2.63-6.7,2.63,1.22-.33,3.73.06,3.73.06-4.03.97-5.91,2.51-5.91,2.51,1.55-.32,2.52.38,2.52.38-1.16.14-4.63,2.2-4.63,2.2,1.34-.33,2.31,0,2.31,0-2.19,1.02-4.57,3.59-5.52,5.51-.19.38-.39.99-.56,1.69,1.91-3.45,6.73-8.48,14.39-11.83,7.77-3.4,12.72.05,12.72.05"/>
              <path class="cls-3" d="M171.99,60.13c-1.1,1.81-1.49,7.72-1.54,10.55.5-3.6,1.8-7.54,4.76-9.84,0,0-1.45.43-2.19,1.12.81-.98,3.13-3.75,3.73-4.27,0,0-2.3,1.29-3.14,2,0,0,2.65-3.91,4.63-4.94,0,0-2.17.59-3.07,1.03,0,0,1.85-2.43,4.75-2.63,0,0-1.62-.45-2.97-.13,0,0,1.48-2.71,4.95-4.12,0,0-1.97-.06-3.26.58,0,0,3.01-3.4,5.85-4.31,0,0-1.42-.51-2.65-.11,0,0,2.77-2.7,5.36-3.61,0,0,0-.44-.59-.51,0,0,1.87-2.05,3.02-2.39,0,0-6.95,1.18-14.26,13.18-2.02,3.29-3.26,6.04-4.21,8.79.4-.28.84-.38.84-.38"/>
              <path class="cls-1" d="M169.36,76.84c.5.52,1.05,2.16,1.05,2.16.57-1.67,1.99-1.5,1.99-1.5-.39.38-.56,2.43-.76,4.47-.21,1.84-2.28,2.44-2.28,2.44,0,0-2.05-.6-2.27-2.44-.2-2.04-.37-4.09-.76-4.47,0,0,1.41-.17,2,1.5,0,0,.56-1.64,1.03-2.16"/>
              <path class="cls-2" d="M169.27,76.76c-.36.4-.76,1.4-.97,1.9-.66-1.42-1.98-1.3-1.98-1.29l-.26.02.18.19c.33.31.48,2.07.66,3.76l.07.65c.21,1.89,2.27,2.53,2.35,2.55h.08c.09-.02,2.14-.66,2.35-2.55l.07-.65c.16-1.69.36-3.45.66-3.76l.19-.19-.26-.02s-1.34-.13-2.01,1.29c-.17-.5-.57-1.5-.95-1.9l-.1-.1-.08.1ZM168.45,79.04s.49-1.39.91-1.99c.45.6.92,1.98.92,1.98l.12.37.13-.36c.4-1.18,1.25-1.38,1.64-1.42-.29.6-.43,2.05-.61,3.7l-.06.64c-.18,1.63-1.95,2.26-2.15,2.32-.18-.06-1.96-.68-2.13-2.32l-.07-.64c-.17-1.65-.33-3.1-.6-3.7.4.03,1.23.24,1.64,1.42l.12.36.12-.36Z"/>
              <path class="cls-1" d="M169.36,81.41c.5.52,1.06,2.2,1.06,2.2.59-1.7,2.03-1.56,2.03-1.56-.43.44-.57,2.42-.79,4.5-.19,1.86-2.3,2.48-2.3,2.48,0,0-2.1-.62-2.28-2.48-.21-2.08-.37-4.06-.79-4.5,0,0,1.44-.14,2.02,1.56,0,0,.56-1.68,1.05-2.2"/>
              <path class="cls-2" d="M169.27,81.32c-.37.4-.8,1.43-.98,1.95-.66-1.45-2.01-1.36-2.02-1.36l-.27.02.19.21c.33.35.51,1.95.67,3.65l.09.76c.2,1.92,2.36,2.58,2.37,2.59h.08s2.19-.67,2.4-2.59l.07-.76c.17-1.71.33-3.3.67-3.65l.18-.21-.26-.02s-1.36-.08-2.02,1.36c-.18-.52-.59-1.55-.98-1.95l-.1-.09-.08.09ZM168.43,83.65s.51-1.43.92-2.03c.46.59.94,2.01.94,2.03l.11.34.13-.34c.43-1.25,1.31-1.43,1.71-1.47-.3.57-.47,1.91-.64,3.6l-.06.75c-.18,1.69-1.98,2.31-2.19,2.37-.18-.05-1.98-.68-2.16-2.37l-.08-.75c-.17-1.69-.33-3.03-.63-3.6.4.03,1.28.22,1.71,1.47l.12.34.13-.34Z"/>
              <path class="cls-1" d="M169.36,85.98c.51.54,1.09,2.23,1.09,2.23.6-1.72,2.06-1.6,2.06-1.6-.46.49-.58,2.39-.8,4.51-.21,1.89-2.35,2.52-2.35,2.52,0,0-2.13-.63-2.33-2.52-.21-2.12-.34-4.02-.79-4.51,0,0,1.45-.12,2.06,1.6,0,0,.57-1.7,1.06-2.23"/>
              <path class="cls-2" d="M169.27,85.9c-.37.4-.81,1.44-.99,1.98-.68-1.47-2.04-1.4-2.04-1.4l-.26.04.17.19c.35.39.51,1.94.67,3.57l.08.86c.21,1.95,2.4,2.61,2.42,2.63h.04s.05,0,.05,0c.03-.02,2.22-.68,2.42-2.63l.08-.86c.16-1.64.33-3.19.68-3.57l.18-.19-.26-.04s-1.37-.07-2.06,1.4c-.19-.54-.61-1.58-.99-1.98l-.1-.11-.08.11ZM168.42,88.26s.49-1.48.94-2.07c.46.59.95,2.05.96,2.07l.14.35.1-.35c.45-1.26,1.34-1.48,1.73-1.53-.31.6-.46,1.89-.62,3.54l-.09.83c-.17,1.7-2,2.35-2.21,2.41-.18-.06-2.03-.71-2.19-2.41l-.09-.83c-.17-1.65-.31-2.94-.64-3.54.4.05,1.3.27,1.74,1.53l.12.35.13-.35Z"/>
              <path class="cls-1" d="M169.36,90.54c.52.54,1.09,2.28,1.09,2.28.61-1.76,2.09-1.64,2.09-1.64-.48.51-.59,2.35-.81,4.51-.21,1.92-2.38,2.57-2.38,2.57,0,0-2.16-.65-2.36-2.57-.23-2.15-.34-3.99-.81-4.51,0,0,1.49-.12,2.09,1.64,0,0,.59-1.74,1.08-2.28"/>
              <path class="cls-2" d="M169.27,90.45c-.39.42-.81,1.5-1.01,2.02-.71-1.49-2.08-1.42-2.08-1.42h-.26s.17.2.17.2c.38.42.54,1.87.68,3.53l.11.92c.2,1.97,2.42,2.67,2.44,2.68l.04.02.05-.02s2.26-.7,2.45-2.68l.09-.92c.16-1.66.3-3.11.69-3.53l.15-.19h-.24s-1.4-.08-2.1,1.41c-.19-.52-.61-1.6-.99-2.02l-.12-.1-.08.1ZM168.4,92.86s.51-1.52.96-2.12c.49.6.98,2.1.98,2.12l.11.34.13-.34c.42-1.28,1.34-1.52,1.74-1.56-.34.61-.47,1.86-.62,3.45l-.11.92c-.18,1.7-2.03,2.37-2.24,2.44-.18-.07-2.05-.74-2.23-2.44l-.11-.92c-.14-1.6-.31-2.85-.62-3.45.41.04,1.32.28,1.75,1.56l.13.34.12-.34Z"/>
              <path class="cls-1" d="M169.36,95.1c.52.54,1.13,2.33,1.13,2.33.59-1.78,2.1-1.69,2.1-1.69-.5.58-.6,2.34-.83,4.55-.19,1.93-2.4,2.59-2.4,2.59,0,0-2.18-.66-2.39-2.59-.22-2.2-.33-3.96-.82-4.55,0,0,1.5-.09,2.12,1.69,0,0,.59-1.78,1.09-2.33"/>
              <path class="cls-2" d="M169.28,95.01c-.42.43-.84,1.53-1.02,2.08-.7-1.53-2.11-1.49-2.11-1.49l-.27.02.18.2c.38.47.51,1.8.68,3.47l.09,1c.22,2.01,2.47,2.71,2.47,2.71l.05.02.05-.02s2.29-.7,2.49-2.71l.09-1c.16-1.67.3-3,.69-3.47l.17-.2-.25-.02s-1.41-.04-2.11,1.49c-.19-.54-.62-1.65-1.01-2.08l-.12-.09-.07.09ZM168.38,97.45s.53-1.53.98-2.14c.49.61.99,2.14.99,2.14l.12.38.13-.37c.45-1.28,1.37-1.54,1.79-1.59-.36.61-.49,1.78-.62,3.39l-.12,1c-.18,1.75-2.07,2.42-2.28,2.48-.18-.06-2.08-.73-2.26-2.48l-.1-1c-.16-1.61-.29-2.78-.63-3.39.39.05,1.32.3,1.79,1.59l.12.37.11-.37Z"/>
              <path class="cls-1" d="M169.38,99.67c.52.55,1.1,2.36,1.1,2.36.62-1.8,2.16-1.73,2.16-1.73-.55.64-.62,2.32-.84,4.55-.21,1.96-2.43,2.65-2.43,2.65,0,0-2.23-.69-2.45-2.65-.23-2.23-.3-3.91-.83-4.55,0,0,1.53-.07,2.16,1.73,0,0,.59-1.81,1.12-2.36"/>
              <path class="cls-2" d="M169.28,99.6c-.42.41-.85,1.54-1.04,2.09-.73-1.55-2.14-1.52-2.14-1.52h-.26s.16.19.16.19c.42.51.54,1.8.7,3.42l.11,1.08c.2,2.02,2.49,2.75,2.49,2.75h.07s.02,0,.02,0c.03,0,2.31-.74,2.52-2.75l.09-1.06c.19-1.64.3-2.92.72-3.44l.16-.18h-.26s-1.43-.03-2.14,1.51c-.19-.54-.63-1.68-1.03-2.09l-.09-.12-.1.12ZM168.38,102.07s.53-1.57,1-2.19c.46.63.97,2.18.99,2.19l.11.36.13-.36c.45-1.32,1.37-1.58,1.8-1.63-.35.63-.47,1.77-.64,3.34l-.09,1.06c-.2,1.77-2.12,2.45-2.31,2.52-.21-.07-2.15-.75-2.32-2.52l-.11-1.06c-.13-1.56-.27-2.7-.62-3.33.39.05,1.35.31,1.81,1.63l.13.36.12-.36Z"/>
              <path class="cls-1" d="M169.38,104.23c.52.55,1.12,2.41,1.12,2.41.64-1.83,2.18-1.78,2.18-1.78-.55.67-.61,2.3-.84,4.55-.21,2.01-2.46,2.7-2.46,2.7,0,0-2.26-.69-2.48-2.7-.24-2.25-.29-3.88-.84-4.55,0,0,1.56-.05,2.18,1.78,0,0,.6-1.86,1.13-2.41"/>
              <path class="cls-2" d="M169.28,104.13c-.43.46-.86,1.61-1.05,2.16-.73-1.57-2.16-1.57-2.16-1.57h-.27l.15.2c.44.54.55,1.74.71,3.36l.11,1.14c.22,2.07,2.53,2.79,2.55,2.79h.06s.02,0,.02,0c.03,0,2.35-.72,2.56-2.79l.1-1.14c.17-1.63.28-2.82.71-3.36l.17-.2h-.26s-1.44,0-2.15,1.57c-.22-.56-.66-1.7-1.06-2.16l-.09-.08-.1.08ZM168.35,106.67s.55-1.6,1.03-2.23c.47.63.98,2.22,1.01,2.23l.11.35.13-.35c.45-1.35,1.42-1.61,1.84-1.67-.39.64-.5,1.75-.65,3.28l-.12,1.11c-.18,1.8-2.14,2.49-2.32,2.55-.21-.06-2.17-.76-2.36-2.55l-.11-1.11c-.16-1.54-.28-2.65-.64-3.28.43.05,1.38.32,1.84,1.67l.14.35.1-.35Z"/>
              <path class="cls-1" d="M169.38,108.81c.52.56,1.15,2.42,1.15,2.42.63-1.83,2.21-1.82,2.21-1.82-.6.74-.63,2.3-.86,4.58-.22,2.02-2.5,2.72-2.5,2.72,0,0-2.31-.7-2.52-2.72-.23-2.28-.25-3.83-.86-4.58,0,0,1.6-.01,2.23,1.82,0,0,.59-1.87,1.15-2.42"/>
              <path class="cls-2" d="M169.28,108.7c-.43.45-.88,1.63-1.08,2.19-.72-1.59-2.18-1.61-2.18-1.61h-.28l.17.22c.46.57.57,1.72.72,3.34l.12,1.16c.22,2.09,2.56,2.82,2.58,2.84h.06s.02,0,.02,0c.03-.02,2.38-.76,2.58-2.84l.13-1.16c.14-1.62.27-2.77.72-3.34l.15-.22h-.24s-1.47.02-2.2,1.61c-.2-.56-.65-1.74-1.07-2.19l-.09-.09-.1.09ZM168.34,111.28s.54-1.63,1.04-2.27c.49.64,1.02,2.25,1.02,2.27l.12.35.13-.35c.47-1.36,1.42-1.66,1.86-1.73-.38.68-.52,1.76-.65,3.26l-.1,1.16c-.21,1.84-2.18,2.53-2.37,2.61-.21-.08-2.2-.78-2.39-2.61l-.11-1.16c-.17-1.5-.28-2.58-.65-3.26.42.07,1.4.37,1.87,1.73l.13.35.11-.35Z"/>
              <path class="cls-1" d="M169.38,113.35c.54.59,1.16,2.49,1.16,2.49.65-1.87,2.23-1.87,2.23-1.87-.61.78-.63,2.28-.87,4.58-.21,2.08-2.52,2.77-2.52,2.77,0,0-2.33-.69-2.55-2.77-.25-2.3-.25-3.8-.86-4.58,0,0,1.59,0,2.24,1.87,0,0,.62-1.9,1.18-2.49"/>
              <path class="cls-2" d="M169.28,113.27c-.43.46-.9,1.66-1.1,2.22-.73-1.63-2.2-1.65-2.2-1.65h-.27l.16.21c.46.6.56,1.68.71,3.31l.12,1.21c.22,2.13,2.6,2.88,2.6,2.88l.07.02.02-.02s2.4-.75,2.62-2.88l.12-1.21c.16-1.63.26-2.7.75-3.31l.14-.21h-.26s-1.49.03-2.22,1.65c-.2-.57-.65-1.76-1.07-2.22l-.09-.11-.1.11ZM168.33,115.86s.54-1.65,1.05-2.3c.49.65,1.03,2.28,1.03,2.28l.12.39.12-.37c.49-1.38,1.45-1.69,1.91-1.76-.42.68-.51,1.7-.67,3.21l-.11,1.21c-.19,1.86-2.21,2.57-2.4,2.65-.21-.08-2.22-.79-2.42-2.65l-.13-1.21c-.13-1.51-.26-2.54-.65-3.21.44.07,1.43.38,1.91,1.76l.13.37.1-.38Z"/>
              <path class="cls-1" d="M169.38,117.92c.54.59,1.17,2.52,1.17,2.52.67-1.89,2.27-1.91,2.27-1.91-.64.82-.64,2.27-.87,4.59-.22,2.09-2.57,2.82-2.57,2.82,0,0-2.37-.73-2.57-2.82-.25-2.33-.25-3.78-.89-4.59,0,0,1.59.01,2.26,1.91,0,0,.64-1.94,1.19-2.52"/>
              <path class="cls-2" d="M169.28,117.82c-.44.46-.9,1.7-1.11,2.28-.74-1.65-2.23-1.7-2.24-1.7h-.27s.16.19.16.19c.5.65.59,1.7.75,3.28l.09,1.26c.23,2.16,2.65,2.93,2.65,2.93l.07.02.02-.02s2.44-.76,2.66-2.93l.12-1.26c.15-1.58.25-2.63.73-3.28l.16-.19h-.26s-1.5.06-2.25,1.71c-.2-.58-.66-1.82-1.09-2.28l-.09-.09-.1.09ZM168.31,120.48s.58-1.69,1.08-2.35c.49.66,1.04,2.34,1.06,2.35l.11.36.14-.35c.47-1.41,1.46-1.74,1.91-1.82-.41.7-.53,1.71-.65,3.18l-.13,1.27c-.2,1.87-2.25,2.62-2.44,2.69-.21-.07-2.25-.81-2.46-2.69l-.11-1.27c-.15-1.47-.25-2.47-.67-3.18.46.08,1.45.41,1.92,1.82l.13.35.11-.36Z"/>
              <path class="cls-1" d="M169.38,122.47c.55.6,1.19,2.58,1.19,2.58.67-1.94,2.3-1.98,2.3-1.98-.66.91-.63,2.26-.9,4.63-.21,2.1-2.59,2.84-2.59,2.84,0,0-2.4-.74-2.63-2.84-.24-2.37-.22-3.72-.88-4.63,0,0,1.63.04,2.31,1.98,0,0,.64-1.98,1.2-2.58"/>
              <path class="cls-2" d="M169.28,122.4c-.44.47-.93,1.74-1.13,2.3-.76-1.66-2.26-1.72-2.28-1.72l-.25-.04.16.23c.49.67.59,1.7.74,3.25l.11,1.3c.23,2.17,2.68,2.95,2.71,2.96h.04s.02,0,.02,0c.03-.01,2.47-.79,2.69-2.96l.14-1.3c.14-1.55.24-2.58.75-3.25l.15-.23-.27.04s-1.53.06-2.28,1.72c-.19-.56-.68-1.83-1.11-2.3l-.09-.09-.1.09ZM168.3,125.09s.57-1.71,1.09-2.39c.49.68,1.07,2.37,1.07,2.39l.12.36.13-.36c.49-1.41,1.49-1.75,1.94-1.85-.43.72-.55,1.7-.68,3.15l-.12,1.3c-.18,1.91-2.27,2.66-2.46,2.74-.21-.08-2.3-.83-2.48-2.74l-.15-1.3c-.13-1.45-.24-2.43-.65-3.15.46.09,1.46.44,1.96,1.85l.12.36.12-.36Z"/>
              <path class="cls-1" d="M169.38,135.17s2.43-.75,2.64-2.89c.24-2.4.22-3.7.9-4.63,0,0-1.64.06-2.33,2.01,0,0-.65-2.01-1.21-2.6-.58.6-1.23,2.6-1.23,2.6-.67-1.94-2.34-2.01-2.34-2.01.7.94.66,2.23.9,4.63.25,2.14,2.66,2.89,2.66,2.89"/>
              <path class="cls-2" d="M169.28,126.95c-.46.49-.93,1.77-1.13,2.36-.77-1.69-2.31-1.8-2.31-1.8h-.28l.16.2c.51.72.61,1.67.75,3.23l.14,1.34c.22,2.19,2.66,2.8,2.66,2.8l.06.02.03-.02s2.55-.61,2.78-2.8l.11-1.34c.15-1.57.23-2.51.77-3.23l.16-.2h-.26s-1.55.11-2.32,1.8c-.2-.59-.68-1.87-1.12-2.36l-.09-.09-.1.09ZM168.28,129.7s.58-1.76,1.1-2.44c.52.68,1.07,2.42,1.08,2.44l.12.35.11-.35c.51-1.44,1.53-1.8,1.98-1.89-.43.73-.54,1.66-.66,3.11l-.14,1.34c-.19,1.94-2.3,2.69-2.5,2.78-.21-.09-2.32-.84-2.52-2.78l-.14-1.34c-.11-1.45-.22-2.38-.64-3.11.44.08,1.46.45,1.96,1.89l.11.35.12-.35Z"/>
              <path class="cls-2" d="M189.94,136.68"/>
              <path class="cls-2" d="M120.39,50.22l1.78,6.21,4.2.54-.35-4.12-5.93-3.67.3,1.04ZM121.51,51.04c1.16.71,3.42,2.11,3.7,2.27.03.33.17,1.99.21,2.66-.66-.08-2.21-.28-2.6-.32-.11-.39-.92-3.27-1.31-4.61"/>
              <path class="cls-2" d="M126.32,55.48s-.99.99-1.55,1.13c-.57.14,0,1.28.85,1.28s1.12.57,1.54-.16c.44-.69.57-1.82.16-1.96-.44-.15-.28-.56-1-.29"/>
              <path class="cls-2" d="M126.24,55.27l-.04.02-.03.03c-.27.27-1.03.98-1.46,1.08-.26.07-.42.3-.39.61.07.44.57,1.08,1.3,1.08.26,0,.47.05.66.11.34.13.71.24,1.06-.36.37-.6.55-1.47.36-1.92-.08-.25-.22-.32-.32-.36-.12-.03-.16-.08-.23-.15-.18-.2-.37-.35-.92-.13M126.86,55.68c.07.1.18.2.38.28l.08.1c.1.3,0,1.03-.34,1.58-.18.3-.25.28-.58.17-.21-.06-.46-.15-.79-.15-.48,0-.83-.42-.87-.71v-.04l.06-.09c.58-.15,1.43-.96,1.62-1.16.29-.09.34-.06.43.03"/>
              <polygon class="cls-2" points="123.4 110.05 127.58 116.93 128 116.71 123.71 109.63 123.4 110.05"/>
              <path class="cls-2" d="M218.86,49.74l-5.01,3.1-.33,4.12,4.19-.54,2.07-7.25-.92.57ZM218.36,51.04c-.38,1.35-1.2,4.23-1.29,4.61-.4.04-1.95.24-2.64.32.08-.68.21-2.33.23-2.66.29-.16,2.55-1.56,3.7-2.27"/>
              <path class="cls-2" d="M213.56,55.48s.98.99,1.54,1.13c.56.14,0,1.28-.83,1.28s-1.14.57-1.56-.16c-.43-.69-.57-1.82-.14-1.96.43-.15.28-.56,1-.29"/>
              <path class="cls-2" d="M212.71,55.4l-.21.16c-.1.04-.25.11-.34.36-.15.44,0,1.32.38,1.92.35.6.71.49,1.06.36.19-.06.4-.11.68-.11.7,0,1.23-.65,1.28-1.09.04-.3-.1-.54-.38-.61-.43-.1-1.21-.81-1.46-1.08l-.04-.03-.05-.02c-.55-.21-.74-.07-.92.13M212.89,57.64c-.32-.55-.44-1.28-.32-1.58l.06-.09c.22-.08.32-.19.39-.27.08-.1.16-.13.43-.04.21.2,1.05,1.01,1.63,1.16l.05.09v.03c-.02.3-.39.72-.85.72-.34,0-.6.09-.81.15-.32.12-.39.14-.57-.17"/>
              <path class="cls-2" d="M197.12,97.34l-4.8,4.37s4.8,4.81,6.94,4.11c2.13-.71-2.14-8.47-2.14-8.47"/>
              <path class="cls-2" d="M142.84,97.34l4.8,4.37s-4.8,4.81-6.94,4.11c-2.13-.71,2.14-8.47,2.14-8.47"/>
              <polygon class="cls-2" points="211.97 116.68 212.09 117.19 216.36 110.37 216.12 110.07 211.97 116.68"/>
              <path class="cls-5" d="M125.96,82.81s-6.87,4.9,4.02,12.72l.5.95s.89-4.64,2.83-5.09l-7.35-8.59Z"/>
              <path class="cls-2" d="M206.53,91.34s2.89-1.07,2.74,4.57c-2.56,2.83-7.78,7.95-7.78,7.95,0,0,8.39,5.77,10.24,11.14l.54,1.89s-5.07,8-7.62,7.86c-1.43-.85.28-5.23-4.68-8.9-4.96-3.68-10.05-5.94-9.5-10.17.57-4.25,5.4.16,6.24.7,1.56.99,3.23,1.05,4.11.56,1.27-.71-1.83-8.34-2.11-9.05-.28-.7,3.73-2.3,7.84-6.55"/>
              <path class="cls-3" d="M118.77,72.02s6.53,9.82,7.07,10.6c.37.52-3.03,2.55-1.68,6.36.17.47,6.22,6.68,6.35,6.83.14.14.72,2.07-.85,3.77-1.54,1.7-5.66,5.94-5.8,8.76-.16,2.84-.41,1.98-.41,1.98,0,0-3.29-5.8-4.83-6.93-1.56-1.11.71-3.1,1.14-3.66.4-.57,5.38-6.37,5.23-7.5-.14-1.14-8.05-10.18-7.93-10.75.13-.55-.27-2.55,1.7-9.47"/>
              <path class="cls-2" d="M133.3,91.34s-2.93-1.17-2.78,4.48c2.56,2.83,7.82,8.05,7.82,8.05,0,0-8.39,5.77-10.24,11.14l-.55,1.83s5.08,8.06,7.63,7.92c1.43-.85-.28-5.23,4.68-8.9s10.05-5.94,9.5-10.17c-.57-4.25-5.4.16-6.24.7-1.56.99-3.23,1.05-4.11.56-1.27-.71,1.83-8.34,2.11-9.05.28-.7-3.73-2.3-7.84-6.55"/>
              <path class="cls-1" d="M172.08,135.17c.15-1.73.23-2.77.8-3.56,0,0-1.64.06-2.33,2.01,0,0-.65-2.01-1.21-2.6-.58.6-1.23,2.6-1.23,2.6-.67-1.94-2.34-2.01-2.34-2.01.59.78.65,1.82.8,3.54,1.83-.05,3.67.01,5.5.02Z"/>
              <path class="cls-2" d="M166.44,134.91l.03.25s.04,0,.06,0c.06,0,.12,0,.19,0l-.03-.27c-.11-1.45-.22-2.38-.64-3.11.44.08,1.46.45,1.96,1.89l.11.35.12-.35s.58-1.76,1.1-2.44c.52.68,1.07,2.41,1.08,2.44l.12.35.11-.35c.51-1.44,1.53-1.8,1.98-1.89-.43.73-.54,1.66-.66,3.11l-.03.28c.06,0,.12,0,.18,0,.02,0,.04,0,.07,0l.02-.26c.15-1.57.23-2.51.77-3.23l.16-.2h-.26s-1.55.11-2.32,1.8c-.2-.59-.68-1.87-1.12-2.36l-.09-.09-.1.09c-.46.49-.93,1.77-1.13,2.36-.77-1.69-2.31-1.8-2.31-1.8h-.28l.16.2c.51.72.61,1.67.75,3.23Z"/>
            </g>
            <g>
              <path class="cls-2" d="M193.8,139.04"/>
              <path class="cls-2" d="M193.8,139.04s-.5-3.9-.29-4.54c.22-.62,1.81,2.12,1.64,4.54-.34,4.57-5.32,4.2-5.32,4.2,0,0,4.02-.9,5.09-4.09.01-1.63-.72-3.23-.94-3.19l-.18,3.07Z"/>
              <path class="cls-2" d="M191.52,136.9s-.02-2.45.31-2.45c.32,0,1.11,3.12.85,4.23-.25,1.12-1.06,2.22-1.39,2.28-.08.02-.14,0-.18-.01-.12-.07-.14-.19-.22-.21-.05,0-.16.08-.25.24-.07.06-.28.06-.43,0-.19-.08-.18-.25-.3-.25-.17,0-.55,1.01-1.26,1.05-.86.05-.54-1.19-.78-1.12-.77.24-1.67,1.65-5.43,1.94-1.97.15-1.95-3.42-1.99-3.54-.02-.05-.27-2.4-.43-2.29l-.15,1.39s-.23-2.08.16-2.12c.71-.07.5,3.67,1.33,4.83.3.42.23.8,2.14.65,3.24-.48,3.55-.94,4.59-1.79.25-.21,0,.6.38.65.38.05,1.01-.23,1.22-.65.22-.41.28.32.57.17.34-.17.44-.47.64-.74.2-.27.19.83.54.67.38-.16,1.12-.92.69-3.16,0,0-.27-1.35-.34-1.27-.06.08-.29,1.49-.29,1.49Z"/>
              <path class="cls-2" d="M188.81,137.73s.29-2.2.74-2.22c.38-.02.86,2.11.86,2.11,0,0-.42-1.07-.83-.96-.43.11-.77,1.08-.77,1.08"/>
              <path class="cls-2" d="M179.31,139.11s-1.21-.43-1.47,2.67c-.01.17-.05.36-.12.52-1.08,2.35-3.64,2.22-3.64,2.22,0,0,3.86,1.44,4.07-2.38.36-2.23,1.09-2.1,1.09-2.1l.07-.92Z"/>
              <path class="cls-2" d="M176.63,140.21c-.28.25-.97.82-1.17.21-.15-.46-.13-1-.07-1.47.06-.43.21-1.06.67-1.22.52-.19.87.36,1.03.77.5,1.24-.03,2.54-.68,3.62-.29.49-.71,1.09-1.31,1.2-.05.01-.11.02-.17.02-1.33,0-1.38-1.53-1.72-1.53-.1,0-.17.23-.2.3-.11.25-.19.51-.28.76-.13.36-.25.72-.43,1.06-.21.4-.54.98-1.09.74-.41-.18-.62-.63-.72-1.05-.16-.7-.08-1.46.29-2.08.14-.24.33-.45.51-.66.68-.79,1.37-1.58,2.11-2.32.06-.06.13-.13.22-.12.05,0,.1.04.13.09.07.1.05.24-.02.35s-.16.19-.25.26c-.59.49-1.15,1-1.69,1.55-.29.29-.58.6-.76.97-.23.46-.3,1.18.06,1.6.51.6,1.14-.43,1.32-.82.19-.42.43-1.5,1.05-1.5.48,0,.59.76.75.93.09.25,1.94,1.09,2.6-1.84l-.18.16Z"/>
              <path class="cls-2" d="M186.52,137.66s.11.76-.2.97c-.32.21-.49-.47-.49-.47,0,0-.15.74-.42.8-.26.05-.49-.96-.49-.96,0,0,.31.42.51.26.22-.16.32-.49.32-.49,0,0,.41.44.63.23.21-.21.15-.34.15-.34Z"/>
              <polygon class="cls-2" points="186.56 136.08 186.52 136.57 184.34 137.84 184.38 137.34 186.56 136.08"/>
              <g>
                <path class="cls-2" d="M146.3,137.97l-.61-.58c-.33-.31-.48-.6-.44-.88.02-.18.12-.31.31-.43.16-.11.34-.14.56-.09.52.07.79.35.86.88v.19l.53.1.07-1.19-.09-.05c-.39-.2-.78-.34-1.18-.41-.5-.09-.97-.03-1.33.15-.39.21-.61.51-.67.92-.05.3,0,.57.12.77.11.21.38.5.81.92l.4.39c.4.39.58.72.54,1-.04.21-.15.38-.35.51-.18.13-.37.18-.62.14-.25-.04-.44-.15-.6-.36-.15-.15-.22-.37-.22-.68v-.18l-.53-.09-.13,1.33.09.05c.34.18.74.32,1.23.42.16.02.32.04.46.04.36,0,.66-.07.91-.21.4-.19.65-.53.72-.98.06-.27.02-.55-.1-.78-.11-.23-.37-.51-.75-.89Z"/>
                <path class="cls-2" d="M151.44,141.16c-.18-.01-.26-.06-.3-.13,0,0-.05-.08,0-.38l.23-1.37c.09-.59.04-.98-.14-1.21-.17-.26-.44-.43-.74-.46-.21-.05-.45-.03-.75.08-.17.08-.34.16-.51.26l.34-2.12-1.56.32v.26l.24.15c.16.1.2.17.22.23,0,.02.02.1-.05.47l-.45,2.89c-.06.33-.13.39-.13.4,0,0-.07.05-.34,0h-.19l-.08.47,2.05.33.02-.36-.02-.11-.09-.05h-.04c-.19-.05-.29-.09-.31-.11-.04-.08-.05-.22-.02-.43l.27-1.74c.16-.07.35-.15.5-.18.18-.03.34-.04.5-.01.24.03.31.12.34.19.06.14.07.34.03.59l-.23,1.38c-.04.27-.09.36-.14.4-.04.04-.22.03-.29.03l-.21-.06-.1.51,2.05.34.06-.48-.11-.04-.09-.03Z"/>
                <path class="cls-2" d="M154.84,141.52c-.02-.05-.05-.23.03-.68l.21-1.46c.04-.38-.01-.65-.17-.83-.14-.21-.42-.34-.82-.4-.44-.06-.84,0-1.2.19-.35.21-.54.46-.6.78v.28l.98-.17.04-.26c.02-.11.06-.19.13-.23.05-.03.16-.06.33-.04.13.02.26.07.35.15l.09.18c0,.08,0,.21-.02.39l-.05.36-.34.04c-.6.09-1.02.21-1.31.36-.3.17-.48.41-.53.71-.03.29.02.53.17.73.14.21.38.35.64.38.24.04.49,0,.75-.1.17-.07.32-.16.46-.27.02.12.06.24.14.33.12.17.29.27.49.29.06,0,.11.01.17.01.17,0,.34-.03.52-.1l.08-.03.08-.42-.36-.03c-.21-.03-.24-.12-.25-.14ZM152.9,140.92c.03-.17.1-.29.23-.38.1-.05.35-.16.93-.25l-.07.41c-.02.2-.09.35-.22.44l-.02.02c-.16.16-.34.23-.52.21-.13-.03-.19-.07-.23-.14-.06-.11-.08-.2-.08-.31Z"/>
                <path class="cls-2" d="M159.09,139.17v.03l-.02-.04c-.19-.33-.43-.5-.75-.52-.22,0-.42.05-.59.15-.11.06-.23.14-.37.25l.04-.53-1.43.39-.1.06-.05.21.3.15c.19.09.25.16.26.18.02.06.02.38.01.53l-.12,1.37c0,.29-.07.38-.09.39,0,0-.06.05-.32.05l-.22-.07-.04.56,2.16.14.04-.46-.12-.04-.09-.02c-.3,0-.36-.06-.38-.08-.03-.04-.08-.14-.04-.39l.12-1.7.03-.02c.34-.28.51-.33.61-.33.11,0,.21.07.35.36l.09.19.71-.67v.08l.28.14c.2.09.26.16.27.16.02.04.04.2.02.51l-.06,1.83c-.01.59-.11.84-.2.96-.11.17-.34.33-.68.46l-.1.04v.53s.18-.04.18-.04c.37-.07.72-.22,1.03-.41.23-.14.4-.32.51-.56.09-.23.14-.52.16-.92l.13-3.42-1.43.46-.11.06Z"/>
                <path class="cls-2" d="M160.24,137.44h0c-.17-.02-.29.03-.41.14-.12.09-.18.23-.18.41,0,.14.02.29.15.4.1.11.25.17.4.17s.3-.05.38-.14c.13-.11.2-.25.2-.42,0-.14-.05-.28-.16-.42-.11-.09-.22-.15-.37-.15Z"/>
                <path class="cls-2" d="M164.14,142.04c-.04-.1-.08-.33-.05-.68l.04-1.48c.01-.35-.07-.63-.25-.81-.18-.19-.47-.28-.86-.29-.49,0-.86.09-1.17.32-.42.29-.5.61-.5.79l-.09.35,1.06-.3v-.27c0-.13.04-.2.1-.24.06-.05.18-.08.32-.08.16.01.27.05.37.12l.12.16c0,.08.02.22,0,.39v.38l-.31.07c-.65.16-1.04.32-1.26.5-.29.21-.45.48-.46.77,0,.27.08.5.26.7.19.2.41.31.67.31.29,0,.53-.08.75-.18.14-.09.28-.2.41-.33.04.13.09.23.17.32h0c.12.14.3.23.51.25.23,0,.44-.05.68-.18l.07-.04.07-.44h-.4c-.17,0-.23-.06-.26-.1ZM162.25,141.96c-.09-.12-.12-.2-.12-.28.02-.21.08-.34.19-.42.1-.07.34-.19.88-.35l-.02.42c0,.22-.05.37-.15.49-.16.17-.35.26-.54.26-.08,0-.17-.05-.24-.12Z"/>
                <path class="cls-2" d="M168.96,142.33c-.16,0-.26-.03-.31-.09-.02-.02-.06-.12-.05-.38l.04-1.4c.01-.55-.09-.94-.3-1.19-.22-.24-.49-.36-.8-.36-.23,0-.46.06-.71.19-.17.09-.33.19-.47.31l.04-2.14-1.49.51v.27l.28.12c.15.07.24.14.26.17.03.06.03.27.03.49l-.09,2.93c0,.25-.05.37-.08.41-.02.02-.09.06-.31.06h-.21v.48l2.03.07.03-.51h-.2c-.25-.02-.3-.06-.32-.09-.04-.04-.05-.17-.04-.4l.06-1.76c.15-.11.32-.2.47-.24.19-.07.32-.09.46-.08.12,0,.29.03.37.13.08.12.11.32.11.6l-.04,1.38c-.01.13-.04.36-.09.42,0,0-.05.06-.31.05h-.2v.49l2.04.07v-.51h-.2Z"/>
              </g>
              <path class="cls-2" d="M210.68,131.65c-2.26,0-3.87-.45-4.75-.78,1.67-1.08,4.21-3.07,4.45-5.25l.16-.92-.83.3s-.04,0-.09.03c-.96.31-4.4,1.3-8.04,1.12-1.98-.11-3.88-.34-5.32-.53l-.41-.05c-1.67-.2-2.88-.34-3.59-.15-.79.23-2.34.95-2.55,2.05-.03.14-.06.31-.01.51,0,.03.02.06.04.13l.02.08c.03.09.04.18.06.28l.72,4.3c-7.95,1.72-17.59,1.62-20.38,1.55h-.08s-.02,0-.03,0c-.17,0-.37,0-.55.01-.12,0-.24,0-.35,0-.72.01-1.48.02-2.27.02-1.09,0-2.21-.02-3.32-.06-1.38-.04-2.75-.11-4.05-.19-1.57-.1-3.03-.23-4.45-.4-1.63-.19-3.1-.41-4.51-.67-.41-.08-.82-.16-1.22-.25l.76-4.65c.08-.24.1-.48.04-.7-.04-.14-.09-.27-.16-.4-.07-.12-.15-.24-.26-.35-.09-.1-.19-.21-.32-.31-.11-.09-.23-.18-.36-.27-.12-.08-.25-.16-.38-.23-.13-.07-.26-.13-.39-.19-.13-.06-.25-.11-.38-.15-.11-.04-.22-.07-.32-.1-.69-.2-1.93-.05-3.63.15l-.36.04c-1.63.21-3.4.43-5.3.53-3.87.19-7.4-.91-8.07-1.13l-.84-.3.08.89c.25,2.18,2.79,4.18,4.45,5.27-.86.33-2.45.78-4.75.78h-1l.53.86c2.41,3.96,9.55,4.24,12.64,3.75,0,.38-.02.69-.06.97-.09.59-.27,1.15-.46,1.72l-.05.15c-.43,1.26-.87,2.56.28,3.53,1.41,1.16,13.99,4.8,28.15,4.8h.64s.63,0,.63,0c14.33,0,27.07-3.77,28.3-4.8,1.13-.96.7-2.27.28-3.54-.2-.54-.41-1.16-.51-1.85-.04-.28-.06-.58-.06-.97,1.42.23,3.86.33,6.36-.14,2.15-.4,4.99-1.35,6.37-3.6l.54-.86h-1.02ZM141.79,139.44l.1-.31c.18-.54.36-1.11.46-1.75.06-.43.09-.81.09-1.14,0-.29-.04-.57-.09-.87-.02-.12-.04-.23-.05-.35-.03-.23-.06-.45-.1-.68l-.02-.17c-.13-.89-.26-1.8-.23-2.7,9.15,4.63,27.99,3.95,28.16,3.95.58.03,1.17.03,1.73.03h.3c1.48.01,3.02-.02,4.55-.07,2.11-.08,4.15-.21,6.08-.39,2.42-.23,4.59-.52,6.62-.9,2.42-.45,4.38-.97,6.18-1.63.36-.13.84-.31,1.32-.52.19-.08.36-.17.53-.26l.34-.18c-.04.6-.13,1.23-.21,1.84l.15.02-.16.03c-.18,1.33-.36,2.7-.18,4,.12.74.36,1.43.57,2.04l.07.21c.19.59.33,1.05.33,1.4,0,.31-.1.52-.35.71-1.16.97-13.48,4.54-27.54,4.54-.22,0-.44,0-.66,0h-.52c-14.04,0-26.38-3.56-27.55-4.53-.23-.19-.33-.41-.33-.71,0-.39.16-.89.4-1.61ZM194.1,129.2h.14c1.1-.1,2.77-.24,3.07.1.14.16.29.5.41.95-1.54.88-3.59,1.64-6.09,2.25l-.55-3.31c.79.17,1.88.09,3.02,0ZM198.65,133.57h0c.1-.83.19-1.67.19-2.23,0-1.63-.07-2.11-.69-2.8-.66-.74-2.24-.62-3.93-.49l-.2.02c-1.12.08-2.66.2-3.04-.13-.18-.15-.18-.23-.18-.26.09-.38.96-.96,1.76-1.19.53-.14,1.91.03,3.51.23h.05c1.65.22,3.45.42,5.41.53,3.11.14,5.9-.46,7.46-.88-1.05,2.11-4.48,4.03-4.52,4.05l-.85.48.81.51s1.73,1.08,5.08,1.3c-2.53,2.55-8.28,2.85-11.03,2.42.03-.44.1-1.01.16-1.58ZM135.37,131.43l.8-.51-.82-.49s-3.46-1.93-4.51-4.05c1.56.43,4.34,1.02,7.46.89,1.92-.1,3.72-.31,5.4-.53h.07c1.59-.21,2.97-.38,3.48-.24.83.23,1.68.81,1.76,1.22.02.07-.07.16-.16.23-.4.32-1.88.21-3.08.13h-.17c-1.69-.15-3.28-.27-3.93.47-.68.71-1.03,2.37-.84,3.93.07.62.15,1.34.28,2.68-3.06.47-8.4.02-10.82-2.42,3.05-.2,4.75-1.11,5.07-1.3ZM142.47,129.35c.22-.27.73-.27,1.13-.27h.14c.54,0,1.1.04,1.63.08l.29.02c1.17.09,2.29.18,3.1,0l-.55,3.33c-.69-.16-1.31-.33-1.9-.51h-.02c-1.4-.42-2.57-.88-3.6-1.39-.03-.02-.08-.04-.17-.08-.27-.11-.39-.18-.45-.21.08-.27.14-.47.22-.65.05-.11.11-.24.19-.34Z"/>
            </g>
            <path class="cls-2" d="M100.73,87.79c0,38.08,31.05,69.07,69.19,69.07s69.18-30.99,69.18-69.07-31.03-69.1-69.18-69.1-69.19,31-69.19,69.1M102.11,87.79c0-37.34,30.43-67.71,67.81-67.71s67.8,30.37,67.8,67.71-30.41,67.69-67.8,67.69-67.81-30.38-67.81-67.69"/>
          </g>
          <path class="cls-2" d="M172.58,137.13c-.05.3-.12.64-.21,1.03-.05.1-.17.22-.36.36-.19.14-.34.22-.45.25-.04.01-.11.02-.2.02-.09,0-.16,0-.2.02-.09.02-.19.11-.29.25.01-.22.13-.67.34-1.34l.06-.02c.3-.08.74-.27,1.31-.59Z"/>
          <path class="cls-2" d="M176.24,135.92c-.12.52-.26.86-.4,1.03-.1.12-.4.33-.91.63-.3.17-.58.32-.85.45.01-.19.17-.59.48-1.21.46-.19,1.02-.5,1.68-.91Z"/>
        </g>
      </g>
    </g>
  </g>
</svg>