<?xml version="1.0" encoding="UTF-8"?>
<svg xmlns="http://www.w3.org/2000/svg" xmlns:xlink="http://www.w3.org/1999/xlink" version="1.1" viewBox="0 0 191.25 191.75">
  <defs>
    <style>
      .cls-1 {
        fill: url(#linear-gradient-2);
      }

      .cls-2 {
        fill: url(#linear-gradient);
      }

      .cls-3 {
        fill: #00a9ce;
      }
    </style>
    <linearGradient id="linear-gradient" x1="22.51" y1="169.21" x2="169.49" y2="22.23" gradientUnits="userSpaceOnUse">
      <stop offset="0" stop-color="#00205b"/>
      <stop offset=".35" stop-color="#753bbd"/>
      <stop offset=".7" stop-color="#00a9ce"/>
    </linearGradient>
    <linearGradient id="linear-gradient-2" x1="61.06" y1="141.56" x2="132.11" y2="70.52" gradientUnits="userSpaceOnUse">
      <stop offset="0" stop-color="#00205b"/>
      <stop offset=".35" stop-color="#753bbd"/>
      <stop offset=".7" stop-color="#00a9ce"/>
    </linearGradient>
  </defs>
  <!-- Generator: Adobe Illustrator 28.6.0, SVG Export Plug-In . SVG Version: 1.2.0 Build 709)  -->
  <g>
    <g id="Layer_1">
      <path class="cls-2" d="M157.8,174.06H34.2c-9.12,0-16.54-7.42-16.54-16.54V33.92c0-9.12,7.42-16.54,16.54-16.54h123.6c9.12,0,16.54,7.42,16.54,16.54v123.6c0,9.12-7.42,16.54-16.54,16.54ZM34.2,21.58c-6.8,0-12.34,5.54-12.34,12.34v123.6c0,6.8,5.54,12.34,12.34,12.34h123.6c6.8,0,12.34-5.54,12.34-12.34V33.92c0-6.8-5.54-12.34-12.34-12.34H34.2Z"/>
      <g>
        <path class="cls-3" d="M152.41,134.75c0,2.52-2.05,4.54-4.58,4.54s-4.57-2.03-4.57-4.54,2.06-4.52,4.57-4.52,4.58,2.02,4.58,4.52M147.84,131.13c-2.03,0-3.66,1.61-3.66,3.62s1.63,3.64,3.66,3.64,3.67-1.64,3.67-3.64-1.64-3.62-3.67-3.62"/>
        <path class="cls-3" d="M148.8,137.21l-1.01-1.94h-.62v1.94h-.92v-4.9h1.84c.94,0,1.59.69,1.59,1.51,0,.69-.44,1.13-.96,1.32l1.07,2.07h-1M147.98,133.08h-.8v1.47h.8c.49,0,.82-.33.82-.73s-.33-.74-.82-.74"/>
      </g>
      <path class="cls-1" d="M58.57,106.63c0,7.65,6.25,13.82,13.95,13.82s13.95-6.17,13.95-13.82-6.25-13.84-13.95-13.84-13.95,6.19-13.95,13.84M152.41,106.63c-.01,18.05-14.76,32.66-32.95,32.66-9.19,0-17.5-3.74-23.47-9.73-5.97,5.99-14.28,9.73-23.48,9.73-18.21,0-32.93-14.62-32.93-32.66s14.72-32.67,32.93-32.67c4.98,0,9.72,1.08,13.95,3.07v-15.44c0-5.2,4.25-9.41,9.48-9.41s9.5,4.21,9.5,9.41v45.04c0,7.65,6.31,13.82,14.02,13.82s13.95-6.17,13.96-13.82v-11.96c0-5.18,4.25-9.41,9.5-9.41s9.48,4.23,9.48,9.41v11.96Z"/>
    </g>
  </g>
</svg>