<?xml version="1.0" encoding="UTF-8"?>
<svg id="Layer_1" data-name="Layer 1" xmlns="http://www.w3.org/2000/svg" viewBox="0 0 852 736">
  <path d="M130.53,524.2h-34.66v27.71c0,2.61.11,4.27.32,4.99.21.72.61,1.32,1.2,1.81.58.49,1.6.73,3.06.73v.73h-16.32v-.73c2.97.23,4.45-1.42,4.45-4.94v-57.96c0-3.29-.23-5.38-.7-6.26-.47-.88-1.72-1.37-3.75-1.47v-.73h16.32v.73c-1.8.13-3.01.53-3.64,1.18-.63.65-.94,1.99-.94,4.01v28.19h34.66v-25.8c0-2.94-.22-4.93-.66-5.99-.44-1.06-1.68-1.59-3.71-1.59v-.73h16.11v.73c-1.27,0-2.22.17-2.84.52-.62.34-1.05.87-1.27,1.59-.22.72-.34,2.54-.34,5.48v55.32c0,2.84.12,4.61.34,5.31.23.7.62,1.28,1.19,1.74.57.45,1.54.68,2.93.68v.73h-16.11v-.73c1.74,0,2.91-.41,3.49-1.22.59-.81.88-3.01.88-6.6v-27.42Z"/>
  <path d="M184,487c8.85,0,16.1,3.08,21.72,9.23,5.63,6.15,8.44,13.83,8.44,23.03,0,11.84-3.26,21.81-9.77,29.91-6.51,8.1-15.15,12.14-25.92,12.14-8.74,0-15.9-3.26-21.46-9.79-5.57-6.53-8.36-14.36-8.36-23.49,0-6.17,1.34-12.5,4.03-18.99,2.69-6.5,6.73-11.79,12.13-15.88,5.4-4.1,11.8-6.14,19.19-6.14M183.74,557.49c4.34,0,8.62-1.33,12.85-3.99,4.23-2.66,7.56-6.32,9.98-10.99,2.43-4.67,3.64-9.47,3.64-14.39,0-6.98-1.63-13.33-4.91-19.04-3.27-5.71-7.51-10.18-12.73-13.41-5.21-3.23-10.03-4.85-14.46-4.85-6.25,0-11.93,2.7-17.03,8.08-5.1,5.38-7.65,12.07-7.65,20.07,0,10.21,3.11,19.19,9.34,26.92,6.23,7.73,13.21,11.6,20.95,11.6"/>
  <path d="M269,485.59l-3,8.71h-.64c.12-.52.17-1.22.17-2.11,0-.75-.24-1.23-.71-1.44-.47-.21-1.22-.32-2.24-.32h-16.46v61.68c0,2.55.18,4.28.54,5.21.36.93.84,1.52,1.46,1.76.61.25,1.61.37,2.98.37v.74h-17.09v-.74c2.14-.16,3.48-.63,4.03-1.42.54-.78.81-2.41.81-4.89v-62.7h-15.78c-1.59,0-2.63.11-3.12.32-.48.21-.73.74-.73,1.59,0,.42.11,1.08.34,1.96h-.64l-3-8.71h.64c.51,1.17,1.02,1.88,1.51,2.13.5.24,1.58.37,3.23.37h41.88c1.65,0,2.84-.12,3.57-.37.73-.25,1.26-.96,1.6-2.13h.64Z"/>
  <path d="M272.35,488.91v-.83h39.68v9.94h-.64c-.86-3.69-1.58-5.86-2.16-6.51-.59-.65-2.02-.98-4.31-.98h-20.82v32.35h19.32c1.92,0,3.13-.2,3.64-.61.51-.41.79-1,.82-1.79h.64v6.8h-.64c-.15-.95-.48-1.58-1.01-1.91-.53-.33-1.51-.49-2.94-.49h-19.84v22.27c0,3.36.27,5.79.81,7.27.54,1.49,1.4,2.42,2.59,2.79,1.18.38,2.97.57,5.37.57h11.13c3.54,0,5.8-.14,6.78-.41.99-.28,1.82-.83,2.5-1.65.68-.83,1.21-2.63,1.58-5.42h.64v9.89h-43.14v-.74c1.46-.1,2.56-.41,3.32-.95.76-.54,1.14-1.93,1.14-4.18v-58.2c0-2.64-.2-4.5-.6-5.57-.4-1.08-1.69-1.62-3.86-1.62"/>
  <path d="M317.55,560.18v-.74c1.97,0,3.25-.42,3.83-1.27.59-.85.88-2.3.88-4.35v-58.99c0-2.08-.23-3.59-.68-4.52-.46-.93-1.83-1.43-4.11-1.5v-.73h16.92v.73c-1.57,0-2.67.23-3.3.69-.63.46-1.04.99-1.24,1.61-.2.62-.3,2.02-.3,4.21v50.61c0,4.34.91,7.4,2.74,9.18,1.82,1.78,4.95,2.67,9.37,2.67h7.7c3.71,0,6.43-1.04,8.15-3.14,1.73-2.08,2.69-6.02,2.89-11.79h.64v17.33h-43.49Z"/>
  <path d="M439.31,524.2h-34.66v27.71c0,2.61.11,4.27.32,4.99.21.72.61,1.32,1.2,1.81.58.49,1.6.73,3.06.73v.73h-16.32v-.73c2.97.23,4.45-1.42,4.45-4.94v-57.96c0-3.29-.23-5.38-.71-6.26-.47-.88-1.72-1.37-3.75-1.47v-.73h16.32v.73c-1.8.13-3.01.53-3.64,1.18-.63.65-.94,1.99-.94,4.01v28.19h34.66v-25.8c0-2.94-.22-4.93-.66-5.99-.44-1.06-1.68-1.59-3.71-1.59v-.73h16.11v.73c-1.28,0-2.22.17-2.84.52-.62.34-1.05.87-1.27,1.59-.22.72-.34,2.54-.34,5.48v55.32c0,2.84.12,4.61.34,5.31.23.7.62,1.28,1.19,1.74.57.45,1.54.68,2.93.68v.73h-16.11v-.73c1.74,0,2.91-.41,3.49-1.22.59-.81.88-3.01.88-6.6v-27.42Z"/>
  <path d="M492.78,487c8.85,0,16.1,3.08,21.72,9.23,5.63,6.15,8.44,13.83,8.44,23.03,0,11.84-3.26,21.81-9.77,29.91-6.51,8.1-15.15,12.14-25.92,12.14-8.74,0-15.9-3.26-21.46-9.79-5.57-6.53-8.36-14.36-8.36-23.49,0-6.17,1.34-12.5,4.03-18.99,2.69-6.5,6.73-11.79,12.13-15.88,5.4-4.1,11.8-6.14,19.19-6.14M492.53,557.49c4.34,0,8.62-1.33,12.85-3.99,4.23-2.66,7.56-6.32,9.98-10.99,2.43-4.67,3.64-9.47,3.64-14.39,0-6.98-1.63-13.33-4.91-19.04-3.27-5.71-7.51-10.18-12.73-13.41-5.21-3.23-10.03-4.85-14.46-4.85-6.25,0-11.93,2.7-17.03,8.08-5.1,5.38-7.65,12.07-7.65,20.07,0,10.21,3.11,19.19,9.34,26.92,6.23,7.73,13.21,11.6,20.95,11.6"/>
  <path d="M526.93,560.18v-.74c1.97,0,3.25-.42,3.83-1.27.59-.85.88-2.3.88-4.35v-58.99c0-2.08-.23-3.59-.68-4.52-.46-.93-1.83-1.43-4.11-1.5v-.73h16.92v.73c-1.57,0-2.67.23-3.3.69-.63.46-1.04.99-1.24,1.61-.2.62-.3,2.02-.3,4.21v50.61c0,4.34.91,7.4,2.74,9.18,1.82,1.78,4.95,2.67,9.37,2.67h7.7c3.71,0,6.43-1.04,8.15-3.14,1.73-2.08,2.69-6.02,2.89-11.79h.64v17.33h-43.49Z"/>
  <path d="M593.25,488.08v.73c-.83-.1-1.75.05-2.76.44-1.02.39-1.62.96-1.8,1.71-.19.75-.28,2.53-.28,5.33v55.32c0,3,.1,4.83.32,5.5.22.67.63,1.22,1.24,1.66.61.44,1.71.66,3.28.66v.74h-16.84v-.74c2.11,0,3.43-.46,3.94-1.39.51-.93.77-3.04.77-6.33v-54.78c0-3.42-.28-5.67-.86-6.73-.57-1.06-1.86-1.53-3.85-1.4v-.73h16.84Z"/>
  <path d="M599.55,488.81v-.73h28.96c7.37,0,13.19.66,17.46,1.98,4.27,1.32,7.99,3.4,11.16,6.24,3.17,2.84,5.68,6.47,7.54,10.89,1.85,4.42,2.78,9.36,2.78,14.81s-.96,10.42-2.89,15.49c-1.93,5.07-4.55,9.44-7.86,13.12-3.32,3.67-6.81,6.18-10.47,7.54-3.67,1.35-9.35,2.03-17.03,2.03h-29.65v-.74h.77c1.54,0,2.56-.71,3.04-2.13.48-1.42.73-3.99.73-7.71v-52.48c0-3.91-.29-6.27-.88-7.09-.58-.81-1.81-1.22-3.66-1.22M621.05,489.6h-9.68v55.94c0,3.52.52,6.14,1.56,7.85,1.04,1.72,2.82,2.96,5.34,3.72,2.51.77,5.9,1.15,10.15,1.15,11.83,0,20.13-3.47,24.92-10.4,4.78-6.94,7.18-14.5,7.18-22.69,0-9.62-3.28-17.96-9.83-25.01-6.56-7.05-16.43-10.57-29.63-10.57"/>
  <path d="M701.53,526.99h-18.52l-9.55,27.21c-.66,1.96-.99,3.17-.99,3.62,0,1.08.7,1.61,2.1,1.61v.74h-9.38v-.74c1.26,0,2.31-.35,3.17-1.05.85-.7,1.8-2.52,2.82-5.46l22.88-65.93h1.13l22.5,63.67c0,.33.58,1.87,1.73,4.63,1.15,2.76,2.91,4.14,5.28,4.14v.74h-14.74v-.74c1.34,0,2.01-.6,2.01-1.81,0-.81-.33-2.12-.99-3.92-.12-.13-.21-.34-.3-.64-.06-.33-.1-.49-.13-.49l-9.03-25.6ZM683.62,524.99h17.07l-8.53-24.57-8.54,24.57Z"/>
  <path d="M758.8,488.08h9.47v.73c-1.2.1-2.19.43-2.96.98-.77.56-1.65,1.7-2.65,3.43l-15.42,26.73v33c0,2.67.3,4.42.91,5.25.6.83,1.92,1.24,3.93,1.24v.74h-16.88v-.74c3.23.23,4.84-1.22,4.84-4.35l-.09-2.05v-30.47l-15.46-29.24c-1.63-3.1-3.44-4.6-5.44-4.51v-.73h14.91v.73c-1.39,0-2.08.6-2.08,1.81,0,.62.36,1.58,1.07,2.88l12.73,24,13.9-24.18c.26-.26.54-.74.85-1.44.32-.7.47-1.18.47-1.44,0-1.08-.61-1.62-1.84-1.62h-.26v-.73Z"/>
  <path d="M100.25,607.45v.72c-.81-.1-1.72.05-2.71.43-.99.38-1.58.94-1.77,1.68-.18.74-.27,2.48-.27,5.23v54.26c0,2.94.1,4.74.32,5.4.21.66.62,1.2,1.22,1.63.6.43,1.67.65,3.22.65v.72h-16.52v-.72c2.07,0,3.36-.46,3.86-1.37.51-.91.76-2.98.76-6.21v-53.73c0-3.36-.28-5.56-.84-6.6-.56-1.04-1.82-1.5-3.78-1.37v-.72h16.52Z"/>
  <path d="M157.27,607.45h11.98v.72c-1.82.06-3.08.5-3.78,1.32-.7.82-1.05,2.54-1.05,5.16v64.38l-49.38-60.07v52.29c0,1.66.11,2.9.34,3.7.22.8.55,1.34.97,1.63.42.29,1.47.58,3.15.86v.72h-11.89v-.72c2.13,0,3.45-.43,3.97-1.3.51-.86.78-2.93.78-6.19v-47.83c0-4.19-.51-7.61-1.54-10.27-1.02-2.65-3.38-3.88-7.08-3.69v-.72h11.64l46.39,56.44v-49.91c0-2.69-.42-4.33-1.26-4.92-.84-.59-1.92-.89-3.24-.89v-.72Z"/>
  <path d="M224.22,605l-2.94,8.55h-.63c.11-.51.17-1.2.17-2.06,0-.74-.23-1.21-.69-1.42s-1.19-.31-2.2-.31h-16.14v60.5c0,2.5.17,4.2.53,5.11.35.91.82,1.49,1.43,1.73.6.24,1.58.36,2.92.36v.72h-16.77v-.72c2.1-.16,3.42-.62,3.95-1.39.53-.77.8-2.37.8-4.8v-61.5h-15.47c-1.57,0-2.59.11-3.06.31-.48.21-.71.73-.71,1.56,0,.42.11,1.06.34,1.92h-.63l-2.94-8.55h.63c.5,1.15,1,1.85,1.49,2.09.49.24,1.55.36,3.17.36h41.07c1.62,0,2.79-.12,3.5-.36.72-.24,1.24-.94,1.58-2.09h.63Z"/>
  <path d="M227.49,608.26v-.82h38.91v9.75h-.63c-.84-3.62-1.55-5.75-2.12-6.39-.57-.64-1.98-.96-4.22-.96h-20.42v31.73h18.95c1.88,0,3.07-.2,3.57-.6.51-.4.77-.98.8-1.75h.63v6.68h-.63c-.14-.93-.47-1.55-.99-1.87-.52-.32-1.48-.48-2.88-.48h-19.46v21.84c0,3.3.27,5.67.8,7.13.53,1.46,1.38,2.37,2.54,2.74,1.16.37,2.91.55,5.26.55h10.91c3.47,0,5.68-.14,6.65-.4.97-.27,1.78-.81,2.45-1.62.67-.81,1.19-2.58,1.55-5.32h.63v9.7h-42.32v-.72c1.43-.1,2.51-.41,3.25-.94.74-.53,1.12-1.89,1.12-4.1v-57.09c0-2.59-.2-4.41-.59-5.47-.39-1.05-1.65-1.58-3.78-1.58"/>
  <path d="M274.14,608.17v-.72h17.57c4.45,0,7.68.11,9.67.34,1.99.23,4.03.97,6.11,2.23,2.08,1.27,3.66,2.98,4.73,5.14,1.06,2.16,1.6,4.81,1.6,7.95,0,3.59-.95,7.01-2.84,10.26-1.89,3.25-4.56,6-8,8.24l4.37,7.68c.95,1.92,3.48,6.13,7.59,12.62,4.1,6.49,7.27,10.45,9.52,11.87,2.24,1.42,4.41,2.14,6.51,2.14s4.45-.91,7.15-2.74l.25.96c-3.36,3.14-7.73,4.71-13.1,4.71-3.58,0-6.66-1.21-9.24-3.63-2.58-2.42-7.06-9.07-13.44-19.95-.06-.06-.08-.13-.08-.19l-6.22-10.94-5.52.19h-5.01v27.04c0,2.17.25,3.73.75,4.67.5.95,1.71,1.42,3.62,1.42v.72h-15.97v-.72c1.99-.1,3.23-.58,3.72-1.44.49-.86.74-2.62.74-5.28v-56.18c0-1.82-.21-3.34-.63-4.53-.42-1.2-1.7-1.82-3.82-1.85M285.74,609.32v33.18h6.48c5.11,0,8.9-1.38,11.37-4.13,2.47-2.75,3.71-6.37,3.71-10.85s-1.21-8.47-3.64-12.36c-2.43-3.89-6.7-5.83-12.82-5.83h-5.09Z"/>
  <path d="M389.79,607.45h11.98v.72c-1.82.06-3.08.5-3.78,1.32-.7.82-1.05,2.54-1.05,5.16v64.38l-49.38-60.07v52.29c0,1.66.11,2.9.34,3.7.22.8.55,1.34.97,1.63.42.29,1.47.58,3.15.86v.72h-11.89v-.72c2.13,0,3.45-.43,3.97-1.3.51-.86.78-2.93.78-6.19v-47.83c0-4.19-.51-7.61-1.54-10.27-1.02-2.65-3.38-3.88-7.08-3.69v-.72h11.64l46.39,56.44v-49.91c0-2.69-.42-4.33-1.26-4.92-.84-.59-1.92-.89-3.24-.89v-.72Z"/>
  <path d="M438.59,645.61h-18.17l-9.37,26.69c-.65,1.92-.97,3.1-.97,3.55,0,1.06.69,1.59,2.06,1.59v.72h-9.2v-.72c1.23,0,2.27-.35,3.11-1.03.84-.69,1.76-2.47,2.77-5.36l22.43-64.66h1.12l22.07,62.45c0,.32.57,1.83,1.7,4.54,1.13,2.71,2.86,4.06,5.18,4.06v.72h-14.45v-.72c1.32,0,1.97-.59,1.97-1.78,0-.8-.32-2.08-.97-3.84-.11-.13-.21-.34-.29-.63-.05-.32-.1-.48-.13-.48l-8.85-25.11ZM421.02,643.64h16.74l-8.36-24.1-8.38,24.1Z"/>
  <path d="M506.24,605l-2.94,8.55h-.63c.11-.51.17-1.2.17-2.06,0-.74-.23-1.21-.69-1.42s-1.19-.31-2.2-.31h-16.14v60.5c0,2.5.17,4.2.53,5.11.35.91.82,1.49,1.43,1.73.6.24,1.58.36,2.92.36v.72h-16.77v-.72c2.1-.16,3.42-.62,3.95-1.39.53-.77.8-2.37.8-4.8v-61.5h-15.47c-1.57,0-2.59.11-3.06.31-.48.21-.71.73-.71,1.56,0,.42.11,1.06.34,1.92h-.63l-2.94-8.55h.63c.5,1.15,1,1.85,1.49,2.09.49.24,1.55.36,3.17.36h41.07c1.62,0,2.79-.12,3.5-.36.72-.24,1.24-.94,1.58-2.09h.63Z"/>
  <path d="M525.61,607.45v.72c-.81-.1-1.72.05-2.71.43-.99.38-1.58.94-1.77,1.68-.18.74-.27,2.48-.27,5.23v54.26c0,2.94.1,4.74.32,5.4.21.66.62,1.2,1.22,1.63.6.43,1.67.65,3.22.65v.72h-16.52v-.72c2.07,0,3.36-.46,3.86-1.37.51-.91.76-2.98.76-6.21v-53.73c0-3.36-.28-5.56-.84-6.6-.56-1.04-1.82-1.5-3.78-1.37v-.72h16.52Z"/>
  <path d="M566.04,606.39c8.68,0,15.79,3.02,21.31,9.05,5.52,6.03,8.28,13.56,8.28,22.59,0,11.62-3.2,21.4-9.58,29.34-6.39,7.94-14.86,11.91-25.42,11.91-8.57,0-15.59-3.2-21.06-9.6-5.46-6.4-8.19-14.08-8.19-23.04,0-6.05,1.31-12.26,3.95-18.62,2.63-6.37,6.6-11.56,11.9-15.58,5.29-4.02,11.57-6.02,18.82-6.02M565.79,675.52c4.26,0,8.46-1.31,12.61-3.91,4.15-2.61,7.41-6.2,9.79-10.78,2.38-4.58,3.57-9.28,3.57-14.11,0-6.85-1.6-13.07-4.81-18.67-3.21-5.6-7.37-9.99-12.48-13.16-5.12-3.17-9.84-4.75-14.18-4.75-6.14,0-11.71,2.64-16.71,7.92-5,5.28-7.5,11.84-7.5,19.68,0,10.02,3.05,18.82,9.16,26.41,6.11,7.58,12.96,11.38,20.55,11.38"/>
  <path d="M652.61,607.45h11.98v.72c-1.82.06-3.08.5-3.78,1.32-.7.82-1.05,2.54-1.05,5.16v64.38l-49.38-60.07v52.29c0,1.66.11,2.9.34,3.7.22.8.55,1.34.97,1.63.42.29,1.47.58,3.15.86v.72h-11.89v-.72c2.13,0,3.45-.43,3.97-1.3.51-.86.78-2.93.78-6.19v-47.83c0-4.19-.51-7.61-1.54-10.27-1.02-2.65-3.38-3.88-7.08-3.69v-.72h11.64l46.39,56.44v-49.91c0-2.69-.42-4.33-1.26-4.92-.84-.59-1.92-.89-3.24-.89v-.72Z"/>
  <path d="M701.41,645.61h-18.17l-9.37,26.69c-.65,1.92-.97,3.1-.97,3.55,0,1.06.69,1.59,2.06,1.59v.72h-9.2v-.72c1.23,0,2.27-.35,3.11-1.03.84-.69,1.76-2.47,2.77-5.36l22.43-64.66h1.12l22.07,62.45c0,.32.57,1.83,1.7,4.54,1.13,2.71,2.86,4.06,5.18,4.06v.72h-14.45v-.72c1.32,0,1.97-.59,1.97-1.78,0-.8-.32-2.08-.97-3.84-.11-.13-.21-.34-.29-.63-.05-.32-.1-.48-.13-.48l-8.85-25.11ZM683.84,643.64h16.74l-8.36-24.1-8.38,24.1Z"/>
  <path d="M725.6,678.16v-.72c1.93,0,3.19-.42,3.76-1.25.58-.83.86-2.26.86-4.27v-57.86c0-2.04-.23-3.53-.67-4.44-.45-.91-1.79-1.4-4.03-1.46v-.72h16.6v.72c-1.54,0-2.62.22-3.24.67-.62.45-1.02.98-1.22,1.58-.2.61-.29,1.99-.29,4.13v49.64c0,4.26.89,7.26,2.68,9,1.79,1.75,4.85,2.62,9.19,2.62h7.56c3.63,0,6.3-1.02,7.99-3.07,1.69-2.05,2.64-5.91,2.83-11.57h.63v16.99h-42.66Z"/>
  <path d="M426,56.73c-93.61,0-169.49,74.92-169.49,167.34s75.88,167.34,169.49,167.34,169.49-74.92,169.49-167.34-75.88-167.34-169.49-167.34M493.2,364.47c-7.08,4.01-14.5,7.42-22.2,10.14v-120.38h22.2v110.24ZM493.2,245.56h-22.2V73.54c7.7,2.72,15.12,6.12,22.2,10.14v161.89ZM387.43,254.23v122.47c-7.36-2.19-14.48-5-21.33-8.36v-132.77h86.12v10h-64.79v8.67ZM452.22,68.4v156.13h-86.12V79.81c6.85-3.36,13.97-6.17,21.33-8.36v142.51h9.45V68.97c9.41-2.08,19.14-3.17,29.12-3.17,8.96,0,17.71.93,26.22,2.61M280.38,224.07c0-55.9,26.68-104.99,66.94-133.15v266.31c-40.25-28.16-66.94-77.25-66.94-133.15M396.88,379.18v-124.95h55.34v125.51c-8.51,1.68-17.26,2.61-26.22,2.61-9.97,0-19.71-1.1-29.12-3.17M502.66,358.63V89.51c41.38,27.91,68.95,77.73,68.95,134.56s-27.57,106.64-68.95,134.56"/>
</svg>