<?xml version="1.0" encoding="UTF-8"?>
<svg xmlns="http://www.w3.org/2000/svg" xmlns:xlink="http://www.w3.org/1999/xlink" version="1.1" viewBox="0 0 400 285.78">
  <defs>
    <style>
      .cls-1 {
        fill: url(#linear-gradient-8);
      }

      .cls-2 {
        fill: url(#linear-gradient-7);
      }

      .cls-3 {
        fill: url(#linear-gradient-5);
      }

      .cls-4 {
        fill: url(#linear-gradient-6);
      }

      .cls-5 {
        fill: url(#linear-gradient-9);
      }

      .cls-6 {
        fill: url(#linear-gradient-4);
      }

      .cls-7 {
        fill: url(#linear-gradient-3);
      }

      .cls-8 {
        fill: url(#linear-gradient-2);
      }

      .cls-9 {
        fill: url(#linear-gradient);
      }

      .cls-10 {
        fill: url(#linear-gradient-10);
      }

      .cls-11 {
        fill: url(#linear-gradient-11);
      }

      .cls-12 {
        fill: url(#linear-gradient-12);
      }
    </style>
    <linearGradient id="linear-gradient" x1="113.49" y1="-14.47" x2="401.31" y2="258.85" gradientUnits="userSpaceOnUse">
      <stop offset="0" stop-color="#d5b664"/>
      <stop offset=".26" stop-color="#9b8149"/>
      <stop offset=".38" stop-color="#c1a562"/>
      <stop offset=".5" stop-color="#eed081"/>
      <stop offset=".54" stop-color="#e1c47a"/>
      <stop offset=".63" stop-color="#c5a96c"/>
      <stop offset=".72" stop-color="#b49964"/>
      <stop offset=".78" stop-color="#ae9461"/>
      <stop offset=".79" stop-color="#b39862"/>
      <stop offset=".84" stop-color="#cbaf67"/>
      <stop offset=".89" stop-color="#ddbf6b"/>
      <stop offset=".94" stop-color="#e7c86d"/>
      <stop offset="1" stop-color="#ebcc6e"/>
    </linearGradient>
    <linearGradient id="linear-gradient-2" x1="67.11" y1="34.37" x2="354.93" y2="307.69" xlink:href="#linear-gradient"/>
    <linearGradient id="linear-gradient-3" x1="-5.77" y1="111.12" x2="282.04" y2="384.44" xlink:href="#linear-gradient"/>
    <linearGradient id="linear-gradient-4" x1="1.97" y1="102.97" x2="289.79" y2="376.29" xlink:href="#linear-gradient"/>
    <linearGradient id="linear-gradient-5" x1="13.37" y1="90.96" x2="301.18" y2="364.29" xlink:href="#linear-gradient"/>
    <linearGradient id="linear-gradient-6" x1="23.3" y1="80.51" x2="311.11" y2="353.83" xlink:href="#linear-gradient"/>
    <linearGradient id="linear-gradient-7" x1="31.82" y1="71.54" x2="319.63" y2="344.86" xlink:href="#linear-gradient"/>
    <linearGradient id="linear-gradient-8" x1="38.79" y1="64.2" x2="326.6" y2="337.52" xlink:href="#linear-gradient"/>
    <linearGradient id="linear-gradient-9" x1="49.86" y1="52.54" x2="337.67" y2="325.86" xlink:href="#linear-gradient"/>
    <linearGradient id="linear-gradient-10" x1="54.65" y1="47.49" x2="342.47" y2="320.81" xlink:href="#linear-gradient"/>
    <linearGradient id="linear-gradient-11" x1="60.75" y1="41.07" x2="348.57" y2="314.39" xlink:href="#linear-gradient"/>
    <linearGradient id="linear-gradient-12" x1="67.88" y1="33.56" x2="355.7" y2="306.88" xlink:href="#linear-gradient"/>
  </defs>
  <!-- Generator: Adobe Illustrator 28.6.0, SVG Export Plug-In . SVG Version: 1.2.0 Build 709)  -->
  <g>
    <g id="Layer_1">
      <g>
        <path class="cls-9" d="M261.89,46.54l-.27-2.38s-17.37-3.17-18.07-3.3c-8.81-4.74-21.25-6.01-39.13-3.94,0,0-7.08.33-15.18,2.65l-11.94-4.36,5.29,6.66c-10.02,3.52-20.65-4.2-20.65-4.2,0,0-1.12,8.91,3.58,14.83-9.34,3.63-15.28,11.62-15.32,20.01,0,.04,4.75-3.72,10.46-3.6-12.04,7.12-13.53,24.9-13.53,24.9,0,0,8.55-7.33,18.23-9.23-7.14,8.22-8.36,24.27-8.36,24.27,0,0,7.33-8.98,13.68-10.85-3.39,7.14-1.51,17.54-1.51,17.54,0,0,10.24-16.14,35.02-16.62,15.35-.29,26.47,2.04,36.13,8.94,1.06.76,2.44.88,3.59.32,1.61-.78,3.44-1.65,4.45-20.85l.19-3.56s-10.67.52-15.43.75c1.79-5.97,6.24-20.87,6.25-20.88,1.37-.38,6.26,1.31,10.89,4.22l3.07,1.94s3.27-6.89,3.36-7.08c4.52-7.81,5.2-12.98,5.25-15.11.01-.58-.02-.94-.04-1.06ZM234.1,51.7l-13.96-5.16,16.94,1.64-2.98,3.53Z"/>
        <path class="cls-8" d="M34.51,140.26h25.29v61.95h18.89s-1.74-11.36-1.81-11.77v-50.18h26.09v-14.81H34.51v14.81ZM137.75,125.45h-19.33s2.17,13.09,2.25,13.53v63.22h18.9s-1.75-11.36-1.81-11.77v-64.99ZM196.19,138.79c6.84,0,12.99,2.49,18.27,7.4l2.28,2.12,9.78-12.55-2.15-1.77c-7.98-6.55-17.51-9.88-28.32-9.88-23.29,0-40.85,17.79-40.85,41.39,0,25.25,20.08,38.46,39.92,38.46,15.8,0,28.08-3.99,28.6-4.16l1.97-.65-.16-38.1h-19.48s2.78,11.11,2.94,11.76c0,.63-.09,12.88-.11,15.48-2.79.5-7.69,1.26-11.61,1.26-11.88,0-24.18-9.39-24.18-25.11,0-12.39,9.28-25.65,23.1-25.65M262.89,170.24h21.87l4.59-14.68h-26.45v-15.43h28.77v-14.68h-48.1s2.17,13.09,2.25,13.53v63.22h43.89l4.6-14.67h-31.41v-17.31ZM349.05,171.15c8.07-4.96,13.13-12.95,13.13-21.16,0-16.94-14.68-24.53-29.22-24.53h-26.12s2.18,13.09,2.25,13.53v63.22h18.9s-1.76-11.35-1.82-11.77v-14.23c2.36-.03,4.45-.06,5.84-.07,1.6,1.97,21.12,26.07,21.12,26.07h22.4s-22.74-26.67-26.49-31.06M330.81,161.58h-4.63v-21.45h4.63c6.28,0,13.61,2.58,13.61,9.85,0,6.29-6.23,11.6-13.61,11.6"/>
        <path class="cls-7" d="M123.85,250.28v-22.31h7.06c2.13,0,3.82.57,5.09,1.72,1.27,1.15,1.9,2.69,1.9,4.63,0,1.3-.32,2.44-.97,3.44-.65,1-1.53,1.73-2.66,2.18-1.13.45-2.74.68-4.85.68h-2.36v9.67h-3.21ZM130.36,230.81h-3.3v6.97h3.49c1.3,0,2.3-.31,3-.92.7-.61,1.05-1.49,1.05-2.62,0-2.29-1.41-3.43-4.24-3.43"/>
        <path class="cls-6" d="M140.77,250.28v-22.28h5.58c2.25,0,4.04.56,5.36,1.68,1.32,1.12,1.99,2.63,1.99,4.53,0,1.3-.32,2.42-.97,3.36-.65.95-1.58,1.65-2.79,2.12.71.47,1.41,1.11,2.09,1.91s1.64,2.22,2.87,4.23c.78,1.26,1.4,2.22,1.87,2.85l1.18,1.6h-3.79l-.97-1.47c-.03-.05-.1-.14-.19-.27l-.62-.88-.99-1.63-1.07-1.74c-.66-.92-1.26-1.64-1.81-2.18-.55-.54-1.04-.93-1.48-1.17-.44-.24-1.18-.36-2.23-.36h-.83v9.7h-3.19ZM144.92,230.71h-.96v7.03h1.21c1.62,0,2.72-.14,3.32-.42.6-.28,1.07-.69,1.41-1.25.33-.56.5-1.19.5-1.91s-.19-1.34-.56-1.91c-.37-.57-.9-.97-1.57-1.2-.68-.23-1.79-.35-3.36-.35"/>
        <path class="cls-3" d="M169.37,227.68c3.44,0,6.31,1.09,8.6,3.27,2.29,2.18,3.44,4.91,3.44,8.2s-1.16,6.01-3.47,8.16c-2.31,2.15-5.23,3.23-8.74,3.23s-6.15-1.08-8.39-3.23c-2.24-2.15-3.36-4.85-3.36-8.09s1.13-6.08,3.38-8.26c2.25-2.18,5.1-3.27,8.54-3.27M169.5,230.71c-2.55,0-4.64.8-6.29,2.39-1.64,1.6-2.46,3.63-2.46,6.11s.82,4.4,2.47,5.99c1.64,1.6,3.71,2.39,6.18,2.39s4.56-.81,6.22-2.44c1.66-1.63,2.49-3.65,2.49-6.08s-.83-4.35-2.49-5.96c-1.66-1.61-3.71-2.42-6.13-2.42"/>
        <path class="cls-4" d="M185.16,250.28v-22.31h7.07c2.12,0,3.82.57,5.09,1.72,1.26,1.15,1.9,2.69,1.9,4.63,0,1.3-.32,2.44-.97,3.44-.65,1-1.54,1.73-2.66,2.18-1.13.45-2.74.68-4.85.68h-2.36v9.67h-3.21ZM191.66,230.81h-3.3v6.97h3.49c1.3,0,2.3-.31,3-.92.7-.61,1.05-1.49,1.05-2.62,0-2.29-1.42-3.43-4.24-3.43"/>
        <polygon class="cls-2" points="201.98 228 214.61 228 214.61 230.84 205.17 230.84 205.17 237.64 214.29 237.64 214.29 240.49 205.17 240.49 205.17 247.41 214.91 247.41 214.91 250.25 201.98 250.25 201.98 228"/>
        <path class="cls-1" d="M218.41,250.28v-22.28h5.58c2.26,0,4.04.56,5.37,1.68,1.32,1.12,1.98,2.63,1.98,4.53,0,1.3-.32,2.42-.97,3.36-.65.95-1.58,1.65-2.79,2.12.71.47,1.41,1.11,2.09,1.91.68.81,1.64,2.22,2.87,4.23.77,1.26,1.4,2.22,1.86,2.85l1.18,1.6h-3.8l-.97-1.47c-.03-.05-.1-.14-.19-.27l-.62-.88-.99-1.63-1.07-1.74c-.66-.92-1.26-1.64-1.81-2.18-.55-.54-1.04-.93-1.48-1.17-.44-.24-1.18-.36-2.23-.36h-.83v9.7h-3.19ZM222.56,230.71h-.96v7.03h1.21c1.62,0,2.73-.14,3.33-.42.6-.28,1.07-.69,1.4-1.25.33-.56.5-1.19.5-1.91s-.19-1.34-.56-1.91c-.37-.57-.9-.97-1.57-1.2-.67-.23-1.79-.35-3.36-.35"/>
        <polygon class="cls-5" points="233.21 227.97 251.82 227.97 251.82 230.81 244.06 230.81 244.06 250.28 240.85 250.28 240.85 230.81 233.21 230.81 233.21 227.97"/>
        <rect class="cls-10" x="254.87" y="228" width="3.19" height="22.28"/>
        <polygon class="cls-11" points="263 228 275.63 228 275.63 230.84 266.19 230.84 266.19 237.64 275.32 237.64 275.32 240.49 266.19 240.49 266.19 247.41 275.94 247.41 275.94 250.25 263 250.25 263 228"/>
        <path class="cls-12" d="M284.85,240.95l-2.43-1.47c-1.52-.93-2.6-1.84-3.25-2.74-.64-.9-.96-1.93-.96-3.1,0-1.75.61-3.18,1.83-4.27,1.22-1.09,2.8-1.64,4.74-1.64s3.57.52,5.12,1.57v3.62c-1.61-1.54-3.33-2.32-5.18-2.32-1.04,0-1.9.24-2.57.72-.67.48-1.01,1.1-1.01,1.85,0,.67.25,1.29.74,1.87.49.58,1.29,1.19,2.38,1.84l2.44,1.44c2.72,1.62,4.08,3.69,4.08,6.2,0,1.79-.6,3.24-1.79,4.36-1.2,1.12-2.75,1.67-4.67,1.67-2.2,0-4.21-.68-6.01-2.03v-4.05c1.72,2.18,3.72,3.28,5.98,3.28,1,0,1.83-.28,2.5-.84.66-.56,1-1.25,1-2.09,0-1.36-.98-2.64-2.93-3.86"/>
      </g>
    </g>
  </g>
</svg>