<?xml version="1.0" encoding="UTF-8"?>
<svg xmlns="http://www.w3.org/2000/svg" version="1.1" viewBox="0 0 496.09 639.33">
  <!-- Generator: Adobe Illustrator 28.6.0, SVG Export Plug-In . SVG Version: 1.2.0 Build 709)  -->
  <g>
    <g id="Layer_1">
      <g>
        <path d="M156.94,39.97h30.44c2.33,0,4.22-1.89,4.22-4.23s-1.89-4.23-4.22-4.23h-30.44c-2.33,0-4.22,1.89-4.22,4.23s1.89,4.23,4.22,4.23Z"/>
        <path d="M156.94,100.83h15.22c10.72,0,19.44-8.72,19.44-19.44v-5.02l23.22,23.22c.8.81,1.88,1.24,2.99,1.24.54,0,1.09-.11,1.62-.32,1.58-.65,2.6-2.2,2.6-3.91v-30.42c0-2.33-1.89-4.23-4.22-4.23s-4.22,1.9-4.22,4.23v20.23l-23.21-23.22c-.05-.05-.11-.08-.15-.12-.16-.14-.32-.28-.5-.41-.12-.07-.25-.13-.38-.2-.11-.06-.23-.13-.35-.18-.15-.07-.31-.11-.47-.15-.11-.03-.21-.07-.32-.09-.55-.12-1.11-.12-1.66,0-.12.02-.24.07-.35.1-.15.04-.29.08-.43.13-.15.06-.3.15-.45.24-.09.05-.18.09-.28.15-.47.31-.87.71-1.18,1.19-.04.06-.07.12-.1.18-.11.18-.2.35-.29.54-.04.09-.06.2-.08.29-.06.16-.12.32-.15.49-.04.17-.04.34-.05.51,0,.1-.03.2-.03.31v15.21c0,6.06-4.93,10.99-10.99,10.99h-10.99v-26.21c0-2.33-1.89-4.23-4.23-4.23s-4.22,1.9-4.22,4.23v30.43c0,2.34,1.89,4.23,4.22,4.23Z"/>
        <path d="M244,67.93v28.68c0,2.34,1.89,4.23,4.23,4.23h45.65c10.72,0,19.45-8.72,19.45-19.44s-8.73-19.45-19.45-19.45c-4.07,0-7.86,1.27-10.98,3.42v-25.39h41.41c6.06,0,10.98,4.93,10.98,10.99v45.64c0,2.34,1.9,4.23,4.23,4.23s4.23-1.89,4.23-4.23v-45.64c0-10.72-8.72-19.45-19.44-19.45h-45.65c-2.34,0-4.23,1.89-4.23,4.23v56.64h-21.98v-26.21c0-1.12-.45-2.2-1.24-2.99l-23.22-23.22h20.23c2.34,0,4.23-1.89,4.23-4.23s-1.89-4.23-4.23-4.23h-30.43c-1.71,0-3.25,1.03-3.9,2.61-.66,1.58-.3,3.39.92,4.61l29.19,29.19ZM282.9,81.39c0-6.06,4.93-10.99,10.98-10.99s10.99,4.93,10.99,10.99-4.92,10.99-10.99,10.99h-10.98v-10.99Z"/>
        <path d="M211.04,222.55h30.43c2.34,0,4.23-1.89,4.23-4.22s-1.89-4.23-4.23-4.23h-30.43c-2.33,0-4.22,1.89-4.22,4.23s1.89,4.22,4.22,4.22Z"/>
        <path d="M156.94,290.17c2.34,0,4.23-1.89,4.23-4.23v-30.43c0-2.33-1.89-4.23-4.23-4.23s-4.22,1.9-4.22,4.23v30.43c0,2.33,1.89,4.23,4.22,4.23Z"/>
        <path d="M156.94,405.14c2.34,0,4.23-1.9,4.23-4.23v-30.43c0-2.34-1.89-4.23-4.23-4.23s-4.22,1.89-4.22,4.23v30.43c0,2.33,1.89,4.23,4.22,4.23Z"/>
        <path d="M309.1,405.14c2.33,0,4.22-1.9,4.22-4.23v-28.68l29.2-29.2c1.65-1.65,1.65-4.33,0-5.98-1.65-1.64-4.33-1.64-5.98,0l-30.43,30.44c-.8.79-1.24,1.87-1.24,2.99v30.43c0,2.33,1.9,4.23,4.23,4.23Z"/>
        <path d="M278.66,405.14c2.34,0,4.23-1.9,4.23-4.23v-15.22c0-10.72-8.72-19.44-19.45-19.44h-15.21c-2.33,0-4.23,1.89-4.23,4.22s1.89,4.23,4.23,4.23h15.21c6.07,0,10.99,4.93,10.99,10.99v15.22c0,2.33,1.89,4.23,4.23,4.23Z"/>
        <path d="M339.52,466c.55,0,1.1-.1,1.62-.32,1.58-.66,2.61-2.2,2.61-3.91v-91.28c0-2.34-1.9-4.23-4.23-4.23s-4.22,1.89-4.22,4.23v81.08l-23.22-23.2c-1.21-1.21-3.02-1.57-4.61-.92-1.58.66-2.6,2.2-2.6,3.9v20.22l-23.22-23.2c-1.2-1.21-3.02-1.57-4.61-.92-1.58.66-2.61,2.2-2.61,3.9v26.21h-10.99c-6.06,0-10.99-4.93-10.99-10.99v-45.65c0-2.33-1.89-4.23-4.23-4.23s-4.23,1.9-4.23,4.23v45.65c0,10.72,8.72,19.44,19.45,19.44h15.21c2.34,0,4.23-1.89,4.23-4.23v-20.22l23.22,23.21c1.21,1.21,3.02,1.58,4.6.92,1.58-.66,2.62-2.2,2.62-3.91v-20.22l23.21,23.21c.8.81,1.88,1.24,2.99,1.24Z"/>
        <path d="M154.6,465.29c.1.06.2.11.3.17.14.07.28.16.42.22.14.05.28.09.41.12.12.04.25.09.38.12.28.05.55.08.83.08s.56-.03.83-.08c.14-.03.26-.07.38-.12.14-.04.28-.06.41-.12.15-.07.29-.16.44-.23.09-.05.19-.09.29-.16.23-.16.46-.34.66-.54l30.41-30.41s.01-.02.02-.02l30.41-30.42c.2-.2.38-.42.54-.65.07-.11.12-.22.17-.33.07-.13.16-.27.21-.4.06-.14.09-.3.14-.45.03-.12.07-.22.09-.34.06-.28.09-.55.09-.84v-15.21c0-10.71-8.72-19.44-19.44-19.44s-19.45,8.73-19.45,19.44,8.73,19.45,19.45,19.45h5l-21.97,21.96h-28.68c-2.33,0-4.22,1.9-4.22,4.23v30.43c0,.16.03.31.04.45,0,.13,0,.25.04.37.03.18.09.34.15.51.03.1.05.19.08.29.07.17.17.33.26.5.05.07.07.16.13.23.31.47.71.86,1.18,1.18ZM202.59,396.69c-6.06,0-10.99-4.93-10.99-11s4.93-10.99,10.99-10.99,10.98,4.93,10.98,10.99v11h-10.98ZM161.17,435.56h16l-16,16v-16Z"/>
        <path d="M309.1,222.55c2.33,0,4.22-1.89,4.22-4.22s-1.89-4.23-4.22-4.23c-10.72,0-19.44,8.72-19.44,19.44s8.72,19.44,19.44,19.44c2.33,0,4.22-1.89,4.22-4.23s-1.89-4.22-4.22-4.22c-6.06,0-10.99-4.93-10.99-10.99s4.93-10.99,10.99-10.99Z"/>
        <path d="M343.75,263.97v-45.65c0-2.33-1.89-4.22-4.23-4.22s-4.23,1.89-4.23,4.22v45.65c0,6.06-4.93,10.99-10.98,10.99h-15.21c-.27,0-.55.03-.83.08-.13.02-.25.07-.36.1-.15.05-.29.08-.43.14-.15.06-.28.15-.43.22-.1.05-.21.1-.3.16-.47.31-.86.71-1.18,1.17-.06.1-.11.21-.17.31-.06.14-.15.28-.21.42-.06.15-.09.3-.14.45-.04.12-.08.22-.1.34-.11.55-.11,1.11,0,1.66.02.11.07.22.1.32.04.15.08.31.14.46.06.13.14.26.2.39.06.12.11.23.18.34.16.23.34.45.53.65l23.21,23.21h-46.43v-26.2c0-1.12-.45-2.2-1.24-2.99l-27.44-27.44,27.44-27.44c1.65-1.65,1.65-4.33,0-5.98-1.64-1.65-4.32-1.65-5.97,0l-30.44,30.43c-1.64,1.65-1.64,4.33,0,5.98l29.2,29.19v28.68c0,2.33,1.88,4.23,4.23,4.23h60.86c1.71,0,3.26-1.02,3.9-2.6.66-1.58.3-3.4-.91-4.61l-23.21-23.22h5.01c10.72,0,19.44-8.72,19.44-19.44Z"/>
        <path d="M222.04,431.34c0-2.33-1.9-4.22-4.23-4.22s-4.23,1.89-4.23,4.22v15.22c0,6.06-4.94,10.99-10.99,10.99-2.33,0-4.22,1.89-4.22,4.22s1.89,4.23,4.22,4.23c10.72,0,19.45-8.72,19.45-19.44v-15.22Z"/>
        <path d="M343.76,127.03c0-2.33-1.9-4.23-4.23-4.23s-4.22,1.89-4.22,4.23v60.86c0,2.33,1.89,4.23,4.22,4.23s4.23-1.89,4.23-4.23v-60.86Z"/>
        <path d="M156.94,131.26c1.12,0,2.2-.44,3.01-1.25.78-.77,1.22-1.86,1.22-2.98s-.44-2.2-1.25-2.98c-1.56-1.59-4.4-1.59-5.95,0-.81.78-1.25,1.86-1.25,2.98s.44,2.2,1.25,3.01c.78.78,1.86,1.22,2.97,1.22Z"/>
        <path d="M183.03,220.18c-.34,2.32-1.41,4.45-3.09,6.11-2.06,2.05-4.82,3.15-7.71,3.13-6.07-.04-10.99-5.03-10.99-11.1,0-2.33-1.9-4.23-4.23-4.23s-4.22,1.9-4.22,4.23c0,10.7,8.69,19.48,19.38,19.56h.15c5.12,0,9.94-1.97,13.57-5.58,3.68-3.65,5.71-8.53,5.71-13.73,0-1.12-.45-2.19-1.23-2.98l-23.28-23.45h5.06c10.73,0,19.44-8.72,19.44-19.45s-8.71-19.44-19.44-19.44h-15.21c-2.34,0-4.23,1.89-4.23,4.23v30.26c-.04,1.15.38,2.3,1.23,3.15l29.09,29.3ZM161.17,161.7h10.99c6.07,0,10.99,4.92,10.99,10.98s-4.93,10.99-10.98,10.99h-11v-21.97Z"/>
        <path d="M202.59,183.67c-2.34,0-4.23,1.89-4.23,4.23s1.89,4.22,4.23,4.22c10.72,0,19.43-8.72,19.43-19.44v-5.01l23.22,23.22c.83.83,1.92,1.23,2.99,1.23s2.16-.4,2.99-1.23l30.43-30.43c.36-.36.62-.77.83-1.21.03-.05.06-.09.08-.15.09-.19.14-.4.19-.61.02-.06.04-.12.05-.18.05-.28.08-.56.08-.84v-.03c0-.27-.03-.52-.08-.78-.03-.16-.08-.32-.14-.48-.03-.1-.05-.2-.1-.3-.08-.21-.2-.42-.32-.61-.01-.04-.04-.07-.06-.11-.75-1.15-2.05-1.9-3.53-1.9h-15.21c-6.06,0-10.99-4.93-10.99-10.99v-15.21c0-2.34-1.89-4.23-4.23-4.23s-4.23,1.89-4.23,4.23v15.21c0,10.72,8.72,19.44,19.45,19.44h5.02l-20.24,20.23-26.21-26.21v-28.68c0-2.34-1.89-4.23-4.22-4.23s-4.22,1.89-4.22,4.23v20.23l-23.21-23.21c-1.66-1.65-4.33-1.65-5.98,0-1.65,1.64-1.65,4.33,0,5.98l29.2,29.19v13.46c0,6.06-4.94,10.99-10.99,10.99Z"/>
        <path d="M309.1,122.81c-2.33,0-4.23,1.89-4.23,4.23v20.23l-23.21-23.21c-1.65-1.65-4.33-1.65-5.98,0-1.65,1.64-1.65,4.33,0,5.97l29.19,29.19v13.47c0,6.06-4.93,10.99-10.99,10.99h-15.21c-2.34,0-4.22,1.89-4.22,4.23s1.88,4.23,4.22,4.23h15.21c10.72,0,19.45-8.72,19.45-19.44v-45.65c0-2.33-1.89-4.23-4.23-4.23Z"/>
        <path d="M172.16,344.27c10.64,0,19.3-8.58,19.43-19.19,0-.05.01-.08.01-.13v-41.55h10.99c10.72,0,19.43-8.72,19.43-19.43s-8.72-19.44-19.43-19.44-19.44,8.72-19.44,19.44v15.21h0v26.21h-26.21c-2.33,0-4.22,1.89-4.22,4.22v15.22c0,10.72,8.72,19.43,19.44,19.43ZM191.6,263.97c0-6.06,4.93-10.99,10.99-10.99s10.99,4.93,10.99,10.99-4.94,10.99-10.99,10.99h-10.99v-10.99ZM161.17,313.84h21.98v10.99c0,6.06-4.93,10.99-10.99,10.99s-10.99-4.93-10.99-10.99v-10.99Z"/>
        <path d="M233.01,335.82c-2.32,0-4.22,1.89-4.22,4.22s1.9,4.22,4.22,4.22c10.72,0,19.45-8.71,19.45-19.43v-30.43c0-2.33-1.89-4.23-4.23-4.23h-15.22c-10.72,0-19.44,8.72-19.44,19.44s8.72,19.44,19.44,19.44h10.15c-1.66,3.97-5.58,6.77-10.15,6.77ZM233.01,320.61c-6.05,0-10.98-4.93-10.98-10.99s4.93-10.99,10.98-10.99h10.99v21.98h-10.99Z"/>
        <path d="M313.32,340.05c0-2.33-1.89-4.22-4.23-4.22h-30.43c-2.34,0-4.22,1.89-4.22,4.22s1.88,4.22,4.22,4.22h30.43c2.33,0,4.23-1.88,4.23-4.22Z"/>
        <path d="M46.75,541.62c-4.95,0-9.54-1.74-12.83-4.9l-3.35,4.24c4.3,3.77,10.69,5.66,15.94,5.66,8.83,0,14.92-4.59,14.92-12.17-.06-8.71-6.33-10.32-11.64-11.4-7.52-1.49-11.64-2.68-11.64-7.04,0-4.11,3.04-6.56,8.59-6.56,3.88,0,7.35,1.32,10.39,3.34l2.92-4.47c-3.46-2.75-7.7-4-13.31-4-7.4,0-13.79,4.06-13.79,11.7,0,9.08,6.93,10.27,13.43,11.53,5.19,1.01,9.61,2.14,9.61,6.86,0,5.13-4.01,7.22-9.26,7.22Z"/>
        <polygon points="95.69 546.28 100.95 546.28 100.95 504.73 95.69 504.73 95.69 523 77.31 523 77.31 504.73 72.06 504.73 72.06 546.28 77.31 546.28 77.31 527.59 95.69 527.59 95.69 546.28"/>
        <path d="M135.78,536.72l3.34,9.56h5.55l-15.22-41.55h-4.54l-15.22,41.55h5.49l3.34-9.56h17.25ZM124.14,520.31l2.92-8.59h.18l3.04,8.83,4,11.65h-14.26l4.12-11.89Z"/>
        <path d="M181.83,546.28l-8.42-18.8c5.31-1.61,8.96-5.74,8.96-11.4,0-6.75-5.25-11.35-12-11.35h-16.95v41.55h5.25v-18.27h9.37l7.93,18.27h5.85ZM158.67,523.41v-14.08h10.74c4.54,0,7.7,2.09,7.7,6.75s-3.41,7.34-7.93,7.34h-10.51Z"/>
        <path d="M207.73,532.97c0,7.16-3.64,8.71-7.64,8.71-2.27,0-5.2-1.79-6.63-3.22l-3.46,3.88c2.27,2.58,6.09,4.29,10.27,4.29,7.04,0,12.71-3.46,12.71-13.61v-28.29h-5.25v28.24Z"/>
        <path d="M250.68,546.28h5.55l-15.22-41.55h-4.54l-15.22,41.55h5.49l3.34-9.56h17.24l3.35,9.56ZM231.58,532.2l4.12-11.89,2.92-8.59h.18l3.05,8.83,4,11.65h-14.27Z"/>
        <polygon points="288.61 546.28 293.86 546.28 293.86 504.73 288.61 504.73 288.61 523 270.23 523 270.23 504.73 264.98 504.73 264.98 546.28 270.23 546.28 270.23 527.59 288.61 527.59 288.61 546.28"/>
        <path d="M339.52,528.79h8.78v3.28c0,5.2-4.06,9.92-9.49,9.92-6.44,0-9.61-5.33-9.61-10.81v-11.17c0-5.31,2.75-10.51,9.19-10.51,4.24,0,7.4,2.4,8.78,5.92l4.9-2.21c-2.15-5.31-6.93-8.78-13.61-8.78-9.92,0-14.44,7.22-14.44,15.35v11.45c0,8.3,4.65,15.46,14.74,15.46,8.71,0,14.8-6.14,14.8-14.62v-8.05h-14.03v4.77Z"/>
        <path d="M393.04,519.78c0-8.83-5.67-15.35-14.81-15.35-9.91,0-14.74,7.22-14.74,15.35v11.47c0,8.29,4.83,15.4,14.74,15.4,9.01,0,14.81-5.97,14.81-15.4v-11.47ZM387.78,530.93c0,6.15-3.64,10.81-9.48,10.81-6.45,0-9.62-5.31-9.62-10.81v-11.04c0-5.31,3.16-10.51,9.62-10.51,5.91,0,9.48,4.72,9.48,10.51v11.04Z"/>
        <path d="M418.88,525.8c-1.08,3.82-2.33,7.65-3.4,11.46l-.3.05-3.52-11.39-6.62-21.19h-5.74l13.8,41.54h4.3l13.79-41.54h-5.79l-6.51,21.06Z"/>
        <polygon points="436.19 504.74 436.19 509.33 448.01 509.33 448.01 546.28 453.27 546.28 453.27 509.33 465.08 509.33 465.08 504.74 436.19 504.74"/>
        <polygon points="54.45 586.11 50.33 595.73 50.15 595.73 46.03 586.06 37.26 566.66 32.01 566.66 32.01 608.2 37.26 608.2 37.26 578.71 37.43 578.59 40.54 586.06 47.83 602.06 52.42 602.06 59.58 586.54 62.81 578.71 62.98 578.59 62.98 608.2 68.24 608.2 68.24 566.66 63.11 566.66 54.45 586.11"/>
        <polygon points="81.25 608.2 107.51 608.2 107.51 603.37 86.5 603.37 86.5 589.52 104.41 589.52 104.41 584.93 86.5 584.93 86.5 571.5 107.51 571.5 107.51 566.66 81.25 566.66 81.25 608.2"/>
        <path d="M131.87,566.66h-13.61v41.54h12.59c6.69,0,12.54-1.97,15.28-8.24,1.37-3.21,1.5-7.46,1.5-13.25,0-5.13-.12-9.31-1.61-12.36-2.62-5.43-7.94-7.7-14.15-7.7ZM142.38,591.56c0,7.16-2.87,11.81-10.75,11.81h-8.12v-31.87h8.12c6.33,0,10.75,2.98,10.75,12.11v7.95Z"/>
        <rect x="159.74" y="566.66" width="5.25" height="41.54"/>
        <path d="M189.76,566.66l-15.22,41.54h5.49l3.34-9.55h17.25l3.34,9.55h5.55l-15.22-41.54h-4.54ZM199.14,594.12h-14.26l4.12-11.88,2.92-8.6h.18l3.04,8.83,4,11.64Z"/>
        <path d="M258.65,586.77v-.17c4.54-1.62,6.27-5.79,6.27-9.08,0-6.38-4.18-10.87-12.23-10.87h-15.7v41.55h17.44c6.15,0,11.45-4.47,11.45-11.52,0-4.13-2.39-8.78-7.22-9.92ZM242.23,571.26h9.79c5.07,0,7.64,2.98,7.64,6.68s-2.57,6.75-7.64,6.75h-9.79v-13.43ZM252.92,603.37h-10.68v-14.15h10.68c5.25,0,7.7,3.34,7.7,7.04s-2.45,7.1-7.7,7.1Z"/>
        <path d="M300.73,592.74c0,6.93-3.64,10.81-9.49,10.81-6.45,0-9.61-5.31-9.61-10.81v-26.08h-5.2v26.5c0,8.29,4.84,15.4,14.74,15.4,9.02,0,14.81-5.97,14.81-15.4v-26.5h-5.25v26.08Z"/>
        <path d="M347.7,578c0-6.75-5.25-11.35-12-11.35h-16.95v41.55h5.25v-18.26h9.37l7.94,18.26h5.85l-8.41-18.8c5.31-1.61,8.95-5.73,8.95-11.4ZM334.51,585.34h-10.5v-14.08h10.74c4.54,0,7.7,2.09,7.7,6.75s-3.4,7.34-7.94,7.34Z"/>
        <polygon points="359.05 608.2 385.31 608.2 385.31 603.37 364.3 603.37 364.3 589.52 382.21 589.52 382.21 584.93 364.3 584.93 364.3 571.5 385.31 571.5 385.31 566.66 359.05 566.66 359.05 608.2"/>
        <path d="M407.09,566.66l-15.22,41.54h5.49l3.34-9.54h17.26l3.34,9.54h5.55l-15.22-41.54h-4.54ZM416.46,594.12h-14.27l4.12-11.88,2.93-8.6h.18l3.05,8.83,3.99,11.64Z"/>
        <path d="M459.8,592.74c0,6.93-3.65,10.81-9.49,10.81-6.45,0-9.61-5.31-9.61-10.81v-26.08h-5.2v26.5c0,8.29,4.84,15.4,14.74,15.4,9.01,0,14.8-5.97,14.8-15.4v-26.5h-5.25v26.08Z"/>
      </g>
    </g>
  </g>
</svg>