<?xml version="1.0" encoding="UTF-8"?>
<svg xmlns="http://www.w3.org/2000/svg" version="1.1" viewBox="0 0 544 267.84">
  <defs>
    <style>
      .cls-1 {
        stroke: #0054a4;
        stroke-width: 2.01px;
      }

      .cls-1, .cls-2 {
        fill: #0054a4;
      }

      .cls-3 {
        fill: #fdb913;
      }
    </style>
  </defs>
  <!-- Generator: Adobe Illustrator 28.6.0, SVG Export Plug-In . SVG Version: 1.2.0 Build 709)  -->
  <g>
    <g id="Layer_1">
      <g>
        <g>
          <path class="cls-2" d="M56.48,125.51h-26.51v26.51h26.51v-26.51ZM56.48,171.9h-26.51v26.5h26.51v-26.5ZM56.48,218.29h-26.51v26.5h26.51v-26.5ZM96.23,79.13h-26.5v26.48h26.5v-26.48ZM96.23,125.51h-26.5v26.51h26.5v-26.51ZM96.23,198.4v-26.5h-26.5v26.5"/>
          <rect class="cls-3" x="30.06" y="32.61" width="26.49" height="26.48"/>
          <rect class="cls-3" x="69.8" y="32.61" width="26.5" height="26.48"/>
          <rect class="cls-3" x="29.98" y="79.13" width="26.51" height="26.48"/>
          <path class="cls-3" d="M96.23,79.13s-18.29,13.46-26.5,26.48v-26.48h26.5Z"/>
        </g>
        <g>
          <path class="cls-2" d="M351.19,247.89h-2.61c-3.13,0-5.13-.92-5.97-2.81-.92,1.88-2.88,2.81-5.89,2.81-5.09,0-7.65-3.05-7.65-9.18s2.56-8.9,7.65-8.9h8.13v10.7c0,2.73,1.32,4.09,3.93,4.09h2.4v3.29ZM341.05,232.9h-4.09c-1.56,0-2.68.52-3.29,1.56-.52.84-.8,2.28-.8,4.25s.28,3.41.8,4.29c.6,1.08,1.72,1.6,3.29,1.6s2.68-.52,3.29-1.6c.52-.88.8-2.32.8-4.29v-5.81ZM337.56,224.17c0,1.12-.96,2.08-2.12,2.08s-2.08-.96-2.08-2.08.96-2.04,2.08-2.04,2.12.92,2.12,2.04ZM342.93,224.17c0,1.12-.96,2.08-2.08,2.08s-2.04-.96-2.04-2.08.92-2.04,2.04-2.04,2.08.92,2.08,2.04Z"/>
          <path class="cls-2" d="M357.64,247.89h-7.41v-3.37h7.41v3.37Z"/>
          <path class="cls-2" d="M364.1,247.89h-7.41v-3.37h7.41v3.37Z"/>
          <path class="cls-2" d="M370.55,247.89h-7.41v-3.37h7.41v3.37Z"/>
          <path class="cls-2" d="M380.21,240.8c0,2.04-.68,3.77-2.04,5.09-1.36,1.32-3.21,2-5.49,2h-3.09v-3.29h2.89c2.65,0,3.97-1.36,3.97-4.09v-9.58l3.77-1.12v10.98ZM373.96,253.5c0,1.12-.96,2.08-2.04,2.08s-2.08-.96-2.08-2.08.96-2.04,2.08-2.04,2.04.92,2.04,2.04ZM379.37,253.5c0,1.12-.92,2.08-2.04,2.08s-2.12-.96-2.12-2.08.96-2.04,2.12-2.04,2.04.92,2.04,2.04Z"/>
          <path class="cls-2" d="M395.8,246.69c0,2.68-.8,4.81-2.44,6.45-1.6,1.64-3.81,2.44-6.57,2.44-1.72,0-3.13-.36-4.29-1.08l-1.8-3.77c1.8,1,3.81,1.52,6.09,1.52,3.25,0,5.21-2.08,5.21-5.45v-15.87l3.81-1.12v16.87Z"/>
          <path class="cls-2" d="M408.78,247.89h-4.25c-3.41,0-5.29-2.08-5.29-5.17v-19.47l3.81-1.2v20.56c0,1.28.64,1.92,1.96,1.92h3.77v3.37Z"/>
          <path class="cls-2" d="M415.2,247.89h-7.41v-3.37h7.41v3.37Z"/>
          <path class="cls-2" d="M421.65,247.89h-7.41v-3.37h7.41v3.37Z"/>
          <path class="cls-2" d="M428.1,247.89h-7.41v-3.37h7.41v3.37Z"/>
          <path class="cls-2" d="M434.56,247.89h-7.41v-3.37h7.41v3.37Z"/>
          <path class="cls-2" d="M441.01,247.89h-7.41v-3.37h7.41v3.37Z"/>
          <path class="cls-2" d="M447.46,247.89h-7.41v-3.37h7.41v3.37Z"/>
          <path class="cls-2" d="M468.78,247.89h-8.7c-.76,0-1.56-.08-2.36-.24-.76.16-1.52.24-2.36.24h-8.86v-3.29h5.89c-1.64-1.8-2.44-3.73-2.48-5.69-.08-2.52.44-4.61,1.56-6.21,1.4-1.92,3.49-2.89,6.25-2.89s4.89.96,6.25,2.89c1.12,1.6,1.68,3.69,1.64,6.21-.08,1.96-.92,3.89-2.56,5.69h5.73v3.29ZM457,224.17c0,1.12-.96,2.08-2.12,2.08s-2.08-.96-2.08-2.08.96-2.04,2.08-2.04,2.12.92,2.12,2.04ZM457.72,233.18c-2.61,0-4.17,2.2-4.17,4.93,0,1.4.32,2.68,1,3.85.8,1.32,1.84,2.24,3.17,2.68,1.36-.44,2.4-1.36,3.16-2.68.68-1.16,1.04-2.44,1.04-3.85,0-2.73-1.48-4.93-4.21-4.93ZM462.37,224.17c0,1.12-.96,2.08-2.08,2.08s-2.08-.96-2.08-2.08.96-2.04,2.08-2.04,2.08.92,2.08,2.04Z"/>
          <path class="cls-2" d="M489.98,247.89h-22.2v-3.37h4.57v-6.85c0-2.24.72-4.13,2.12-5.61,1.44-1.48,3.45-2.24,5.97-2.24,2.16,0,4.05.8,5.65,2.36l-2.81,2.56c-.96-1.16-2.04-1.72-3.29-1.72-2.28,0-3.85,1.72-3.85,4.01v7.49h13.82v3.37Z"/>
          <path class="cls-2" d="M499.12,240.8c0,2.04-.68,3.73-2.04,5.09-1.36,1.32-3.21,2-5.49,2h-2.56v-3.37h2.36c2.61,0,3.93-1.36,3.93-4.09v-17.19l3.81-1.12v18.67Z"/>
          <path class="cls-2" d="M506.38,247.89h-3.81v-24.64l3.81-1.2v25.85Z"/>
        </g>
        <g>
          <g>
            <path class="cls-1" d="M326.22,200.11h-14.79c-11.86,0-18.42-7.26-18.42-18v-67.83l13.26-4.19v71.59c0,4.47,2.23,6.7,6.84,6.7h13.12v11.72Z"/>
            <path class="cls-1" d="M348.55,200.11h-25.82v-11.72h25.82v11.72Z"/>
            <path class="cls-1" d="M371.01,200.11h-25.82v-11.72h25.82v11.72Z"/>
            <path class="cls-1" d="M479.45,176.1c0,14.38-10.19,24-26.24,24h-85.27v-11.72h16.47v-35.31l13.26-3.77v39.36h27.35v-41.59l13.26-3.91v45.22h14.24c9.07,0,13.68-4.61,13.68-13.68v-33.77l13.26-4.05v39.22Z"/>
            <path class="cls-1" d="M509.59,104.79h-23.03l2.93-4.74h3.91v-2.79c0-6.42,2.93-9.63,8.93-9.63,2.37,0,4.47.98,6.42,2.93l-3.07,3.91c-.98-1.4-2.23-2.09-3.77-2.09-2.23,0-3.35,1.67-3.35,4.88v2.79h11.03v4.74ZM505.12,200.11h-13.26v-85.83l13.26-4.19v90.02Z"/>
          </g>
          <path class="cls-1" d="M271.65,158.37c0,14.38-10.19,24-26.24,24h-55.27c-1.12,17.86-13.54,26.8-37.26,26.8-16.75,0-28.05-5.16-34.05-15.49-4.33-7.4-6.28-18.98-6-35.03l13.12-3.91v12.14c0,21.77,7.54,30.28,27.07,30.28,16.05,0,24-6.28,24-18.98v-41.59l13.26-4.05v38.38h26.93v-41.59l13.26-3.91v45.22h14.23c9.07,0,13.68-4.61,13.68-13.68v-33.77l13.26-4.05v39.22Z"/>
        </g>
        <g>
          <path class="cls-2" d="M210.5,73.78c0,4.06-1.31,7.12-3.95,9.19-2.63,2.07-6.31,3.1-11.03,3.1h-24.26v-7.35h25.85c1.46,0,2.67-.49,3.65-1.46.98-.99,1.47-2.19,1.47-3.6,0-1.34-.49-2.5-1.47-3.5-.98-1-2.2-1.5-3.66-1.5h-13.35c-2.77,0-5.09-.36-6.98-1.1-1.88-.74-3.42-1.68-4.6-2.84-1.18-1.16-2.03-2.46-2.56-3.91-.53-1.44-.79-2.88-.79-4.31,0-1.7.28-3.28.83-4.78.55-1.49,1.43-2.81,2.63-3.95,1.21-1.13,2.75-2.02,4.62-2.67,1.88-.65,4.16-.97,6.82-.97h23.6v7.36h-24.87c-1.46,0-2.72.48-3.77,1.47-1.06.97-1.58,2.1-1.58,3.39,0,1.38.51,2.54,1.55,3.5,1.02.96,2.31,1.44,3.88,1.44h13.13c4.58,0,8.19,1.04,10.86,3.1,2.66,2.07,4,5.11,4,9.12v.27Z"/>
          <path class="cls-2" d="M253.77,86.07l-13.26-33.39c-.14-.4-.38-.69-.72-.87-.32-.18-.68-.27-1.1-.27-.9,0-1.5.38-1.81,1.13l-13.27,33.39h-8.82l14.7-36.53c.7-1.82,1.87-3.18,3.51-4.07,1.63-.89,3.53-1.33,5.69-1.33s4,.44,5.66,1.33c1.66.89,2.84,2.25,3.54,4.07l14.7,36.53h-8.82Z"/>
          <path class="cls-2" d="M157.25,86.07l-13.27-33.39c-.15-.4-.38-.69-.72-.87-.32-.18-.68-.27-1.1-.27-.9,0-1.5.38-1.81,1.13l-13.26,33.39h-8.82l14.7-36.53c.71-1.82,1.88-3.18,3.51-4.07,1.63-.89,3.53-1.33,5.69-1.33s4,.44,5.66,1.33c1.66.89,2.84,2.25,3.55,4.07l14.7,36.53h-8.82Z"/>
          <path class="cls-2" d="M308.51,73.78c0,4.06-1.32,7.12-3.94,9.19-2.63,2.07-6.31,3.1-11.03,3.1h-24.28v-7.35h25.86c1.46,0,2.68-.49,3.66-1.46.98-.99,1.47-2.19,1.47-3.6,0-1.34-.49-2.5-1.47-3.5-.98-1-2.2-1.5-3.66-1.5h-13.35c-2.77,0-5.1-.36-6.98-1.1-1.89-.74-3.42-1.68-4.6-2.84-1.19-1.16-2.04-2.46-2.56-3.91-.53-1.44-.79-2.88-.79-4.31,0-1.7.27-3.28.83-4.78.55-1.49,1.43-2.81,2.63-3.95,1.2-1.13,2.74-2.02,4.63-2.67,1.88-.65,4.15-.97,6.82-.97h23.59v7.36h-24.88c-1.46,0-2.71.48-3.77,1.47-1.05.97-1.58,2.1-1.58,3.39,0,1.38.51,2.54,1.54,3.5,1.04.96,2.33,1.44,3.89,1.44h13.12c4.58,0,8.2,1.04,10.87,3.1,2.66,2.07,4,5.11,4,9.12v.27Z"/>
        </g>
        <g>
          <path class="cls-2" d="M95.96,245.26c-.31,0-.62,0-.95-.03-2.39-.11-3.51-.76-4.77-2.58-.93-1.32-1.91-3.03-2.72-4.41-.51-.81-.98-1.15-2.33-1.15h-.81v4.41c0,2.36.25,2.55,2.47,2.72v.81h-7.58v-.81c2.27-.17,2.53-.37,2.53-2.72v-11.2c0-2.36-.25-2.5-2.41-2.69v-.81h7.13c2.13,0,3.51.25,4.57.98,1.15.73,1.88,1.96,1.88,3.68,0,2.41-1.51,3.87-3.56,4.77.48.9,1.63,2.78,2.47,4.04,1.01,1.49,1.6,2.25,2.25,2.95.73.79,1.35,1.12,1.96,1.29l-.11.76ZM85.6,236.14c1.38,0,2.3-.22,3-.79,1.04-.84,1.49-1.96,1.49-3.45,0-3.03-1.94-4.15-3.96-4.15-.81,0-1.26.11-1.49.28-.2.17-.28.48-.28,1.21v6.9h1.24Z"/>
          <path class="cls-2" d="M115.2,240.57c-.14.98-.73,3.59-.95,4.46h-13.7v-.81c2.53-.2,2.78-.42,2.78-2.72v-11.09c0-2.5-.25-2.61-2.39-2.81v-.81h12.63c0,.67.14,2.58.25,4.07l-.87.14c-.25-1.15-.56-1.82-.93-2.38-.42-.62-1.18-.81-3.12-.81h-1.99c-.9,0-.98.08-.98.93v6.32h2.53c2.5,0,2.69-.22,3.03-2.11h.84v5.42h-.84c-.36-1.99-.59-2.16-3.03-2.16h-2.53v5.19c0,1.32.17,1.96.67,2.3.53.34,1.52.34,2.86.34,2.02,0,2.83-.22,3.45-.93.51-.59,1.01-1.54,1.43-2.67l.84.14Z"/>
          <path class="cls-2" d="M131.56,245.03v-.81c1.74-.22,1.96-.48,1.6-1.6-.34-1.07-.87-2.5-1.46-4.13h-5.89c-.42,1.21-.81,2.36-1.18,3.51-.56,1.71-.36,1.99,1.74,2.22v.81h-6.15v-.81c1.82-.25,2.19-.45,3.17-2.92l5.78-14.65.98-.28c1.74,4.83,3.62,10.1,5.42,14.96.87,2.41,1.26,2.69,3.09,2.89v.81h-7.1ZM128.89,230.3h-.08c-.87,2.33-1.71,4.69-2.55,6.96h5.02l-2.39-6.96Z"/>
          <path class="cls-2" d="M157.93,240.57c-.17.93-.76,3.62-1.01,4.46h-12.88v-.81c2.36-.17,2.61-.37,2.61-2.75v-11.14c0-2.39-.2-2.53-2.47-2.72v-.81h7.55v.81c-2.19.17-2.47.31-2.47,2.72v11.06c0,1.49.14,2.02.67,2.3.53.31,1.46.34,2.58.34,1.49,0,2.44-.14,3.09-.87.51-.56,1.01-1.46,1.46-2.78l.87.2Z"/>
          <path class="cls-2" d="M187.87,240.57c-.14.98-.73,3.59-.95,4.46h-13.7v-.81c2.53-.2,2.78-.42,2.78-2.72v-11.09c0-2.5-.25-2.61-2.39-2.81v-.81h12.63c0,.67.14,2.58.25,4.07l-.87.14c-.25-1.15-.56-1.82-.93-2.38-.42-.62-1.18-.81-3.12-.81h-1.99c-.9,0-.98.08-.98.93v6.32h2.53c2.5,0,2.69-.22,3.03-2.11h.84v5.42h-.84c-.36-1.99-.59-2.16-3.03-2.16h-2.53v5.19c0,1.32.17,1.96.67,2.3.53.34,1.52.34,2.86.34,2.02,0,2.83-.22,3.45-.93.51-.59,1.01-1.54,1.43-2.67l.84.14Z"/>
          <path class="cls-2" d="M203.16,231.11c-.51-1.77-1.32-3.76-3.7-3.76-2.05,0-3.06,1.49-3.06,3.03,0,1.97,1.29,2.92,3.56,4.07,2.33,1.18,4.86,2.53,4.86,5.61s-2.53,5.39-6.34,5.39c-1.12,0-2.05-.2-2.75-.42-.73-.22-1.15-.45-1.46-.59-.22-.62-.59-3-.76-4.43l.87-.22c.45,1.74,1.77,4.63,4.63,4.63,2.05,0,3.28-1.29,3.28-3.28s-1.49-3-3.59-4.13c-1.99-1.04-4.69-2.47-4.69-5.56,0-2.75,2.22-5.08,5.89-5.08,1.4,0,2.64.37,3.59.67.11,1.01.28,2.13.51,3.9l-.84.17Z"/>
          <path class="cls-2" d="M225.35,231.22c-.31-1.37-.59-2.11-.95-2.58-.48-.62-.95-.84-3-.84h-1.85v13.72c0,2.25.22,2.53,2.86,2.7v.81h-8.25v-.81c2.53-.17,2.75-.45,2.75-2.7v-13.72h-1.6c-2.33,0-2.89.25-3.26.87-.34.48-.62,1.29-.93,2.55h-.87c.11-1.74.28-3.62.34-5.14h.59c.39.65.76.7,1.54.7h11.14c.76,0,1.01-.17,1.43-.7h.62c0,1.26.14,3.4.28,5.05l-.84.08Z"/>
          <path class="cls-2" d="M240.59,245.03v-.81c1.74-.22,1.96-.48,1.6-1.6-.34-1.07-.87-2.5-1.46-4.13h-5.89c-.42,1.21-.81,2.36-1.18,3.51-.56,1.71-.37,1.99,1.74,2.22v.81h-6.15v-.81c1.82-.25,2.19-.45,3.17-2.92l5.78-14.65.98-.28c1.74,4.83,3.62,10.1,5.42,14.96.87,2.41,1.26,2.69,3.09,2.89v.81h-7.1ZM237.92,230.3h-.08c-.87,2.33-1.71,4.69-2.55,6.96h5.02l-2.39-6.96Z"/>
          <path class="cls-2" d="M266.12,231.22c-.31-1.37-.59-2.11-.95-2.58-.48-.62-.95-.84-3-.84h-1.85v13.72c0,2.25.22,2.53,2.86,2.7v.81h-8.25v-.81c2.53-.17,2.75-.45,2.75-2.7v-13.72h-1.6c-2.33,0-2.89.25-3.26.87-.34.48-.62,1.29-.93,2.55h-.87c.11-1.74.28-3.62.34-5.14h.59c.39.65.76.7,1.54.7h11.14c.76,0,1.01-.17,1.43-.7h.62c0,1.26.14,3.4.28,5.05l-.84.08Z"/>
          <path class="cls-2" d="M287.02,240.57c-.14.98-.73,3.59-.96,4.46h-13.7v-.81c2.53-.2,2.78-.42,2.78-2.72v-11.09c0-2.5-.25-2.61-2.38-2.81v-.81h12.63c0,.67.14,2.58.25,4.07l-.87.14c-.25-1.15-.56-1.82-.93-2.38-.42-.62-1.18-.81-3.12-.81h-1.99c-.9,0-.98.08-.98.93v6.32h2.53c2.5,0,2.69-.22,3.03-2.11h.84v5.42h-.84c-.36-1.99-.59-2.16-3.03-2.16h-2.53v5.19c0,1.32.17,1.96.67,2.3.53.34,1.51.34,2.86.34,2.02,0,2.84-.22,3.45-.93.5-.59,1.01-1.54,1.43-2.67l.84.14Z"/>
        </g>
      </g>
    </g>
  </g>
</svg>